<svg width="36" height="36" viewBox="0 0 36 36" fill="none" xmlns="http://www.w3.org/2000/svg">
<path d="M17.819 4.96627C17.8695 5.01715 17.9382 5.04589 18.01 5.04619C18.0457 5.04622 18.0811 5.03917 18.1141 5.02545C18.1472 5.01174 18.1771 4.99162 18.2023 4.96627L19.9065 3.26075C19.9316 3.23544 19.9515 3.20542 19.965 3.17241C19.9784 3.1394 19.9853 3.10405 19.9851 3.06839C19.9851 2.99685 19.9569 2.92818 19.9065 2.87739L19.6938 2.66471C19.4622 2.43037 19.1836 2.24767 18.8763 2.1286C18.5691 2.00953 18.2401 1.95679 17.9111 1.97383C17.5611 1.99269 17.219 2.0845 16.9066 2.24337C16.5943 2.40224 16.3186 2.62466 16.0972 2.89635C16.0544 2.94812 16.0324 3.01393 16.0354 3.08101C16.0384 3.14808 16.0662 3.21166 16.1135 3.2594L17.819 4.96627Z" fill="#F04E69"/>
<path d="M33.3965 22.3389L31.4255 20.3692C31.3737 20.3203 31.3051 20.293 31.2338 20.293C31.1625 20.293 31.094 20.3203 31.0421 20.3692L24.5046 26.9068C23.4475 27.9662 22.2057 28.8233 20.8402 29.4359C20.8001 29.4538 20.765 29.4812 20.7378 29.5157C20.7106 29.5502 20.6922 29.5908 20.6842 29.634C20.6762 29.6772 20.6788 29.7217 20.6919 29.7637C20.7049 29.8056 20.7279 29.8438 20.7589 29.8748L23.3111 32.4257C23.5321 32.6461 23.8314 32.7699 24.1436 32.7699C24.4557 32.7699 24.7551 32.6461 24.976 32.4257L33.3965 24.0038C33.617 23.7828 33.7408 23.4834 33.7408 23.1713C33.7408 22.8592 33.617 22.5598 33.3965 22.3389Z" fill="#F04E69"/>
<path d="M30.8896 18.7244H30.8964C32.0004 17.535 31.6604 16.1506 30.8788 15.3716C30.6271 15.1137 30.3202 14.9163 29.981 14.7945C29.6419 14.6727 29.2795 14.6297 28.9213 14.6686C29.6975 13.5605 29.3534 12.3508 28.6422 11.6396C28.39 11.382 28.0828 11.1849 27.7435 11.0631C27.4042 10.9414 27.0418 10.8981 26.6834 10.9365C27.4596 9.82703 27.1155 8.61867 26.4043 7.90748C26.1522 7.64983 25.8449 7.45262 25.5057 7.33062C25.1665 7.20862 24.804 7.16501 24.4455 7.20306C25.2217 6.09495 24.8763 4.88524 24.1651 4.1754C23.3834 3.39376 21.9976 3.0551 20.8055 4.16592L19.1 5.87007C19.0748 5.89524 19.0548 5.92512 19.0412 5.95801C19.0276 5.9909 19.0206 6.02615 19.0206 6.06176C19.0206 6.09736 19.0276 6.13262 19.0412 6.16551C19.0548 6.1984 19.0748 6.22828 19.1 6.25344L20.5901 7.74357C21.5384 8.67286 21.8811 10.0194 21.491 11.3483C21.1008 12.6772 20.093 13.6241 18.7925 13.8896C18.7425 13.9014 18.6968 13.9271 18.6608 13.9638C18.6248 14.0005 18.6 14.0466 18.5893 14.0969C18.4381 14.7739 18.0975 15.394 17.6072 15.8847C17.117 16.3755 16.4973 16.7167 15.8204 16.8685C15.7676 16.8788 15.7191 16.9044 15.681 16.9423C15.6429 16.9802 15.6169 17.0285 15.6064 17.0812C15.4552 17.7594 15.114 18.3805 14.6227 18.8719C14.1313 19.3632 13.5102 19.7044 12.832 19.8555C12.7799 19.8658 12.7319 19.8912 12.6941 19.9286C12.6563 19.9659 12.6303 20.0135 12.6193 20.0655C12.4759 20.7032 12.1642 21.2907 11.7167 21.7671C11.2693 22.2435 10.7023 22.5912 10.0748 22.7742C9.4474 22.9571 8.78238 22.9686 8.14899 22.8075C7.51559 22.6463 6.93695 22.3183 6.47326 21.8577L4.98314 20.3676C4.95794 20.3423 4.92796 20.3221 4.89495 20.3084C4.86193 20.2947 4.82653 20.2877 4.79078 20.2877C4.71904 20.288 4.65035 20.3167 4.59977 20.3676L2.62469 22.3386C2.5152 22.4479 2.42834 22.5776 2.36907 22.7204C2.3098 22.8633 2.2793 23.0164 2.2793 23.1711C2.2793 23.3257 2.3098 23.4789 2.36907 23.6217C2.42834 23.7645 2.5152 23.8943 2.62469 24.0035L11.0493 32.4268C11.2706 32.6466 11.5698 32.7699 11.8817 32.7699C12.1936 32.7699 12.4929 32.6466 12.7142 32.4268L15.88 29.2542C18.7819 29.231 21.5571 28.0625 23.6015 26.003C26.6834 22.9333 30.8896 18.7244 30.8896 18.7244Z" fill="#F04E69"/>
<path d="M7.36802 20.965L7.37479 20.9731C7.59321 21.1975 7.85464 21.3755 8.14344 21.4965C8.43224 21.6175 8.74248 21.6791 9.0556 21.6774C9.36873 21.6758 9.6783 21.611 9.96581 21.487C10.2533 21.3629 10.5129 21.1822 10.7289 20.9555C11.0409 20.655 11.2631 20.2736 11.3708 19.854C11.4784 19.4344 11.4673 18.9931 11.3385 18.5795C11.7524 18.6997 12.191 18.7067 12.6086 18.5998C13.0261 18.4929 13.4074 18.276 13.7126 17.9716C14.0178 17.6672 14.2357 17.2866 14.3438 16.8693C14.4518 16.4521 14.446 16.0135 14.3269 15.5992C14.7404 15.7185 15.1783 15.7248 15.595 15.6174C16.0118 15.51 16.3921 15.2928 16.6964 14.9885C17.0008 14.6842 17.2179 14.3039 17.3253 13.8871C17.4327 13.4704 17.4264 13.0325 17.3071 12.619C17.7211 12.7472 18.1626 12.758 18.5824 12.6501C19.0021 12.5422 19.3837 12.32 19.6846 12.008C20.4648 11.2277 20.8035 9.84057 19.694 8.64847L15.2237 4.16998C14.8032 3.74985 14.241 3.50202 13.6473 3.4751C13.0535 3.44819 12.4711 3.64414 12.0144 4.0245C11.5577 4.40487 11.2596 4.94218 11.1787 5.531C11.0978 6.11982 11.2398 6.71763 11.5769 7.20712C11.2183 7.1694 10.8558 7.21357 10.5167 7.33629C10.1777 7.45901 9.87086 7.65709 9.61946 7.9156C8.90962 8.6268 8.56689 9.8338 9.34853 10.9406C8.98946 10.9014 8.62619 10.9443 8.28615 11.0661C7.94611 11.1879 7.63818 11.3854 7.38563 11.6436C6.67443 12.3548 6.33035 13.5618 7.10793 14.6753C6.74332 14.6349 6.37432 14.6795 6.02979 14.8054C5.68527 14.9314 5.37456 15.1354 5.122 15.4014C4.36204 16.1831 4.03827 17.558 5.1369 18.7352L7.36802 20.965Z" fill="#F04E69"/>
</svg>
