<svg width="36" height="36" viewBox="0 0 36 36" fill="none" xmlns="http://www.w3.org/2000/svg">
<path d="M9.93915 19.0043C11.5182 19.0043 12.7982 17.6571 12.7982 15.9953C12.7982 14.3335 11.5182 12.9863 9.93915 12.9863C8.36013 12.9863 7.08008 14.3335 7.08008 15.9953C7.08008 17.6571 8.36013 19.0043 9.93915 19.0043Z" fill="#F04E69"/>
<path d="M25.8005 19.0043C27.3799 19.0043 28.658 17.6611 28.658 15.9953C28.658 14.3295 27.3784 12.9863 25.799 12.9863C24.2195 12.9863 22.9414 14.3295 22.9414 15.9953C22.9414 17.6611 24.221 19.0043 25.8005 19.0043Z" fill="#F04E69"/>
<path d="M17.8688 21.268C19.4479 21.268 20.7279 19.9208 20.7279 18.259C20.7279 16.5972 19.4479 15.25 17.8688 15.25C16.2898 15.25 15.0098 16.5972 15.0098 18.259C15.0098 19.9208 16.2898 21.268 17.8688 21.268Z" fill="#F04E69"/>
<path d="M18.4 21.9707H17.2597C12.3139 21.9707 10.5542 32.2955 11.8989 32.7695C11.9742 32.7967 12.0536 32.811 12.1337 32.8119C13.2422 32.8119 13.4693 29.6954 14.5263 27.3345C14.5366 27.3073 14.5551 27.2839 14.5793 27.2677C14.6034 27.2514 14.632 27.243 14.6611 27.2436C14.6859 27.2439 14.7105 27.2485 14.7338 27.2573C14.7898 27.2754 14.8246 27.3557 14.8428 27.489C14.8428 27.489 13.8752 31.8593 14.4279 32.9073C14.8534 33.7144 16.2269 34.0006 17.8988 34.0006C19.6917 34.0006 21.1288 33.8325 21.4529 32.7059C21.7028 31.8381 21.1092 29.0018 20.9774 27.7782C21.0013 27.7616 21.028 27.7493 21.0562 27.7419C21.0764 27.7362 21.0972 27.7331 21.1182 27.7328C21.1465 27.7316 21.1745 27.7383 21.1992 27.7522C21.2238 27.7662 21.244 27.7867 21.2576 27.8115C22.4872 30.0164 22.469 32.8164 23.5154 32.8164C23.6013 32.8151 23.6863 32.7993 23.7668 32.7695C25.1055 32.2955 23.4064 21.9707 18.4 21.9707Z" fill="#F04E69"/>
<path d="M26.3279 19.709H25.1891C23.3885 19.709 21.9741 20.7963 20.9277 22.2834C23.0569 23.8371 24.1911 27.1747 24.5622 29.375C24.6803 30.0686 24.7954 31.0257 24.7136 31.8267C25.1194 31.7843 25.498 31.7389 25.813 31.7389C27.6302 31.7253 28.8069 31.321 29.4474 30.3321C29.9426 29.5749 29.1445 26.4826 28.8841 25.518C28.9081 25.5012 28.9347 25.4884 28.9628 25.4801C28.9994 25.4675 29.039 25.4675 29.0756 25.4802C29.1121 25.4928 29.1433 25.5173 29.1642 25.5498C30.5817 27.4912 30.7967 30.9711 32.1111 30.5077C33.4725 30.0338 31.1359 19.709 26.3279 19.709Z" fill="#F04E69"/>
<path d="M17.3403 12.3603C17.466 12.4784 17.6053 12.6117 17.7734 12.6117C17.9415 12.6117 18.0762 12.4784 18.2065 12.3603C18.5881 11.8651 21.8333 8.57447 22.2952 7.89756C23.0917 6.86781 23.4643 5.89106 23.4643 4.82496C23.4643 3.78915 23.1932 2.8336 22.592 2.13398C22.3276 1.80076 21.9895 1.53339 21.6043 1.35288C21.2191 1.17236 20.7973 1.08362 20.372 1.09362C19.7007 1.06929 19.0434 1.28876 18.5214 1.71147C18.2337 1.95376 17.9818 2.23572 17.7734 2.5489C17.5645 2.23607 17.3127 1.95416 17.0253 1.71147C16.5041 1.28946 15.848 1.07003 15.1778 1.09362C14.7529 1.08237 14.3311 1.16977 13.9457 1.34897C13.5602 1.52816 13.2215 1.79427 12.9562 2.1264C12.3505 2.82603 12.084 3.78158 12.084 4.81739C12.084 5.87743 12.455 6.86023 13.2531 7.88999C13.7119 8.56084 16.9586 11.8576 17.3403 12.3603Z" fill="#F04E69"/>
<path d="M25.7363 5.0133C25.7363 5.12736 25.7816 5.23675 25.8623 5.31741C25.9429 5.39806 26.0523 5.44337 26.1664 5.44337H26.8524C26.9109 5.44685 26.9695 5.43833 27.0246 5.41832C27.0798 5.39832 27.1302 5.36726 27.1729 5.32705C27.2155 5.28685 27.2495 5.23834 27.2728 5.18452C27.296 5.13069 27.308 5.07268 27.308 5.01406C27.308 4.95543 27.296 4.89742 27.2728 4.8436C27.2495 4.78977 27.2155 4.74127 27.1729 4.70106C27.1302 4.66085 27.0798 4.62979 27.0246 4.60979C26.9695 4.58979 26.9109 4.58126 26.8524 4.58474H26.1664C26.0526 4.58474 25.9434 4.62984 25.8628 4.71017C25.7822 4.7905 25.7367 4.8995 25.7363 5.0133Z" fill="#F04E69"/>
<path d="M24.8995 7.71791C24.82 7.79865 24.7754 7.90744 24.7754 8.02078C24.7754 8.13411 24.82 8.2429 24.8995 8.32365L25.3856 8.80823C25.4668 8.88419 25.5743 8.92562 25.6855 8.92376C25.7967 8.92191 25.9028 8.87692 25.9814 8.7983C26.06 8.71968 26.105 8.61358 26.1069 8.50241C26.1087 8.39124 26.0673 8.2837 25.9913 8.2025L25.5052 7.7164C25.4247 7.63633 25.3156 7.59151 25.2021 7.5918C25.0885 7.59208 24.9797 7.63744 24.8995 7.71791Z" fill="#F04E69"/>
<path d="M25.5083 2.3112L25.9944 1.82661C26.0631 1.74417 26.0985 1.63899 26.0937 1.53175C26.0888 1.42451 26.0441 1.32297 25.9682 1.24706C25.8923 1.17115 25.7907 1.12638 25.6835 1.12153C25.5762 1.11669 25.4711 1.15212 25.3886 1.22087L24.9025 1.70546C24.8338 1.7879 24.7983 1.89308 24.8032 2.00032C24.808 2.10755 24.8528 2.20911 24.9287 2.28501C25.0046 2.36092 25.1062 2.40569 25.2134 2.41054C25.3206 2.41538 25.4258 2.37995 25.5083 2.3112Z" fill="#F04E69"/>
<path d="M8.59804 5.44413H9.28555C9.39961 5.44413 9.50901 5.39882 9.58966 5.31816C9.67031 5.23751 9.71562 5.12812 9.71562 5.01406C9.71562 4.89999 9.67031 4.7906 9.58966 4.70995C9.50901 4.6293 9.39961 4.58398 9.28555 4.58398H8.59804C8.48398 4.58398 8.37459 4.6293 8.29393 4.70995C8.21328 4.7906 8.16797 4.89999 8.16797 5.01406C8.16797 5.12812 8.21328 5.23751 8.29393 5.31816C8.37459 5.39882 8.48398 5.44413 8.59804 5.44413Z" fill="#F04E69"/>
<path d="M9.94135 2.3112C9.97962 2.35708 10.027 2.39449 10.0806 2.42104C10.1341 2.44759 10.1925 2.46269 10.2522 2.46539C10.3119 2.46809 10.3715 2.45832 10.4272 2.4367C10.4829 2.41509 10.5335 2.38211 10.5758 2.33986C10.618 2.29762 10.651 2.24703 10.6726 2.19133C10.6942 2.13562 10.704 2.07603 10.7013 2.01634C10.6986 1.95666 10.6835 1.89819 10.6569 1.84466C10.6304 1.79113 10.593 1.74373 10.5471 1.70546L10.061 1.22087C9.97854 1.15212 9.87337 1.11669 9.76613 1.12153C9.65889 1.12638 9.55734 1.17115 9.48143 1.24706C9.40553 1.32297 9.36075 1.42451 9.35591 1.53175C9.35106 1.63899 9.3865 1.74417 9.45525 1.82661L9.94135 2.3112Z" fill="#F04E69"/>
<path d="M9.94154 7.71757L9.45543 8.20367C9.37948 8.28487 9.33805 8.39241 9.3399 8.50358C9.34176 8.61476 9.38674 8.72085 9.46537 8.79948C9.54399 8.8781 9.65009 8.92308 9.76126 8.92494C9.87243 8.92679 9.97997 8.88537 10.0612 8.80941L10.5473 8.32482C10.5932 8.28656 10.6306 8.23915 10.6571 8.18562C10.6837 8.1321 10.6988 8.07363 10.7015 8.01394C10.7042 7.95425 10.6944 7.89466 10.6728 7.83896C10.6512 7.78325 10.6182 7.73267 10.5759 7.69042C10.5337 7.64817 10.4831 7.61519 10.4274 7.59358C10.3717 7.57196 10.3121 7.56219 10.2524 7.56489C10.1927 7.56759 10.1343 7.58269 10.0807 7.60924C10.0272 7.63579 9.9798 7.6732 9.94154 7.71908V7.71757Z" fill="#F04E69"/>
<path d="M12.9855 24.2617C13.4431 23.5012 14.0395 22.8334 14.7436 22.2931C13.6957 20.7999 12.2768 19.7051 10.4701 19.7051H9.33136C4.27498 19.7051 2.1867 30.0299 3.53143 30.5023C4.84588 30.9657 4.99277 27.666 6.59797 25.0689C6.61605 25.0318 6.64756 25.003 6.68611 24.9884C6.72466 24.9738 6.76733 24.9744 6.80544 24.9901C6.86147 25.0083 6.89478 25.0886 6.91447 25.2233C6.91447 25.2233 5.31684 30.1343 6.1467 30.9778C7.20674 32.0606 8.81345 31.735 9.97192 31.735C10.3036 31.735 10.6291 31.7259 10.9411 31.7108C10.9047 30.9468 10.955 30.1813 11.091 29.4287C11.4196 27.5388 12.1071 25.6564 12.9855 24.2617Z" fill="#F04E69"/>
</svg>
