<svg width="37" height="36" viewBox="0 0 37 36" fill="none" xmlns="http://www.w3.org/2000/svg">
<path d="M3.36914 32.0134C3.36914 32.1312 3.39238 32.248 3.43753 32.3569C3.48269 32.4658 3.54886 32.5647 3.63228 32.648C3.7157 32.7313 3.81472 32.7973 3.92368 32.8423C4.03264 32.8873 4.1494 32.9103 4.26728 32.9102H18.6266C18.7474 32.9148 18.8679 32.8951 18.9809 32.8521C19.0939 32.8091 19.197 32.7438 19.2841 32.66C19.3713 32.5762 19.4406 32.4757 19.4879 32.3644C19.5352 32.2532 19.5597 32.1336 19.5597 32.0127C19.5597 31.8918 19.5352 31.7722 19.4879 31.6609C19.4406 31.5497 19.3713 31.4492 19.2841 31.3654C19.197 31.2816 19.0939 31.2162 18.9809 31.1733C18.8679 31.1303 18.7474 31.1105 18.6266 31.1152H17.6391C17.431 30.1026 16.8801 29.1927 16.0794 28.5388C15.2787 27.8849 14.277 27.527 13.2432 27.5254H9.65204C8.61824 27.527 7.61659 27.8849 6.81587 28.5388C6.01514 29.1927 5.46431 30.1026 5.25618 31.1152H4.26863C4.15052 31.1149 4.03351 31.1379 3.9243 31.1828C3.8151 31.2278 3.71586 31.294 3.63228 31.3774C3.5487 31.4609 3.48243 31.56 3.43727 31.6691C3.39212 31.7783 3.36896 31.8953 3.36914 32.0134Z" fill="#F04E69"/>
<path d="M16.9883 20.1521L29.4051 32.1219C29.9139 32.6044 30.5908 32.8693 31.292 32.8602C31.9931 32.8512 32.663 32.5689 33.1592 32.0734C33.6554 31.578 33.9386 30.9084 33.9487 30.2073C33.9587 29.5062 33.6948 28.8288 33.213 28.3194L20.7949 16.3496L16.9883 20.1521Z" fill="#F04E69"/>
<path d="M14.8809 4.97987L22.9871 13.0861L23.7159 12.7217C24.2102 12.475 24.639 12.1149 24.9675 11.6708C25.2959 11.2267 25.5146 10.7112 25.6058 10.1664C25.6969 9.62164 25.6579 9.06301 25.4919 8.53618C25.3259 8.00935 25.0376 7.52926 24.6506 7.13513L20.8427 3.32854C20.4535 2.92994 19.9736 2.63134 19.4441 2.45821C18.9146 2.28508 18.351 2.24254 17.8015 2.33423C17.2632 2.42119 16.7535 2.63563 16.315 2.95965C15.8764 3.28367 15.5217 3.70788 15.2805 4.19688L14.8809 4.97987Z" fill="#F04E69"/>
<path d="M6.54883 13.333L14.6402 21.423L22.4444 13.6297L14.3381 5.52344L6.54883 13.333Z" fill="#F04E69"/>
<path d="M4.30559 19.7842L8.14604 23.6246C8.7739 24.2499 9.62383 24.6011 10.5099 24.6013C10.7046 24.6011 10.899 24.5848 11.0911 24.5526C11.6628 24.4569 12.2042 24.2287 12.6718 23.8862C13.1395 23.5437 13.5204 23.0964 13.7841 22.5802L14.0984 21.9625L6.00704 13.8711L5.37171 14.1976C4.85838 14.4655 4.41471 14.8496 4.07605 15.3192C3.73738 15.7889 3.51308 16.3311 3.421 16.9028C3.33047 17.4188 3.36343 17.9489 3.51719 18.4497C3.67094 18.9506 3.94112 19.4079 4.30559 19.7842Z" fill="#F04E69"/>
</svg>
