<svg width="37" height="36" viewBox="0 0 37 36" fill="none" xmlns="http://www.w3.org/2000/svg">
<path d="M12.798 21.3808C10.9555 18.9562 10.5912 18.0646 9.53816 16.9795C8.74264 16.1566 7.04034 17.5709 7.99131 20.0169C8.17114 20.4741 9.76523 22.8713 9.58845 23.0161C9.41167 23.1608 6.46275 21.076 5.57274 18.7138C4.84732 16.786 4.51662 14.3644 3.53517 13.2534C3.01701 12.6667 1.99746 12.2247 1.45188 13.0141C1.21566 13.3555 1.67743 18.6133 3.43306 22.1779C3.76377 22.8469 3.91159 23.0648 4.7376 23.9868C6.6822 26.1524 6.74164 26.2728 8.95447 28.4841C9.92525 29.4564 9.58235 33.0439 9.95573 33.4173C10.3291 33.7907 15.8993 33.9217 16.3062 33.5179C16.7131 33.114 17.5467 28.1062 16.7466 26.317C16.1873 25.0491 14.1939 23.2172 12.798 21.3808Z" fill="#F04E69"/>
<path d="M35.8242 13.0141C35.2786 12.2247 34.259 12.6667 33.7409 13.2534C32.7579 14.3644 32.4287 16.786 31.7033 18.7138C30.8118 21.076 27.8644 23.1608 27.6876 23.0161C27.5108 22.8713 29.1049 20.4771 29.2832 20.0169C30.2357 17.5785 28.5334 16.1566 27.7363 16.9795C26.6848 18.0646 26.3206 18.9607 24.4781 21.3808C23.0806 23.2096 21.0887 25.0491 20.5157 26.317C19.7156 28.1062 20.5523 33.114 20.9561 33.5179C21.36 33.9217 26.9317 33.7922 27.3051 33.4173C27.6784 33.0424 27.3355 29.4549 28.3063 28.4841C30.5207 26.2713 30.5801 26.1524 32.5247 23.9868C33.3507 23.0648 33.4985 22.8469 33.8277 22.1779C35.5956 18.6133 36.0573 13.3555 35.8242 13.0141Z" fill="#F04E69"/>
<path d="M21.3176 14.038C22.8801 14.0364 24.3781 13.415 25.4829 12.3102C26.5878 11.2053 27.2092 9.70728 27.2108 8.14478V6.98045C27.2108 6.71288 27.1045 6.45627 26.9153 6.26707C26.7261 6.07787 26.4695 5.97158 26.2019 5.97158H23.6919C22.1876 5.9705 20.7402 6.54714 19.6488 7.58243C19.3913 6.18343 18.6527 4.91852 17.5609 4.00674C16.469 3.09497 15.0927 2.59373 13.6702 2.58984H10.3951C10.0407 2.58984 9.70071 2.73066 9.45006 2.98131C9.19941 3.23196 9.05859 3.57191 9.05859 3.92638V5.42142C9.06061 7.0331 9.70174 8.57819 10.8414 9.71783C11.981 10.8575 13.5261 11.4986 15.1378 11.5006H17.436V19.7073C17.436 20.0141 17.5578 20.3083 17.7748 20.5252C17.9917 20.7421 18.2859 20.864 18.5927 20.864C18.8994 20.864 19.1937 20.7421 19.4106 20.5252C19.6275 20.3083 19.7494 20.0141 19.7494 19.7073V14.038H21.3176Z" fill="#F04E69"/>
</svg>
