<svg width="37" height="36" viewBox="0 0 37 36" fill="none" xmlns="http://www.w3.org/2000/svg">
<path d="M18.4987 32C18.0572 32 17.6893 31.6508 17.3576 31.3386C16.3516 30.0516 7.79814 21.4577 6.57679 19.7103C4.47655 17.0278 3.5 14.4841 3.5 11.705C3.5 9.00529 4.21034 6.51587 5.79823 4.69444C7.40351 2.84921 9.25493 2 11.6521 2C13.4434 2 15.0848 2.43122 16.5282 3.61376C17.2872 4.24326 17.9511 4.97688 18.5 5.79233C19.0489 4.97688 19.7129 4.24326 20.4718 3.61376C21.9166 2.43122 23.5566 2 25.3479 2C27.7451 2 29.5952 2.84921 31.2018 4.69444C32.7897 6.5172 33.5 9.00662 33.5 11.705C33.5 14.4828 32.5221 17.0278 30.4232 19.7103C29.2032 21.4577 20.6484 30.0516 19.6438 31.3386C19.3093 31.6481 18.9374 32 18.4987 32Z" fill="#F04E69"/>
</svg>
