<svg width="24" height="25" viewBox="0 0 24 25" fill="none" xmlns="http://www.w3.org/2000/svg">
<path d="M24 19.2783H0C0.384063 15.2104 2.70934 11.7355 6.14239 9.87528L4.15153 6.42655C4.03919 6.23321 4.10451 5.98762 4.29784 5.87528C4.49118 5.76293 4.73677 5.82825 4.84912 6.02159L6.8661 9.51473C8.40496 8.81192 10.1372 8.42002 12 8.42002C13.8628 8.42002 15.595 8.81192 17.1339 9.51473L19.1509 6.02159C19.2606 5.82825 19.5088 5.76293 19.6995 5.87528C19.8903 5.98762 19.9582 6.23321 19.8459 6.42655L17.855 9.87528C21.2907 11.7355 23.6159 15.2104 24 19.2783ZM17.5075 15.9079C18.064 15.9079 18.516 15.4559 18.5134 14.9021C18.5134 14.3482 18.064 13.8962 17.5075 13.8962C16.9536 13.8962 16.5016 14.3456 16.5016 14.9021C16.5016 15.4559 16.951 15.9079 17.5075 15.9079ZM6.48988 15.9079C7.04637 15.9079 7.49837 15.4559 7.49575 14.9021C7.49575 14.3482 7.04637 13.8962 6.48988 13.8962C5.93599 13.8962 5.484 14.3456 5.484 14.9021C5.484 15.4559 5.93338 15.9079 6.48988 15.9079Z" fill="white"/>
</svg>
