<svg width="37" height="36" viewBox="0 0 37 36" fill="none" xmlns="http://www.w3.org/2000/svg">
<path d="M10.3079 15.8661L18.2164 11.1165C18.2766 11.0813 18.3452 11.0628 18.4149 11.0628C18.4847 11.0628 18.5532 11.0813 18.6135 11.1165L26.8894 15.9017C27.0491 15.9924 27.2297 16.0398 27.4133 16.0392C27.597 16.0385 27.7773 15.99 27.9363 15.8982C28.0954 15.8065 28.2277 15.6747 28.3202 15.5161C28.4127 15.3574 28.4621 15.1774 28.4635 14.9937V13.7729C28.4633 13.5895 28.4152 13.4094 28.3239 13.2503C28.2326 13.0913 28.1014 12.9588 27.9432 12.8661L18.9466 7.61155C18.7835 7.51644 18.5977 7.46712 18.4089 7.46879C18.2201 7.47046 18.0352 7.52305 17.8738 7.62103L9.22098 12.8673C9.06702 12.9612 8.93968 13.093 8.85108 13.25C8.76248 13.4071 8.71558 13.5842 8.71484 13.7646V14.9677C8.71712 15.1525 8.76785 15.3334 8.86197 15.4925C8.95609 15.6516 9.0903 15.7831 9.25119 15.8741C9.41208 15.965 9.59402 16.0121 9.77884 16.0108C9.96365 16.0094 10.1449 15.9595 10.3044 15.8661H10.3079Z" fill="#F04E69"/>
<path d="M26.159 8.14635C26.1587 7.88468 26.0546 7.63385 25.8694 7.44893C25.6843 7.26402 25.4333 7.16016 25.1717 7.16016H23.5264C23.2648 7.16016 23.0138 7.26402 22.8287 7.44893C22.6435 7.63385 22.5394 7.88468 22.5391 8.14635V8.83976L26.159 10.9544V8.14635Z" fill="#F04E69"/>
<path d="M6.06392 25.1098C6.65658 25.1098 6.91853 25.3575 7.32154 25.7332C7.79567 26.1718 8.44049 26.774 9.64122 26.774C10.842 26.774 11.4891 26.1718 11.9621 25.7332C12.3651 25.3575 12.6318 25.1098 13.2197 25.1098C13.8076 25.1098 14.0743 25.3575 14.4773 25.7332C14.9515 26.1718 15.5963 26.774 16.797 26.774C17.9978 26.774 18.6449 26.1718 19.1179 25.7332C19.5209 25.3575 19.7876 25.1098 20.3755 25.1098C20.9634 25.1098 21.2301 25.3575 21.6343 25.7332C22.1085 26.1718 22.7521 26.774 23.954 26.774H24.0725H24.1271C24.18 26.7737 24.2328 26.7685 24.2847 26.7586C25.278 26.6602 25.8482 26.1303 26.2749 25.7332C26.6791 25.3575 26.9446 25.1098 27.5337 25.1098C28.1228 25.1098 28.3883 25.3575 28.7913 25.7332C29.2655 26.1718 29.9103 26.774 31.1122 26.774C31.3136 26.7661 31.5042 26.6806 31.6439 26.5353C31.7837 26.39 31.8617 26.1962 31.8617 25.9946C31.8617 25.793 31.7837 25.5993 31.6439 25.454C31.5042 25.3087 31.3136 25.2231 31.1122 25.2153C30.5195 25.2153 30.2564 24.9663 29.8534 24.5918C29.3792 24.152 28.7344 23.5499 27.5337 23.5499C27.0549 23.5429 26.582 23.6554 26.1575 23.877V16.3324L18.4174 11.8555L11.0198 16.2992V24.478L10.9012 24.5882C10.497 24.9628 10.2303 25.2117 9.64241 25.2117C9.05449 25.2117 8.78779 24.9628 8.38478 24.5882C7.91065 24.1485 7.26583 23.5463 6.0651 23.5463C5.85825 23.5463 5.65986 23.6285 5.5136 23.7748C5.36733 23.921 5.28516 24.1194 5.28516 24.3263C5.28516 24.5331 5.36733 24.7315 5.5136 24.8778C5.65986 25.024 5.85825 25.1062 6.0651 25.1062L6.06392 25.1098ZM16.771 21.6059H20.0614C20.1488 21.6059 20.2326 21.6407 20.2944 21.7025C20.3562 21.7643 20.3909 21.8481 20.3909 21.9355V23.5475H20.3755C19.1748 23.5475 18.5276 24.1497 18.0558 24.5894C17.6516 24.964 17.3849 25.2129 16.797 25.2129C16.6775 25.2134 16.5582 25.2007 16.4414 25.175V21.939C16.4411 21.8955 16.4494 21.8523 16.4658 21.812C16.4822 21.7717 16.5064 21.735 16.537 21.7041C16.5676 21.6731 16.6041 21.6485 16.6442 21.6317C16.6844 21.6149 16.7274 21.6061 16.771 21.6059Z" fill="#F04E69"/>
<path d="M31.1152 28.4566C30.5226 28.4566 30.2594 28.2089 29.8564 27.8332C29.3823 27.3934 28.7375 26.7924 27.5368 26.7924C26.336 26.7924 25.6888 27.3934 25.2159 27.8332C25.1068 27.9351 25.0085 28.0264 24.9101 28.107C24.2333 28.7115 23.3514 28.3334 23.3514 28.3334C23.1096 28.2012 22.8897 28.0325 22.6994 27.8332C22.2253 27.3934 21.5805 26.7924 20.3798 26.7924C19.179 26.7924 18.5318 27.3946 18.0601 27.8332C17.6559 28.2089 17.3892 28.4566 16.8013 28.4566C16.2133 28.4566 15.9478 28.2089 15.5436 27.8332C15.1584 27.4776 14.657 27.0034 13.8308 26.8481C13.1813 26.6383 12.2721 26.937 12.2721 26.937C11.6463 27.1433 11.2326 27.5297 10.9043 27.8332C10.5001 28.2089 10.2334 28.4566 9.64546 28.4566C9.05754 28.4566 8.79085 28.2089 8.38784 27.8332C7.91371 27.3946 7.26889 26.7924 6.06816 26.7924C5.96325 26.7883 5.8586 26.8055 5.76048 26.8428C5.66235 26.8801 5.57277 26.9369 5.49711 27.0096C5.42144 27.0824 5.36124 27.1697 5.32013 27.2663C5.27901 27.3629 5.25781 27.4668 5.25781 27.5718C5.25781 27.6768 5.27901 27.7807 5.32013 27.8773C5.36124 27.9739 5.42144 28.0612 5.49711 28.1339C5.57277 28.2067 5.66235 28.2635 5.76048 28.3008C5.8586 28.3381 5.96325 28.3552 6.06816 28.3511C6.66082 28.3511 6.92277 28.5989 7.32578 28.9746C7.79991 29.4144 8.44473 30.0153 9.64546 30.0153C10.8462 30.0153 11.4934 29.4144 11.9663 28.9746C12.3693 28.5989 12.636 28.3511 13.224 28.3511C13.8119 28.3511 14.0786 28.5989 14.4816 28.9746C14.9557 29.4144 15.6005 30.0153 16.8013 30.0153C18.002 30.0153 18.6492 29.4144 19.1221 28.9746C19.5251 28.5989 19.7918 28.3511 20.3798 28.3511C20.9677 28.3511 21.2344 28.5989 21.6386 28.9746C22.1127 29.4144 22.7563 30.0153 23.9583 30.0153H24.1301C24.1831 30.0157 24.2359 30.0105 24.2878 29.9999C25.2811 29.9015 25.8512 29.3717 26.2779 28.9746C26.6821 28.5989 26.9476 28.3511 27.5368 28.3511C28.1259 28.3511 28.3914 28.5989 28.7944 28.9746C29.2685 29.4144 29.9133 30.0153 31.1152 30.0153C31.3167 30.0075 31.5073 29.9219 31.647 29.7766C31.7867 29.6313 31.8648 29.4376 31.8648 29.236C31.8648 29.0344 31.7867 28.8406 31.647 28.6953C31.5073 28.55 31.3167 28.4645 31.1152 28.4566Z" fill="#F04E69"/>
</svg>
