<svg width="24" height="25" viewBox="0 0 24 25" fill="none" xmlns="http://www.w3.org/2000/svg">
<path d="M18.3952 7.84243C17.6005 7.84399 16.9543 7.20052 16.9528 6.40579C16.9512 5.61107 17.5947 4.96488 18.3898 4.96333C19.1848 4.96177 19.831 5.60563 19.8326 6.40035C19.8338 7.19507 19.1903 7.84088 18.3952 7.84243Z" fill="white"/>
<path fill-rule="evenodd" clip-rule="evenodd" d="M12.0115 18.9813C8.60909 18.9879 5.8451 16.2352 5.8385 12.832C5.83188 9.42954 8.58536 6.66512 11.9878 6.65851C15.3909 6.65191 18.1553 9.40621 18.1619 12.8083C18.1685 16.2115 15.4143 18.9747 12.0115 18.9813ZM11.992 8.82066C9.78365 8.82456 7.99594 10.6189 7.99983 12.8277C8.0041 15.0369 9.79882 16.8242 12.0072 16.82C14.2164 16.8157 16.0041 15.0217 15.9998 12.8125C15.9955 10.6033 14.2008 8.81639 11.992 8.82066Z" fill="white"/>
<path fill-rule="evenodd" clip-rule="evenodd" d="M4.1192 1.46679C4.88126 1.16819 5.75333 0.963675 7.03015 0.903411C8.31011 0.841985 8.71872 0.827984 11.9769 0.821765C15.2358 0.815547 15.6444 0.827981 16.9244 0.884746C18.2016 0.939956 19.0741 1.14136 19.8377 1.43686C20.6277 1.74129 21.298 2.15109 21.966 2.81634C22.6339 3.48236 23.0453 4.15033 23.3536 4.93922C23.6518 5.70206 23.8563 6.57337 23.917 7.85099C23.9776 9.13054 23.9924 9.53878 23.9986 12.7974C24.0048 16.0556 23.9916 16.4646 23.9356 17.7453C23.88 19.0218 23.679 19.8946 23.3835 20.6579C23.0783 21.4479 22.6693 22.1182 22.004 22.7862C21.3388 23.4545 20.6701 23.8655 19.8812 24.1742C19.1184 24.472 18.2471 24.6766 16.9702 24.7376C15.6903 24.7982 15.2817 24.8126 12.0224 24.8189C8.76459 24.8251 8.35598 24.8126 7.07605 24.7563C5.79882 24.7003 4.92597 24.4993 4.16275 24.2042C3.37271 23.8986 2.70242 23.4899 2.03446 22.8243C1.36611 22.1586 0.954386 21.4903 0.646458 20.7014C0.347858 19.939 0.144107 19.0673 0.0830727 17.7908C0.0220359 16.5105 0.00765506 16.1014 0.00143906 12.8433C-0.00480094 9.58467 0.00803667 9.17643 0.0640167 7.89647C0.1204 6.61886 0.320637 5.74637 0.61613 4.98237C0.921328 4.1927 1.33035 3.52279 1.99637 2.85444C2.6616 2.18648 3.33033 1.77433 4.1192 1.46679ZM4.94154 22.1882C5.36494 22.3511 6.00023 22.5455 7.17014 22.5964C8.43607 22.6513 8.81514 22.6633 12.0185 22.6571C15.223 22.6513 15.6021 22.6376 16.8676 22.5782C18.0363 22.5226 18.6716 22.3258 19.0939 22.161C19.6541 21.9421 20.0531 21.6804 20.4722 21.2609C20.8913 20.8398 21.1506 20.4397 21.3676 19.8795C21.5309 19.4557 21.7249 18.82 21.7758 17.65C21.8314 16.3849 21.8431 16.0054 21.8368 12.8013C21.831 9.59788 21.8174 9.21841 21.7572 7.95285C21.7019 6.78371 21.5056 6.14839 21.3404 5.72654C21.1215 5.1655 20.8606 4.76737 20.4399 4.34784C20.0192 3.92832 19.6191 3.66976 19.0581 3.45281C18.6355 3.28913 17.9994 3.09549 16.8303 3.04457C15.5643 2.98897 15.1849 2.97768 11.9808 2.98391C8.77743 2.99013 8.39836 3.00296 7.13281 3.06284C5.9633 3.11843 5.32877 3.31478 4.90575 3.48003C4.34587 3.69892 3.94696 3.95904 3.52746 4.38012C3.10871 4.80118 2.84938 5.20049 2.63244 5.76192C2.46993 6.18495 2.27434 6.82103 2.2242 7.99018C2.16898 9.25612 2.15733 9.6356 2.16355 12.839C2.16939 16.0431 2.18298 16.4226 2.24248 17.6874C2.29729 18.8573 2.49518 19.4918 2.65966 19.9152C2.87855 20.4747 3.13944 20.8736 3.55973 21.2932C3.98081 21.7111 4.38088 21.9712 4.94154 22.1882Z" fill="white"/>
</svg>
