<svg width="68" height="56" viewBox="0 0 68 56" fill="none" xmlns="http://www.w3.org/2000/svg">
<path d="M40.1242 28.9561C40.2513 28.8985 40.3983 28.8985 40.5335 28.9561C40.6612 29.0142 40.7696 29.1239 40.8101 29.255C40.8483 29.3656 41.7604 32.0314 40.5244 34.9062C39.3048 37.7512 36.5545 39.4552 36.4364 39.5329C36.2984 39.6167 36.1222 39.624 35.9702 39.5649C35.823 39.4987 35.7142 39.3595 35.6725 39.1954C35.6462 39.0687 34.9838 35.8976 36.2033 33.0543C37.4393 30.1751 40.017 29.0051 40.1242 28.9561ZM32.039 32.6467C33.2949 35.4712 32.6815 38.6469 32.6525 38.7814C32.6234 38.9443 32.5117 39.0801 32.3639 39.1463C32.2106 39.2165 32.039 39.1988 31.8912 39.1195C31.7778 39.0493 29.0035 37.3851 27.7424 34.5544C26.4739 31.6923 27.3621 29.0143 27.4003 28.8986C27.4494 28.7659 27.5457 28.6546 27.6791 28.5993C27.808 28.5412 27.9557 28.5412 28.0828 28.5993C28.198 28.6444 30.7671 29.7829 32.039 32.6467ZM63.4166 44.7742H45.2211L45.097 45.1978C45.097 45.1978 44.0507 48.4003 42.049 47.8878C40.2022 47.4037 40.9736 44.8227 40.9736 44.8227L40.9828 44.7742H34.6662V48.305H33.6463V44.7742H27.8758L28.0719 45.6425C28.0719 45.6425 28.434 47.2498 27.0109 47.8393C25.5165 48.4493 24.6665 46.3989 24.6665 46.3989C24.6665 46.3989 24.3415 45.6984 23.9459 44.7742H4.49551V43.7537H23.5257C23.3843 43.3876 23.2405 43.0125 23.1128 42.6465C22.5096 40.9087 21.7171 37.892 21.553 37.795C21.3887 37.6907 20.2074 37.6822 18.8407 37.5197C17.4714 37.3554 16.546 36.9159 16.3853 36.9582C15.9959 37.0477 13.1102 40.8014 11.2095 41.1784C9.31888 41.5585 7.34112 39.1264 7.34112 39.1264L5.00699 36.0794C5.00699 36.0794 4.10772 34.8805 4.77025 34.2174C5.59409 33.3901 6.39641 34.0048 6.39641 34.0048C6.39641 34.0048 9.55781 36.0539 9.90436 36.2609C10.1604 36.4135 10.2385 36.2864 10.2385 36.2864C10.2385 36.2864 10.7574 35.7967 11.0026 35.4912C11.1792 35.2671 11.0197 35.1393 11.0197 35.1393C11.0197 35.1393 9.46146 33.5886 8.85183 32.9655C8.34115 32.4317 8.8092 31.6547 8.8092 31.6547L13.4324 22.435L7.3701 23.7103C7.3701 23.7103 6.20937 23.9988 5.94649 23.2166C5.68944 22.435 6.84274 21.8014 6.84274 21.8014L14.8545 17.1017C14.8545 17.1017 15.1994 16.8629 15.367 16.8424C15.5305 16.8201 15.8418 16.9838 15.8418 16.9838C15.8418 16.9838 16.9469 17.8584 18.4867 17.8087C20.0176 17.7626 20.8961 16.8424 20.8961 16.8424C20.8961 16.8424 21.1031 16.6321 21.3887 16.5768C21.6711 16.5317 22.3551 17.2695 22.3551 17.2695L29.4638 25.1504C29.4638 25.1504 30.2304 25.9989 29.65 26.7338C29.1381 27.3855 28.0228 26.6869 28.0228 26.6869C28.0228 26.6869 23.5331 23.9988 23.375 23.9491C23.2019 23.9036 23.2507 24.134 23.2507 24.134L27.6443 43.7537H33.6463V23.1168C33.2094 22.8215 30.8622 21.0551 30.8622 16.7939C30.8622 12.2077 33.637 10.4259 33.7533 10.3541C33.9285 10.2435 34.1542 10.2435 34.3304 10.3541C34.4484 10.4259 37.2267 12.2077 37.2267 16.7939C37.2267 20.5499 35.3994 22.3694 34.6662 22.9481V43.7537H41.1904L43.8609 31.0121C43.8609 31.0121 45.3764 23.8219 45.2901 23.7696C45.2012 23.7143 39.8523 27.1894 39.8523 27.1894C39.8523 27.1894 39.1115 27.8929 38.3367 27.1539C37.5579 26.4087 38.6885 25.3997 38.6885 25.3997L45.4516 17.5181C45.4516 17.5181 45.6996 17.2288 45.9818 17.2558C46.3792 17.2916 46.4281 17.5551 46.4281 17.5551C46.4281 17.5551 47.163 19.469 47.2783 19.469C47.3793 19.469 48.3952 18.4085 48.3952 18.4085C48.3952 18.4085 48.9026 17.8926 49.1848 17.8584C49.4704 17.8202 49.6112 18.0688 49.6112 18.0688L50.7066 19.6452C50.7066 19.6452 50.9779 20.0198 51.0469 19.997C51.1193 19.9827 51.2054 19.8259 51.2054 19.8259L52.4826 17.4286C52.4826 17.4286 52.7481 16.863 53.0116 16.6725C53.2745 16.474 53.8236 16.8316 53.8236 16.8316L61.5113 21.4457C61.5113 21.4457 62.5741 21.9337 62.2717 22.9565C61.9314 24.1305 60.1446 23.5215 60.1446 23.5215C60.1446 23.5215 54.851 22.4264 54.7848 22.4925C54.71 22.5678 54.8509 22.7582 54.8509 22.7582C54.8509 22.7582 59.014 32.1957 58.9776 32.7648C58.9543 33.2213 58.4297 33.5622 58.4297 33.5622C58.4297 33.5622 57.0139 34.4273 57.0003 34.5858C56.9741 34.7447 57.1 34.8715 57.1 34.8715C57.1 34.8715 57.8442 35.6536 58.0403 35.7027C58.2336 35.7584 58.6047 35.506 58.6047 35.506L61.0147 34.2174C61.0147 34.2174 62.1651 33.2937 63.0529 34.1684C63.9349 35.0305 62.7307 36.0931 62.7307 36.0931L60.3578 38.7814C60.3578 38.7814 58.9776 40.8533 57.5938 40.9947C56.1201 41.1476 54.7979 39.8642 54.7979 39.8642C54.7979 39.8642 50.6175 35.7785 50.5332 35.6866C50.4443 35.5983 50.3582 35.7391 50.3582 35.7391C50.3582 35.7391 49.9135 36.9209 49.7237 37.0965C49.5241 37.2733 49.1665 37.351 49.1665 37.351C49.1665 37.351 47.4346 37.5984 47.3489 37.6537C47.2584 37.7056 47.2047 38.0574 47.2047 38.0574L45.5234 43.7537H63.4166V44.7742ZM15.7243 7.78162C17.9786 6.73613 20.6636 7.71267 21.6892 9.97341C22.3631 11.4558 22.081 12.0092 21.1362 12.47C21.2798 12.8212 21.3659 13.214 21.3659 13.6171C21.3659 15.2523 20.0375 16.5768 18.4025 16.5768C17.1784 16.5768 16.123 15.8338 15.6753 14.7704C14.7625 15.0762 14.0642 14.958 13.5276 13.7448C12.5213 11.4756 13.4706 8.81987 15.7243 7.78162ZM44.8192 8.69681C45.5005 7.68189 46.7628 7.48294 46.7628 7.48294C46.7628 7.48294 48.8119 6.32908 50.7955 7.87418C53.0377 9.61076 51.5759 12.8297 51.5759 12.8297C51.5759 12.8297 51.1358 15.6429 50.9916 16.0156C50.8536 16.3903 49.9825 16.7397 49.9825 16.7397C49.9825 16.7397 49.4869 16.863 48.9425 16.8829C48.3952 16.9041 47.7857 16.7073 47.5931 16.6007C47.3489 16.469 47.3072 15.9975 47.3072 15.9975C47.3072 15.9975 47.232 15.574 47.117 15.4273C46.9927 15.2916 45.7686 15.234 44.959 13.8222C44.4109 12.8467 44.7503 11.531 44.8683 10.7289C44.9846 9.92496 44.8192 8.69681 44.8192 8.69681ZM63.07 4.81631C58.5419 1.09113 50.0515 0.543308 33.9472 0.539288C17.9332 0.543308 9.46549 1.11568 4.93739 4.84368C0.420143 8.59481 0 15.4136 0 27.7594C0 40.2017 0.403646 47.049 4.91164 50.8158C9.42888 54.5464 17.8972 55.0944 33.9472 55.1006C50.0515 55.0944 58.5419 54.5464 63.07 50.8158C67.5929 47.049 67.9966 40.2017 68 27.7594C67.9966 15.3754 67.5929 8.561 63.07 4.81631ZM39.5872 34.506C40.3402 32.7471 40.164 31.0612 39.9965 30.202C39.2513 30.666 37.8983 31.6946 37.1406 33.4569C36.3904 35.2033 36.4547 37.1348 36.5545 38.1907C37.3938 37.5465 38.8355 36.2547 39.5872 34.506ZM33.6463 21.7034V11.8669C32.9437 12.6205 31.9284 14.1569 31.9284 16.7939C31.9284 19.4827 32.9546 20.9902 33.6463 21.7034ZM31.7516 37.7855C31.8502 36.7311 31.8793 34.7956 31.109 33.0612C30.3286 31.3104 28.9774 30.2936 28.2235 29.8348C28.06 30.7031 27.8991 32.3925 28.6763 34.1393C29.4494 35.8805 30.9051 37.1549 31.7516 37.7855ZM34.6662 12.1291V21.4457C35.3338 20.6561 36.1514 19.2005 36.1514 16.7939C36.1514 14.426 35.3441 12.9489 34.6662 12.1291Z" fill="white"/>
</svg>
