<svg width="24" height="25" viewBox="0 0 24 25" fill="none" xmlns="http://www.w3.org/2000/svg">
<g clipPath="url(#clip0_2689_12541)">
<path fill-rule="evenodd" clip-rule="evenodd" d="M22.7462 5.65487C23.1185 6.02963 23.3859 6.49563 23.5216 7.00621C24.0234 8.89076 24.0234 12.8208 24.0234 12.8208C24.0234 12.8208 24.0234 16.7508 23.5216 18.6353C23.3859 19.1459 23.1185 19.6119 22.7462 19.9866C22.3738 20.3614 21.9095 20.6318 21.3998 20.7708C19.5234 21.2753 12.0234 21.2753 12.0234 21.2753C12.0234 21.2753 4.52344 21.2753 2.64707 20.7708C2.13737 20.6318 1.6731 20.3614 1.30073 19.9866C0.928354 19.6119 0.660943 19.1459 0.525256 18.6353C0.0234376 16.7508 0.0234375 12.8208 0.0234375 12.8208C0.0234375 12.8208 0.0234376 8.89076 0.525256 7.00621C0.660943 6.49563 0.928354 6.02963 1.30073 5.65487C1.6731 5.2801 2.13737 5.00971 2.64707 4.87076C4.52344 4.36621 12.0234 4.36621 12.0234 4.36621C12.0234 4.36621 19.5234 4.36621 21.3998 4.87076C21.9095 5.00971 22.3738 5.2801 22.7462 5.65487ZM15.8416 12.8208L9.56891 9.25215V16.3894L15.8416 12.8208Z" fill="white"/>
</g>
<defs>
<clipPath id="clip0_2689_12541">
<rect width="24" height="24" fill="white" transform="translate(0 0.820312)"/>
</clipPath>
</defs>
</svg>
