<svg width="36" height="36" viewBox="0 0 36 36" fill="none" xmlns="http://www.w3.org/2000/svg">
<path d="M6.28765 16.2435L11.3111 12.9246C11.3486 12.9 11.3924 12.8868 11.4373 12.8868C11.4822 12.8868 11.526 12.9 11.5635 12.9246L16.8204 16.2696C16.9175 16.3305 17.0295 16.3633 17.144 16.3644C17.2369 16.3614 17.3283 16.3399 17.4129 16.3014C17.4975 16.2629 17.5736 16.208 17.6368 16.1399C17.7001 16.0718 17.7492 15.9918 17.7814 15.9046C17.8136 15.8174 17.8282 15.7247 17.8244 15.6319V14.7808C17.8263 14.6561 17.7971 14.5329 17.7393 14.4224C17.6816 14.3119 17.5972 14.2175 17.4937 14.1478L11.7793 10.4757C11.6777 10.409 11.5585 10.374 11.437 10.375C11.3154 10.3761 11.197 10.4132 11.0965 10.4816L5.60253 14.1478C5.50198 14.2183 5.42015 14.3123 5.36417 14.4215C5.30819 14.5308 5.27974 14.6521 5.28131 14.7749V15.62C5.28227 15.7478 5.31398 15.8734 5.37377 15.9863C5.41327 16.0667 5.46927 16.1378 5.53811 16.1951C5.60695 16.2524 5.68709 16.2946 5.77331 16.3188C5.85952 16.3431 5.94988 16.3489 6.03851 16.336C6.12713 16.323 6.21202 16.2915 6.28765 16.2435Z" fill="#F04E69"/>
<path d="M23.4479 23.1167C23.4969 23.1468 23.5529 23.1635 23.6103 23.1653C23.7101 23.1579 23.8031 23.112 23.8695 23.0372C23.9359 22.9623 23.9705 22.8646 23.9659 22.7646V22.1719C23.9664 22.1038 23.9502 22.0365 23.9188 21.976C23.8874 21.9155 23.8417 21.8635 23.7858 21.8247L19.7865 19.2549C19.7338 19.2199 19.6719 19.2012 19.6087 19.2012C19.5454 19.2012 19.4836 19.2199 19.4309 19.2549L15.5833 21.8211C15.5285 21.8601 15.4841 21.912 15.454 21.9721C15.4238 22.0322 15.4088 22.0988 15.4103 22.166V22.7587C15.4104 22.8283 15.4279 22.8967 15.4612 22.9578C15.4817 23.0004 15.511 23.0382 15.547 23.0688C15.5831 23.0993 15.6251 23.122 15.6705 23.1353C15.7159 23.1486 15.7635 23.1522 15.8103 23.1459C15.8572 23.1397 15.9022 23.1236 15.9425 23.0989L19.4249 20.7982C19.4794 20.763 19.5427 20.7444 19.6075 20.7444C19.6722 20.7444 19.7356 20.763 19.79 20.7982L23.4479 23.1167Z" fill="#F04E69"/>
<path d="M30.2816 13.9984C30.5801 13.8708 30.8497 13.6843 31.0744 13.45C31.2991 13.2157 31.4742 12.9385 31.5891 12.6349C31.7041 12.3314 31.7566 12.0077 31.7436 11.6834C31.7305 11.359 31.6521 11.0406 31.513 10.7473C31.374 10.454 31.1772 10.1918 30.9344 9.9763C30.6916 9.76085 30.4078 9.59662 30.1 9.49345C29.7923 9.39028 29.4668 9.35029 29.1432 9.37588C28.8196 9.40147 28.5045 9.49211 28.2168 9.64238C28.0548 8.97601 27.6727 8.38381 27.1323 7.96169C26.5918 7.53956 25.9247 7.31221 25.2389 7.31646C24.5532 7.32072 23.8889 7.55632 23.3538 7.98511C22.8186 8.41391 22.4438 9.0108 22.2902 9.67912C22.0093 9.52306 21.7 9.42471 21.3806 9.38987C21.0612 9.35503 20.738 9.3844 20.43 9.47625C20.1221 9.5681 19.8357 9.72057 19.5875 9.92472C19.3394 10.1289 19.1345 10.3805 18.985 10.665C18.8355 10.9494 18.7444 11.2609 18.717 11.581C18.6896 11.9012 18.7265 12.2236 18.8255 12.5293C18.9245 12.835 19.0836 13.1179 19.2934 13.3612C19.5033 13.6045 19.7597 13.8035 20.0475 13.9463C19.6461 14.1366 19.3214 14.4578 19.1269 14.8572C18.9324 15.2566 18.8796 15.7103 18.9773 16.1437C19.075 16.577 19.3173 16.9642 19.6643 17.2415C20.0114 17.5189 20.4425 17.6697 20.8867 17.6694C20.9712 17.6689 21.0555 17.6629 21.1392 17.6516C21.2043 18.0374 21.3625 18.4016 21.6 18.7125C21.8376 19.0234 22.1473 19.2718 22.5024 19.4361C22.8576 19.6003 23.2474 19.6755 23.6381 19.6552C24.0289 19.6349 24.4088 19.5196 24.745 19.3194L24.3301 28.2508H22.9504V23.6541L19.6244 21.5371L16.4465 23.6363V28.2496H15.7756V23.8248C15.5909 23.823 15.4101 23.771 15.2527 23.6743C15.0952 23.5776 14.967 23.4399 14.8819 23.276C14.7982 23.1177 14.7535 22.9418 14.7515 22.7627V22.1701C14.7507 21.9927 14.7935 21.8179 14.8762 21.661C14.9588 21.5041 15.0789 21.37 15.2256 21.2704L16.3659 20.5094V16.906L11.448 13.778L6.74819 16.8823V28.1726C6.74819 28.1986 6.74819 28.2247 6.74819 28.2508H5.16222C5.05941 28.2511 4.96088 28.292 4.88807 28.3646C4.81526 28.4372 4.77406 28.5356 4.77344 28.6384V29.7668C4.77406 29.8696 4.81526 29.968 4.88807 30.0406C4.96088 30.1132 5.05941 30.1541 5.16222 30.1544H27.9963C28.099 30.1541 28.1974 30.1132 28.27 30.0405C28.3427 29.9679 28.3836 29.8695 28.3839 29.7668V28.6384C28.3836 28.5357 28.3427 28.4373 28.27 28.3647C28.1974 28.292 28.099 28.2511 27.9963 28.2508H26.1081L25.6932 19.3182C26.0281 19.518 26.4066 19.6335 26.796 19.6547C27.1855 19.6759 27.5742 19.6022 27.9288 19.4399C28.2835 19.2775 28.5933 19.0315 28.8318 18.7229C29.0703 18.4142 29.2302 18.0523 29.2978 17.6682H29.3369C29.7731 17.6716 30.1979 17.529 30.5438 17.2632C30.8896 16.9974 31.1367 16.6236 31.2457 16.2012C31.3547 15.7788 31.3194 15.3321 31.1453 14.9321C30.9713 14.5322 30.6685 14.2018 30.2852 13.9937L30.2816 13.9984ZM18.2138 24.1128C18.2997 24.0068 18.408 23.9212 18.531 23.8621C18.654 23.8031 18.7886 23.7721 18.925 23.7714C19.1338 23.7709 19.3355 23.8473 19.4916 23.986C19.5374 24.0242 19.5798 24.0662 19.6184 24.1116C19.6563 24.0663 19.6979 24.0243 19.7429 23.986C19.8995 23.8474 20.1015 23.7711 20.3107 23.7714C20.4471 23.7723 20.5816 23.8033 20.7046 23.8624C20.8275 23.9214 20.9359 24.0069 21.0219 24.1128C21.2059 24.3425 21.3036 24.6294 21.298 24.9236C21.293 25.2563 21.1746 25.5774 20.9626 25.8339C20.7245 26.1248 20.4628 26.3955 20.1803 26.6435L20.1696 26.653L19.8448 26.96C19.8135 26.9905 19.7764 27.0146 19.7357 27.0306C19.695 27.0467 19.6515 27.0545 19.6078 27.0536C19.5197 27.055 19.4346 27.0218 19.3707 26.9612L19.0566 26.6636L19.0447 26.653C18.759 26.4019 18.4942 26.128 18.2529 25.8339C18.0414 25.5771 17.9232 25.2562 17.9175 24.9236C17.9176 24.6269 18.0226 24.3397 18.2138 24.1128ZM10.1868 28.2496C10.1868 28.2235 10.1868 28.1974 10.1868 28.1714V24.7932C10.1842 24.7349 10.2049 24.678 10.2442 24.6349C10.2835 24.5918 10.3383 24.566 10.3966 24.5632H12.4946C12.5529 24.566 12.6077 24.5918 12.6471 24.6349C12.6864 24.678 12.707 24.7349 12.7044 24.7932V28.1714C12.7044 28.1974 12.7044 28.2235 12.7044 28.2496H10.1868ZM11.4622 20.3814C11.0899 20.3814 10.7259 20.271 10.4164 20.0641C10.1068 19.8572 9.86553 19.5632 9.7231 19.2192C9.58067 18.8752 9.54346 18.4966 9.61618 18.1315C9.68891 17.7663 9.8683 17.4309 10.1317 17.1677C10.395 16.9045 10.7305 16.7253 11.0957 16.6529C11.4609 16.5804 11.8394 16.6178 12.1834 16.7604C12.5273 16.9031 12.8212 17.1445 13.0279 17.4542C13.2346 17.7639 13.3448 18.128 13.3445 18.5003C13.3442 18.9993 13.1458 19.4778 12.7928 19.8305C12.4398 20.1833 11.9612 20.3814 11.4622 20.3814Z" fill="#F04E69"/>
<path d="M16.3601 10.9796C16.3669 10.825 16.3122 10.6741 16.208 10.5597C16.1039 10.4453 15.9587 10.3768 15.8042 10.3691H14.8796C14.8031 10.3728 14.7281 10.3915 14.6588 10.4241C14.5895 10.4568 14.5273 10.5028 14.4758 10.5595C14.4243 10.6161 14.3844 10.6824 14.3586 10.7545C14.3327 10.8266 14.3212 10.9031 14.3249 10.9796V11.4087L16.3601 12.7125V10.9796Z" fill="#F04E69"/>
</svg>
