<svg width="224" height="165" viewBox="0 0 224 165" fill="none" xmlns="http://www.w3.org/2000/svg">
<path d="M119.7 86.3401H118.747C118.747 86.3401 117.371 87.3003 114.619 89.2206C111.868 91.141 109.539 94.2349 107.634 98.5023C105.835 102.663 105.068 106.824 105.332 110.985C105.597 115.145 105.729 117.226 105.729 117.226L106.682 118.186H107.634C107.634 118.186 109.195 116.879 112.318 114.265C115.44 111.651 117.9 108.264 119.7 104.103C121.605 99.9426 122.24 96.1019 121.605 92.5812C120.97 89.0606 120.652 87.3003 120.652 87.3003L119.7 86.3401ZM96.5216 115.465C96.7333 114.185 96.8656 111.785 96.9185 108.264C96.9714 104.743 96.2041 101.169 94.6166 97.5421C92.8174 93.3814 90.489 90.3142 87.6315 88.3405C84.7739 86.3668 83.0806 85.38 82.5514 85.38H81.5989C81.1755 85.38 80.9374 85.54 80.8845 85.8601C80.8316 86.1801 80.8051 86.3401 80.8051 86.3401C80.8051 86.3401 80.4876 88.1005 79.8526 91.6211C79.2176 95.1417 79.7997 98.9824 81.5989 103.143C83.5039 107.411 85.991 110.824 89.0602 113.385C92.1295 115.945 93.6641 117.226 93.6641 117.226H95.5691C95.9924 117.226 96.257 117.172 96.3629 117.066C96.4687 116.959 96.5216 116.692 96.5216 116.265C96.5216 116.159 96.5216 116.052 96.5216 115.945C96.5216 115.839 96.5216 115.679 96.5216 115.465ZM188.439 131.308H135.416L140.179 114.345V113.385L145.735 112.585C145.735 112.585 145.92 112.531 146.291 112.425C146.661 112.318 147.058 112.051 147.481 111.625C148.01 111.091 148.46 110.318 148.831 109.304C149.201 108.291 149.386 107.784 149.386 107.784H150.339L163.356 119.946C163.356 119.946 164.15 120.586 165.738 121.866C167.325 123.147 169.283 123.787 171.612 123.787C173.517 123.787 175.395 122.693 177.247 120.506C179.099 118.319 180.026 117.226 180.026 117.226L187.487 108.744C187.487 108.744 187.99 108.157 188.995 106.984C190 105.81 189.815 104.53 188.439 103.143C186.958 101.756 185.502 101.409 184.074 102.103C182.645 102.796 181.931 103.143 181.931 103.143L174.469 106.984C174.469 106.984 174.284 107.117 173.914 107.384C173.543 107.651 173.093 107.784 172.564 107.784C172.141 107.784 171.585 107.331 170.897 106.424C170.209 105.517 169.865 105.063 169.865 105.063V104.103C169.865 103.677 170.633 103.09 172.167 102.343C173.702 101.596 174.469 101.223 174.469 101.223C174.469 101.223 174.787 101.009 175.422 100.583C176.057 100.156 176.374 99.4625 176.374 98.5023C176.374 98.0756 175.739 96.2619 174.469 93.0613C173.199 89.8608 171.797 86.4468 170.262 82.8195C168.728 79.1922 167.378 75.885 166.214 72.8978C164.944 70.0173 164.309 68.577 164.309 68.577V67.6168L180.026 70.4973C180.026 70.4973 181.004 70.6307 182.962 70.8974C184.92 71.1641 186.111 70.3906 186.534 68.577C186.958 67.1901 186.746 66.0699 185.899 65.2164C185.053 64.3629 184.629 63.9362 184.629 63.9362L161.451 49.8537C161.451 49.8537 161.107 49.6936 160.42 49.3736C159.732 49.0535 159.176 48.8935 158.753 48.8935L156.848 50.8138L153.196 58.3352V59.1353L152.244 58.3352L148.434 53.5343C148.434 53.5343 148.407 53.401 148.354 53.1343C148.301 52.8675 148.01 52.7342 147.481 52.7342C147.058 52.7342 146.502 53.0276 145.814 53.6143C145.126 54.2011 144.782 54.4945 144.782 54.4945C144.782 54.4945 144.28 54.9746 143.274 55.9348C142.269 56.8949 141.554 57.375 141.131 57.375L138.274 51.774C138.274 51.774 138.247 51.614 138.194 51.2939C138.141 50.9739 137.85 50.8138 137.321 50.8138C136.898 50.8138 136.474 50.9739 136.051 51.2939C135.628 51.614 135.416 51.774 135.416 51.774L115.096 75.1382C115.096 75.1382 114.593 75.7249 113.588 76.8985C112.582 78.072 112.767 79.3522 114.143 80.7392C115.096 81.6993 116.101 81.9394 117.159 81.4593C118.218 80.9792 118.747 80.7392 118.747 80.7392L134.622 70.4973L129.86 91.9411L121.605 130.348H102.078V68.577C103.03 67.6168 104.512 65.6698 106.523 62.736C108.534 59.8021 109.539 55.508 109.539 49.8537C109.539 44.306 108.56 40.0919 106.602 37.2114C104.644 34.3309 103.136 32.3572 102.078 31.2904C101.76 30.9703 101.522 30.7303 101.364 30.5703C101.205 30.4102 101.125 30.2769 101.125 30.1702H99.2204C99.2204 30.1702 97.8446 31.6905 95.0928 34.731C92.3411 37.7715 90.9653 42.8124 90.9653 49.8537C90.9653 55.7214 92.0501 60.0421 94.2197 62.816C96.3893 65.5898 97.9504 67.3501 98.9029 68.0969C99.0087 68.2036 99.0881 68.2836 99.141 68.337C99.1939 68.3903 99.2204 68.4703 99.2204 68.577V130.348H81.5989L68.7399 72.2576V71.2975C69.1632 71.2975 71.571 72.7111 75.9631 75.5382C80.3553 78.3654 82.5514 79.779 82.5514 79.779C82.5514 79.779 83.2129 80.019 84.5358 80.4991C85.8587 80.9792 86.7319 80.7391 87.1552 79.779C88.1077 78.8188 88.3458 77.8053 87.8696 76.7384C87.3933 75.6716 87.1552 75.1382 87.1552 75.1382L65.8823 51.774C65.8823 51.774 65.5384 51.454 64.8505 50.8138C64.1625 50.1737 63.554 49.8537 63.0248 49.8537C62.6015 49.8537 62.2046 50.0137 61.8342 50.3338C61.4637 50.6538 61.2785 50.8138 61.2785 50.8138C61.2785 50.8138 60.7758 51.1072 59.7704 51.694C58.7649 52.2808 57.098 52.5742 54.7697 52.5742C52.4413 52.5742 50.4569 52.2808 48.8164 51.694C47.176 51.1072 46.3558 50.8138 46.3558 50.8138C46.3558 50.8138 46.1706 50.6805 45.8001 50.4138C45.4297 50.1471 45.0328 50.2804 44.6095 50.8138C44.0803 50.8138 43.6305 50.9739 43.2601 51.2939C42.8897 51.614 42.7045 51.774 42.7045 51.774L20.4791 64.7363C20.4791 64.7363 19.897 65.1897 18.7328 66.0966C17.5686 67.0034 17.1982 68.1503 17.6215 69.5372C18.0449 70.3906 18.7593 70.764 19.7647 70.6574C20.7701 70.5507 21.2729 70.4973 21.2729 70.4973L39.0532 66.6567L25.0829 94.8216C25.0829 94.8216 24.9506 95.195 24.686 95.9418C24.4214 96.6886 24.5537 97.5421 25.0829 98.5023L31.5918 105.063C31.5918 105.063 31.6976 105.09 31.9093 105.143C32.121 105.197 32.0151 105.49 31.5918 106.024C31.0626 106.45 30.6128 107.01 30.2424 107.704C29.872 108.397 29.6867 108.744 29.6867 108.744H28.7342C28.3109 108.317 26.5117 106.957 23.3366 104.663C20.1616 102.37 18.5741 101.223 18.5741 101.223C18.5741 101.223 18.0184 101.036 16.9072 100.663C15.7959 100.289 14.8169 100.796 13.9702 102.183C13.0177 103.143 12.9383 104.317 13.7321 105.704C14.5259 107.09 14.9227 107.784 14.9227 107.784L21.2729 117.226C21.2729 117.226 22.437 118.426 24.7654 120.826C27.0938 123.227 29.6867 124.214 32.5443 123.787C34.4493 123.467 36.5396 122.213 38.815 120.026C41.0905 117.839 43.1278 115.785 44.927 113.865C45.6678 113.118 46.3293 112.425 46.9114 111.785C47.4935 111.145 47.9433 110.771 48.2608 110.664C48.4725 110.664 48.7371 110.691 49.0546 110.744C49.3721 110.798 49.7425 110.931 50.1658 111.145C50.695 111.251 51.4094 111.438 52.309 111.705C53.2086 111.971 54.3463 112.265 55.7222 112.585H63.9773C64.2948 112.585 64.6652 113.305 65.0886 114.745C65.5119 116.185 65.9882 117.919 66.5174 119.946C66.8349 121.226 67.1788 122.533 67.5492 123.867C67.9197 125.2 68.3166 126.401 68.7399 127.467C68.7399 127.681 68.7664 127.894 68.8193 128.108C68.8722 128.321 68.9516 128.534 69.0574 128.748C69.1632 129.068 69.2691 129.414 69.3749 129.788C69.4807 130.161 69.5337 130.668 69.5337 131.308H13.0177V134.029H70.4862C71.0154 135.416 71.4651 136.536 71.8356 137.389C72.206 138.243 72.3912 138.669 72.3912 138.669C72.3912 138.669 73.0527 139.683 74.3756 141.71C75.6986 143.737 77.5242 144.324 79.8526 143.47C82.181 142.51 83.3716 141.016 83.4245 138.989C83.4774 136.962 83.5039 135.949 83.5039 135.949L82.5514 133.068H99.2204V143.47H102.078V133.068H120.652C120.652 133.068 120.546 134.402 120.335 137.069C120.123 139.736 121.128 141.55 123.351 142.51C126.208 143.364 128.484 142.163 130.177 138.909C131.871 135.656 132.717 134.029 132.717 134.029V133.068H188.439V131.308ZM63.9773 29.21C62.6015 26.0095 60.1408 23.7691 56.5953 22.4888C53.0498 21.2086 49.6367 21.2619 46.3558 22.6488C43.1807 24.1424 40.9582 26.6762 39.6882 30.2502C38.4181 33.8242 38.4711 37.2648 39.8469 40.572C40.7994 42.3857 41.7784 43.5592 42.7838 44.0927C43.7893 44.6261 44.9799 44.6794 46.3558 44.2527C46.8849 45.6396 47.9433 46.7598 49.5308 47.6133C51.1184 48.4668 52.8646 48.8935 54.7697 48.8935C57.098 48.8935 59.056 48.0667 60.6435 46.4131C62.231 44.7594 63.0248 42.8124 63.0248 40.572C63.0248 39.9319 62.9719 39.4252 62.8661 39.0518C62.7602 38.6784 62.6544 38.3316 62.5485 38.0116C62.4427 37.7982 62.3633 37.5848 62.3104 37.3715C62.2575 37.1581 62.231 36.9447 62.231 36.7314C63.6069 36.3046 64.48 35.5311 64.8505 34.4109C65.2209 33.2907 64.9298 31.5571 63.9773 29.21ZM138.274 21.8487C138.274 21.8487 137.586 22.1154 136.21 22.6488C134.834 23.1823 133.67 24.1425 132.717 25.5294C132.717 25.5294 132.876 26.1962 133.193 27.5297C133.511 28.8633 133.67 29.7435 133.67 30.1702C133.141 31.5571 132.77 33.1307 132.558 34.891C132.347 36.6513 132.717 38.225 133.67 39.6119C135.046 41.4255 136.474 42.6524 137.956 43.2925C139.438 43.9326 140.179 44.2527 140.179 44.2527C140.602 44.6794 140.867 45.1062 140.972 45.5329C141.078 45.9597 141.131 46.173 141.131 46.173C141.131 46.173 141.158 46.4664 141.21 47.0532C141.263 47.6399 141.502 47.9333 141.925 47.9333C141.925 47.9333 142.322 48.0934 143.116 48.4134C143.909 48.7335 144.782 48.8935 145.735 48.8935H148.434C148.434 48.8935 148.91 48.7068 149.863 48.3334C150.815 47.96 151.291 47.5066 151.291 46.9732C151.715 46.5464 152.138 44.8928 152.561 42.0123C152.985 39.1318 153.196 37.6915 153.196 37.6915C153.196 37.6915 153.646 35.9045 154.546 32.3306C155.445 28.7566 154.043 25.5294 150.339 22.6488C147.587 20.4084 144.888 19.715 142.242 20.5685C139.596 21.422 138.274 21.8487 138.274 21.8487ZM101.125 1.20506C112.979 1.20506 123.51 1.36508 132.717 1.68513C141.819 2.00519 149.862 2.61864 156.848 3.52547C163.833 4.4323 169.812 5.7392 174.787 7.44617C179.761 9.25983 183.994 11.5536 187.487 14.3274C192.884 19.0215 196.483 25.4227 198.282 33.5308C200.081 41.6389 201.245 52.4141 201.775 65.8565L201.933 85.38V103.943C201.51 116.105 200.266 126.027 198.203 133.709C196.139 141.39 192.567 147.418 187.487 151.792C184.206 154.566 180.131 156.806 175.263 158.513C170.395 160.327 164.494 161.687 157.562 162.594C150.63 163.5 142.507 164.114 133.193 164.434C123.88 164.754 113.191 164.914 101.125 164.914C89.2719 164.914 78.7413 164.754 69.5337 164.434C60.326 164.114 52.2032 163.5 45.1651 162.594C38.1271 161.687 32.121 160.327 27.1467 158.513C22.1725 156.806 18.0978 154.566 14.9227 151.792C11.4302 149.018 8.67848 145.604 6.66761 141.55C4.65674 137.496 3.17505 132.668 2.22254 127.067C1.27002 121.466 0.635011 114.985 0.317505 107.624C0.105835 100.263 0 91.9411 0 82.6595C0 73.4845 0.105835 65.3231 0.317505 58.1751C0.529176 50.9205 1.11127 44.5194 2.06378 38.9717C3.0163 33.4241 4.39216 28.6232 6.19135 24.5692C8.09639 20.5152 10.6893 17.1012 13.9702 14.3274C17.4628 11.5536 21.6962 9.25983 26.6704 7.44617C31.6447 5.7392 37.6508 4.4323 44.6889 3.52547C51.7269 2.61864 59.8498 2.00519 69.0574 1.68513C78.3709 1.36508 89.0602 1.20506 101.125 1.20506ZM117.794 90.0208C118.324 91.4077 118.535 93.248 118.429 95.5418C118.324 97.8355 117.847 100.369 117.001 103.143C116.048 105.49 114.593 107.677 112.635 109.704C110.677 111.731 109.01 112.958 107.634 113.385C107.634 111.998 107.714 110.024 107.872 107.464C108.031 104.903 108.587 102.236 109.539 99.4625C110.492 97.1154 111.894 95.0884 113.746 93.3814C115.598 91.6744 116.948 90.5542 117.794 90.0208ZM94.6166 49.8537C94.6166 54.0144 95.1722 57.3217 96.2835 59.7754C97.3948 62.2292 98.3737 63.8828 99.2204 64.7363V34.811C98.3737 36.3046 97.3948 38.2516 96.2835 40.652C95.1722 43.0525 94.6166 46.1197 94.6166 49.8537ZM91.9178 98.5023C92.7645 100.849 93.2672 103.41 93.4259 106.184C93.5847 108.957 93.6641 111.091 93.6641 112.585C93.5582 112.371 93.373 112.131 93.1084 111.865C92.8438 111.598 92.5528 111.358 92.2353 111.145C91.0711 110.078 89.7482 108.797 88.2665 107.304C86.7848 105.81 85.5148 104.103 84.4564 102.183C83.7156 100.049 83.3451 98.0489 83.3451 96.1819C83.3451 94.3149 83.3451 92.6879 83.3451 91.301C83.451 90.8743 83.5039 90.4742 83.5039 90.1008C83.5039 89.7274 83.5039 89.3807 83.5039 89.0606C84.4564 89.594 85.8587 90.7142 87.7108 92.4212C89.563 94.1282 90.9653 96.1552 91.9178 98.5023ZM103.348 36.2513C103.242 36.1446 103.163 36.0646 103.11 36.0112C103.057 35.9579 103.03 35.8779 103.03 35.7712V63.9362C103.03 63.8295 103.057 63.7228 103.11 63.6161C103.163 63.5094 103.242 63.4561 103.348 63.4561C104.195 62.0692 105.121 60.3355 106.126 58.2552C107.132 56.1748 107.634 53.3743 107.634 49.8537C107.634 46.3331 107.132 43.5326 106.126 41.4522C105.121 39.3718 104.195 37.6382 103.348 36.2513Z" fill="#EF586E"/>
</svg>
