<svg width="36" height="36" viewBox="0 0 36 36" fill="none" xmlns="http://www.w3.org/2000/svg">
<g clipPath="url(#clip0_2500_19947)">
<path d="M33.2024 19.7163C34.0736 19.7163 34.7799 18.9732 34.7799 18.0564C34.7799 17.1397 34.0736 16.3965 33.2024 16.3965C32.3312 16.3965 31.625 17.1397 31.625 18.0564C31.625 18.9732 32.3312 19.7163 33.2024 19.7163Z" fill="#F04E69"/>
<path d="M2.78854 19.7114C3.72886 19.7114 4.49114 18.909 4.49114 17.9192C4.49114 16.9294 3.72886 16.127 2.78854 16.127C1.84822 16.127 1.08594 16.9294 1.08594 17.9192C1.08594 18.909 1.84822 19.7114 2.78854 19.7114Z" fill="#F04E69"/>
<path d="M3.0122 20.0879H2.55846C0.355175 20.0879 -0.400113 24.9155 0.140394 25.1032C0.680902 25.291 1.06637 22.9199 1.48029 22.2201C1.48712 22.205 1.49963 22.1933 1.51508 22.1874C1.53054 22.1815 1.54769 22.182 1.56278 22.1888C1.58127 22.1959 1.59265 22.2371 1.59692 22.304C1.50589 22.6553 0.316771 27.298 0.628274 27.6223C0.80986 27.7729 1.03118 27.8678 1.2655 27.8954C1.25072 28.6186 1.28064 29.3421 1.35512 30.0617C1.41486 30.5538 1.51585 30.5567 1.75338 30.5567C2.08765 30.5567 2.1801 30.4998 2.2242 30.0759C2.32661 29.2045 2.41859 28.4975 2.50014 27.9551C2.62104 27.9551 2.7263 27.9551 2.80595 27.9551C2.88561 27.9551 2.98091 27.9551 3.07621 27.9452C3.16013 28.4914 3.25685 29.2068 3.36068 30.0788C3.41047 30.5055 3.50292 30.5595 3.8315 30.5595C4.06761 30.5595 4.17002 30.5595 4.22976 30.0645C4.30752 29.2929 4.3365 28.5171 4.31653 27.7418C4.63088 27.6493 4.88549 27.527 4.9879 27.3691C5.19841 27.0476 4.23688 23.1844 4.04201 22.4178C4.05054 22.3993 4.0605 22.3879 4.07188 22.385C4.08624 22.3798 4.10199 22.3795 4.11649 22.3845C4.13099 22.3894 4.14336 22.3991 4.15153 22.4121C4.59959 23.0906 4.92105 25.291 5.44306 25.1061C5.96508 24.9212 5.21548 20.0879 3.0122 20.0879Z" fill="#F04E69"/>
<path d="M10.3166 26.5533C10.318 26.5382 10.318 26.523 10.3166 26.5078C10.3148 26.4922 10.311 26.4769 10.3052 26.4623C10.3034 26.4518 10.301 26.4413 10.2981 26.431C10.2981 26.431 10.2981 26.431 10.291 26.4211C10.2843 26.407 10.2762 26.3936 10.2668 26.3812C10.2586 26.3683 10.2496 26.356 10.2398 26.3442L10.2327 26.3343L9.54422 25.6402C9.48482 25.5863 9.40706 25.5571 9.32687 25.5587C9.24667 25.5602 9.1701 25.5924 9.11284 25.6485C9.05558 25.7047 9.02196 25.7806 9.01886 25.8608C9.01576 25.941 9.04342 26.0193 9.09617 26.0797L9.25405 26.239H7.23853C7.15899 26.2443 7.08447 26.2797 7.03003 26.3379C6.97559 26.3962 6.94531 26.4729 6.94531 26.5526C6.94531 26.6323 6.97559 26.7091 7.03003 26.7673C7.08447 26.8255 7.15899 26.8609 7.23853 26.8663H9.25974L9.10186 27.027C9.0491 27.0874 9.02145 27.1657 9.02455 27.2459C9.02765 27.326 9.06127 27.402 9.11853 27.4581C9.17579 27.5143 9.25236 27.5465 9.33256 27.548C9.41275 27.5496 9.49051 27.5204 9.54991 27.4665L10.2298 26.7724L10.2369 26.7624C10.2475 26.7505 10.257 26.7376 10.2654 26.724C10.2738 26.7117 10.2814 26.6989 10.2881 26.6856C10.2881 26.6856 10.2881 26.6785 10.2952 26.6742C10.2984 26.664 10.3008 26.6536 10.3024 26.6429C10.3081 26.6288 10.312 26.614 10.3137 26.5988C10.3161 26.5838 10.317 26.5686 10.3166 26.5533Z" fill="#F04E69"/>
<path d="M22.4995 26.552C22.5009 26.5369 22.5009 26.5217 22.4995 26.5065C22.497 26.491 22.4932 26.4758 22.4881 26.461C22.4862 26.4505 22.4839 26.44 22.481 26.4297C22.4778 26.427 22.4754 26.4236 22.4739 26.4198C22.4666 26.406 22.4586 26.3927 22.4497 26.3799C22.4415 26.367 22.4325 26.3547 22.4227 26.3429L22.4155 26.333L21.7356 25.6389C21.7075 25.6066 21.673 25.5804 21.6344 25.562C21.5958 25.5435 21.5538 25.5331 21.511 25.5315C21.4682 25.5298 21.4255 25.5369 21.3856 25.5524C21.3456 25.5678 21.3093 25.5912 21.2787 25.6212C21.2481 25.6512 21.224 25.6871 21.2078 25.7267C21.1916 25.7664 21.1837 25.8089 21.1846 25.8517C21.1854 25.8945 21.195 25.9367 21.2127 25.9757C21.2304 26.0147 21.2559 26.0496 21.2876 26.0784L21.4455 26.2377H19.4214C19.3785 26.2348 19.3354 26.2408 19.2948 26.2552C19.2542 26.2697 19.2171 26.2923 19.1856 26.3217C19.1542 26.3511 19.1291 26.3867 19.1119 26.4262C19.0948 26.4657 19.0859 26.5083 19.0859 26.5513C19.0859 26.5944 19.0948 26.637 19.1119 26.6765C19.1291 26.716 19.1542 26.7515 19.1856 26.781C19.2171 26.8104 19.2542 26.833 19.2948 26.8474C19.3354 26.8619 19.3785 26.8679 19.4214 26.865H21.4426L21.2847 27.0257C21.232 27.0861 21.2043 27.1644 21.2074 27.2446C21.2105 27.3247 21.2442 27.4007 21.3014 27.4568C21.3587 27.513 21.4352 27.5452 21.5154 27.5467C21.5956 27.5483 21.6734 27.5191 21.7328 27.4652L22.4127 26.7711L22.4198 26.7611C22.4299 26.7492 22.439 26.7363 22.4468 26.7227C22.4557 26.7105 22.4638 26.6976 22.471 26.6843C22.4729 26.6802 22.4753 26.6764 22.4781 26.6729C22.4813 26.6627 22.4837 26.6523 22.4852 26.6416C22.4905 26.6274 22.4943 26.6126 22.4966 26.5976C22.499 26.5825 22.4999 26.5673 22.4995 26.552Z" fill="#F04E69"/>
<path d="M26.8963 15.5065C27.7754 15.5065 28.488 14.757 28.488 13.8324C28.488 12.9077 27.7754 12.1582 26.8963 12.1582C26.0173 12.1582 25.3047 12.9077 25.3047 13.8324C25.3047 14.757 26.0173 15.5065 26.8963 15.5065Z" fill="#F04E69"/>
<path d="M14.9002 15.5065C15.7793 15.5065 16.4919 14.757 16.4919 13.8324C16.4919 12.9077 15.7793 12.1582 14.9002 12.1582C14.0212 12.1582 13.3086 12.9077 13.3086 13.8324C13.3086 14.757 14.0212 15.5065 14.9002 15.5065Z" fill="#F04E69"/>
<path d="M18.2234 18.537C18.2433 18.032 17.7625 17.0392 17.2405 16.5456C16.5919 15.9283 16.2448 15.8984 15.1994 15.8984H14.5593C13.521 15.8984 13.1711 15.9297 12.5239 16.5456C12.0019 17.0406 11.5211 18.0334 11.5396 18.537C11.5566 18.9751 12.4869 19.3236 13.0857 19.5838C12.7315 21.3106 11.7885 26.0998 12.1669 26.4853C12.3294 26.6382 12.5281 26.7474 12.7443 26.8025C12.7219 27.8244 12.7632 28.8467 12.8681 29.8635C12.9506 30.5519 13.0928 30.5562 13.4242 30.5562C13.8922 30.5562 14.0145 30.4765 14.0842 29.8834C14.2274 28.6639 14.3559 27.6753 14.4697 26.9177C14.6333 26.9106 14.7812 26.9049 14.8964 26.9049C15.0116 26.9049 15.1439 26.9049 15.2734 26.8921C15.3914 27.6573 15.528 28.6587 15.673 29.8791C15.7427 30.4722 15.8636 30.5519 16.333 30.5519C16.6645 30.5519 16.8067 30.5519 16.8892 29.8592C17.0001 28.7605 17.0409 27.656 17.0115 26.5521C17.2549 26.4703 17.469 26.319 17.6274 26.1169C17.882 25.7286 17.1111 21.6364 16.7526 19.8214C17.2675 19.5355 18.2077 19.032 18.2234 18.537ZM13.6589 18.8129C13.5215 18.8395 13.3793 18.8242 13.2506 18.769C13.122 18.7139 13.0128 18.6215 12.9372 18.5037C12.8616 18.3859 12.8231 18.2481 12.8267 18.1082C12.8302 17.9682 12.8756 17.8326 12.957 17.7187C13.0384 17.6049 13.1521 17.5181 13.2834 17.4695C13.4146 17.4209 13.5574 17.4128 13.6934 17.4462C13.8293 17.4797 13.9521 17.5531 14.0458 17.657C14.1396 17.7609 14.2 17.8906 14.2194 18.0292C14.2486 18.2072 14.2062 18.3895 14.1015 18.5363C13.9968 18.6832 13.8382 18.7826 13.6604 18.8129H13.6589ZM16.4155 18.8911L16.3871 18.9978C16.2064 19.4871 15.0671 19.3335 14.8025 19.2709C14.717 19.2485 14.6368 19.2093 14.5665 19.1556C14.4962 19.102 14.4373 19.0349 14.3931 18.9583C14.3489 18.8817 14.3203 18.7971 14.3091 18.7094C14.2978 18.6217 14.3041 18.5326 14.3275 18.4474L14.3559 18.3407C14.4023 18.1688 14.5147 18.0222 14.6688 17.933C14.8228 17.8437 15.0059 17.819 15.1781 17.8642L15.939 18.0676C16.1113 18.114 16.2582 18.2266 16.3477 18.3809C16.4373 18.5352 16.4621 18.7186 16.417 18.8911H16.4155Z" fill="#F04E69"/>
<path d="M31.4891 21.9206C31.6341 21.9167 31.7781 21.9465 31.9097 22.0078C32.0412 22.069 32.1568 22.1599 32.2472 22.2734C32.453 22.5337 32.5585 22.8593 32.5445 23.1908C32.5369 23.5758 32.3962 23.9462 32.1462 24.2391C31.9884 24.4667 30.8803 25.5918 30.7509 25.7611C30.7359 25.7871 30.7144 25.8087 30.6884 25.8237C30.6624 25.8387 30.6329 25.8466 30.6029 25.8466C30.5729 25.8466 30.5435 25.8387 30.5175 25.8237C30.4915 25.8087 30.47 25.7871 30.455 25.7611C30.3256 25.5918 29.2175 24.4667 29.0597 24.2391C28.8097 23.9462 28.669 23.5758 28.6614 23.1908C28.6474 22.8593 28.7529 22.5337 28.9587 22.2734C29.0491 22.1599 29.1647 22.069 29.2962 22.0078C29.4278 21.9465 29.5718 21.9167 29.7168 21.9206C29.9459 21.9121 30.1702 21.9869 30.3483 22.1311C30.4463 22.2134 30.532 22.3091 30.6029 22.4156C30.6739 22.3088 30.7602 22.2129 30.859 22.1311C31.0365 21.9867 31.2605 21.9119 31.4891 21.9206Z" fill="#F04E69"/>
<path d="M29.5147 25.5876C29.0296 25.0755 28.7224 24.7484 28.6043 24.5848C28.2811 24.1942 28.1009 23.7049 28.0937 23.198C28.0784 22.7299 28.233 22.2722 28.529 21.9093C28.692 21.7151 28.9 21.5637 29.1349 21.4683C29.0311 20.8766 28.9301 20.3304 28.8504 19.9037C28.7921 19.6192 28.6954 19.3945 28.8106 19.3689C29.1975 19.2551 29.4364 20.2365 29.6441 21.3602H29.7223C30.0375 21.3534 30.3471 21.4443 30.6085 21.6205C30.6599 21.5852 30.7136 21.5534 30.7692 21.5252C30.5744 19.0759 29.7736 15.9082 27.8434 15.9082H26.5632C25.5249 15.9082 25.175 15.9395 24.5278 16.5554C24.0058 17.0504 23.525 18.0432 23.5435 18.5467C23.5606 18.9848 24.4908 19.3333 25.0896 19.5936C24.7354 21.3204 23.7924 26.1096 24.1708 26.495C24.3309 26.6467 24.5265 26.7557 24.7397 26.8122C24.7187 27.8341 24.76 28.8564 24.8635 29.8732C24.9474 30.5617 25.0896 30.5659 25.421 30.5659C25.889 30.5659 26.0113 30.4863 26.081 29.8931C26.2242 28.6737 26.3527 27.6851 26.4665 26.9275C26.6301 26.9203 26.7766 26.9147 26.8932 26.9147C27.0098 26.9147 27.1421 26.9147 27.2716 26.9018C27.3896 27.6671 27.5262 28.6685 27.6698 29.8889C27.7395 30.482 27.8619 30.5617 28.3298 30.5617C28.6612 30.5617 28.8049 30.5617 28.8874 29.869C28.9985 28.7703 29.0389 27.6657 29.0083 26.5619C29.252 26.48 29.4666 26.3287 29.6256 26.1267C29.671 26.0105 29.6895 25.8855 29.6797 25.7611L29.5147 25.5876ZM25.6557 18.8227C25.5183 18.8489 25.3762 18.8334 25.2476 18.778C25.1191 18.7227 25.0102 18.6301 24.9348 18.5122C24.8594 18.3943 24.8211 18.2566 24.8249 18.1167C24.8286 17.9768 24.8741 17.8413 24.9557 17.7276C25.0372 17.6138 25.1509 17.5272 25.2822 17.4787C25.4135 17.4303 25.5562 17.4223 25.6921 17.4559C25.8279 17.4894 25.9506 17.5628 26.0443 17.6668C26.1379 17.7707 26.1983 17.9004 26.2176 18.0389C26.2451 18.2163 26.2015 18.3974 26.0963 18.5428C25.9911 18.6882 25.8328 18.7862 25.6557 18.8156V18.8227ZM26.8008 19.2807C26.7151 19.2584 26.6347 19.2193 26.5643 19.1657C26.4938 19.1122 26.4347 19.0451 26.3904 18.9685C26.3461 18.8919 26.3174 18.8072 26.306 18.7194C26.2947 18.6317 26.3009 18.5425 26.3243 18.4571L26.3527 18.3504C26.3994 18.1785 26.5121 18.0319 26.6664 17.9426C26.8206 17.8534 27.0039 17.8287 27.1763 17.8739L27.9372 18.0773C28.1092 18.124 28.2558 18.2368 28.3451 18.391C28.4343 18.5453 28.459 18.7285 28.4137 18.9009L28.3853 19.0076C28.2032 19.4898 27.0639 19.3362 26.8008 19.2736V19.2807Z" fill="#F04E69"/>
<path d="M33.4363 20.0918H32.9883C32.2273 20.0918 31.6071 20.6608 31.1562 21.3819C31.2678 21.36 31.3811 21.349 31.4948 21.3492C31.7216 21.3456 31.9464 21.3932 32.1523 21.4885C32.3582 21.5838 32.5399 21.7243 32.6839 21.8997C32.9799 22.2626 33.1345 22.7203 33.1191 23.1883C33.1121 23.6951 32.9325 24.1843 32.6099 24.5752C32.4905 24.7387 32.1832 25.0659 31.6982 25.578L31.5844 25.6989C31.5526 27.1243 31.621 28.5502 31.7892 29.966C31.8475 30.4525 31.9485 30.4553 32.1832 30.4553C32.5132 30.4553 32.6 30.3999 32.6498 29.9802C32.8887 27.9491 33.0594 26.8183 33.1675 26.6206C33.1727 26.6143 33.1792 26.6094 33.1866 26.6062C33.194 26.603 33.2021 26.6016 33.2102 26.6021C33.2272 26.6021 33.2486 26.6021 33.2543 26.6149C33.3354 26.7827 33.5388 27.9505 33.7749 29.9802C33.8232 30.3999 33.91 30.4553 34.2414 30.4553C34.4761 30.4553 34.5771 30.4553 34.6354 29.966C34.8111 28.408 34.8629 26.8384 34.7905 25.2721C34.7492 23.8967 34.3125 22.4046 34.479 22.3591C34.4933 22.3538 34.5091 22.3536 34.5236 22.3585C34.5381 22.3634 34.5504 22.3732 34.5586 22.3861C35.0024 23.0589 35.284 24.8981 35.8018 24.7146C36.3195 24.5311 35.6183 20.0918 33.4363 20.0918Z" fill="#F04E69"/>
</g>
<defs>
<clipPath id="clip0_2500_19947">
<rect width="36" height="36" fill="white"/>
</clipPath>
</defs>
</svg>
