<svg width="37" height="36" viewBox="0 0 37 36" fill="none" xmlns="http://www.w3.org/2000/svg">
<path d="M10.4372 19.0043C12.0162 19.0043 13.2963 17.6571 13.2963 15.9953C13.2963 14.3335 12.0162 12.9863 10.4372 12.9863C8.85818 12.9863 7.57812 14.3335 7.57812 15.9953C7.57812 17.6571 8.85818 19.0043 10.4372 19.0043Z" fill="#F04E69"/>
<path d="M26.3005 19.0043C27.8799 19.0043 29.158 17.6611 29.158 15.9953C29.158 14.3295 27.8784 12.9863 26.299 12.9863C24.7195 12.9863 23.4414 14.3295 23.4414 15.9953C23.4414 17.6611 24.721 19.0043 26.3005 19.0043Z" fill="#F04E69"/>
<path d="M18.3669 21.268C19.9459 21.268 21.226 19.9208 21.226 18.259C21.226 16.5972 19.9459 15.25 18.3669 15.25C16.7879 15.25 15.5078 16.5972 15.5078 18.259C15.5078 19.9208 16.7879 21.268 18.3669 21.268Z" fill="#F04E69"/>
<path d="M18.8981 21.9707H17.7578C12.8119 21.9707 11.0523 32.2955 12.397 32.7695C12.4723 32.7967 12.5516 32.811 12.6317 32.8119C13.7402 32.8119 13.9674 29.6954 15.0244 27.3345C15.0347 27.3073 15.0532 27.2839 15.0773 27.2677C15.1015 27.2514 15.13 27.243 15.1591 27.2436C15.184 27.2439 15.2086 27.2485 15.2318 27.2573C15.2879 27.2754 15.3227 27.3557 15.3409 27.489C15.3409 27.489 14.3732 31.8593 14.9259 32.9073C15.3515 33.7144 16.725 34.0006 18.3968 34.0006C20.1898 34.0006 21.6269 33.8325 21.951 32.7059C22.2008 31.8381 21.6072 29.0018 21.4755 27.7782C21.4994 27.7616 21.526 27.7493 21.5542 27.7419C21.5744 27.7362 21.5953 27.7331 21.6163 27.7328C21.6446 27.7316 21.6726 27.7383 21.6972 27.7522C21.7218 27.7662 21.7421 27.7867 21.7556 27.8115C22.9853 30.0164 22.9671 32.8164 24.0135 32.8164C24.0993 32.8151 24.1844 32.7993 24.2649 32.7695C25.6036 32.2955 23.9045 21.9707 18.8981 21.9707Z" fill="#F04E69"/>
<path d="M26.8298 19.709H25.691C23.8905 19.709 22.4761 20.7963 21.4297 22.2834C23.5589 23.8371 24.6931 27.1747 25.0641 29.375C25.1822 30.0686 25.2973 31.0257 25.2155 31.8267C25.6214 31.7843 26 31.7389 26.315 31.7389C28.1322 31.7253 29.3088 31.321 29.9494 30.3321C30.4446 29.5749 29.6465 26.4826 29.386 25.518C29.4101 25.5012 29.4367 25.4884 29.4648 25.4801C29.5013 25.4675 29.541 25.4675 29.5775 25.4802C29.614 25.4928 29.6453 25.5173 29.6662 25.5498C31.0836 27.4912 31.2986 30.9711 32.6131 30.5077C33.9745 30.0338 31.6379 19.709 26.8298 19.709Z" fill="#F04E69"/>
<path d="M17.8422 12.3603C17.9679 12.4784 18.1072 12.6117 18.2753 12.6117C18.4434 12.6117 18.5782 12.4784 18.7084 12.3603C19.09 11.8651 22.3353 8.57447 22.7971 7.89756C23.5937 6.86781 23.9662 5.89106 23.9662 4.82496C23.9662 3.78915 23.6951 2.8336 23.0939 2.13398C22.8295 1.80076 22.4914 1.53339 22.1062 1.35288C21.721 1.17236 21.2992 1.08362 20.8739 1.09362C20.2027 1.06929 19.5454 1.28876 19.0234 1.71147C18.7356 1.95376 18.4837 2.23572 18.2753 2.5489C18.0664 2.23607 17.8146 1.95416 17.5272 1.71147C17.0061 1.28946 16.3499 1.07003 15.6797 1.09362C15.2548 1.08237 14.8331 1.16977 14.4476 1.34897C14.0622 1.52816 13.7235 1.79427 13.4582 2.1264C12.8525 2.82603 12.5859 3.78158 12.5859 4.81739C12.5859 5.87743 12.9569 6.86023 13.755 7.88999C14.2139 8.56084 17.4606 11.8576 17.8422 12.3603Z" fill="#F04E69"/>
<path d="M26.2344 5.0133C26.2344 5.12736 26.2797 5.23675 26.3603 5.31741C26.441 5.39806 26.5504 5.44337 26.6644 5.44337H27.3504C27.409 5.44685 27.4676 5.43833 27.5227 5.41832C27.5778 5.39832 27.6282 5.36726 27.6709 5.32705C27.7136 5.28685 27.7476 5.23834 27.7708 5.18452C27.794 5.13069 27.806 5.07268 27.806 5.01406C27.806 4.95543 27.794 4.89742 27.7708 4.8436C27.7476 4.78977 27.7136 4.74127 27.6709 4.70106C27.6282 4.66085 27.5778 4.62979 27.5227 4.60979C27.4676 4.58979 27.409 4.58126 27.3504 4.58474H26.6644C26.5506 4.58474 26.4415 4.62984 26.3609 4.71017C26.2803 4.7905 26.2348 4.8995 26.2344 5.0133Z" fill="#F04E69"/>
<path d="M25.4015 7.71791C25.3219 7.79865 25.2773 7.90744 25.2773 8.02078C25.2773 8.13411 25.3219 8.2429 25.4015 8.32365L25.8876 8.80823C25.9688 8.88419 26.0763 8.92562 26.1875 8.92376C26.2986 8.92191 26.4047 8.87692 26.4834 8.7983C26.562 8.71968 26.607 8.61358 26.6088 8.50241C26.6107 8.39124 26.5693 8.2837 26.4933 8.2025L26.0072 7.7164C25.9266 7.63633 25.8176 7.59151 25.704 7.5918C25.5904 7.59208 25.4816 7.63744 25.4015 7.71791Z" fill="#F04E69"/>
<path d="M26.0063 2.3112L26.4924 1.82661C26.5612 1.74417 26.5966 1.63899 26.5917 1.53175C26.5869 1.42451 26.5421 1.32297 26.4662 1.24706C26.3903 1.17115 26.2888 1.12638 26.1815 1.12153C26.0743 1.11669 25.9691 1.15212 25.8867 1.22087L25.4006 1.70546C25.3318 1.7879 25.2964 1.89308 25.3012 2.00032C25.3061 2.10755 25.3508 2.20911 25.4267 2.28501C25.5027 2.36092 25.6042 2.40569 25.7114 2.41054C25.8187 2.41538 25.9239 2.37995 26.0063 2.3112Z" fill="#F04E69"/>
<path d="M9.09804 5.44413H9.78555C9.89961 5.44413 10.009 5.39882 10.0897 5.31816C10.1703 5.23751 10.2156 5.12812 10.2156 5.01406C10.2156 4.89999 10.1703 4.7906 10.0897 4.70995C10.009 4.6293 9.89961 4.58398 9.78555 4.58398H9.09804C8.98398 4.58398 8.87459 4.6293 8.79393 4.70995C8.71328 4.7906 8.66797 4.89999 8.66797 5.01406C8.66797 5.12812 8.71328 5.23751 8.79393 5.31816C8.87459 5.39882 8.98398 5.44413 9.09804 5.44413Z" fill="#F04E69"/>
<path d="M10.4414 2.3112C10.4796 2.35708 10.527 2.39449 10.5806 2.42104C10.6341 2.44759 10.6925 2.46269 10.7522 2.46539C10.8119 2.46809 10.8715 2.45832 10.9272 2.4367C10.9829 2.41509 11.0335 2.38211 11.0758 2.33986C11.118 2.29762 11.151 2.24703 11.1726 2.19133C11.1942 2.13562 11.204 2.07603 11.2013 2.01634C11.1986 1.95666 11.1835 1.89819 11.1569 1.84466C11.1304 1.79113 11.093 1.74373 11.0471 1.70546L10.561 1.22087C10.4785 1.15212 10.3734 1.11669 10.2661 1.12153C10.1589 1.12638 10.0573 1.17115 9.98143 1.24706C9.90553 1.32297 9.86075 1.42451 9.85591 1.53175C9.85106 1.63899 9.8865 1.74417 9.95525 1.82661L10.4414 2.3112Z" fill="#F04E69"/>
<path d="M10.4415 7.71757L9.95543 8.20367C9.87948 8.28487 9.83805 8.39241 9.8399 8.50358C9.84176 8.61476 9.88674 8.72085 9.96537 8.79948C10.044 8.8781 10.1501 8.92308 10.2613 8.92494C10.3724 8.92679 10.48 8.88537 10.5612 8.80941L11.0473 8.32482C11.0932 8.28656 11.1306 8.23915 11.1571 8.18562C11.1837 8.1321 11.1988 8.07363 11.2015 8.01394C11.2042 7.95425 11.1944 7.89466 11.1728 7.83896C11.1512 7.78325 11.1182 7.73267 11.0759 7.69042C11.0337 7.64817 10.9831 7.61519 10.9274 7.59358C10.8717 7.57196 10.8121 7.56219 10.7524 7.56489C10.6927 7.56759 10.6343 7.58269 10.5807 7.60924C10.5272 7.63579 10.4798 7.6732 10.4415 7.71908V7.71757Z" fill="#F04E69"/>
<path d="M13.4855 24.2617C13.9431 23.5012 14.5395 22.8334 15.2436 22.2931C14.1957 20.7999 12.7768 19.7051 10.9701 19.7051H9.83136C4.77498 19.7051 2.6867 30.0299 4.03143 30.5023C5.34588 30.9657 5.49277 27.666 7.09797 25.0689C7.11605 25.0318 7.14756 25.003 7.18611 24.9884C7.22466 24.9738 7.26733 24.9744 7.30544 24.9901C7.36147 25.0083 7.39478 25.0886 7.41447 25.2233C7.41447 25.2233 5.81684 30.1343 6.6467 30.9778C7.70674 32.0606 9.31345 31.735 10.4719 31.735C10.8036 31.735 11.1291 31.7259 11.4411 31.7108C11.4047 30.9468 11.455 30.1813 11.591 29.4287C11.9196 27.5388 12.6071 25.6564 13.4855 24.2617Z" fill="#F04E69"/>
</svg>
