<svg width="36" height="37" viewBox="0 0 36 37" fill="none" xmlns="http://www.w3.org/2000/svg">
<path d="M22.2019 16.4113C22.2818 16.3041 22.3403 16.1825 22.3742 16.0531C22.5982 15.3902 22.8435 14.5033 23.0599 13.5904C23.3647 13.5645 23.6284 13.4959 23.761 13.3618C24.0292 13.0905 23.9911 9.09462 23.9804 8.2869C23.9926 8.26861 24.0048 8.25795 24.0185 8.25795C24.0336 8.2558 24.0489 8.25907 24.0617 8.26717C24.0745 8.27526 24.0841 8.28766 24.0886 8.30214C24.3721 9.06414 24.2075 11.7631 24.744 11.6945C25.2804 11.626 25.5959 6.24476 23.4989 5.76318L23.0676 5.66412C21.6838 5.34713 20.46 7.24145 19.9205 8.65418C19.6996 7.15153 18.8964 4.9707 17.4608 4.9707H17.0189C15.5391 4.9707 14.7329 7.29021 14.5393 8.79439C14.0303 7.36946 12.77 5.33646 11.339 5.66412L10.9092 5.76318C8.81065 6.24476 9.11545 11.626 9.66256 11.6945C10.2097 11.7631 10.0344 9.07023 10.3179 8.30214C10.3224 8.28766 10.332 8.27526 10.3448 8.26717C10.3577 8.25907 10.373 8.2558 10.388 8.25795C10.4017 8.25795 10.4139 8.26861 10.4261 8.2869C10.4154 9.09309 10.3773 13.0905 10.6455 13.3618C10.7781 13.4959 11.0387 13.5645 11.3466 13.5904C11.563 14.5048 11.8038 15.3902 12.0324 16.0531C12.1116 16.2878 12.1756 16.4006 12.2472 16.4494C10.7196 17.3889 9.45981 18.7061 8.58933 20.2741C7.71885 21.8421 7.26706 23.6079 7.27752 25.4013C7.27752 31.1117 11.7535 35.7644 17.2566 35.7644C22.7597 35.7644 27.2357 31.1178 27.2357 25.4013C27.2467 23.5953 26.7885 21.8173 25.9062 20.2415C25.0238 18.6656 23.7474 17.3458 22.2019 16.4113ZM21.6426 13.4791C21.696 13.4898 21.7508 13.502 21.8088 13.5111C21.7341 14.1207 21.6365 14.9284 21.5451 15.8779C21.5451 15.9419 21.536 15.9968 21.5344 16.0455C21.1879 15.8759 20.8317 15.7268 20.4676 15.599C20.7724 14.712 21.0498 13.9699 21.286 13.406C21.4308 13.4349 21.5527 13.4578 21.6426 13.4791ZM18.4865 7.28717C18.5008 7.28175 18.5166 7.28153 18.531 7.28654C18.5455 7.29156 18.5578 7.30148 18.5657 7.3146C18.9513 7.92419 19.2408 9.73622 19.6569 10.0136C19.6661 10.0411 19.683 10.0654 19.7057 10.0837C20.1628 10.3793 21.0452 8.12993 21.5863 7.52948C21.5909 7.52296 21.5969 7.51743 21.6037 7.51321C21.6105 7.50898 21.6181 7.50616 21.6261 7.50488C21.634 7.50361 21.6421 7.50391 21.6499 7.50578C21.6577 7.50765 21.6651 7.51104 21.6716 7.51576C21.6884 7.52796 21.6899 7.57063 21.6792 7.63921C21.5268 7.97448 19.4877 12.3072 19.7209 12.6958C19.8234 12.8458 19.9645 12.9653 20.1293 13.0417C19.9145 13.7969 19.7541 14.5664 19.6493 15.3445C19.3129 15.2582 18.972 15.1906 18.6282 15.1418C18.6282 15.1144 18.6358 15.0854 18.6404 15.0534C18.8131 13.462 18.8641 11.8597 18.7928 10.2605C18.7516 8.85992 18.3234 7.33593 18.4865 7.28717ZM17.1956 11.6382C17.2006 11.6316 17.2071 11.6264 17.2145 11.623C17.222 11.6195 17.2301 11.6179 17.2383 11.6183C17.2551 11.6183 17.2749 11.6183 17.281 11.6321C17.3618 11.8027 17.5568 12.993 17.7915 15.0565C17.6147 15.0473 17.438 15.0412 17.2581 15.0412C17.0783 15.0412 16.8756 15.0412 16.6866 15.0595C16.9228 12.9945 17.0905 11.8424 17.1956 11.6412V11.6382ZM12.738 7.52338C12.7443 7.5187 12.7516 7.51533 12.7593 7.51349C12.767 7.51164 12.775 7.51134 12.7828 7.51262C12.7906 7.5139 12.798 7.51672 12.8047 7.52093C12.8114 7.52513 12.8172 7.53063 12.8218 7.5371C13.3628 8.13755 14.2437 10.387 14.7024 10.0913C14.7174 10.0821 14.7295 10.0689 14.7374 10.0532C15.2084 9.977 15.5787 7.80075 15.9566 7.13172C15.9596 7.12433 15.9641 7.11761 15.9697 7.11198C15.9754 7.10634 15.9821 7.10189 15.9895 7.09891C15.9969 7.09592 16.0048 7.09446 16.0128 7.09459C16.0207 7.09473 16.0286 7.09647 16.0359 7.09972C16.173 7.14544 15.6899 8.91326 15.6518 10.2681C15.5901 11.8681 15.6512 13.4704 15.8347 15.061C15.8347 15.0946 15.8423 15.125 15.8469 15.154C15.4798 15.2077 15.116 15.282 14.7573 15.3765C14.653 14.5901 14.4915 13.8123 14.2742 13.0494C14.439 12.9729 14.5801 12.8534 14.6826 12.7034C14.9173 12.3148 12.8828 7.97906 12.7243 7.64683C12.7136 7.57368 12.7136 7.531 12.738 7.51881V7.52338ZM12.8629 15.8825C12.7715 14.933 12.674 14.1284 12.6008 13.5157C12.6572 13.5066 12.7121 13.4944 12.7654 13.4837C12.8553 13.4624 12.9772 13.4395 13.1174 13.4106C13.3552 13.9805 13.6417 14.7334 13.945 15.6341C13.5804 15.768 13.2241 15.9237 12.8782 16.1004C12.8797 16.026 12.8756 15.9516 12.866 15.8779L12.8629 15.8825ZM10.8985 29.8071C10.6593 30.1653 10.452 30.4747 10.452 30.9547V31.6466C8.9705 29.9053 8.15979 27.6921 8.16601 25.4059C8.16601 25.3647 8.16601 25.3236 8.16601 25.2824C8.46848 25.626 8.72466 26.0077 8.928 26.4178C9.03564 26.6499 9.17127 26.8679 9.33186 27.067C9.50559 27.2468 9.80887 27.2834 10.1304 27.32C10.58 27.3733 11.4182 27.4724 11.4182 28.4325C11.4243 29.0177 11.1439 29.4353 10.8985 29.8026V29.8071ZM25.8778 25.7442C25.2362 26.4803 24.5458 27.5242 24.5458 27.9281C24.5458 28.5377 24.2167 28.8287 23.9774 29.0436C23.7381 29.2585 23.5735 29.4079 23.5735 29.9458C23.5735 31.6588 21.0635 32.3751 20.7785 32.4513C20.6918 32.4734 20.6006 32.4709 20.5152 32.444C20.4299 32.417 20.3537 32.3668 20.2954 32.2989C20.1842 32.1693 19.1997 31.005 19.1997 29.9443C19.1766 29.5447 19.302 29.1507 19.5517 28.8379C19.6021 28.7838 19.6402 28.7194 19.6634 28.6491C19.6865 28.5789 19.6942 28.5045 19.6858 28.431C19.6772 28.1658 19.6106 27.9057 19.4908 27.669C19.304 27.2753 19.2047 26.8459 19.1997 26.4102C19.0473 26.1938 17.7687 25.9057 16.2843 25.9057C15.3181 25.9057 14.3397 25.3861 14.3397 24.3924C14.3397 24.2629 14.3275 24.1211 14.3138 23.9718C14.2589 23.3211 14.1751 22.3366 14.9676 21.5136C15.9383 20.5078 17.4258 20.3584 18.2274 20.3584C18.968 20.3584 19.2805 20.5108 19.5563 20.6465C19.794 20.7623 19.9983 20.8629 20.6566 20.8629C20.8517 20.8629 21.0452 20.8629 21.2342 20.8629C21.9505 20.875 22.7582 20.8903 23.002 20.6465C23.0249 20.6221 23.0874 20.5596 23.0874 20.3523C23.0874 19.7869 21.5923 19.3434 19.6858 19.3434C18.9909 19.3434 18.5017 19.5858 17.9851 19.8433C17.4684 20.1009 16.9579 20.3523 16.2843 20.3523C16.2196 20.3515 16.1557 20.3376 16.0965 20.3114C16.0373 20.2852 15.984 20.2473 15.9399 20.1999C15.803 20.0565 15.7019 19.8828 15.645 19.6929C15.588 19.503 15.5768 19.3023 15.6122 19.1072C15.7524 18.1928 16.7003 17.3028 17.5218 16.8715C18.0186 16.6094 18.1085 16.4509 18.1192 16.4265C18.0581 16.337 17.9859 16.2556 17.9043 16.1842C17.8453 16.1275 17.8018 16.0567 17.7778 15.9785C21.8118 16.2162 25.1448 19.188 26.082 23.1412C25.8593 23.312 25.5973 23.4241 25.32 23.4674C25.2044 23.4752 25.0884 23.4577 24.9803 23.4161C24.8721 23.3745 24.7743 23.3098 24.6937 23.2266C24.5043 23.0339 24.2876 22.8701 24.0505 22.7404C24.3995 23.7005 25.4435 24.6896 25.8214 24.9944C25.8747 25.0377 25.9187 25.0913 25.9506 25.1521C25.9826 25.2129 26.0019 25.2795 26.0073 25.348C26.0138 25.4186 26.0056 25.4899 25.9834 25.5573C25.9611 25.6247 25.9251 25.6867 25.8778 25.7396V25.7442Z" fill="white"/>
<path d="M17.235 4.58857C18.093 4.58857 18.788 3.82657 18.788 2.89389C18.788 1.96121 18.093 1.19922 17.235 1.19922C16.377 1.19922 15.6836 1.96121 15.6836 2.89389C15.6836 3.82657 16.3785 4.58857 17.235 4.58857Z" fill="white"/>
<path d="M23.3684 5.34072C24.205 5.53274 25.0447 4.94753 25.2352 4.03314C25.4257 3.11874 24.9061 2.22264 24.0724 2.03061C23.2388 1.83859 22.396 2.4238 22.204 3.3382C22.012 4.25259 22.5302 5.15327 23.3684 5.34072Z" fill="white"/>
<path d="M11.0367 5.34072C11.8749 5.1487 12.3946 4.25259 12.201 3.3382C12.0075 2.4238 11.1693 1.83859 10.3326 2.03061C9.49596 2.22264 8.97475 3.12027 9.16983 4.03314C9.3649 4.946 10.2031 5.53274 11.0367 5.34072Z" fill="white"/>
</svg>
