<svg width="36" height="37" viewBox="0 0 36 37" fill="none" xmlns="http://www.w3.org/2000/svg">
<path d="M29.7266 10.1891C29.7266 9.11279 29.2 8.23576 28.2241 8.23576C27.2481 8.23576 26.7245 9.10843 26.7245 10.1891L26.4496 17.1704C26.4522 17.2052 26.4476 17.2401 26.4362 17.273C26.4247 17.3059 26.4065 17.3361 26.3828 17.3617C26.3591 17.3872 26.3304 17.4076 26.2985 17.4215C26.2665 17.4355 26.2321 17.4427 26.1972 17.4427C26.1624 17.4427 26.1279 17.4355 26.0959 17.4215C26.064 17.4076 26.0353 17.3872 26.0116 17.3617C25.9879 17.3361 25.9697 17.3059 25.9583 17.273C25.9468 17.2401 25.9422 17.2052 25.9449 17.1704L25.7383 6.00173C25.7383 4.92398 25.1565 4.04695 24.1762 4.04695C23.1958 4.04695 22.7624 4.91962 22.7624 6.00173L22.4061 16.0534C22.4087 16.0882 22.4041 16.1231 22.3926 16.156C22.3812 16.1889 22.363 16.2191 22.3393 16.2446C22.3156 16.2702 22.2869 16.2906 22.255 16.3045C22.223 16.3185 22.1885 16.3257 22.1537 16.3257C22.1188 16.3257 22.0844 16.3185 22.0524 16.3045C22.0205 16.2906 21.9918 16.2702 21.9681 16.2446C21.9444 16.2191 21.9262 16.1889 21.9148 16.156C21.9033 16.1231 21.8987 16.0882 21.9013 16.0534L21.6104 3.48844C21.6104 2.25652 20.9937 1.25586 19.8781 1.25586C18.7625 1.25586 18.236 2.25652 18.236 3.48844L17.868 16.0534C17.8707 16.0882 17.8661 16.1231 17.8546 16.156C17.8431 16.1889 17.825 16.2191 17.8013 16.2446C17.7776 16.2702 17.7489 16.2906 17.7169 16.3045C17.685 16.3185 17.6505 16.3257 17.6157 16.3257C17.5808 16.3257 17.5463 16.3185 17.5144 16.3045C17.4825 16.2906 17.4537 16.2702 17.43 16.2446C17.4064 16.2191 17.3882 16.1889 17.3767 16.156C17.3652 16.1231 17.3607 16.0882 17.3633 16.0534L17.02 7.398C17.02 6.16608 16.4557 5.16396 15.3415 5.16396C14.2274 5.16396 13.7154 6.16608 13.7154 7.398L13.57 11.981L16.6855 17.0192C17.5152 16.908 18.3592 17.0479 19.1087 17.4206C19.2745 17.4948 19.7196 17.6868 20.2476 17.9122C21.5668 18.478 22.1937 18.8896 22.7202 19.038C23.1054 19.1651 23.5019 19.2552 23.9042 19.307C24.1555 19.3149 24.3991 19.3957 24.6053 19.5397C24.8188 19.6982 24.9634 19.9324 25.0096 20.1942C25.0248 20.2942 25.0126 20.3964 24.9742 20.4899C24.9357 20.5835 24.8726 20.6648 24.7914 20.7251C24.4773 20.9666 23.9798 21.0378 23.5289 21.0451C23.1129 21.0524 22.5399 20.9404 21.7486 20.6466C21.6032 20.5739 21.2585 20.491 21.2948 20.6466C21.3281 20.7555 21.3809 20.8575 21.4504 20.9477C21.4723 20.9767 21.5014 21.0189 21.4752 20.9826C21.4752 20.9826 21.4577 20.9564 21.4504 20.9477C21.4228 20.9084 21.4432 20.9389 21.4504 20.9477L24.6242 25.6935C24.9529 26.1517 25.03 26.6709 24.6154 26.9909C24.2009 27.3109 23.7238 27.1014 23.3951 26.6433L20.9603 23.5235C20.9517 23.5101 20.9404 23.4986 20.9271 23.4897C20.9139 23.4808 20.899 23.4748 20.8833 23.4719C20.8676 23.469 20.8515 23.4694 20.836 23.473C20.8204 23.4767 20.8058 23.4834 20.793 23.4929C20.7676 23.514 20.7513 23.544 20.7475 23.5768C20.7437 23.6096 20.7527 23.6426 20.7727 23.6689L23.9856 28.4468C24.3144 28.9035 24.3813 29.4315 23.9667 29.7558C23.5522 30.0801 23.0548 29.8823 22.726 29.4242L19.2702 24.8354C19.2613 24.8221 19.2498 24.8107 19.2364 24.802C19.223 24.7932 19.208 24.7872 19.1923 24.7844C19.1765 24.7815 19.1604 24.7818 19.1448 24.7854C19.1292 24.7889 19.1144 24.7955 19.1014 24.8049C19.076 24.8259 19.0597 24.856 19.0559 24.8888C19.0521 24.9215 19.0611 24.9545 19.0811 24.9808L21.6264 28.8264C21.9173 29.2278 21.9842 29.6787 21.6264 29.9594C21.2686 30.2401 20.8119 30.083 20.5239 29.6816L17.4695 25.5888C17.4609 25.5754 17.4496 25.5639 17.4363 25.555C17.4231 25.5461 17.4082 25.5401 17.3925 25.5372C17.3768 25.5344 17.3607 25.5347 17.3452 25.5384C17.3296 25.542 17.315 25.5487 17.3022 25.5583C17.2768 25.5793 17.2605 25.6094 17.2567 25.6422C17.2529 25.675 17.2619 25.7079 17.2818 25.7342L19.0403 28.409C19.3312 28.809 19.3691 29.2816 19.004 29.5725C18.6389 29.8634 18.2127 29.6773 17.9247 29.2816L13.778 23.7111C13.0202 22.4995 12.7816 21.5134 12.8602 20.6858L11.65 18.8722C10.9722 17.9515 10.3701 17.3246 9.83626 16.9261C9.04647 16.3356 8.09086 15.7945 7.25452 15.7916C7.0402 15.7871 6.82899 15.8435 6.64542 15.9542C6.46185 16.0649 6.31346 16.2254 6.21746 16.417C5.89456 17.0134 5.99784 17.6839 6.10547 18.0897C6.28381 18.6137 6.60343 19.0782 7.02908 19.4321C7.66033 20.1026 8.09668 20.5331 8.74539 21.4814C9.48136 22.4501 10.0544 24.0005 11.6369 26.7451C12.2682 27.8417 12.8005 28.7682 12.9983 29.1202C14.5314 32.1513 17.5408 34.2559 20.9981 34.2559C25.1754 34.2559 29.5098 33.2028 30 25.3939L29.7266 10.1891Z" fill="white"/>
</svg>
