<svg xmlns="http://www.w3.org/2000/svg" width="56" height="42" viewBox="0 0 56 42" fill="none">
    <path d="M29.9249 21.585H29.6867C29.6867 21.585 29.3428 21.8251 28.6549 22.3052C27.9669 22.7852 27.3848 23.5587 26.9086 24.6256C26.4588 25.6658 26.267 26.7059 26.3331 27.7461C26.3992 28.7863 26.4323 29.3064 26.4323 29.3064L26.6704 29.5464H26.9086C26.9086 29.5464 27.2988 29.2197 28.0794 28.5663C28.8599 27.9128 29.4751 27.066 29.9249 26.0258C30.4011 24.9856 30.5599 24.0255 30.4011 23.1453C30.2424 22.2652 30.163 21.8251 30.163 21.8251L29.9249 21.585ZM24.1304 28.8663C24.1833 28.5463 24.2164 27.9462 24.2296 27.066C24.2429 26.1859 24.051 25.2924 23.6541 24.3855C23.2043 23.3453 22.6223 22.5785 21.9079 22.0851C21.1935 21.5917 20.7701 21.345 20.6378 21.345H20.3997C20.2939 21.345 20.2344 21.385 20.2211 21.465C20.2079 21.545 20.2013 21.585 20.2013 21.585C20.2013 21.585 20.1219 22.0251 19.9631 22.9053C19.8044 23.7854 19.9499 24.7456 20.3997 25.7858C20.876 26.8526 21.4978 27.7061 22.2651 28.3462C23.0324 28.9863 23.416 29.3064 23.416 29.3064H23.8923C23.9981 29.3064 24.0643 29.2931 24.0907 29.2664C24.1172 29.2397 24.1304 29.173 24.1304 29.0664C24.1304 29.0397 24.1304 29.013 24.1304 28.9863C24.1304 28.9597 24.1304 28.9197 24.1304 28.8663ZM47.1099 32.827H33.854L35.0447 28.5863V28.3462L36.4337 28.1462C36.4337 28.1462 36.48 28.1329 36.5726 28.1062C36.6653 28.0795 36.7645 28.0128 36.8703 27.9062C37.0026 27.7728 37.1151 27.5794 37.2077 27.3261C37.3003 27.0727 37.3466 26.946 37.3466 26.946H37.5847L40.8391 29.9865C40.8391 29.9865 41.0376 30.1466 41.4344 30.4666C41.8313 30.7867 42.3208 30.9467 42.9029 30.9467C43.3792 30.9467 43.8488 30.6733 44.3118 30.1265C44.7749 29.5798 45.0064 29.3064 45.0064 29.3064L46.8717 27.186C46.8717 27.186 46.9974 27.0393 47.2488 26.7459C47.5001 26.4526 47.4538 26.1325 47.1099 25.7858C46.7394 25.4391 46.3756 25.3524 46.0184 25.5257C45.6612 25.6991 45.4826 25.7858 45.4826 25.7858L43.6173 26.7459C43.6173 26.7459 43.571 26.7793 43.4784 26.846C43.3858 26.9126 43.2733 26.946 43.141 26.946C43.0352 26.946 42.8963 26.8326 42.7243 26.6059C42.5523 26.3792 42.4663 26.2659 42.4663 26.2659V26.0258C42.4663 25.9191 42.6582 25.7724 43.0418 25.5857C43.4255 25.399 43.6173 25.3057 43.6173 25.3057C43.6173 25.3057 43.6967 25.2524 43.8554 25.1457C44.0142 25.039 44.0936 24.8656 44.0936 24.6256C44.0936 24.5189 43.9348 24.0655 43.6173 23.2653C43.2998 22.4652 42.9492 21.6117 42.5656 20.7049C42.1819 19.7981 41.8446 18.9712 41.5535 18.2244C41.236 17.5043 41.0773 17.1442 41.0773 17.1442V16.9042L45.0064 17.6243C45.0064 17.6243 45.2511 17.6577 45.7406 17.7244C46.2301 17.791 46.5278 17.5977 46.6336 17.1442C46.7394 16.7975 46.6865 16.5175 46.4748 16.3041C46.2632 16.0907 46.1573 15.984 46.1573 15.984L40.3629 12.4634C40.3629 12.4634 40.2769 12.4234 40.1049 12.3434C39.9329 12.2634 39.794 12.2234 39.6882 12.2234L39.2119 12.7035L38.2991 14.5838V14.7838L38.061 14.5838L37.1084 13.3836C37.1084 13.3836 37.1018 13.3502 37.0886 13.2836C37.0754 13.2169 37.0026 13.1835 36.8703 13.1835C36.7645 13.1835 36.6256 13.2569 36.4536 13.4036C36.2816 13.5503 36.1956 13.6236 36.1956 13.6236C36.1956 13.6236 36.0699 13.7436 35.8186 13.9837C35.5672 14.2237 35.3886 14.3438 35.2828 14.3438L34.5684 12.9435C34.5684 12.9435 34.5618 12.9035 34.5485 12.8235C34.5353 12.7435 34.4626 12.7035 34.3303 12.7035C34.2244 12.7035 34.1186 12.7435 34.0128 12.8235C33.9069 12.9035 33.854 12.9435 33.854 12.9435L28.7739 18.7845C28.7739 18.7845 28.6482 18.9312 28.3969 19.2246C28.1455 19.518 28.1918 19.8381 28.5358 20.1848C28.7739 20.4248 29.0253 20.4848 29.2899 20.3648C29.5545 20.2448 29.6867 20.1848 29.6867 20.1848L33.6556 17.6243L32.4649 22.9853L30.4011 32.587H25.5195V17.1442C25.7576 16.9042 26.128 16.4175 26.6308 15.684C27.1335 14.9505 27.3848 13.877 27.3848 12.4634C27.3848 11.0765 27.1401 10.023 26.6506 9.30286C26.1611 8.58273 25.7841 8.08931 25.5195 7.8226C25.4401 7.74258 25.3806 7.68257 25.3409 7.64257C25.3012 7.60256 25.2814 7.56922 25.2814 7.54255H24.8051C24.8051 7.54255 24.4611 7.92262 23.7732 8.68275C23.0853 9.44288 22.7413 10.7031 22.7413 12.4634C22.7413 13.9303 23.0125 15.0105 23.5549 15.704C24.0973 16.3974 24.4876 16.8375 24.7257 17.0242C24.7522 17.0509 24.772 17.0709 24.7853 17.0842C24.7985 17.0976 24.8051 17.1176 24.8051 17.1442V32.587H20.3997L17.185 18.0644V17.8244C17.2908 17.8244 17.8927 18.1778 18.9908 18.8846C20.0888 19.5913 20.6378 19.9447 20.6378 19.9447C20.6378 19.9447 20.8032 20.0048 21.1339 20.1248C21.4647 20.2448 21.683 20.1848 21.7888 19.9447C22.0269 19.7047 22.0865 19.4513 21.9674 19.1846C21.8483 18.9179 21.7888 18.7845 21.7888 18.7845L16.4706 12.9435C16.4706 12.9435 16.3846 12.8635 16.2126 12.7035C16.0406 12.5434 15.8885 12.4634 15.7562 12.4634C15.6504 12.4634 15.5511 12.5034 15.4585 12.5834C15.3659 12.6635 15.3196 12.7035 15.3196 12.7035C15.3196 12.7035 15.194 12.7768 14.9426 12.9235C14.6912 13.0702 14.2745 13.1435 13.6924 13.1435C13.1103 13.1435 12.6142 13.0702 12.2041 12.9235C11.794 12.7768 11.5889 12.7035 11.5889 12.7035C11.5889 12.7035 11.5426 12.6701 11.45 12.6034C11.3574 12.5368 11.2582 12.5701 11.1524 12.7035C11.0201 12.7035 10.9076 12.7435 10.815 12.8235C10.7224 12.9035 10.6761 12.9435 10.6761 12.9435L5.11977 16.1841C5.11977 16.1841 4.97425 16.2974 4.6832 16.5241C4.39216 16.7508 4.29955 17.0376 4.40539 17.3843C4.51122 17.5977 4.68982 17.691 4.94118 17.6643C5.19253 17.6377 5.31821 17.6243 5.31821 17.6243L9.76329 16.6642L6.27073 23.7054C6.27073 23.7054 6.23766 23.7988 6.17151 23.9855C6.10536 24.1722 6.13844 24.3855 6.27073 24.6256L7.89794 26.2659C7.89794 26.2659 7.9244 26.2725 7.97732 26.2859C8.03024 26.2992 8.00378 26.3726 7.89794 26.5059C7.76565 26.6126 7.6532 26.7526 7.5606 26.926C7.46799 27.0993 7.42169 27.186 7.42169 27.186H7.18356C7.07772 27.0793 6.62792 26.7393 5.83416 26.1658C5.0404 25.5924 4.64352 25.3057 4.64352 25.3057C4.64352 25.3057 4.50461 25.259 4.22679 25.1657C3.94897 25.0723 3.70423 25.199 3.49256 25.5457C3.25443 25.7858 3.23459 26.0792 3.43303 26.4259C3.63147 26.7726 3.73069 26.946 3.73069 26.946L5.31821 29.3064C5.31821 29.3064 5.60926 29.6065 6.19135 30.2066C6.77345 30.8067 7.42169 31.0534 8.13607 30.9467C8.61233 30.8667 9.13489 30.5533 9.70376 30.0065C10.2726 29.4598 10.782 28.9463 11.2318 28.4663C11.417 28.2796 11.5823 28.1062 11.7279 27.9462C11.8734 27.7861 11.9858 27.6928 12.0652 27.6661C12.1181 27.6661 12.1843 27.6728 12.2636 27.6861C12.343 27.6995 12.4356 27.7328 12.5415 27.7861C12.6738 27.8128 12.8524 27.8595 13.0773 27.9262C13.3022 27.9928 13.5866 28.0662 13.9305 28.1462H15.9943C16.0737 28.1462 16.1663 28.3262 16.2721 28.6863C16.378 29.0464 16.497 29.4798 16.6293 29.9865C16.7087 30.3066 16.7947 30.6333 16.8873 30.9667C16.9799 31.3001 17.0791 31.6001 17.185 31.8669C17.185 31.9202 17.1916 31.9735 17.2048 32.0269C17.2181 32.0802 17.2379 32.1336 17.2644 32.1869C17.2908 32.2669 17.3173 32.3536 17.3437 32.447C17.3702 32.5403 17.3834 32.667 17.3834 32.827H3.25443V33.5071H17.6215C17.7538 33.8539 17.8663 34.1339 17.9589 34.3473C18.0515 34.5607 18.0978 34.6674 18.0978 34.6674C18.0978 34.6674 18.2632 34.9207 18.5939 35.4275C18.9246 35.9342 19.3811 36.0809 19.9631 35.8676C20.5452 35.6275 20.8429 35.2541 20.8561 34.7474C20.8694 34.2406 20.876 33.9872 20.876 33.9872L20.6378 33.2671H24.8051V35.8676H25.5195V33.2671H30.163C30.163 33.2671 30.1365 33.6005 30.0836 34.2673C30.0307 34.9341 30.2821 35.3875 30.8377 35.6275C31.5521 35.8409 32.121 35.5408 32.5443 34.7274C32.9676 33.9139 33.1793 33.5071 33.1793 33.5071V33.2671H47.1099V32.827ZM15.9943 7.30251C15.6504 6.50236 15.0352 5.94226 14.1488 5.62221C13.2625 5.30215 12.4092 5.31549 11.5889 5.66221C10.7952 6.03561 10.2395 6.66906 9.92204 7.56255C9.60454 8.45604 9.61777 9.31619 9.96173 10.143C10.1999 10.5964 10.4446 10.8898 10.696 11.0232C10.9473 11.1565 11.245 11.1699 11.5889 11.0632C11.7212 11.4099 11.9858 11.6899 12.3827 11.9033C12.7796 12.1167 13.2162 12.2234 13.6924 12.2234C14.2745 12.2234 14.764 12.0167 15.1609 11.6033C15.5578 11.1899 15.7562 10.7031 15.7562 10.143C15.7562 9.98298 15.743 9.85629 15.7165 9.76294C15.6901 9.66959 15.6636 9.58291 15.6371 9.5029C15.6107 9.44955 15.5908 9.39621 15.5776 9.34287C15.5644 9.28952 15.5578 9.23618 15.5578 9.18284C15.9017 9.07615 16.12 8.88279 16.2126 8.60273C16.3052 8.32269 16.2325 7.88927 15.9943 7.30251ZM34.5684 5.46218C34.5684 5.46218 34.3964 5.52886 34.0524 5.66221C33.7085 5.79557 33.4174 6.03561 33.1793 6.38234C33.1793 6.38234 33.219 6.54904 33.2984 6.88243C33.3777 7.21582 33.4174 7.43586 33.4174 7.54255C33.2851 7.88927 33.1925 8.28268 33.1396 8.72276C33.0867 9.16283 33.1793 9.55624 33.4174 9.90297C33.7614 10.3564 34.1186 10.6631 34.489 10.8231C34.8594 10.9832 35.0447 11.0632 35.0447 11.0632C35.1505 11.1699 35.2166 11.2765 35.2431 11.3832C35.2696 11.4899 35.2828 11.5433 35.2828 11.5433C35.2828 11.5433 35.2894 11.6166 35.3026 11.7633C35.3159 11.91 35.3754 11.9833 35.4812 11.9833C35.4812 11.9833 35.5804 12.0233 35.7789 12.1034C35.9773 12.1834 36.1956 12.2234 36.4337 12.2234H37.1084C37.1084 12.2234 37.2275 12.1767 37.4656 12.0834C37.7038 11.99 37.8228 11.8766 37.8228 11.7433C37.9287 11.6366 38.0345 11.2232 38.1403 10.5031C38.2462 9.78294 38.2991 9.42288 38.2991 9.42288C38.2991 9.42288 38.4115 8.97614 38.6364 8.08264C38.8613 7.18915 38.5107 6.38234 37.5847 5.66221C36.8968 5.10212 36.2221 4.92875 35.5606 5.14212C34.8991 5.35549 34.5684 5.46218 34.5684 5.46218ZM25.2814 0.301266C28.2447 0.301266 30.8774 0.34127 33.1793 0.421284C35.4548 0.501301 37.4656 0.654659 39.2119 0.881367C40.9582 1.10807 42.4531 1.4348 43.6967 1.86154C44.9402 2.31495 45.9986 2.88839 46.8717 3.58184C48.2211 4.75539 49.1207 6.35567 49.5705 8.38269C50.0203 10.4097 50.3114 13.1035 50.4437 16.4641L56 21.225L50.4833 25.9858C50.3775 29.0264 50.0666 31.5068 49.5507 33.4271C49.0347 35.3475 48.1417 36.8544 46.8717 37.9479C46.0515 38.6414 45.0328 39.2015 43.8157 39.6282C42.5986 40.0816 41.1236 40.4217 39.3905 40.6484C37.6575 40.8751 35.6267 41.0285 33.2984 41.1085C30.97 41.1885 28.2977 41.2285 25.2814 41.2285C22.318 41.2285 19.6853 41.1885 17.3834 41.1085C15.0815 41.0285 13.0508 40.8751 11.2913 40.6484C9.53177 40.4217 8.03024 40.0816 6.78668 39.6282C5.54311 39.2015 4.52445 38.6414 3.73069 37.9479C2.85755 37.2545 2.16962 36.401 1.6669 35.3875C1.16419 34.374 0.793763 33.1671 0.555634 31.7668C0.317505 30.3666 0.158753 28.7463 0.0793763 26.906C0.0264588 25.0657 0 22.9853 0 20.6649C0 18.3711 0.0264588 16.3308 0.0793763 14.5438C0.132294 12.7301 0.277817 11.1299 0.515946 9.74294C0.754075 8.35603 1.09804 7.15581 1.54784 6.1423C2.0241 5.12879 2.67234 4.2753 3.49256 3.58184C4.3657 2.88839 5.42405 2.31495 6.66761 1.86154C7.91117 1.4348 9.41271 1.10807 11.1722 0.881367C12.9317 0.654659 14.9624 0.501301 17.2644 0.421284C19.5927 0.34127 22.2651 0.301266 25.2814 0.301266ZM29.4486 22.5052C29.5809 22.8519 29.6338 23.312 29.6074 23.8854C29.5809 24.4589 29.4618 25.0923 29.2502 25.7858C29.012 26.3726 28.6482 26.9193 28.1588 27.4261C27.6693 27.9328 27.2525 28.2395 26.9086 28.3462C26.9086 27.9995 26.9284 27.5061 26.9681 26.866C27.0078 26.2259 27.1467 25.5591 27.3848 24.8656C27.623 24.2788 27.9735 23.7721 28.4366 23.3453C28.8996 22.9186 29.2369 22.6386 29.4486 22.5052ZM23.6541 12.4634C23.6541 13.5036 23.7931 14.3304 24.0709 14.9439C24.3487 15.5573 24.5934 15.9707 24.8051 16.1841V8.70275C24.5934 9.07615 24.3487 9.5629 24.0709 10.163C23.7931 10.7631 23.6541 11.5299 23.6541 12.4634ZM22.9794 24.6256C23.1911 25.2123 23.3168 25.8525 23.3565 26.5459C23.3962 27.2394 23.416 27.7728 23.416 28.1462C23.3896 28.0929 23.3433 28.0328 23.2771 27.9662C23.211 27.8995 23.1382 27.8395 23.0588 27.7861C22.7678 27.5194 22.437 27.1994 22.0666 26.826C21.6962 26.4526 21.3787 26.0258 21.1141 25.5457C20.9289 25.0123 20.8363 24.5122 20.8363 24.0455C20.8363 23.5787 20.8363 23.172 20.8363 22.8253C20.8627 22.7186 20.876 22.6186 20.876 22.5252C20.876 22.4319 20.876 22.3452 20.876 22.2652C21.1141 22.3985 21.4647 22.6786 21.9277 23.1053C22.3907 23.532 22.7413 24.0388 22.9794 24.6256ZM25.837 9.06282C25.8105 9.03614 25.7907 9.01614 25.7775 9.00281C25.7642 8.98947 25.7576 8.96947 25.7576 8.94279V15.984C25.7576 15.9574 25.7642 15.9307 25.7775 15.904C25.7907 15.8774 25.8105 15.864 25.837 15.864C26.0487 15.5173 26.2802 15.0839 26.5315 14.5638C26.7829 14.0437 26.9086 13.3436 26.9086 12.4634C26.9086 11.5833 26.7829 10.8831 26.5315 10.363C26.2802 9.84295 26.0487 9.40954 25.837 9.06282Z" fill="#EF586E"/>
  </svg>