<svg width="200" height="200" viewBox="0 0 200 200" fill="none" xmlns="http://www.w3.org/2000/svg">
<path d="M55.5899 67.3105C62.2173 67.3105 67.5898 61.7141 67.5898 54.8105C67.5898 47.907 62.2173 42.3105 55.5899 42.3105C48.9624 42.3105 43.5898 47.907 43.5898 54.8105C43.5898 61.7141 48.9624 67.3105 55.5899 67.3105Z" fill="#F04E69"/>
<path d="M137.59 67.3105C144.217 67.3105 149.59 61.7141 149.59 54.8105C149.59 47.907 144.217 42.3105 137.59 42.3105C130.962 42.3105 125.59 47.907 125.59 54.8105C125.59 61.7141 130.962 67.3105 137.59 67.3105Z" fill="#F04E69"/>
<path d="M14.5922 105.383C14.6709 103.722 15.2067 102.122 16.1334 100.781C17.06 99.4405 18.3367 98.4178 19.8053 97.84C21.2739 97.2622 22.8699 97.1546 24.3955 97.5306C25.9211 97.9066 27.3092 98.7497 28.3881 99.9554C29.4669 101.161 30.1889 102.676 30.4647 104.314C30.7406 105.951 30.558 107.638 29.9397 109.166C29.3215 110.694 28.2946 111.996 26.9864 112.911C25.6782 113.825 24.1461 114.312 22.58 114.311C20.4072 114.248 18.3464 113.273 16.8491 111.6C15.3519 109.926 14.5403 107.691 14.5922 105.383Z" fill="#F04E69"/>
<path d="M38.7038 148.711C38.6057 148.75 38.5009 148.77 38.3953 148.768C35.5296 148.768 33.1428 134.676 30.6505 130.861C30.6179 130.805 30.5715 130.759 30.516 130.727C30.4605 130.696 30.3977 130.679 30.3339 130.68H30.1959C29.2298 130.943 30.8129 139.642 31.0564 147.732C31.5516 156.571 32.0144 167.729 31.097 175.425C30.7561 178.286 30.1715 178.311 28.8077 178.311C26.8837 178.311 26.3722 177.973 26.0962 175.507C24.708 163.576 23.5552 156.703 23.0762 155.716C23.0762 155.634 22.922 155.634 22.8164 155.634C22.7707 155.633 22.7253 155.643 22.6834 155.661C22.6414 155.679 22.6037 155.707 22.5729 155.741C21.9478 156.908 20.9492 163.56 19.561 175.474C19.2769 177.941 18.7492 178.278 16.8495 178.278C15.4938 178.278 14.9011 178.278 14.5683 175.392C13.6509 167.696 14.1137 156.538 14.5683 147.7C14.7956 139.889 16.5167 129.792 15.713 129.52H15.5587C15.4923 129.521 15.4275 129.541 15.3715 129.578C15.3156 129.614 15.2708 129.665 15.2421 129.726C12.9446 133.656 10.7202 146.59 7.87074 146.59C7.75765 146.586 7.64558 146.567 7.53789 146.532C4.46107 145.43 8.81245 117.311 21.485 117.311H24.091C36.8285 117.376 41.7806 147.65 38.7038 148.711Z" fill="#F04E69"/>
<path d="M115.09 118.311C119.232 118.311 122.59 114.729 122.59 110.311C122.59 105.892 119.232 102.311 115.09 102.311C110.948 102.311 107.59 105.892 107.59 110.311C107.59 114.729 110.948 118.311 115.09 118.311Z" fill="#F04E69"/>
<path d="M68.7294 93.9678C68.882 93.9211 69.0457 93.924 69.1965 93.9761C69.3473 94.0282 69.4771 94.1268 69.5669 94.2573C73.9889 98.8961 77.1462 105.354 79.7927 110.894C80.6053 109.514 81.7336 108.341 83.0874 107.468C84.4413 106.595 85.9831 106.046 87.5898 105.867C83.2014 90.6686 72.4479 70.3105 57.7163 70.3105H52.9844C41.5609 70.3105 31.8125 82.7139 25.5898 95.3901C27.6145 96.1033 29.3885 97.3769 30.6998 99.0587C32.0112 100.741 32.8045 102.76 32.985 104.875C36.201 99.8305 39.3332 94.9518 41.6363 92.3058C41.7193 92.1673 41.8469 92.0603 41.9987 92.0018C42.1505 91.9434 42.3178 91.9369 42.4738 91.9833C43.9311 92.4546 40.7988 110.34 40.3884 124.174C40.2209 127.019 40.0618 129.962 39.9194 133.063C40.5462 135.149 41.0468 137.269 41.4186 139.414C43.0349 148.774 41.0501 150.618 39.4169 151.18H39.3751C39.231 158.532 39.5414 165.886 40.3047 173.2C40.9244 178.277 41.9797 178.311 44.4922 178.311C47.9845 178.311 48.8974 177.723 49.4167 173.349C51.9292 152.189 53.7382 140.406 54.8772 138.347C54.9338 138.284 55.0036 138.235 55.0818 138.202C55.16 138.169 55.2445 138.154 55.3294 138.157C55.522 138.157 55.7314 138.157 55.7984 138.297C56.6359 140.042 58.7632 152.214 61.284 173.349C61.8033 177.723 62.7161 178.311 66.2085 178.311C68.721 178.311 69.7511 178.311 70.396 173.2C72.071 159.582 71.2335 139.811 70.3206 124.158C69.86 109.844 66.9706 94.4474 68.7294 93.9678Z" fill="#F04E69"/>
<path d="M80.5924 115.903C80.6722 114.34 81.2089 112.835 82.1361 111.573C83.0634 110.312 84.3404 109.35 85.8091 108.807C87.2778 108.264 88.8736 108.164 90.3989 108.518C91.9241 108.873 93.3118 109.667 94.3901 110.802C95.4684 111.937 96.1898 113.363 96.4652 114.904C96.7405 116.445 96.5576 118.032 95.939 119.47C95.3205 120.908 94.2936 122.133 92.9854 122.994C91.6772 123.854 90.1453 124.312 88.5793 124.311C86.4053 124.253 84.3431 123.335 82.8456 121.759C81.3481 120.182 80.5377 118.076 80.5924 115.903Z" fill="#F04E69"/>
<path d="M115.936 120.311H113.468C106.322 120.311 102.061 130.301 100.384 138.625C98.5743 132.731 94.9474 126.679 89.3385 126.679H87.1344C76.4428 126.679 72.7995 149.24 75.3901 150.164C75.4899 150.202 75.5958 150.222 75.7027 150.222C78.0877 150.222 79.9299 140.465 81.8544 137.169C81.8804 137.118 81.9192 137.075 81.9669 137.044C82.0145 137.014 82.0694 136.996 82.1258 136.994H82.2574C82.9318 137.219 80.5303 145.81 80.3411 152.403C80.0305 160.185 80.3358 167.98 81.254 175.713C81.5419 178.127 82.0353 178.144 83.1867 178.144C84.8316 178.144 85.2346 177.861 85.4731 175.78C86.6492 165.69 87.488 160.079 88.0144 159.13C88.0407 159.099 88.0737 159.075 88.1108 159.059C88.1478 159.043 88.188 159.036 88.2282 159.038C88.3104 159.038 88.4174 159.038 88.442 159.105C88.845 159.937 89.8237 165.765 90.9998 175.813C91.2383 177.894 91.666 178.177 93.2861 178.177C94.4375 178.177 94.931 178.177 95.2188 175.746C96.0821 168.009 96.3352 160.215 95.9755 152.437C95.7781 145.61 93.6398 138.201 94.454 137.968H94.5691C94.625 137.969 94.6799 137.983 94.7287 138.011C94.7775 138.039 94.8187 138.078 94.8487 138.126C96.8884 141.256 98.2289 149.473 100.482 149.739C100.575 149.772 100.672 149.789 100.77 149.789C103.476 149.789 105.335 135.903 107.522 132.157C107.551 132.1 107.594 132.052 107.648 132.018C107.702 131.984 107.763 131.966 107.827 131.966H107.975C108.082 131.966 108.139 132.249 108.164 132.64C107.703 134.821 102.407 160.429 104.101 162.21C104.738 162.81 105.512 163.239 106.354 163.459C106.271 167.5 106.433 171.542 106.84 175.563C107.16 178.286 107.72 178.311 109.019 178.311C110.845 178.311 111.322 177.994 111.593 175.647C112.161 170.801 112.662 166.922 113.107 163.917C113.732 163.917 114.324 163.867 114.751 163.867C115.179 163.867 115.722 163.867 116.224 163.817C116.684 166.847 117.219 170.776 117.786 175.647C118.058 177.994 118.535 178.311 120.369 178.311C121.66 178.311 122.219 178.311 122.54 175.563C122.972 171.213 123.131 166.839 123.017 162.468C123.961 162.157 124.797 161.58 125.427 160.803C126.57 159.03 122.392 137.768 121.495 133.331C121.545 133.189 121.602 133.089 121.685 133.064C121.728 133.056 121.773 133.056 121.816 133.064C121.877 133.063 121.936 133.078 121.99 133.107C122.043 133.137 122.088 133.179 122.12 133.231C124.489 136.861 126.726 150.713 129.456 150.713C129.552 150.713 129.646 150.696 129.736 150.663C132.68 149.523 127.993 120.311 115.936 120.311Z" fill="#F04E69"/>
<path d="M150.543 93.9628C151.021 93.8305 151.218 94.1529 151.366 94.2521C156.411 97.7409 162.336 105.09 167.685 111.365C167.867 109.317 168.608 107.359 169.826 105.706C171.044 104.054 172.693 102.771 174.59 101.998C166.665 87.44 153.004 70.3105 139.73 70.3105H135.08C112.441 70.3105 99.3477 120.103 104.837 122.046C105.199 122.174 105.592 122.191 105.964 122.096C106.78 121.273 107.699 120.559 108.696 119.971C108.943 119.674 109.182 119.351 109.429 118.996C108.073 118.002 106.971 116.699 106.212 115.194C105.454 113.69 105.062 112.026 105.067 110.34C105.016 107.584 106.056 104.92 107.959 102.933C109.861 100.946 112.47 99.798 115.214 99.7415C116.502 99.7467 117.777 100.005 118.967 100.502C120.37 97.6283 122.022 94.8841 123.904 92.3011C123.983 92.1593 124.108 92.0495 124.258 91.9906C124.408 91.9317 124.574 91.9275 124.727 91.9787C124.933 92.0448 125.048 92.483 125.081 93.2105C124.867 94.2521 124.036 98.2204 122.975 103.577C123.913 104.762 124.594 106.131 124.973 107.596C125.352 109.061 125.421 110.59 125.175 112.084C124.929 113.577 124.374 115.003 123.546 116.267C122.717 117.532 121.634 118.608 120.366 119.426C127.196 122.451 131.303 132.827 132.85 141.92C134.586 152.114 131.928 153.056 130.924 153.412C130.402 153.595 129.844 153.647 129.297 153.563C128.751 153.479 128.233 153.263 127.789 152.932C128.908 160.935 128.283 161.886 127.855 162.547C127.335 163.305 126.655 163.937 125.863 164.399C125.933 168.332 125.763 172.267 125.353 176.179C125.281 176.858 125.143 177.528 124.941 178.18C125.517 178.286 126.102 178.328 126.686 178.304C130.118 178.304 131.015 177.717 131.525 173.344C132.578 164.377 133.519 157.093 134.348 151.494C135.557 151.494 136.635 151.403 137.5 151.403C138.364 151.403 139.318 151.403 140.273 151.312C141.096 156.95 142.133 164.333 143.194 173.344C143.705 177.717 144.602 178.304 148.033 178.304C150.502 178.304 151.506 178.304 152.148 173.195C152.967 165.102 153.267 156.964 153.045 148.832C154.829 148.23 156.399 147.118 157.563 145.632C159.711 142.325 151.852 102.643 150.156 94.4258C150.263 94.1695 150.395 94.0041 150.543 93.9628Z" fill="#F04E69"/>
<path d="M170.592 112.352C170.677 110.693 171.217 109.097 172.146 107.761C173.076 106.425 174.353 105.407 175.821 104.833C177.289 104.26 178.883 104.156 180.407 104.534C181.93 104.912 183.315 105.755 184.392 106.96C185.469 108.165 186.189 109.679 186.465 111.314C186.74 112.949 186.558 114.634 185.942 116.161C185.325 117.687 184.301 118.989 182.996 119.904C181.69 120.819 180.161 121.308 178.597 121.311C176.418 121.244 174.353 120.264 172.853 118.585C171.354 116.906 170.54 114.665 170.592 112.352Z" fill="#F04E69"/>
<path d="M192.719 149.659C192.614 149.698 192.503 149.718 192.391 149.717C189.816 149.717 188.183 138.926 185.877 135.529C185.845 135.481 185.801 135.442 185.75 135.414C185.698 135.386 185.641 135.371 185.583 135.37C185.541 135.362 185.498 135.362 185.457 135.37C185.381 135.37 185.33 135.471 185.288 135.579C186.239 139.56 190.968 159.866 189.858 161.56C189.04 162.486 187.952 163.136 186.744 163.421C186.856 167.525 186.702 171.631 186.281 175.715C185.97 178.294 185.44 178.311 184.178 178.311C182.41 178.311 181.948 178.01 181.653 175.807C181.106 171.183 180.593 167.461 180.147 164.581C179.65 164.581 179.171 164.632 178.716 164.632C178.262 164.632 177.723 164.632 177.101 164.632C176.671 167.477 176.192 171.166 175.645 175.773C175.376 177.993 174.913 178.277 173.12 178.277C171.867 178.277 171.328 178.277 171.017 175.682C170.636 171.869 170.495 168.036 170.596 164.206C169.51 164.038 168.492 163.573 167.659 162.862C165.976 161.193 171.867 136.906 172.338 134.945C172.338 134.586 172.262 134.361 172.161 134.327H172.018C171.957 134.328 171.897 134.346 171.845 134.378C171.793 134.411 171.751 134.457 171.723 134.511C169.62 138.041 167.398 148.899 164.773 148.899C164.661 148.896 164.55 148.876 164.445 148.841C161.609 147.848 165.799 123.311 177.471 123.311H179.869C191.549 123.311 195.546 148.674 192.719 149.659Z" fill="#F04E69"/>
</svg>
