<svg width="200" height="200" viewBox="0 0 200 200" fill="none" xmlns="http://www.w3.org/2000/svg">
<path d="M53.5781 48.3047C64.3477 48.3047 73.0781 39.1265 73.0781 27.8047C73.0781 16.4829 64.3477 7.30469 53.5781 7.30469C42.8086 7.30469 34.0781 16.4829 34.0781 27.8047C34.0781 39.1265 42.8086 48.3047 53.5781 48.3047Z" fill="#F04E69"/>
<path d="M118.578 48.3047C129.348 48.3047 138.078 39.1265 138.078 27.8047C138.078 16.4829 129.348 7.30469 118.578 7.30469C107.809 7.30469 99.0781 16.4829 99.0781 27.8047C99.0781 39.1265 107.809 48.3047 118.578 48.3047Z" fill="#F04E69"/>
<path d="M186.01 91.0238C185.932 89.3171 185.932 87.6799 185.932 86.0505C185.932 85.4361 185.686 84.8468 185.249 84.4123C184.812 83.9778 184.22 83.7338 183.602 83.7338C173.83 83.7338 166.397 80.9305 160.222 74.9456C159.775 74.5336 159.189 74.3047 158.579 74.3047C157.97 74.3047 157.383 74.5336 156.936 74.9456C150.723 80.9305 143.328 83.7338 133.557 83.7338C132.939 83.7338 132.346 83.9778 131.909 84.4123C131.472 84.8468 131.227 85.4361 131.227 86.0505C131.227 87.6799 131.227 89.3171 131.149 91.0238C130.838 107.349 130.372 129.744 157.822 139.15L158.599 139.305L159.375 139.15C186.716 129.729 186.32 107.426 186.01 91.0238ZM170.149 101.217L157.169 114.122C156.878 114.409 156.485 114.571 156.074 114.571C155.664 114.571 155.27 114.409 154.979 114.122L146.971 106.144C146.682 105.855 146.519 105.464 146.519 105.056C146.519 104.647 146.682 104.256 146.971 103.967L148.524 102.422C148.815 102.134 149.209 101.973 149.62 101.973C150.03 101.973 150.424 102.134 150.715 102.422L156.051 107.727L166.389 97.4566C166.679 97.1665 167.073 97.0027 167.484 97.001C167.896 97.0027 168.29 97.1665 168.58 97.4566L170.133 99.0011C170.283 99.144 170.403 99.3154 170.485 99.5052C170.568 99.695 170.611 99.8993 170.612 100.106C170.614 100.313 170.573 100.518 170.494 100.708C170.414 100.899 170.297 101.072 170.149 101.217Z" fill="#F04E69"/>
<path d="M129.832 119.321C126.245 109.655 126.447 99.237 126.603 90.8667V90.6727C126.672 89.0591 126.672 87.5154 126.672 85.8863C126.665 84.9674 126.841 84.0563 127.189 83.206C127.538 82.3556 128.052 81.5831 128.702 80.9333C129.353 80.2836 130.126 79.7696 130.976 79.4213C131.827 79.073 132.739 78.8973 133.658 78.9045C137.911 79.013 142.14 78.2391 146.078 76.6316C140.831 64.0799 132.502 53.3047 120.936 53.3047H115.355C99.908 53.3047 90.2362 72.5201 85.9747 89.5324C81.7054 72.5201 72.0026 53.3047 56.5867 53.3047H51.0056C23.8376 53.3047 14.5228 112.782 21.1052 115.101C27.5712 117.351 32.5391 88.1748 37.6622 79.5484C37.7484 79.3648 37.903 79.2222 38.0931 79.1511C38.2831 79.0801 38.4935 79.0862 38.6791 79.1683C40.4023 79.7346 34.3011 101.262 33.8043 117.785C32.7487 136.481 34.1692 159.909 36.133 176.176C36.8627 182.235 38.1124 182.274 41.031 182.274C45.1528 182.274 46.2318 181.575 46.845 176.355C49.8257 151.088 51.9526 137.016 53.2955 134.557C53.3608 134.482 53.4422 134.423 53.5336 134.384C53.625 134.345 53.724 134.327 53.8233 134.332C54.0484 134.332 54.2968 134.332 54.3822 134.495C55.3913 136.574 57.8752 151.119 60.8482 176.386C61.4691 181.607 62.5403 182.305 66.6621 182.305C69.5807 182.305 70.8382 182.266 71.5679 176.207C73.7582 156.825 74.4019 137.3 73.4929 117.816C72.9806 100.703 67.5548 82.1317 69.6118 81.5731C69.7904 81.5089 69.9856 81.5077 70.165 81.5698C70.3444 81.6319 70.497 81.7536 70.5976 81.9145C75.9769 90.0444 79.8658 115.916 86.0057 115.225C92.2156 115.83 97.036 87.9731 102.004 79.5794C102.09 79.3958 102.245 79.2532 102.435 79.1822C102.625 79.1111 102.835 79.1173 103.021 79.1993C103.261 79.2847 103.393 79.7966 103.448 80.6422C102.345 85.2036 88.6449 142.175 92.5804 146.147C94.1329 147.737 96.5935 148.738 99.4035 149.358C99.2141 158.322 99.5796 167.289 100.498 176.207C101.228 182.266 102.485 182.305 105.404 182.305C109.525 182.305 110.597 181.607 111.218 176.386C112.48 165.649 113.611 156.94 114.61 150.258C116.085 150.22 117.381 150.181 118.382 150.181C119.384 150.181 120.556 150.134 121.712 150.064C122.752 156.798 123.948 165.579 125.221 176.386C125.834 181.607 126.913 182.305 131.035 182.305C133.953 182.305 135.203 182.266 135.933 176.207C136.926 167.961 137.159 157.814 137.012 147.388C140.373 146.279 143.051 144.82 144.246 143.005C144.673 142.353 144.727 140.499 144.518 137.823C137.759 133.395 132.609 126.906 129.832 119.321Z" fill="#F04E69"/>
</svg>
