<svg width="200" height="200" viewBox="0 0 200 200" fill="none" xmlns="http://www.w3.org/2000/svg">
<path d="M24.4245 88.578L56.8626 66.9669C57.1048 66.8065 57.3881 66.7211 57.6778 66.7211C57.9675 66.7211 58.2508 66.8065 58.493 66.9669L92.4389 88.7478C93.0655 89.1443 93.7888 89.3581 94.5285 89.3652C95.1283 89.3454 95.7184 89.2059 96.2645 88.955C96.8106 88.704 97.3021 88.3465 97.7105 87.9031C98.119 87.4597 98.4363 86.9391 98.6442 86.3714C98.8521 85.8037 98.9465 85.2001 98.922 84.5954V79.0537C98.9344 78.2417 98.7455 77.4395 98.3726 76.7198C97.9997 76 97.4545 75.3856 96.7865 74.9321L59.886 51.021C59.2299 50.5867 58.4607 50.3585 57.6758 50.3654C56.891 50.3723 56.1258 50.6139 55.4772 51.0596L20.0004 74.9321C19.3511 75.3909 18.8227 76.0027 18.4612 76.7142C18.0997 77.4258 17.916 78.2156 17.9262 79.0151V84.5182C17.9324 85.35 18.1371 86.168 18.5232 86.9031C18.7783 87.4265 19.1399 87.8899 19.5844 88.263C20.029 88.6361 20.5465 88.9106 21.1032 89.0686C21.6599 89.2266 22.2434 89.2646 22.8157 89.18C23.3879 89.0955 23.9361 88.8904 24.4245 88.578Z" fill="#F04E69"/>
<path d="M134.594 133.046C134.908 133.244 135.268 133.354 135.637 133.365C136.279 133.317 136.877 133.016 137.303 132.525C137.73 132.034 137.953 131.393 137.923 130.737V126.85C137.926 126.403 137.822 125.962 137.62 125.565C137.418 125.168 137.125 124.827 136.765 124.572L111.057 107.717C110.719 107.488 110.321 107.365 109.914 107.365C109.508 107.365 109.11 107.488 108.771 107.717L84.0388 124.549C83.6867 124.805 83.4012 125.145 83.2073 125.539C83.0135 125.934 82.917 126.37 82.9264 126.811V130.699C82.9275 131.155 83.0401 131.604 83.254 132.005C83.386 132.284 83.5739 132.532 83.8056 132.732C84.0374 132.933 84.3077 133.081 84.5993 133.169C84.8908 133.256 85.1971 133.28 85.4982 133.239C85.7994 133.197 86.0887 133.092 86.3475 132.93L108.733 117.84C109.083 117.609 109.49 117.487 109.907 117.487C110.323 117.487 110.73 117.609 111.08 117.84L134.594 133.046Z" fill="#F04E69"/>
<path d="M178.536 74.0825C180.451 73.2668 182.18 72.0742 183.621 70.5764C185.062 69.0786 186.185 67.3063 186.923 65.3657C187.66 63.425 187.997 61.356 187.913 59.2825C187.829 57.209 187.326 55.1737 186.435 53.2985C185.543 51.4234 184.281 49.7469 182.723 48.3695C181.166 46.9922 179.346 45.9423 177.372 45.2827C175.397 44.6232 173.31 44.3675 171.235 44.5311C169.159 44.6947 167.138 45.2742 165.292 46.2348C164.254 41.9748 161.803 38.189 158.336 35.4904C154.87 32.7918 150.591 31.3384 146.192 31.3656C141.794 31.3928 137.533 32.8989 134.101 35.6402C130.668 38.3814 128.264 42.1972 127.279 46.4697C125.477 45.472 123.494 44.8433 121.445 44.6206C119.396 44.3979 117.323 44.5856 115.348 45.1728C113.373 45.76 111.535 46.7347 109.944 48.0398C108.352 49.3448 107.038 50.9538 106.079 52.7722C105.121 54.5906 104.536 56.5817 104.36 58.6284C104.185 60.6752 104.421 62.7363 105.056 64.6906C105.691 66.645 106.712 68.4531 108.058 70.0087C109.404 71.5643 111.048 72.836 112.894 73.7491C110.32 74.9655 108.237 77.0192 106.989 79.5724C105.742 82.1257 105.403 85.0262 106.03 87.7966C106.656 90.567 108.21 93.0424 110.436 94.8152C112.663 96.588 115.428 97.5526 118.277 97.5504C118.819 97.547 119.36 97.509 119.896 97.4367C120.314 99.9032 121.329 102.231 122.852 104.219C124.376 106.207 126.362 107.794 128.64 108.844C130.918 109.894 133.418 110.375 135.925 110.245C138.431 110.115 140.868 109.378 143.024 108.098L140.363 165.196H131.513V135.81L110.18 122.276L89.7973 135.696V165.188H85.4942V136.901C84.3092 136.889 83.1497 136.557 82.1399 135.939C81.1301 135.321 80.308 134.441 79.7617 133.392C79.225 132.381 78.9383 131.256 78.9254 130.111V126.323C78.9201 125.189 79.1947 124.071 79.7251 123.068C80.2554 122.065 81.0252 121.208 81.9665 120.571L89.2803 115.706V92.6704L57.7367 72.6731L27.5919 92.5188V164.695C27.5919 164.862 27.5919 165.029 27.5919 165.196H17.4195C16.76 165.198 16.1281 165.459 15.661 165.923C15.194 166.387 14.9298 167.016 14.9258 167.673V174.887C14.9298 175.545 15.194 176.174 15.661 176.638C16.1281 177.102 16.76 177.363 17.4195 177.365H163.878C164.537 177.363 165.168 177.102 165.634 176.637C166.1 176.173 166.362 175.544 166.364 174.887V167.673C166.362 167.017 166.1 166.388 165.634 165.924C165.168 165.459 164.537 165.198 163.878 165.196H151.767L149.106 108.091C151.254 109.368 153.682 110.107 156.18 110.242C158.677 110.378 161.171 109.906 163.445 108.869C165.72 107.831 167.708 106.258 169.237 104.285C170.767 102.312 171.792 99.9983 172.226 97.5428H172.477C175.275 97.5642 177.999 96.6528 180.218 94.9535C182.436 93.2542 184.021 90.8645 184.72 88.1643C185.419 85.4642 185.192 82.6086 184.076 80.0515C182.96 77.4945 181.018 75.3828 178.559 74.0522L178.536 74.0825ZM101.133 138.742C101.684 138.064 102.379 137.517 103.168 137.14C103.956 136.762 104.82 136.564 105.695 136.56C107.034 136.557 108.328 137.045 109.329 137.931C109.622 138.176 109.894 138.444 110.142 138.735C110.385 138.445 110.652 138.176 110.94 137.931C111.945 137.046 113.241 136.558 114.582 136.56C115.457 136.565 116.32 136.764 117.109 137.141C117.897 137.518 118.592 138.065 119.144 138.742C120.324 140.21 120.951 142.044 120.915 143.925C120.883 146.053 120.124 148.105 118.764 149.745C117.236 151.604 115.558 153.335 113.746 154.92L113.677 154.981L111.594 156.944C111.393 157.139 111.156 157.293 110.894 157.395C110.633 157.498 110.354 157.548 110.074 157.542C109.509 157.551 108.963 157.339 108.553 156.951L106.539 155.049L106.462 154.981C104.63 153.376 102.931 151.625 101.384 149.745C100.027 148.103 99.2686 146.052 99.2323 143.925C99.2331 142.028 99.9063 140.193 101.133 138.742ZM49.6474 165.188C49.6474 165.021 49.6474 164.855 49.6474 164.688V143.092C49.6309 142.719 49.7632 142.355 50.0155 142.08C50.2677 141.804 50.6193 141.639 50.9931 141.622H64.4499C64.8237 141.639 65.1752 141.804 65.4275 142.08C65.6797 142.355 65.8121 142.719 65.7956 143.092V164.688C65.7956 164.855 65.7956 165.021 65.7956 165.188H49.6474ZM57.8279 114.888C55.4397 114.888 53.1052 114.182 51.1197 112.859C49.1341 111.537 47.5866 109.657 46.6731 107.458C45.7595 105.259 45.5209 102.839 45.9873 100.504C46.4538 98.1699 47.6044 96.0258 49.2936 94.3432C50.9828 92.6606 53.1348 91.5152 55.4772 91.0517C57.8197 90.5883 60.2474 90.8277 62.4534 91.7396C64.6593 92.6515 66.5443 94.195 67.87 96.1749C69.1957 98.1547 69.9025 100.482 69.901 102.862C69.899 106.052 68.6261 109.111 66.3622 111.366C64.0983 113.621 61.0286 114.888 57.8279 114.888Z" fill="#F04E69"/>
<path d="M88.9222 54.2727C88.9654 53.2834 88.6164 52.3172 87.9515 51.5851C87.2866 50.8529 86.3597 50.4144 85.3734 50.3652H79.4713C78.9829 50.3886 78.5038 50.5082 78.0615 50.7172C77.6192 50.9262 77.2223 51.2206 76.8935 51.5834C76.5646 51.9463 76.3103 52.3705 76.145 52.832C75.9797 53.2934 75.9066 53.7829 75.9301 54.2727V57.0193L88.9222 65.3652V54.2727Z" fill="#F04E69"/>
</svg>
