<svg width="200" height="200" viewBox="0 0 200 200" fill="none" xmlns="http://www.w3.org/2000/svg">
<path d="M59.8299 105.009C67.6773 105.009 74.0388 98.3143 74.0388 90.0555C74.0388 81.7966 67.6773 75.1016 59.8299 75.1016C51.9826 75.1016 45.6211 81.7966 45.6211 90.0555C45.6211 98.3143 51.9826 105.009 59.8299 105.009Z" fill="#F04E69"/>
<path d="M138.646 105.009C146.496 105.009 152.848 98.3339 152.848 90.0555C152.848 81.777 146.488 75.1016 138.639 75.1016C130.789 75.1016 124.438 81.777 124.438 90.0555C124.438 98.3339 130.797 105.009 138.646 105.009Z" fill="#F04E69"/>
<path d="M99.2362 116.261C107.084 116.261 113.445 109.566 113.445 101.307C113.445 93.0486 107.084 86.3535 99.2362 86.3535C91.3889 86.3535 85.0273 93.0486 85.0273 101.307C85.0273 109.566 91.3889 116.261 99.2362 116.261Z" fill="#F04E69"/>
<path d="M101.878 119.754H96.211C71.6315 119.754 62.8864 171.065 69.5694 173.421C69.9436 173.556 70.338 173.627 70.7359 173.632C76.2448 173.632 77.3737 158.143 82.6268 146.411C82.6781 146.275 82.77 146.159 82.89 146.078C83.0099 145.998 83.152 145.956 83.2966 145.959C83.42 145.96 83.5423 145.983 83.6578 146.027C83.9363 146.117 84.1094 146.516 84.1997 147.178C84.1997 147.178 79.3906 168.898 82.1376 174.106C84.2524 178.117 91.0783 179.539 99.3869 179.539C108.298 179.539 115.44 178.704 117.05 173.105C118.292 168.792 115.342 154.697 114.687 148.616C114.806 148.533 114.938 148.472 115.078 148.435C115.179 148.407 115.283 148.392 115.387 148.39C115.527 148.384 115.667 148.417 115.789 148.487C115.911 148.556 116.012 148.658 116.079 148.781C122.19 159.739 122.1 173.654 127.3 173.654C127.727 173.648 128.149 173.569 128.55 173.421C135.202 171.065 126.758 119.754 101.878 119.754Z" fill="#F04E69"/>
<path d="M141.283 108.51H135.623C126.675 108.51 119.646 113.913 114.445 121.304C125.027 129.025 130.664 145.612 132.507 156.547C133.094 159.994 133.666 164.751 133.26 168.732C135.277 168.521 137.158 168.295 138.724 168.295C147.755 168.228 153.602 166.218 156.786 161.304C159.247 157.541 155.281 142.173 153.986 137.379C154.106 137.296 154.238 137.232 154.378 137.191C154.559 137.128 154.756 137.128 154.938 137.191C155.119 137.254 155.274 137.376 155.379 137.537C162.423 147.185 163.491 164.48 170.024 162.177C176.79 159.821 165.177 108.51 141.283 108.51Z" fill="#F04E69"/>
<path d="M96.6145 71.9937C97.2391 72.5808 97.9315 73.243 98.7669 73.243C99.6022 73.243 100.272 72.5808 100.919 71.9937C102.816 69.5328 118.944 53.1791 121.239 49.815C125.198 44.6974 127.049 39.8432 127.049 34.545C127.049 29.3973 125.702 24.6485 122.714 21.1715C121.4 19.5155 119.72 18.1868 117.805 17.2897C115.891 16.3926 113.795 15.9516 111.681 16.0013C108.345 15.8803 105.079 16.9711 102.485 19.0718C101.054 20.2759 99.8026 21.6772 98.7669 23.2336C97.7289 21.6789 96.4773 20.2779 95.0491 19.0718C92.459 16.9745 89.1982 15.884 85.8675 16.0013C83.7558 15.9453 81.6598 16.3797 79.7442 17.2703C77.8286 18.1608 76.1455 19.4833 74.8271 21.1339C71.8167 24.6109 70.4922 29.3597 70.4922 34.5074C70.4922 39.7755 72.336 44.6598 76.3021 49.7774C78.5825 53.1113 94.718 69.4951 96.6145 71.9937Z" fill="#F04E69"/>
<path d="M138.324 35.4871C138.324 36.054 138.549 36.5976 138.95 36.9984C139.351 37.3993 139.895 37.6244 140.462 37.6244H143.871C144.162 37.6417 144.453 37.5994 144.727 37.5C145.001 37.4005 145.251 37.2462 145.463 37.0464C145.675 36.8466 145.844 36.6055 145.96 36.338C146.075 36.0705 146.135 35.7822 146.135 35.4909C146.135 35.1995 146.075 34.9112 145.96 34.6437C145.844 34.3762 145.675 34.1352 145.463 33.9354C145.251 33.7355 145.001 33.5812 144.727 33.4818C144.453 33.3824 144.162 33.34 143.871 33.3573H140.462C139.896 33.3573 139.353 33.5814 138.953 33.9806C138.552 34.3798 138.326 34.9215 138.324 35.4871Z" fill="#F04E69"/>
<path d="M134.179 48.9197C133.784 49.321 133.562 49.8616 133.563 50.4249C133.562 50.9881 133.784 51.5288 134.179 51.9301L136.595 54.3383C136.999 54.7158 137.533 54.9217 138.086 54.9125C138.638 54.9033 139.165 54.6797 139.556 54.289C139.947 53.8983 140.17 53.371 140.18 52.8185C140.189 52.266 139.983 51.7315 139.605 51.328L137.19 48.9122C136.789 48.5143 136.247 48.2916 135.683 48.293C135.118 48.2944 134.578 48.5198 134.179 48.9197Z" fill="#F04E69"/>
<path d="M137.194 22.0532L139.61 19.6449C139.951 19.2352 140.127 18.7125 140.103 18.1795C140.079 17.6466 139.857 17.1419 139.479 16.7647C139.102 16.3875 138.597 16.1649 138.065 16.1409C137.532 16.1168 137.009 16.2929 136.599 16.6345L134.183 19.0428C133.842 19.4525 133.666 19.9752 133.69 20.5082C133.714 21.0411 133.936 21.5458 134.314 21.923C134.691 22.3003 135.195 22.5228 135.728 22.5469C136.261 22.5709 136.784 22.3948 137.194 22.0532Z" fill="#F04E69"/>
<path d="M53.1686 37.6243H56.5853C57.1522 37.6243 57.6958 37.3991 58.0967 36.9983C58.4975 36.5975 58.7227 36.0538 58.7227 35.487C58.7227 34.9201 58.4975 34.3765 58.0967 33.9756C57.6958 33.5748 57.1522 33.3496 56.5853 33.3496H53.1686C52.6017 33.3496 52.0581 33.5748 51.6573 33.9756C51.2564 34.3765 51.0312 34.9201 51.0312 35.487C51.0312 36.0538 51.2564 36.5975 51.6573 36.9983C52.0581 37.3991 52.6017 37.6243 53.1686 37.6243Z" fill="#F04E69"/>
<path d="M59.8453 22.0532C60.0354 22.2812 60.271 22.4671 60.5371 22.5991C60.8031 22.731 61.0936 22.8061 61.3903 22.8195C61.6869 22.8329 61.9831 22.7843 62.2599 22.6769C62.5367 22.5695 62.7881 22.4056 62.9981 22.1956C63.208 21.9857 63.372 21.7343 63.4794 21.4574C63.5868 21.1806 63.6353 20.8845 63.6219 20.5878C63.6085 20.2912 63.5335 20.0006 63.4015 19.7346C63.2696 19.4686 63.0837 19.233 62.8556 19.0428L60.4398 16.6345C60.0301 16.2929 59.5074 16.1168 58.9745 16.1409C58.4415 16.1649 57.9368 16.3875 57.5596 16.7647C57.1824 17.1419 56.9599 17.6466 56.9358 18.1795C56.9117 18.7125 57.0878 19.2352 57.4295 19.6449L59.8453 22.0532Z" fill="#F04E69"/>
<path d="M59.8457 48.9191L57.4299 51.335C57.0524 51.7385 56.8466 52.2729 56.8558 52.8254C56.865 53.3779 57.0886 53.9052 57.4793 54.2959C57.87 54.6867 58.3973 54.9102 58.9498 54.9194C59.5023 54.9287 60.0367 54.7228 60.4403 54.3453L62.8561 51.937C63.0841 51.7469 63.27 51.5113 63.402 51.2452C63.5339 50.9792 63.609 50.6887 63.6224 50.392C63.6358 50.0954 63.5872 49.7992 63.4798 49.5224C63.3724 49.2456 63.2085 48.9942 62.9985 48.7842C62.7886 48.5743 62.5372 48.4103 62.2603 48.3029C61.9835 48.1955 61.6873 48.147 61.3907 48.1604C61.0941 48.1738 60.8035 48.2488 60.5375 48.3808C60.2715 48.5127 60.0359 48.6986 59.8457 48.9267V48.9191Z" fill="#F04E69"/>
<path d="M74.965 131.139C77.2392 127.36 80.2031 124.041 83.7026 121.356C78.4947 113.935 71.4429 108.494 62.4646 108.494H56.8051C31.6762 108.494 21.2981 159.806 27.981 162.154C34.5135 164.457 35.2435 148.058 43.2209 135.151C43.3107 134.967 43.4674 134.824 43.6589 134.751C43.8505 134.678 44.0626 134.681 44.252 134.759C44.5304 134.85 44.696 135.249 44.7938 135.918C44.7938 135.918 36.854 160.325 40.9782 164.517C46.2463 169.898 54.2313 168.28 59.9886 168.28C61.6367 168.28 63.2548 168.234 64.8051 168.159C64.6245 164.363 64.8744 160.558 65.5502 156.818C67.1833 147.425 70.6 138.071 74.965 131.139Z" fill="#F04E69"/>
</svg>
