<svg width="200" height="200" viewBox="0 0 200 200" fill="none" xmlns="http://www.w3.org/2000/svg">
<path d="M57.5245 58.6415C63.7599 58.6415 68.8147 53.3229 68.8147 46.7621C68.8147 40.2014 63.7599 34.8828 57.5245 34.8828C51.2892 34.8828 46.2344 40.2014 46.2344 46.7621C46.2344 53.3229 51.2892 58.6415 57.5245 58.6415Z" fill="#F04E69"/>
<path d="M136.532 58.6415C142.768 58.6415 147.822 53.3229 147.822 46.7621C147.822 40.2014 142.768 34.8828 136.532 34.8828C130.297 34.8828 125.242 40.2014 125.242 46.7621C125.242 53.3229 130.297 58.6415 136.532 58.6415Z" fill="#F04E69"/>
<path d="M18.0883 95.7448C18.1662 94.1966 18.6965 92.7053 19.6137 91.4556C20.5309 90.2059 21.7946 89.2527 23.2482 88.7142C24.7018 88.1756 26.2815 88.0754 27.7915 88.4258C29.3015 88.7763 30.6756 89.562 31.7434 90.6858C32.8112 91.8095 33.5259 93.2218 33.7989 94.7478C34.0719 96.2737 33.8912 97.8462 33.2792 99.2704C32.6672 100.695 31.6509 101.908 30.356 102.76C29.0611 103.613 27.5447 104.066 25.9945 104.065C23.8439 104.007 21.8042 103.098 20.3222 101.539C18.8402 99.9791 18.0369 97.8956 18.0883 95.7448Z" fill="#F04E69"/>
<path d="M41.5859 137.005C41.4896 137.043 41.3868 137.062 41.2833 137.06C38.4727 137.06 36.1319 123.413 33.6875 119.719C33.6556 119.665 33.6101 119.621 33.5556 119.59C33.5011 119.559 33.4396 119.543 33.377 119.544H33.2417C32.2942 119.799 33.8468 128.223 34.0856 136.057C34.5713 144.616 35.0251 155.421 34.1254 162.873C33.791 165.644 33.2178 165.668 31.8801 165.668C29.9931 165.668 29.4915 165.341 29.2208 162.953C27.8593 151.4 26.7287 144.744 26.259 143.788C26.259 143.709 26.1077 143.709 26.0042 143.709C25.9593 143.708 25.9148 143.717 25.8737 143.735C25.8325 143.753 25.7956 143.779 25.7653 143.812C25.1522 144.943 24.1729 151.384 22.8114 162.921C22.5327 165.31 22.0152 165.636 20.1521 165.636C18.8224 165.636 18.2412 165.636 17.9148 162.841C17.015 155.389 17.4689 144.584 17.9148 136.025C18.1377 128.461 19.8256 118.684 19.0374 118.421H18.8861C18.821 118.422 18.7574 118.441 18.7025 118.477C18.6477 118.512 18.6037 118.562 18.5756 118.62C16.3224 122.426 14.1408 134.95 11.3461 134.95C11.2352 134.947 11.1253 134.929 11.0196 134.895C8.00204 133.828 12.2697 106.598 24.6984 106.598H27.2542C39.7466 106.661 44.6035 135.978 41.5859 137.005Z" fill="#F04E69"/>
<path d="M114.913 107.784C119.016 107.784 122.342 104.287 122.342 99.9729C122.342 95.6591 119.016 92.1621 114.913 92.1621C110.81 92.1621 107.484 95.6591 107.484 99.9729C107.484 104.287 110.81 107.784 114.913 107.784Z" fill="#F04E69"/>
<path d="M70.2233 84.1993C70.3684 84.1543 70.5241 84.157 70.6674 84.2072C70.8108 84.2574 70.9342 84.3523 71.0195 84.4779C75.2235 88.9446 78.2252 95.163 80.7412 100.498C81.5137 99.1685 82.5863 98.0386 83.8734 97.198C85.1605 96.3575 86.6263 95.8296 88.1538 95.6566C83.9817 81.0224 73.7585 61.4199 59.7533 61.4199H55.2547C44.3945 61.4199 35.1267 73.3629 29.2109 85.5687C31.1358 86.2555 32.8223 87.4818 34.069 89.1012C35.3156 90.7206 36.0698 92.6647 36.2414 94.7012C39.2988 89.8443 42.2766 85.1467 44.4662 82.5989C44.545 82.4656 44.6663 82.3625 44.8107 82.3062C44.955 82.2499 45.114 82.2436 45.2624 82.2884C46.6478 82.7422 43.67 99.9641 43.2798 113.285C43.1206 116.023 42.9693 118.858 42.834 121.844C43.4298 123.852 43.9057 125.894 44.2592 127.959C45.7958 136.972 43.9088 138.747 42.3562 139.288H42.3164C42.1794 146.368 42.4746 153.448 43.2002 160.491C43.7894 165.38 44.7926 165.412 47.1812 165.412C50.5014 165.412 51.3693 164.847 51.8629 160.635C54.2515 140.26 55.9713 128.914 57.0541 126.931C57.1079 126.871 57.1744 126.824 57.2487 126.792C57.323 126.76 57.4034 126.745 57.4841 126.748C57.6672 126.748 57.8663 126.748 57.93 126.884C58.7262 128.564 60.7485 140.284 63.1451 160.635C63.6387 164.847 64.5066 165.412 67.8268 165.412C70.2154 165.412 71.1947 165.412 71.8078 160.491C73.4002 147.378 72.604 128.341 71.7361 113.269C71.2982 99.4864 68.5513 84.6611 70.2233 84.1993Z" fill="#F04E69"/>
<path d="M81.6509 105.872C81.7257 104.405 82.2291 102.992 83.099 101.808C83.9688 100.625 85.1668 99.7221 86.5445 99.2124C87.9222 98.7028 89.4192 98.6085 90.85 98.9412C92.2807 99.274 93.5825 100.019 94.594 101.084C95.6055 102.15 96.2823 103.488 96.5406 104.934C96.7988 106.38 96.6272 107.87 96.047 109.22C95.4668 110.569 94.5035 111.719 93.2763 112.527C92.0492 113.334 90.6121 113.764 89.1431 113.762C87.1037 113.708 85.1693 112.847 83.7645 111.367C82.3597 109.888 81.5995 107.912 81.6509 105.872Z" fill="#F04E69"/>
<path d="M115.981 110.268H113.592C106.673 110.268 102.549 119.822 100.924 127.784C99.1728 122.147 95.6616 116.359 90.2315 116.359H88.0977C77.747 116.359 74.2199 137.936 76.7279 138.819C76.8245 138.856 76.927 138.875 77.0304 138.875C79.3394 138.875 81.1229 129.544 82.986 126.391C83.0112 126.342 83.0488 126.301 83.0949 126.272C83.1411 126.242 83.1941 126.226 83.2488 126.223H83.3762C84.0291 126.438 81.7042 134.655 81.521 140.961C81.2203 148.404 81.5158 155.859 82.4048 163.255C82.6835 165.564 83.1612 165.58 84.2759 165.58C85.8683 165.58 86.2584 165.309 86.4893 163.319C87.6279 153.669 88.44 148.302 88.9496 147.394C88.9751 147.365 89.007 147.342 89.0429 147.327C89.0788 147.311 89.1177 147.305 89.1566 147.307C89.2362 147.307 89.3397 147.307 89.3636 147.371C89.7538 148.167 90.7012 153.74 91.8398 163.35C92.0707 165.341 92.4847 165.612 94.0533 165.612C95.1679 165.612 95.6457 165.612 95.9243 163.287C96.7601 155.887 97.0051 148.432 96.6568 140.993C96.4657 134.464 94.3956 127.378 95.1839 127.155H95.2953C95.3495 127.156 95.4025 127.17 95.4498 127.196C95.4971 127.223 95.537 127.261 95.566 127.306C97.5406 130.3 98.8384 138.159 101.02 138.413C101.11 138.445 101.204 138.461 101.299 138.461C103.918 138.461 105.718 125.18 107.836 121.598C107.863 121.543 107.905 121.497 107.957 121.465C108.009 121.433 108.069 121.415 108.13 121.414H108.273C108.377 121.414 108.433 121.685 108.457 122.059C108.011 124.145 102.883 148.637 104.523 150.34C105.14 150.914 105.889 151.325 106.705 151.535C106.624 155.4 106.781 159.266 107.175 163.112C107.485 165.715 108.027 165.739 109.285 165.739C111.052 165.739 111.514 165.436 111.777 163.191C112.326 158.557 112.812 154.847 113.242 151.973C113.847 151.973 114.42 151.925 114.834 151.925C115.248 151.925 115.774 151.925 116.259 151.877C116.705 154.775 117.223 158.533 117.772 163.191C118.035 165.436 118.497 165.739 120.272 165.739C121.522 165.739 122.064 165.739 122.374 163.112C122.793 158.951 122.947 154.768 122.836 150.587C123.75 150.29 124.559 149.737 125.169 148.995C126.276 147.299 122.231 126.964 121.363 122.72C121.411 122.585 121.467 122.489 121.546 122.465C121.588 122.458 121.631 122.458 121.674 122.465C121.732 122.464 121.79 122.479 121.842 122.507C121.893 122.534 121.937 122.575 121.968 122.625C124.261 126.096 126.427 139.345 129.07 139.345C129.163 139.345 129.254 139.329 129.341 139.297C132.191 138.206 127.653 110.268 115.981 110.268Z" fill="#F04E69"/>
<path d="M149.095 84.1993C149.557 84.0719 149.748 84.3824 149.892 84.4779C154.772 87.8379 160.505 94.9161 165.68 100.959C165.856 98.9867 166.573 97.1008 167.751 95.5092C168.93 93.9176 170.525 92.682 172.36 91.9383C164.693 77.9172 151.476 61.4199 138.633 61.4199H134.135C112.231 61.4199 99.5637 109.375 104.874 111.246C105.225 111.369 105.605 111.386 105.965 111.294C106.755 110.501 107.643 109.814 108.609 109.248C108.847 108.961 109.078 108.651 109.317 108.308C108.005 107.351 106.939 106.096 106.205 104.647C105.472 103.198 105.092 101.596 105.097 99.972C105.048 97.3174 106.054 94.7517 107.895 92.838C109.735 90.9244 112.26 89.8191 114.914 89.7647C116.161 89.7697 117.394 90.0186 118.545 90.4972C119.903 87.7295 121.502 85.0866 123.322 82.5989C123.398 82.4624 123.519 82.3566 123.664 82.2999C123.81 82.2432 123.97 82.2391 124.119 82.2884C124.318 82.3521 124.429 82.7741 124.461 83.4747C124.254 84.4779 123.45 88.2997 122.423 93.4591C123.331 94.5997 123.99 95.9182 124.356 97.3294C124.723 98.7406 124.79 100.213 124.552 101.651C124.314 103.09 123.777 104.463 122.975 105.681C122.174 106.899 121.126 107.935 119.899 108.722C126.507 111.636 130.48 121.629 131.977 130.387C133.657 140.204 131.085 141.112 130.114 141.454C129.609 141.63 129.069 141.68 128.54 141.6C128.011 141.519 127.51 141.311 127.08 140.992C128.163 148.7 127.558 149.615 127.144 150.252C126.642 150.982 125.984 151.591 125.217 152.036C125.285 155.824 125.12 159.613 124.724 163.382C124.654 164.035 124.521 164.681 124.326 165.308C124.882 165.411 125.448 165.451 126.014 165.428C129.334 165.428 130.202 164.863 130.695 160.651C131.714 152.014 132.625 145 133.426 139.607C134.597 139.607 135.64 139.519 136.476 139.519C137.312 139.519 138.235 139.519 139.159 139.432C139.955 144.862 140.958 151.972 141.985 160.651C142.479 164.863 143.347 165.428 146.667 165.428C149.056 165.428 150.027 165.428 150.648 160.507C151.44 152.713 151.73 144.875 151.516 137.043C153.242 136.463 154.761 135.392 155.887 133.962C157.965 130.777 150.361 92.5594 148.721 84.6451C148.825 84.3983 148.952 84.2391 149.095 84.1993Z" fill="#F04E69"/>
<path d="M168.022 102.034C168.106 100.48 168.643 98.9854 169.568 97.7338C170.492 96.4822 171.763 95.5289 173.223 94.9916C174.683 94.4544 176.269 94.3568 177.784 94.7108C179.299 95.0649 180.677 95.8551 181.748 96.9839C182.819 98.1126 183.536 99.5304 183.81 101.062C184.084 102.594 183.903 104.172 183.29 105.602C182.677 107.032 181.658 108.251 180.359 109.108C179.061 109.966 177.54 110.424 175.984 110.426C173.817 110.363 171.763 109.446 170.271 107.873C168.779 106.3 167.97 104.201 168.022 102.034Z" fill="#F04E69"/>
<path d="M189.264 138.255C189.165 138.293 189.06 138.312 188.954 138.311C186.517 138.311 184.973 128.016 182.791 124.776C182.76 124.73 182.719 124.692 182.67 124.666C182.622 124.639 182.568 124.625 182.512 124.624C182.473 124.617 182.432 124.617 182.393 124.624C182.321 124.624 182.274 124.72 182.234 124.823C183.133 128.621 187.608 147.993 186.557 149.609C185.783 150.492 184.754 151.113 183.611 151.385C183.717 155.299 183.571 159.217 183.173 163.113C182.879 165.573 182.377 165.589 181.183 165.589C179.511 165.589 179.073 165.302 178.794 163.2C178.277 158.789 177.791 155.238 177.369 152.491C176.899 152.491 176.445 152.539 176.015 152.539C175.585 152.539 175.076 152.539 174.487 152.539C174.081 155.254 173.627 158.773 173.109 163.168C172.854 165.286 172.417 165.557 170.721 165.557C169.534 165.557 169.025 165.557 168.73 163.081C168.37 159.443 168.237 155.787 168.332 152.133C167.304 151.973 166.342 151.529 165.553 150.851C163.961 149.259 169.534 126.089 169.98 124.218C169.98 123.876 169.909 123.661 169.813 123.629H169.678C169.62 123.63 169.563 123.647 169.514 123.678C169.465 123.709 169.425 123.752 169.399 123.804C167.408 127.172 165.306 137.531 162.822 137.531C162.717 137.528 162.612 137.509 162.512 137.475C159.829 136.527 163.794 113.119 174.837 113.119H177.106C188.157 113.119 191.939 137.316 189.264 138.255Z" fill="#F04E69"/>
</svg>
