<svg width="200" height="200" viewBox="0 0 200 200" fill="none" xmlns="http://www.w3.org/2000/svg">
<path d="M18.4277 64.8945C26.6972 64.896 34.8726 66.6731 42.4157 70.1086C43.4605 70.5886 44.2989 71.4354 44.7761 72.4927C45.2534 73.5501 45.3373 74.7468 45.0124 75.862L30.4678 124.407C30.1819 125.411 29.5817 126.295 28.7577 126.924C27.9336 127.553 26.9303 127.893 25.8987 127.895H16.207V64.9377C16.9165 64.9377 17.6899 64.8945 18.4277 64.8945Z" fill="#F04E69"/>
<path d="M107.312 72.0346C103.852 70.6042 99.9868 70.5168 96.4663 71.7892C90.3251 74.0479 81.3825 79.4602 73.4815 92.3845C73.4815 92.4783 68.5613 100.445 73.1942 104.732C73.3594 104.876 78.1144 108.636 85.4049 102.617C86.5613 101.405 93.4352 94.5711 101.983 93.7845C102.584 93.7947 103.167 93.994 103.649 94.3546L142.063 129.938C143.384 131.23 144.775 132.449 146.229 133.59C148.254 135.17 154.489 130.263 155.178 126.821C155.868 123.378 143.937 88.4156 139.965 85.0889C135.993 81.7621 107.312 72.0346 107.312 72.0346Z" fill="#F04E69"/>
<path d="M175.621 72.8945H176.083C177.351 72.8945 178.43 72.8945 179.207 72.9736V135.895H169.401C168.425 135.887 167.475 135.575 166.676 135.002C165.877 134.428 165.266 133.62 164.925 132.682L147.518 84.0832C147.084 82.9205 147.105 81.6302 147.578 80.4832C148.05 79.3362 148.938 78.4218 150.054 77.9319C158.189 74.6085 166.865 72.8991 175.621 72.8945Z" fill="#F04E69"/>
<path d="M39.3362 119.44C40.2852 124.838 44.1171 127.576 46.9204 129.556C47.3985 129.903 47.8476 130.221 48.2388 130.524C59.1043 138.928 68.4777 146.666 76.0256 152.88C83.4214 158.971 89.2599 163.784 93.7437 167.014C94.6403 167.686 95.7602 167.991 96.8748 167.868C97.9895 167.744 99.0151 167.202 99.7423 166.35C100.469 165.498 100.844 164.402 100.788 163.285C100.733 162.167 100.252 161.113 99.4445 160.337L85.6815 146.608C85.2473 146.176 85.003 145.59 85.0023 144.978C85.0016 144.366 85.2446 143.779 85.6779 143.346C86.1111 142.913 86.699 142.669 87.3124 142.669C87.9257 142.668 88.5142 142.91 88.9484 143.342L88.9991 143.4L102.762 157.129L106 160.445C107.033 161.444 108.417 162 109.855 161.993C111.294 161.987 112.673 161.419 113.697 160.412C114.721 159.405 115.309 158.037 115.336 156.603C115.362 155.168 114.824 153.78 113.838 152.736L98.8505 137.179C98.5265 136.857 98.3056 136.446 98.2157 135.999C98.1258 135.552 98.1709 135.088 98.3455 134.666C98.52 134.245 98.816 133.884 99.196 133.631C99.5761 133.377 100.023 133.241 100.48 133.241C101.088 133.241 101.671 133.48 102.103 133.906L102.168 133.978L120.516 152.967C121.316 153.741 122.322 154.268 123.414 154.486C124.506 154.704 125.638 154.603 126.675 154.196C127.711 153.789 128.608 153.093 129.258 152.19C129.908 151.288 130.283 150.218 130.339 149.109C130.363 148.327 130.222 147.55 129.925 146.826C129.628 146.103 129.181 145.45 128.615 144.91L109.897 126.846C109.672 126.656 109.487 126.424 109.353 126.162C109.219 125.901 109.138 125.615 109.115 125.322C109.075 124.869 109.17 124.414 109.388 124.015C109.606 123.616 109.938 123.29 110.341 123.079C110.744 122.867 111.202 122.779 111.655 122.826C112.108 122.873 112.538 123.052 112.889 123.342C112.979 123.418 113.063 123.5 113.142 123.588L134.939 144.636C135.432 145.149 136.023 145.558 136.678 145.84C137.332 146.121 138.036 146.27 138.749 146.276C139.458 146.293 140.162 146.166 140.821 145.904C141.479 145.642 142.078 145.25 142.581 144.751C143.603 143.756 144.188 142.397 144.207 140.972C144.226 139.547 143.677 138.173 142.682 137.15C142.574 137.035 142.458 136.933 142.342 136.825C115.134 109.252 102.639 98.9774 100.872 98.7895C97.1845 98.3993 89.1077 104.996 87.1085 106.839C87.0708 106.89 87.027 106.936 86.9781 106.976L86.8694 107.048C82.9868 110.163 79.0897 111.528 75.2795 111.109C73.0226 110.888 70.8906 109.972 69.1803 108.486C62.1612 102.142 68.5139 91.6362 68.7819 91.1882C71.3138 86.9926 74.3363 83.1117 77.7858 79.6272C70.716 78.3555 55.3303 76.4191 51.3608 79.7212C47.6303 82.8282 38.0541 112.236 39.3218 119.462L39.3362 119.44Z" fill="#F04E69"/>
</svg>
