<svg xmlns="http://www.w3.org/2000/svg" width="65" height="48" viewBox="0 0 65 48" fill="none">
    <path d="M59.3948 3.65294C58.5517 3.65294 57.4353 3.93399 56.0457 4.49608C54.656 5.05818 52.9776 5.995 51.0102 7.30656C49.886 8.05602 48.8087 8.83671 47.7782 9.64863C46.7789 10.4918 45.8264 11.3583 44.9208 12.2483C44.0152 13.1383 43.1721 14.0673 42.3914 15.0354C41.6107 16.0347 40.8925 17.0496 40.2367 18.0801C38.8939 20.2035 37.9025 22.2724 37.2623 24.2865C36.6221 26.3007 36.302 28.2915 36.302 30.2588C36.302 31.1644 36.3879 32.0778 36.5597 32.999C36.7314 33.9202 36.989 34.8337 37.3325 35.7393C37.676 36.6761 38.082 37.5192 38.5504 38.2687C39.0188 39.0181 39.5341 39.7052 40.0962 40.3297C41.2516 41.61 42.5007 42.5703 43.8435 43.2104C45.1863 43.8506 46.6384 44.2175 48.1997 44.3112H48.8087C50.5574 44.3112 52.1344 44.0068 53.5396 43.3978C54.9449 42.7889 56.2096 41.8911 57.3338 40.7044C58.3019 39.6427 59.0279 38.4795 59.5119 37.2148C59.9959 35.95 60.238 34.6151 60.238 33.2098C60.238 31.7421 60.0428 30.415 59.6524 29.2283C59.2621 28.0417 58.6766 26.9643 57.8959 25.9963V25.9494C57.1152 25.0126 56.233 24.2553 55.2494 23.6776C54.2657 23.0999 53.1493 22.7017 51.9002 22.4832L50.8697 22.4363L49.9329 22.2958C49.5581 22.2333 49.16 22.1397 48.7384 22.0147C48.3168 21.8898 47.9343 21.7025 47.5908 21.4526C47.1848 21.1404 46.8726 20.7656 46.654 20.3285C46.4354 19.8913 46.3261 19.4229 46.3261 18.9232C46.3261 18.4236 46.4276 17.9395 46.6306 17.4711C46.8335 17.0027 47.0599 16.5655 47.3098 16.1596C47.5908 15.7536 47.9187 15.3164 48.2934 14.848C48.6682 14.3796 49.0897 13.88 49.5581 13.3491C50.6199 12.1937 51.947 11.0617 53.5396 9.9531C55.1323 8.84452 56.9903 7.74375 59.1138 6.65078C59.832 6.27605 60.277 5.93255 60.4487 5.62027C60.6205 5.308 60.7064 5.04256 60.7064 4.82397C60.7064 4.60538 60.6751 4.43363 60.6127 4.30872C60.5502 4.18381 60.4878 4.07451 60.4253 3.98083C60.3004 3.88715 60.1677 3.80907 60.0272 3.74662C59.8867 3.68417 59.6759 3.65294 59.3948 3.65294ZM48.996 4.26188C51.0258 2.91909 52.9151 1.87297 54.6638 1.1235C56.4126 0.374043 57.9896 -0.000686646 59.3948 -0.000686646C60.0506 -0.000686646 60.6751 0.100803 61.2685 0.303783C61.8618 0.50676 62.4083 0.842457 62.9079 1.31087C63.4076 1.77929 63.7745 2.31015 64.0087 2.90348C64.2429 3.4968 64.36 4.13697 64.36 4.82397C64.36 5.97939 64.0243 6.97087 63.3529 7.7984C62.6815 8.62593 61.8306 9.32074 60.8001 9.88284C58.7703 10.9133 57.0449 11.9282 55.6241 12.9275C54.2032 13.9268 53.0712 14.8949 52.2281 15.8317C51.7909 16.3001 51.424 16.7295 51.1273 17.1198C50.8307 17.5102 50.5886 17.8459 50.4013 18.1269C50.3388 18.2206 50.2842 18.3065 50.2373 18.3845C50.1905 18.4626 50.1515 18.5329 50.1202 18.5953C50.1515 18.6266 50.1983 18.6422 50.2608 18.6422C50.3232 18.6422 50.3857 18.6578 50.4481 18.689L51.2913 18.7827L52.3218 18.8764H52.3686C54.0861 19.1262 55.6397 19.6571 57.0293 20.469C58.419 21.2809 59.6603 22.3582 60.7532 23.701C61.815 25.0126 62.6034 26.4725 63.1187 28.0807C63.634 29.6889 63.8916 31.3986 63.8916 33.2098C63.8916 35.0835 63.5715 36.8634 62.9313 38.5497C62.2912 40.236 61.3153 41.7818 60.0038 43.187C58.5985 44.686 57.0215 45.8336 55.2728 46.6299C53.524 47.4262 51.6192 47.8555 49.5581 47.918L49.5113 47.9648H48.7618C46.5447 47.9648 44.4837 47.5277 42.5788 46.6533C40.6739 45.7789 38.9564 44.4986 37.4262 42.8123C36.6768 42.0004 36.0132 41.1182 35.4355 40.1658C34.8578 39.2133 34.3503 38.175 33.9131 37.0508C33.5072 35.9266 33.1949 34.8024 32.9763 33.6782C32.7577 32.554 32.6484 31.4142 32.6484 30.2588C32.6484 27.8855 33.0309 25.52 33.796 23.1624C34.5611 20.8047 35.6775 18.4548 37.1452 16.1127C37.8946 14.9573 38.7066 13.8331 39.5809 12.7402C40.4241 11.6784 41.3453 10.6479 42.3446 9.64863C43.3439 8.64935 44.39 7.71252 45.4829 6.83815C46.6071 5.93255 47.7782 5.07379 48.996 4.26188ZM26.7464 3.65294C25.9033 3.65294 24.7947 3.93399 23.4207 4.49608C22.0467 5.05818 20.3604 5.995 18.3618 7.30656C17.2376 8.05602 16.1603 8.83671 15.1298 9.64863C14.1305 10.4918 13.178 11.3583 12.2724 12.2483C11.3668 13.1383 10.5237 14.0673 9.743 15.0354C8.96231 16.0347 8.24408 17.0496 7.5883 18.0801C6.24551 20.2035 5.25404 22.2724 4.61387 24.2865C3.97371 26.3007 3.65362 28.2915 3.65362 30.2588C3.65362 31.1644 3.7395 32.0778 3.91125 32.999C4.083 33.9202 4.34063 34.8337 4.68413 35.7393C5.02764 36.6761 5.4336 37.5192 5.90201 38.2687C6.37042 39.0181 6.88568 39.7052 7.44777 40.3297C8.60319 41.61 9.85229 42.5703 11.1951 43.2104C12.5379 43.8506 13.9899 44.2175 15.5513 44.3112H16.1603C17.909 44.3112 19.486 44.0068 20.8912 43.3978C22.2965 42.7889 23.5612 41.8911 24.6854 40.7044C25.6534 39.6427 26.3795 38.4795 26.8635 37.2148C27.3475 35.95 27.5895 34.6151 27.5895 33.2098C27.5895 31.7421 27.3944 30.415 27.004 29.2283C26.6137 28.0417 26.0282 26.9643 25.2475 25.9963V25.9494C24.4668 25.0126 23.5846 24.2553 22.6009 23.6776C21.6173 23.0999 20.5009 22.7017 19.2518 22.4832L18.2681 22.4363L17.2845 22.2958C16.9097 22.2333 16.5116 22.1397 16.09 22.0147C15.6684 21.8898 15.2859 21.7025 14.9424 21.4526C14.5364 21.1404 14.2242 20.7656 14.0056 20.3285C13.787 19.8913 13.6777 19.4229 13.6777 18.9232C13.6777 18.4236 13.7792 17.9395 13.9821 17.4711C14.1851 17.0027 14.4115 16.5655 14.6613 16.1596C14.9424 15.7536 15.2703 15.3164 15.645 14.848C16.0197 14.3796 16.4413 13.88 16.9097 13.3491C17.9715 12.1937 19.3064 11.0617 20.9147 9.9531C22.5229 8.84452 24.3731 7.74375 26.4654 6.65078C27.1836 6.27605 27.6286 5.93255 27.8003 5.62027C27.9721 5.308 28.058 5.04256 28.058 4.82397C28.058 4.60538 28.0267 4.43363 27.9643 4.30872C27.9018 4.18381 27.8394 4.07451 27.7769 3.98083C27.6832 3.88715 27.5583 3.80907 27.4022 3.74662C27.246 3.68417 27.0275 3.65294 26.7464 3.65294ZM16.3476 4.26188C18.3774 2.91909 20.2667 1.87297 22.0154 1.1235C23.7642 0.374043 25.3412 -0.000686646 26.7464 -0.000686646C27.4022 -0.000686646 28.0267 0.100803 28.6201 0.303783C29.2134 0.50676 29.7599 0.842457 30.2595 1.31087C30.7591 1.77929 31.1261 2.31015 31.3603 2.90348C31.5945 3.4968 31.7116 4.13697 31.7116 4.82397C31.7116 5.97939 31.3759 6.97087 30.7045 7.7984C30.0331 8.62593 29.1822 9.32074 28.1516 9.88284C26.1219 10.9133 24.3965 11.9282 22.9757 12.9275C21.5548 13.9268 20.4228 14.8949 19.5797 15.8317C19.1425 16.3001 18.7756 16.7295 18.4789 17.1198C18.1822 17.5102 17.9402 17.8459 17.7529 18.1269C17.6904 18.2206 17.6358 18.3065 17.5889 18.3845C17.5421 18.4626 17.503 18.5329 17.4718 18.5953C17.503 18.6266 17.5499 18.6422 17.6123 18.6422C17.6748 18.6422 17.7373 18.6578 17.7997 18.689L18.6429 18.7827L19.6734 18.8764H19.7202C21.4377 19.1262 22.9913 19.6571 24.3809 20.469C25.7705 21.2809 27.0118 22.3582 28.1048 23.701C29.1665 25.0126 29.955 26.4725 30.4703 28.0807C30.9855 29.6889 31.2432 31.3986 31.2432 33.2098C31.2432 35.0835 30.9231 36.8634 30.2829 38.5497C29.6428 40.236 28.6669 41.7818 27.3553 43.187C25.9501 44.686 24.3731 45.8336 22.6244 46.6299C20.8756 47.4262 18.9707 47.8555 16.9097 47.918L16.8629 47.9648H16.1134C13.8963 47.9648 11.8352 47.5277 9.93036 46.6533C8.02548 45.7789 6.30797 44.4986 4.77782 42.8123C4.02836 42.0004 3.36477 41.1182 2.78706 40.1658C2.20935 39.2133 1.7019 38.175 1.26472 37.0508C0.858758 35.9266 0.546482 34.8024 0.327889 33.6782C0.109296 32.554 0 31.4142 0 30.2588C0 27.8855 0.382538 25.52 1.14761 23.1624C1.91269 20.8047 3.02907 18.4548 4.49677 16.1127C5.24623 14.9573 6.05815 13.8331 6.93252 12.7402C7.80689 11.6784 8.73591 10.6479 9.71958 9.64863C10.7032 8.64935 11.7416 7.71252 12.8345 6.83815C13.9587 5.93255 15.1298 5.07379 16.3476 4.26188Z" fill="#00ABEC"/>
  </svg>