<svg width="200" height="200" viewBox="0 0 200 200" fill="none" xmlns="http://www.w3.org/2000/svg">
<path d="M146.695 70.4767C146.695 66.2367 144.621 62.7817 140.777 62.7817C136.932 62.7817 134.869 66.2195 134.869 70.4767L133.787 97.979C133.797 98.1159 133.779 98.2534 133.734 98.383C133.688 98.5127 133.617 98.6315 133.524 98.7322C133.43 98.8329 133.317 98.9132 133.191 98.9682C133.066 99.0231 132.93 99.0515 132.792 99.0515C132.655 99.0515 132.519 99.0231 132.394 98.9682C132.268 98.9132 132.155 98.8329 132.061 98.7322C131.968 98.6315 131.896 98.5127 131.851 98.383C131.806 98.2534 131.788 98.1159 131.798 97.979L130.985 53.981C130.985 49.7353 128.693 46.2803 124.831 46.2803C120.969 46.2803 119.262 49.7181 119.262 53.981L117.858 93.5786C117.868 93.7155 117.851 93.8531 117.805 93.9827C117.76 94.1123 117.689 94.2312 117.595 94.3319C117.502 94.4325 117.389 94.5129 117.263 94.5678C117.137 94.6227 117.001 94.6511 116.864 94.6511C116.727 94.6511 116.591 94.6227 116.465 94.5678C116.339 94.5129 116.226 94.4325 116.133 94.3319C116.04 94.2312 115.968 94.1123 115.923 93.9827C115.878 93.8531 115.86 93.7155 115.87 93.5786L114.724 44.0802C114.724 39.2272 112.295 35.2852 107.9 35.2852C103.505 35.2852 101.431 39.2272 101.431 44.0802L99.9816 93.5786C99.992 93.7155 99.974 93.8531 99.9288 93.9827C99.8835 94.1123 99.812 94.2312 99.7187 94.3319C99.6254 94.4325 99.5122 94.5129 99.3864 94.5678C99.2606 94.6227 99.1248 94.6511 98.9875 94.6511C98.8502 94.6511 98.7144 94.6227 98.5886 94.5678C98.4628 94.5129 98.3497 94.4325 98.2563 94.3319C98.163 94.2312 98.0915 94.1123 98.0462 93.9827C98.001 93.8531 97.983 93.7155 97.9934 93.5786L96.6412 59.4815C96.6412 54.6284 94.4181 50.6807 90.0292 50.6807C85.6403 50.6807 83.6235 54.6284 83.6235 59.4815L83.0505 77.5356L95.3234 97.3831C98.5918 96.9453 101.916 97.4961 104.869 98.9645C105.522 99.2567 107.275 100.013 109.355 100.901C114.552 103.13 117.022 104.751 119.096 105.336C120.613 105.837 122.175 106.192 123.76 106.396C124.75 106.427 125.709 106.745 126.521 107.313C127.362 107.937 127.932 108.859 128.114 109.891C128.174 110.285 128.126 110.687 127.975 111.056C127.823 111.424 127.574 111.744 127.255 111.982C126.017 112.933 124.058 113.214 122.281 113.243C120.643 113.271 118.385 112.83 115.268 111.673C114.695 111.386 113.337 111.06 113.481 111.673C113.612 112.102 113.82 112.504 114.094 112.859C114.18 112.973 114.294 113.14 114.191 112.996C114.191 112.996 114.122 112.893 114.094 112.859C113.985 112.704 114.065 112.824 114.094 112.859L126.596 131.555C127.891 133.36 128.194 135.405 126.561 136.666C124.928 137.926 123.049 137.101 121.754 135.296L112.163 123.006C112.129 122.953 112.084 122.908 112.032 122.873C111.98 122.838 111.921 122.814 111.86 122.803C111.798 122.792 111.734 122.793 111.673 122.807C111.612 122.822 111.554 122.848 111.504 122.886C111.404 122.969 111.339 123.087 111.324 123.216C111.31 123.345 111.345 123.475 111.424 123.579L124.081 142.401C125.375 144.2 125.639 146.28 124.006 147.558C122.373 148.835 120.414 148.056 119.119 146.251L105.505 128.174C105.47 128.122 105.425 128.077 105.372 128.043C105.319 128.008 105.26 127.984 105.198 127.973C105.136 127.962 105.073 127.963 105.011 127.977C104.95 127.991 104.892 128.017 104.84 128.054C104.74 128.137 104.676 128.255 104.661 128.384C104.646 128.514 104.682 128.644 104.76 128.747L114.787 143.896C115.933 145.478 116.197 147.254 114.787 148.36C113.378 149.466 111.578 148.847 110.444 147.265L98.4117 131.142C98.3777 131.089 98.3333 131.044 98.2811 131.009C98.2289 130.974 98.1701 130.95 98.1083 130.939C98.0466 130.928 97.9831 130.929 97.922 130.943C97.8608 130.958 97.8032 130.984 97.7528 131.022C97.6526 131.105 97.5883 131.223 97.5733 131.352C97.5584 131.482 97.5939 131.612 97.6726 131.715L104.6 142.252C105.746 143.828 105.895 145.69 104.456 146.836C103.018 147.982 101.34 147.248 100.205 145.69L83.8698 123.745C80.8847 118.972 79.945 115.088 80.2544 111.828L75.4874 104.683C72.8173 101.056 70.4453 98.5863 68.3425 97.0164C65.2313 94.6902 61.4669 92.5587 58.1724 92.5473C57.3281 92.5294 56.4961 92.7514 55.773 93.1875C55.0498 93.6237 54.4652 94.256 54.0871 95.011C52.8151 97.3602 53.2219 100.002 53.6459 101.6C54.3485 103.664 55.6075 105.495 57.2843 106.889C59.7709 109.53 61.4898 111.226 64.0452 114.962C66.9444 118.778 69.2019 124.885 75.4358 135.697C77.9225 140.017 80.0195 143.667 80.7987 145.054C86.8378 156.994 98.6924 165.285 112.312 165.285C128.767 165.285 145.842 161.137 147.773 130.374L146.695 70.4767Z" fill="#F04E69"/>
</svg>
