<svg width="137" height="138" viewBox="0 0 137 138" fill="none" xmlns="http://www.w3.org/2000/svg">
<path d="M127.196 35.3584C126.944 35.8956 126.681 36.4328 126.393 36.9579L124.53 40.3922C126.695 44.6876 128.368 49.2175 129.515 53.8943C127.646 55.1014 125.812 56.0007 124.164 56.0973C123.367 56.1545 122.566 56.0399 121.816 55.7609C121.066 55.482 120.384 55.0452 119.814 54.4797C119.192 53.862 118.525 53.2911 117.819 52.7716L116.92 54.4254C120.066 59.7731 125.465 64.6862 127.657 66.4124C128.027 66.7026 128.333 67.0671 128.556 67.4827C128.779 67.8983 128.914 68.356 128.952 68.8268C128.994 69.2941 128.939 69.7653 128.791 70.2101C128.642 70.6549 128.403 71.0636 128.089 71.4101C123.631 76.3835 118.82 83.4333 118.82 86.1615C118.82 90.2537 116.537 92.2455 114.871 93.7002C113.205 95.1548 112.055 96.1628 112.055 99.7903C112.055 111.361 94.5952 116.202 92.606 116.69C92.0081 116.846 91.3792 116.834 90.7877 116.656C90.1961 116.477 89.6645 116.138 89.2506 115.676C88.4717 114.801 81.6172 106.931 81.6172 99.7661C81.6172 95.8248 82.7796 93.9838 84.0738 92.2938C84.4211 91.9328 84.6845 91.4987 84.8451 91.0228C85.0057 90.5468 85.0594 90.0409 85.0025 89.5415C85.0025 87.5497 84.4033 86.1736 83.6544 84.4232C82.3507 81.7784 81.6564 78.8714 81.6232 75.9188C80.6046 74.4521 71.665 72.5086 61.3293 72.5086C54.6066 72.5086 47.8 69.0018 47.8 62.29C47.8 61.4148 47.7101 60.4793 47.6202 59.4472C47.2368 55.0531 46.6556 48.4017 52.1739 42.8488C58.9206 36.0525 69.2803 35.0566 74.8525 35.0566C75.943 35.0566 76.8897 35.0989 77.7346 35.1834C77.0147 33.6063 76.4411 31.9657 76.0209 30.2823C75.0623 30.7048 74.1216 31.1575 73.1629 31.6162C69.6577 33.3062 66.0268 35.0566 61.3293 35.0566C60.8839 35.0569 60.443 34.9686 60.0317 34.7966C59.6203 34.6247 59.2468 34.3725 58.9326 34.0547C57.9867 33.1039 57.2842 31.9359 56.8855 30.6511C56.4868 29.3663 56.4038 28.0032 56.6437 26.679C57.6264 20.4682 64.2292 14.4927 69.9394 11.5895C73.3966 9.82106 74.0197 8.75273 74.0976 8.57166C73.666 7.96722 73.163 7.41795 72.5997 6.93596C72.196 6.54944 71.8935 6.06841 71.7189 5.53566C74.78 5.71235 77.824 6.11583 80.8263 6.74282C81.9157 5.27468 83.1482 3.91996 84.5052 2.69885C69.3119 -1.12093 53.2755 0.458652 39.1046 7.1708C24.9336 13.8829 13.4966 25.3163 6.72527 39.5397C-0.046057 53.7631 -1.73671 69.9049 1.93888 85.2386C5.61446 100.572 14.431 114.158 26.8994 123.702C39.3678 133.245 54.7239 138.161 70.3739 137.62C86.024 137.078 101.009 131.112 112.798 120.729C124.586 110.346 132.457 96.1825 135.079 80.6307C137.701 65.079 134.915 49.0922 127.19 35.3705L127.196 35.3584ZM23.8511 98.8366C22.1854 101.251 20.7474 103.339 20.7474 106.58V111.258C10.4799 99.6518 4.80178 84.6507 4.7915 69.1044C4.7915 68.8207 4.83344 68.5491 4.83344 68.2715C6.94179 70.5783 8.73516 73.1582 10.1661 75.9429C11.1367 77.7174 12.0535 79.4014 12.9702 80.3249C14.1685 81.5321 16.3016 81.7856 18.5365 82.033C21.6701 82.3891 27.4941 83.047 27.4941 89.5415C27.5121 93.5312 25.5648 96.3499 23.8511 98.8366Z" fill="#F04E69"/>
</svg>
