<svg width="200" height="201" viewBox="0 0 200 201" fill="none" xmlns="http://www.w3.org/2000/svg">
<path d="M146.695 70.752C146.695 66.5121 144.621 63.0571 140.777 63.0571C136.932 63.0571 134.869 66.4949 134.869 70.752L133.787 98.2544C133.797 98.3913 133.779 98.5288 133.734 98.6584C133.688 98.7881 133.617 98.9069 133.524 99.0076C133.43 99.1083 133.317 99.1886 133.191 99.2436C133.066 99.2985 132.93 99.3268 132.792 99.3268C132.655 99.3268 132.519 99.2985 132.394 99.2436C132.268 99.1886 132.155 99.1083 132.061 99.0076C131.968 98.9069 131.896 98.7881 131.851 98.6584C131.806 98.5288 131.788 98.3913 131.798 98.2544L130.985 54.2564C130.985 50.0107 128.693 46.5557 124.831 46.5557C120.969 46.5557 119.262 49.9935 119.262 54.2564L117.858 93.854C117.868 93.9909 117.851 94.1285 117.805 94.2581C117.76 94.3877 117.689 94.5066 117.595 94.6073C117.502 94.7079 117.389 94.7883 117.263 94.8432C117.137 94.8981 117.001 94.9265 116.864 94.9265C116.727 94.9265 116.591 94.8981 116.465 94.8432C116.339 94.7883 116.226 94.7079 116.133 94.6073C116.04 94.5066 115.968 94.3877 115.923 94.2581C115.878 94.1285 115.86 93.9909 115.87 93.854L114.724 44.3556C114.724 39.5025 112.295 35.5605 107.9 35.5605C103.505 35.5605 101.431 39.5025 101.431 44.3556L99.9816 93.854C99.992 93.9909 99.974 94.1285 99.9288 94.2581C99.8835 94.3877 99.812 94.5066 99.7187 94.6073C99.6254 94.7079 99.5122 94.7883 99.3864 94.8432C99.2606 94.8981 99.1248 94.9265 98.9875 94.9265C98.8502 94.9265 98.7144 94.8981 98.5886 94.8432C98.4628 94.7883 98.3497 94.7079 98.2563 94.6073C98.163 94.5066 98.0915 94.3877 98.0462 94.2581C98.001 94.1285 97.983 93.9909 97.9934 93.854L96.6412 59.7569C96.6412 54.9038 94.4181 50.9561 90.0292 50.9561C85.6403 50.9561 83.6235 54.9038 83.6235 59.7569L83.0505 77.811L95.3234 97.6585C98.5918 97.2207 101.916 97.7714 104.869 99.2399C105.522 99.5321 107.275 100.288 109.355 101.176C114.552 103.405 117.022 105.027 119.096 105.611C120.613 106.112 122.175 106.467 123.76 106.671C124.75 106.702 125.709 107.021 126.521 107.588C127.362 108.212 127.932 109.135 128.114 110.166C128.174 110.56 128.126 110.963 127.975 111.331C127.823 111.7 127.574 112.02 127.255 112.258C126.017 113.209 124.058 113.49 122.281 113.518C120.643 113.547 118.385 113.106 115.268 111.948C114.695 111.662 113.337 111.335 113.481 111.948C113.612 112.377 113.82 112.779 114.094 113.134C114.18 113.249 114.294 113.415 114.191 113.272C114.191 113.272 114.122 113.169 114.094 113.134C113.985 112.98 114.065 113.1 114.094 113.134L126.596 131.83C127.891 133.635 128.194 135.68 126.561 136.941C124.928 138.201 123.049 137.376 121.754 135.572L112.163 123.281C112.129 123.229 112.084 123.183 112.032 123.148C111.98 123.113 111.921 123.09 111.86 123.078C111.798 123.067 111.734 123.069 111.673 123.083C111.612 123.097 111.554 123.124 111.504 123.161C111.404 123.244 111.339 123.362 111.324 123.492C111.31 123.621 111.345 123.751 111.424 123.854L124.081 142.676C125.375 144.475 125.639 146.555 124.006 147.833C122.373 149.111 120.414 148.331 119.119 146.527L105.505 128.45C105.47 128.397 105.425 128.352 105.372 128.318C105.319 128.283 105.26 128.26 105.198 128.249C105.136 128.237 105.073 128.239 105.011 128.253C104.95 128.266 104.892 128.293 104.84 128.329C104.74 128.412 104.676 128.531 104.661 128.66C104.646 128.789 104.682 128.919 104.76 129.023L114.787 144.172C115.933 145.753 116.197 147.529 114.787 148.635C113.378 149.741 111.578 149.122 110.444 147.541L98.4117 131.418C98.3777 131.365 98.3333 131.319 98.2811 131.284C98.2289 131.25 98.1701 131.226 98.1083 131.214C98.0466 131.203 97.9831 131.205 97.922 131.219C97.8608 131.233 97.8032 131.26 97.7528 131.297C97.6526 131.38 97.5883 131.499 97.5733 131.628C97.5584 131.757 97.5939 131.887 97.6726 131.991L104.6 142.527C105.746 144.103 105.895 145.965 104.456 147.111C103.018 148.257 101.34 147.524 100.205 145.965L83.8698 124.021C80.8847 119.248 79.945 115.363 80.2544 112.103L75.4874 104.958C72.8173 101.331 70.4453 98.8617 68.3425 97.2918C65.2313 94.9655 61.4669 92.8341 58.1724 92.8227C57.3281 92.8048 56.4961 93.0268 55.773 93.4629C55.0498 93.899 54.4652 94.5313 54.0871 95.2864C52.8151 97.6356 53.2219 100.277 53.6459 101.875C54.3485 103.94 55.6075 105.77 57.2843 107.164C59.7709 109.805 61.4898 111.501 64.0452 115.237C66.9444 119.053 69.2019 125.161 75.4358 135.973C77.9225 140.293 80.0195 143.943 80.7987 145.329C86.8378 157.27 98.6924 165.561 112.312 165.561C128.767 165.561 145.842 161.412 147.773 130.65L146.695 70.752Z" fill="#F04E69"/>
</svg>
