<svg width="200" height="201" viewBox="0 0 200 201" fill="none" xmlns="http://www.w3.org/2000/svg">
<path d="M57.5245 58.9169C63.7599 58.9169 68.8147 53.5983 68.8147 47.0375C68.8147 40.4768 63.7599 35.1582 57.5245 35.1582C51.2892 35.1582 46.2344 40.4768 46.2344 47.0375C46.2344 53.5983 51.2892 58.9169 57.5245 58.9169Z" fill="#F04E69"/>
<path d="M136.532 58.9169C142.768 58.9169 147.822 53.5983 147.822 47.0375C147.822 40.4768 142.768 35.1582 136.532 35.1582C130.297 35.1582 125.242 40.4768 125.242 47.0375C125.242 53.5983 130.297 58.9169 136.532 58.9169Z" fill="#F04E69"/>
<path d="M18.0883 96.0202C18.1662 94.472 18.6965 92.9807 19.6137 91.731C20.5309 90.4813 21.7946 89.5281 23.2482 88.9896C24.7018 88.451 26.2815 88.3507 27.7915 88.7012C29.3015 89.0517 30.6756 89.8374 31.7434 90.9612C32.8112 92.0849 33.5259 93.4972 33.7989 95.0232C34.0719 96.5491 33.8912 98.1216 33.2792 99.5458C32.6672 100.97 31.6509 102.184 30.356 103.036C29.0611 103.888 27.5447 104.342 25.9945 104.341C23.8439 104.282 21.8042 103.374 20.3222 101.814C18.8402 100.254 18.0369 98.171 18.0883 96.0202Z" fill="#F04E69"/>
<path d="M41.5859 137.28C41.4896 137.318 41.3868 137.337 41.2833 137.336C38.4727 137.336 36.1319 123.689 33.6875 119.994C33.6556 119.941 33.6101 119.896 33.5556 119.866C33.5011 119.835 33.4396 119.819 33.377 119.819H33.2417C32.2942 120.074 33.8468 128.498 34.0856 136.333C34.5713 144.892 35.0251 155.696 34.1254 163.149C33.791 165.919 33.2178 165.943 31.8801 165.943C29.9931 165.943 29.4915 165.617 29.2208 163.228C27.8593 151.675 26.7287 145.019 26.259 144.064C26.259 143.984 26.1077 143.984 26.0042 143.984C25.9593 143.984 25.9148 143.992 25.8737 144.01C25.8325 144.028 25.7956 144.054 25.7653 144.088C25.1522 145.218 24.1729 151.659 22.8114 163.196C22.5327 165.585 22.0152 165.911 20.1521 165.911C18.8224 165.911 18.2412 165.911 17.9148 163.117C17.015 155.664 17.4689 144.86 17.9148 136.301C18.1377 128.737 19.8256 118.959 19.0374 118.697H18.8861C18.821 118.698 18.7574 118.717 18.7025 118.752C18.6477 118.787 18.6037 118.837 18.5756 118.896C16.3224 122.702 14.1408 135.226 11.3461 135.226C11.2352 135.223 11.1253 135.204 11.0196 135.17C8.00204 134.103 12.2697 106.873 24.6984 106.873H27.2542C39.7466 106.937 44.6035 136.253 41.5859 137.28Z" fill="#F04E69"/>
<path d="M114.913 108.059C119.016 108.059 122.342 104.562 122.342 100.248C122.342 95.9345 119.016 92.4375 114.913 92.4375C110.81 92.4375 107.484 95.9345 107.484 100.248C107.484 104.562 110.81 108.059 114.913 108.059Z" fill="#F04E69"/>
<path d="M70.2233 84.4746C70.3684 84.4296 70.5241 84.4324 70.6674 84.4826C70.8108 84.5328 70.9342 84.6277 71.0195 84.7533C75.2235 89.22 78.2252 95.4384 80.7412 100.773C81.5137 99.4439 82.5863 98.314 83.8734 97.4734C85.1605 96.6329 86.6263 96.105 88.1538 95.932C83.9817 81.2978 73.7585 61.6953 59.7533 61.6953H55.2547C44.3945 61.6953 35.1267 73.6383 29.2109 85.8441C31.1358 86.5309 32.8223 87.7572 34.069 89.3766C35.3156 90.996 36.0698 92.9401 36.2414 94.9766C39.2988 90.1197 42.2766 85.4221 44.4662 82.8743C44.545 82.7409 44.6663 82.6379 44.8107 82.5816C44.955 82.5253 45.114 82.519 45.2624 82.5638C46.6478 83.0176 43.67 100.239 43.2798 113.56C43.1206 116.299 42.9693 119.133 42.834 122.119C43.4298 124.127 43.9057 126.169 44.2592 128.234C45.7958 137.247 43.9088 139.022 42.3562 139.564H42.3164C42.1794 146.643 42.4746 153.724 43.2002 160.767C43.7894 165.655 44.7926 165.687 47.1812 165.687C50.5014 165.687 51.3693 165.122 51.8629 160.91C54.2515 140.535 55.9713 129.189 57.0541 127.207C57.1079 127.147 57.1744 127.099 57.2487 127.067C57.323 127.036 57.4034 127.021 57.4841 127.024C57.6672 127.024 57.8663 127.024 57.93 127.159C58.7262 128.839 60.7485 140.559 63.1451 160.91C63.6387 165.122 64.5066 165.687 67.8268 165.687C70.2154 165.687 71.1947 165.687 71.8078 160.767C73.4002 147.653 72.604 128.616 71.7361 113.544C71.2982 99.7617 68.5513 84.9364 70.2233 84.4746Z" fill="#F04E69"/>
<path d="M81.6509 106.147C81.7257 104.68 82.2291 103.268 83.099 102.084C83.9688 100.9 85.1668 99.9975 86.5445 99.4878C87.9222 98.9782 89.4192 98.8839 90.85 99.2166C92.2807 99.5493 93.5825 100.294 94.594 101.36C95.6055 102.425 96.2823 103.764 96.5406 105.21C96.7988 106.656 96.6272 108.146 96.047 109.495C95.4668 110.845 94.5035 111.994 93.2763 112.802C92.0492 113.609 90.6121 114.039 89.1431 114.038C87.1037 113.984 85.1693 113.122 83.7645 111.643C82.3597 110.163 81.5995 108.187 81.6509 106.147Z" fill="#F04E69"/>
<path d="M115.981 110.543H113.592C106.673 110.543 102.549 120.097 100.924 128.059C99.1728 122.422 95.6616 116.634 90.2315 116.634H88.0977C77.747 116.634 74.2199 138.211 76.7279 139.095C76.8245 139.132 76.927 139.151 77.0304 139.151C79.3394 139.151 81.1229 129.819 82.986 126.666C83.0112 126.618 83.0488 126.576 83.0949 126.547C83.1411 126.518 83.1941 126.501 83.2488 126.499H83.3762C84.0291 126.714 81.7042 134.931 81.521 141.237C81.2203 148.679 81.5158 156.135 82.4048 163.53C82.6835 165.839 83.1612 165.855 84.2759 165.855C85.8683 165.855 86.2584 165.584 86.4893 163.594C87.6279 153.944 88.44 148.578 88.9496 147.67C88.9751 147.64 89.007 147.617 89.0429 147.602C89.0788 147.587 89.1177 147.58 89.1566 147.582C89.2362 147.582 89.3397 147.582 89.3636 147.646C89.7538 148.442 90.7012 154.016 91.8398 163.626C92.0707 165.616 92.4847 165.887 94.0533 165.887C95.1679 165.887 95.6457 165.887 95.9243 163.562C96.7601 156.162 97.0051 148.707 96.6568 141.268C96.4657 134.74 94.3956 127.653 95.1839 127.43H95.2953C95.3495 127.431 95.4025 127.445 95.4498 127.472C95.4971 127.498 95.537 127.536 95.566 127.582C97.5406 130.575 98.8384 138.434 101.02 138.689C101.11 138.72 101.204 138.736 101.299 138.736C103.918 138.736 105.718 125.456 107.836 121.873C107.863 121.818 107.905 121.772 107.957 121.74C108.009 121.708 108.069 121.69 108.13 121.69H108.273C108.377 121.69 108.433 121.961 108.457 122.335C108.011 124.421 102.883 148.912 104.523 150.616C105.14 151.19 105.889 151.6 106.705 151.81C106.624 155.675 106.781 159.541 107.175 163.387C107.485 165.991 108.027 166.014 109.285 166.014C111.052 166.014 111.514 165.712 111.777 163.467C112.326 158.833 112.812 155.122 113.242 152.248C113.847 152.248 114.42 152.2 114.834 152.2C115.248 152.2 115.774 152.2 116.259 152.153C116.705 155.051 117.223 158.809 117.772 163.467C118.035 165.712 118.497 166.014 120.272 166.014C121.522 166.014 122.064 166.014 122.374 163.387C122.793 159.226 122.947 155.043 122.836 150.863C123.75 150.565 124.559 150.013 125.169 149.27C126.276 147.574 122.231 127.239 121.363 122.996C121.411 122.86 121.467 122.765 121.546 122.741C121.588 122.733 121.631 122.733 121.674 122.741C121.732 122.74 121.79 122.754 121.842 122.782C121.893 122.81 121.937 122.85 121.968 122.9C124.261 126.371 126.427 139.62 129.07 139.62C129.163 139.62 129.254 139.604 129.341 139.573C132.191 138.482 127.653 110.543 115.981 110.543Z" fill="#F04E69"/>
<path d="M149.095 84.4747C149.557 84.3473 149.748 84.6578 149.892 84.7533C154.772 88.1133 160.505 95.1915 165.68 101.235C165.856 99.2621 166.573 97.3762 167.751 95.7846C168.93 94.193 170.525 92.9574 172.36 92.2137C164.693 78.1926 151.476 61.6953 138.633 61.6953H134.135C112.231 61.6953 99.5637 109.651 104.874 111.522C105.225 111.645 105.605 111.661 105.965 111.569C106.755 110.777 107.643 110.089 108.609 109.523C108.847 109.237 109.078 108.926 109.317 108.584C108.005 107.626 106.939 106.372 106.205 104.923C105.472 103.474 105.092 101.872 105.097 100.247C105.048 97.5928 106.054 95.0271 107.895 93.1134C109.735 91.1998 112.26 90.0945 114.914 90.0401C116.161 90.0451 117.394 90.294 118.545 90.7726C119.903 88.0049 121.502 85.362 123.322 82.8743C123.398 82.7378 123.519 82.632 123.664 82.5753C123.81 82.5186 123.97 82.5145 124.119 82.5638C124.318 82.6275 124.429 83.0495 124.461 83.7501C124.254 84.7533 123.45 88.5751 122.423 93.7345C123.331 94.8751 123.99 96.1936 124.356 97.6048C124.723 99.0159 124.79 100.488 124.552 101.927C124.314 103.365 123.777 104.738 122.975 105.956C122.174 107.174 121.126 108.21 119.899 108.998C126.507 111.912 130.48 121.904 131.977 130.662C133.657 140.48 131.085 141.387 130.114 141.73C129.609 141.906 129.069 141.956 128.54 141.875C128.011 141.795 127.51 141.586 127.08 141.268C128.163 148.975 127.558 149.891 127.144 150.528C126.642 151.257 125.984 151.866 125.217 152.311C125.285 156.1 125.12 159.889 124.724 163.657C124.654 164.311 124.521 164.956 124.326 165.584C124.882 165.686 125.448 165.726 126.014 165.703C129.334 165.703 130.202 165.138 130.695 160.926C131.714 152.29 132.625 145.275 133.426 139.882C134.597 139.882 135.64 139.795 136.476 139.795C137.312 139.795 138.235 139.795 139.159 139.707C139.955 145.137 140.958 152.247 141.985 160.926C142.479 165.138 143.347 165.703 146.667 165.703C149.056 165.703 150.027 165.703 150.648 160.783C151.44 152.988 151.73 145.15 151.516 137.319C153.242 136.739 154.761 135.668 155.887 134.237C157.965 131.052 150.361 92.8348 148.721 84.9205C148.825 84.6737 148.952 84.5145 149.095 84.4747Z" fill="#F04E69"/>
<path d="M168.022 102.309C168.106 100.756 168.643 99.2608 169.568 98.0092C170.492 96.7576 171.763 95.8043 173.223 95.267C174.683 94.7298 176.269 94.6322 177.784 94.9862C179.299 95.3403 180.677 96.1305 181.748 97.2593C182.819 98.388 183.536 99.8058 183.81 101.337C184.084 102.869 183.903 104.447 183.29 105.877C182.677 107.307 181.658 108.526 180.359 109.384C179.061 110.241 177.54 110.699 175.984 110.701C173.817 110.639 171.763 109.721 170.271 108.148C168.779 106.576 167.97 104.477 168.022 102.309Z" fill="#F04E69"/>
<path d="M189.264 138.531C189.165 138.568 189.06 138.587 188.954 138.586C186.517 138.586 184.973 128.291 182.791 125.051C182.76 125.005 182.719 124.967 182.67 124.941C182.622 124.915 182.568 124.901 182.512 124.9C182.473 124.892 182.432 124.892 182.393 124.9C182.321 124.9 182.274 124.995 182.234 125.099C183.133 128.897 187.608 148.268 186.557 149.884C185.783 150.768 184.754 151.388 183.611 151.66C183.717 155.575 183.571 159.492 183.173 163.388C182.879 165.848 182.377 165.864 181.183 165.864C179.511 165.864 179.073 165.578 178.794 163.476C178.277 159.065 177.791 155.514 177.369 152.767C176.899 152.767 176.445 152.815 176.015 152.815C175.585 152.815 175.076 152.815 174.487 152.815C174.081 155.53 173.627 159.049 173.109 163.444C172.854 165.562 172.417 165.832 170.721 165.832C169.534 165.832 169.025 165.832 168.73 163.356C168.37 159.719 168.237 156.062 168.332 152.408C167.304 152.249 166.342 151.805 165.553 151.127C163.961 149.534 169.534 126.365 169.98 124.494C169.98 124.151 169.909 123.936 169.813 123.904H169.678C169.62 123.905 169.563 123.922 169.514 123.953C169.465 123.984 169.425 124.028 169.399 124.08C167.408 127.448 165.306 137.806 162.822 137.806C162.717 137.803 162.612 137.784 162.512 137.75C159.829 136.803 163.794 113.395 174.837 113.395H177.106C188.157 113.395 191.939 137.591 189.264 138.531Z" fill="#F04E69"/>
</svg>
