<svg width="24" height="25" viewBox="0 0 24 25" fill="none" xmlns="http://www.w3.org/2000/svg">
<g clipPath="url(#clip0_2689_12545)">
<path d="M21.792 19.5236C21.429 20.3621 20.9994 21.1339 20.5016 21.8435C19.8231 22.8109 19.2676 23.4805 18.8395 23.8524C18.1758 24.4627 17.4647 24.7753 16.7032 24.7931C16.1566 24.7931 15.4973 24.6375 14.73 24.322C13.9601 24.0079 13.2525 23.8524 12.6056 23.8524C11.9271 23.8524 11.1994 24.0079 10.4211 24.322C9.64153 24.6375 9.01355 24.802 8.53342 24.8183C7.80322 24.8494 7.07539 24.5279 6.3489 23.8524C5.88521 23.4479 5.30523 22.7546 4.61043 21.7724C3.86498 20.7236 3.25211 19.5073 2.77198 18.1207C2.25777 16.623 2 15.1726 2 13.7685C2 12.1601 2.34754 10.7729 3.04367 9.61042C3.59076 8.67667 4.31859 7.9401 5.22953 7.39938C6.14046 6.85865 7.12473 6.58311 8.18469 6.56548C8.76467 6.56548 9.52524 6.74488 10.4704 7.09746C11.4129 7.45123 12.0181 7.63063 12.2834 7.63063C12.4817 7.63063 13.154 7.42086 14.2937 7.00265C15.3714 6.61481 16.281 6.45422 17.0262 6.51748C19.0454 6.68044 20.5624 7.47641 21.5712 8.91044C19.7654 10.0046 18.8721 11.5372 18.8898 13.5032C18.9061 15.0346 19.4617 16.3089 20.5535 17.3207C21.0483 17.7903 21.6009 18.1533 22.2156 18.411C22.0823 18.7977 21.9416 19.1681 21.792 19.5236ZM17.161 1.30045C17.161 2.50072 16.7225 3.62142 15.8484 4.65872C14.7937 5.89187 13.5179 6.60444 12.1343 6.492C12.1167 6.348 12.1065 6.19645 12.1065 6.0372C12.1065 4.88493 12.6081 3.65179 13.4989 2.64352C13.9436 2.13302 14.5092 1.70854 15.1951 1.36993C15.8796 1.03637 16.5269 0.851902 17.1358 0.820312C17.1536 0.98077 17.161 1.14124 17.161 1.30043V1.30045Z" fill="white"/>
</g>
<defs>
<clipPath id="clip0_2689_12545">
<rect width="24" height="24" fill="white" transform="translate(0 0.820312)"/>
</clipPath>
</defs>
</svg>
