<svg width="36" height="36" viewBox="0 0 36 36" fill="none" xmlns="http://www.w3.org/2000/svg">
<path d="M28.7216 25.233V8.47848C28.7249 8.15687 28.6078 7.84565 28.3932 7.60608C28.2936 7.49237 28.171 7.40113 28.0335 7.33839C27.896 7.27565 27.7467 7.24286 27.5955 7.24219C25.213 7.24219 20.8795 7.85974 18.619 11.8863C18.5152 12.0775 18.4621 12.2922 18.465 12.5098V30.0431C18.4649 30.0673 18.4722 30.091 18.486 30.1109C18.4998 30.1308 18.5193 30.146 18.542 30.1545C18.5553 30.1592 18.5694 30.1616 18.5835 30.1616C18.6005 30.1618 18.6174 30.1582 18.6329 30.1513C18.6485 30.1443 18.6623 30.1341 18.6736 30.1213C21.4081 26.9565 25.4299 26.4741 27.5919 26.4681C28.2154 26.4658 28.7216 25.9122 28.7216 25.233Z" fill="#F04E69"/>
<path d="M31.1251 11.5919C31.0292 11.4815 30.9109 11.3927 30.778 11.3314C30.6452 11.2701 30.5009 11.2377 30.3546 11.2363H29.6577C29.6262 11.2363 29.5961 11.2488 29.5739 11.271C29.5516 11.2933 29.5391 11.3234 29.5391 11.3549V24.7431C29.5391 26.1762 28.4878 27.3449 27.1958 27.3508C25.4367 27.3508 22.1403 27.7242 19.8373 30.1351C19.8194 30.154 19.8082 30.1782 19.8054 30.2041C19.8026 30.2299 19.8084 30.256 19.8219 30.2782C19.8353 30.3004 19.8557 30.3176 19.8799 30.3271C19.9041 30.3366 19.9308 30.3379 19.9558 30.3307C23.8519 29.2758 27.9923 30.0142 30.114 30.55C30.2759 30.5903 30.4452 30.5897 30.6068 30.5484C30.7684 30.507 30.9172 30.4261 31.0398 30.3129C31.1683 30.1962 31.2705 30.0536 31.3398 29.8944C31.409 29.7352 31.4437 29.5632 31.4416 29.3896V12.4264C31.4441 12.1185 31.3312 11.8207 31.1251 11.5919Z" fill="#F04E69"/>
<path d="M8.42842 7.24219C8.27767 7.2432 8.12883 7.27615 7.99174 7.33888C7.85465 7.4016 7.7324 7.49267 7.63307 7.60608C7.41898 7.84595 7.30193 8.15698 7.30474 8.47848V25.233C7.30474 25.9122 7.81205 26.4658 8.43435 26.4681C10.5916 26.4741 14.6194 26.9565 17.3539 30.1213C17.3652 30.1341 17.379 30.1443 17.3946 30.1513C17.4101 30.1582 17.427 30.1618 17.444 30.1616C17.4577 30.1616 17.4714 30.1592 17.4843 30.1545C17.5072 30.1462 17.527 30.1311 17.541 30.1112C17.555 30.0912 17.5625 30.0674 17.5625 30.0431V12.5098C17.5654 12.2922 17.5123 12.0775 17.4084 11.8863C15.148 7.85974 10.8133 7.25286 8.42842 7.24219Z" fill="#F04E69"/>
<path d="M8.83066 27.3488C7.53866 27.3488 6.48846 26.1765 6.48846 24.7411V11.3588C6.48846 11.3273 6.47597 11.2972 6.45374 11.275C6.43151 11.2527 6.40136 11.2402 6.36993 11.2402H5.6694C5.5233 11.2416 5.37917 11.2741 5.24655 11.3354C5.11392 11.3967 4.99584 11.4854 4.90012 11.5958C4.69657 11.8241 4.58468 12.1197 4.58601 12.4256V29.3923C4.58408 29.566 4.61899 29.738 4.68846 29.8972C4.75793 30.0564 4.86037 30.199 4.98902 30.3157C5.11159 30.4288 5.26037 30.5097 5.42196 30.5511C5.58355 30.5925 5.7529 30.593 5.91476 30.5527C8.03531 30.0181 12.1756 29.2785 16.073 30.3334C16.098 30.3406 16.1246 30.3393 16.1488 30.3298C16.173 30.3203 16.1935 30.3031 16.2069 30.2809C16.2204 30.2587 16.2262 30.2326 16.2234 30.2068C16.2206 30.1809 16.2094 30.1567 16.1915 30.1379C13.8861 27.7222 10.5909 27.3535 8.83066 27.3488Z" fill="#F04E69"/>
</svg>
