<svg width="24" height="25" viewBox="0 0 24 25" fill="none" xmlns="http://www.w3.org/2000/svg">
<path d="M15.5799 12.7421C15.5799 14.7221 13.9799 16.3221 11.9999 16.3221C10.0199 16.3221 8.41992 14.7221 8.41992 12.7421C8.41992 10.7621 10.0199 9.16211 11.9999 9.16211C13.9799 9.16211 15.5799 10.7621 15.5799 12.7421Z" stroke="white" strokeWidth="1.5" strokeLinecap="round" strokeLinejoin="round"/>
<path d="M11.9998 21.0129C15.5298 21.0129 18.8198 18.9329 21.1098 15.3329C22.0098 13.9229 22.0098 11.5529 21.1098 10.1429C18.8198 6.54289 15.5298 4.46289 11.9998 4.46289C8.46984 4.46289 5.17984 6.54289 2.88984 10.1429C1.98984 11.5529 1.98984 13.9229 2.88984 15.3329C5.17984 18.9329 8.46984 21.0129 11.9998 21.0129Z" stroke="white" strokeWidth="1.5" strokeLinecap="round" strokeLinejoin="round"/>
</svg>
