<svg width="27" height="27" viewBox="0 0 27 27" fill="none" xmlns="http://www.w3.org/2000/svg">
    <path d="M13.4311 15.5307C13.6983 15.5308 13.9626 15.4753 14.2071 15.3678C14.4517 15.2603 14.6712 15.103 14.8518 14.9061C15.0323 14.7092 15.17 14.4769 15.2559 14.2239C15.3419 13.971 15.3743 13.7029 15.3511 13.4367L13.2639 15.5232C13.3186 15.5277 13.3749 15.5307 13.4311 15.5307ZM19.8091 7.64448L19.0741 6.90948C19.0482 6.88365 19.0132 6.86914 18.9766 6.86914C18.9401 6.86914 18.905 6.88365 18.8791 6.90948L16.9989 8.79123C15.9609 8.26098 14.7954 7.99623 13.5001 7.99623C10.1934 7.99623 7.72662 9.71823 6.09912 13.1622C6.03385 13.3006 6 13.4517 6 13.6047C6 13.7577 6.03385 13.9088 6.09912 14.0472C6.74937 15.4175 7.53237 16.5147 8.44887 17.3412L6.62862 19.1607C6.60279 19.1866 6.58828 19.2217 6.58828 19.2582C6.58828 19.2948 6.60279 19.3299 6.62862 19.3557L7.36362 20.0892C7.37637 20.102 7.39151 20.1121 7.40818 20.119C7.42484 20.1259 7.44271 20.1295 7.46075 20.1295C7.47879 20.1295 7.49665 20.1259 7.51332 20.119C7.52999 20.1121 7.54513 20.102 7.55787 20.0892L19.8091 7.83873C19.835 7.81286 19.8495 7.77779 19.8495 7.74123C19.8495 7.70467 19.835 7.67035 19.8091 7.64448ZM10.4041 13.604C10.4041 13.0811 10.5395 12.5671 10.7971 12.1121C11.0548 11.6571 11.4258 11.2766 11.8742 11.0076C12.3225 10.7386 12.8329 10.5903 13.3556 10.5771C13.8783 10.564 14.3955 10.6864 14.8569 10.9325L14.0206 11.7695C13.6834 11.6616 13.3229 11.6487 12.9788 11.7322C12.6346 11.8156 12.3201 11.9922 12.0697 12.2426C11.8194 12.493 11.6428 12.8075 11.5593 13.1516C11.4758 13.4957 11.4888 13.8562 11.5966 14.1935L10.7604 15.0297C10.5255 14.5913 10.4028 14.1014 10.4034 13.604H10.4041Z"
          fill="#869BB0"/>
    <path d="M20.9021 13.161C20.2961 11.886 19.5753 10.8458 18.7398 10.041L16.2596 12.5213C16.4685 13.0676 16.5147 13.6628 16.3927 14.2348C16.2707 14.8069 15.9857 15.3314 15.5721 15.745C15.1585 16.1586 14.634 16.4436 14.0619 16.5656C13.4898 16.6876 12.8947 16.6414 12.3483 16.4325L10.2461 18.5355C11.2211 18.987 12.3071 19.2128 13.5018 19.2128C16.8086 19.2128 19.2753 17.4908 20.9028 14.0468C20.9681 13.9084 21.002 13.7573 21.002 13.6043C21.002 13.4513 20.9681 13.3001 20.9028 13.1618L20.9021 13.161Z"
          fill="#869BB0"/>
</svg>
