<svg width="32" height="32" viewBox="0 0 32 32" fill="none" xmlns="http://www.w3.org/2000/svg">
<path d="M0 16C0 7.16344 7.16344 0 16 0C24.8366 0 32 7.16344 32 16C32 24.8366 24.8366 32 16 32C7.16344 32 0 24.8366 0 16Z" fill="url(#paint0_linear_3272_19536)"/>
<g clipPath="url(#clip0_3272_19536)">
<path d="M16 7C20.9705 7 25 11.0294 25 16C25 20.6014 21.5466 24.3958 17.0904 24.9341V18.7502L19.525 18.7502L20.0301 16H17.0904V15.0273C17.0904 14.3006 17.2329 13.7975 17.5599 13.4761C17.8869 13.1547 18.3984 13.0149 19.1363 13.0149C19.323 13.0149 19.4949 13.0168 19.6475 13.0205C19.8693 13.0259 20.0501 13.0353 20.176 13.0485V10.5554C20.1257 10.5414 20.0663 10.5274 19.9998 10.5136C19.849 10.4825 19.6617 10.4524 19.4602 10.426C19.0393 10.3709 18.557 10.3317 18.2195 10.3317C16.8568 10.3317 15.8269 10.6233 15.108 11.2271C14.2404 11.9559 13.8258 13.1397 13.8258 14.8149V16H11.9699V18.7502H13.8258V24.735C9.90574 23.7624 7 20.2208 7 16C7 11.0294 11.0294 7 16 7Z" fill="white"/>
</g>
<defs>
<linearGradient id="paint0_linear_3272_19536" x1="0" y1="16" x2="32" y2="16" gradientUnits="userSpaceOnUse">
<stop stop-color="#86D0F4"/>
<stop offset="0.658654" stop-color="#4CC1ED"/>
</linearGradient>
<clipPath id="clip0_3272_19536">
<rect width="18" height="18" fill="white" transform="translate(7 7)"/>
</clipPath>
</defs>
</svg>
