<svg width="24" height="25" viewBox="0 0 24 25" fill="none" xmlns="http://www.w3.org/2000/svg">
<g clipPath="url(#clip0_2689_12537)">
<path d="M12 0.820312C18.6274 0.820312 24 6.1929 24 12.8203C24 18.9555 19.3955 24.0147 13.4538 24.7324V16.4873L16.7001 16.4873L17.3734 12.8203H13.4538V11.5234C13.4538 10.5545 13.6439 9.8837 14.0799 9.45515C14.5159 9.02658 15.1979 8.84024 16.1817 8.84024C16.4307 8.84024 16.6599 8.84272 16.8633 8.84767C17.1591 8.85488 17.4002 8.86732 17.568 8.88498V5.56079C17.501 5.54215 17.4218 5.52352 17.3331 5.50518C17.1321 5.46362 16.8822 5.42355 16.6136 5.38837C16.0523 5.31485 15.4093 5.26262 14.9594 5.26262C13.1424 5.26262 11.7692 5.65134 10.8107 6.4565C9.65388 7.42822 9.10108 9.00653 9.10108 11.2402V12.8203H6.62659V16.4873H9.10108V24.4669C3.87432 23.1702 0 18.4481 0 12.8203C0 6.1929 5.37259 0.820312 12 0.820312Z" fill="white"/>
</g>
<defs>
<clipPath id="clip0_2689_12537">
<rect width="24" height="24" fill="white" transform="translate(0 0.820312)"/>
</clipPath>
</defs>
</svg>
