<svg width="24" height="25" viewBox="0 0 24 25" fill="none" xmlns="http://www.w3.org/2000/svg">
<path d="M12 22.7422C17.5228 22.7422 22 18.265 22 12.7422C22 7.21934 17.5228 2.74219 12 2.74219C6.47715 2.74219 2 7.21934 2 12.7422C2 18.265 6.47715 22.7422 12 22.7422Z" stroke="white" strokeWidth="1.5" strokeLinecap="round" strokeLinejoin="round"/>
<path d="M7.99961 3.74219H8.99961C7.04961 9.58219 7.04961 15.9022 8.99961 21.7422H7.99961" stroke="white" strokeWidth="1.5" strokeLinecap="round" strokeLinejoin="round"/>
<path d="M15 3.74219C16.95 9.58219 16.95 15.9022 15 21.7422" stroke="white" strokeWidth="1.5" strokeLinecap="round" strokeLinejoin="round"/>
<path d="M3 16.7422V15.7422C8.84 17.6922 15.16 17.6922 21 15.7422V16.7422" stroke="white" strokeWidth="1.5" strokeLinecap="round" strokeLinejoin="round"/>
<path d="M3 9.7418C8.84 7.7918 15.16 7.7918 21 9.7418" stroke="white" strokeWidth="1.5" strokeLinecap="round" strokeLinejoin="round"/>
</svg>
