<svg width="32" height="32" viewBox="0 0 32 32" fill="none" xmlns="http://www.w3.org/2000/svg">
<path d="M0 16C0 7.16344 7.16344 0 16 0C24.8366 0 32 7.16344 32 16C32 24.8366 24.8366 32 16 32C7.16344 32 0 24.8366 0 16Z" fill="url(#paint0_linear_3272_19545)"/>
<path d="M20.7964 12.2666C20.2004 12.2678 19.7157 11.7852 19.7146 11.1891C19.7134 10.5931 20.196 10.1084 20.7923 10.1073C21.3886 10.1061 21.8733 10.589 21.8744 11.185C21.8753 11.7811 21.3927 12.2654 20.7964 12.2666Z" fill="white"/>
<path fill-rule="evenodd" clip-rule="evenodd" d="M16.0086 20.6208C13.4568 20.6257 11.3838 18.5612 11.3789 16.0087C11.3739 13.4569 13.439 11.3836 15.9908 11.3787C18.5432 11.3737 20.6165 13.4394 20.6214 15.991C20.6264 18.5434 18.5607 20.6158 16.0086 20.6208ZM15.994 13.0003C14.3377 13.0032 12.997 14.3489 12.9999 16.0055C13.0031 17.6624 14.3491 19.0029 16.0054 18.9997C17.6623 18.9965 19.0031 17.6511 18.9998 15.9942C18.9966 14.3373 17.6506 12.9971 15.994 13.0003Z" fill="white"/>
<path fill-rule="evenodd" clip-rule="evenodd" d="M10.0894 7.48486C10.6609 7.26091 11.315 7.10752 12.2726 7.06232C13.2326 7.01625 13.539 7.00575 15.9827 7.00109C18.4269 6.99643 18.7333 7.00575 19.6933 7.04833C20.6512 7.08973 21.3055 7.24079 21.8782 7.46241C22.4708 7.69073 22.9735 7.99809 23.4745 8.49702C23.9754 8.99654 24.2839 9.49752 24.5152 10.0892C24.7388 10.6613 24.8922 11.3148 24.9377 12.273C24.9832 13.2327 24.9943 13.5389 24.9989 15.9828C25.0036 18.4264 24.9937 18.7332 24.9517 19.6938C24.91 20.6511 24.7593 21.3057 24.5376 21.8782C24.3087 22.4707 24.002 22.9734 23.503 23.4744C23.0041 23.9757 22.5026 24.2839 21.9109 24.5154C21.3388 24.7388 20.6853 24.8922 19.7277 24.938C18.7677 24.9834 18.4613 24.9942 16.0168 24.9989C13.5734 25.0036 13.267 24.9942 12.307 24.952C11.3491 24.91 10.6945 24.7592 10.1221 24.5379C9.52954 24.3087 9.02682 24.0022 8.52584 23.503C8.02458 23.0037 7.71579 22.5025 7.48484 21.9108C7.26089 21.339 7.10808 20.6852 7.0623 19.7279C7.01653 18.7676 7.00574 18.4609 7.00108 16.0172C6.9964 13.5733 7.00603 13.2671 7.04801 12.3071C7.0903 11.3489 7.24048 10.6945 7.4621 10.1215C7.691 9.52929 7.99776 9.02686 8.49728 8.5256C8.9962 8.02462 9.49775 7.71551 10.0894 7.48486ZM10.7062 23.0259C11.0237 23.1481 11.5002 23.2939 12.3776 23.3321C13.3271 23.3732 13.6114 23.3823 16.0139 23.3776C18.4172 23.3732 18.7015 23.363 19.6507 23.3184C20.5273 23.2767 21.0037 23.1291 21.3204 23.0055C21.7406 22.8413 22.0398 22.6451 22.3541 22.3304C22.6685 22.0146 22.863 21.7146 23.0257 21.2944C23.1481 20.9765 23.2937 20.4997 23.3319 19.6223C23.3736 18.6734 23.3823 18.3888 23.3776 15.9857C23.3733 13.5832 23.3631 13.2986 23.3179 12.3494C23.2765 11.4725 23.1292 10.9961 23.0053 10.6797C22.8411 10.2589 22.6454 9.96029 22.3299 9.64565C22.0144 9.331 21.7144 9.13708 21.2936 8.97437C20.9766 8.85161 20.4995 8.70639 19.6227 8.66819C18.6732 8.62649 18.3886 8.61803 15.9856 8.6227C13.5831 8.62736 13.2988 8.63698 12.3496 8.6819C11.4725 8.72359 10.9966 8.87085 10.6793 8.99479C10.2594 9.15896 9.96022 9.35404 9.64559 9.66985C9.33153 9.98565 9.13703 10.2851 8.97433 10.7062C8.85245 11.0235 8.70576 11.5005 8.66815 12.3774C8.62673 13.3269 8.618 13.6115 8.62266 16.014C8.62704 18.4171 8.63724 18.7017 8.68186 19.6503C8.72297 20.5277 8.87139 21.0036 8.99474 21.3212C9.15891 21.7408 9.35458 22.04 9.6698 22.3546C9.98561 22.6681 10.2857 22.8632 10.7062 23.0259Z" fill="white"/>
<defs>
<linearGradient id="paint0_linear_3272_19545" x1="0" y1="16" x2="32" y2="16" gradientUnits="userSpaceOnUse">
<stop stop-color="#86D0F4"/>
<stop offset="0.658654" stop-color="#4CC1ED"/>
</linearGradient>
</defs>
</svg>
