<svg width="53" height="43" viewBox="0 0 53 43" fill="none" xmlns="http://www.w3.org/2000/svg">
<path d="M31.1553 22.6253C31.254 22.5807 31.3681 22.5807 31.4731 22.6253C31.5722 22.6705 31.6564 22.7556 31.6878 22.8574C31.7175 22.9433 32.4257 25.0133 31.466 27.2454C30.519 29.4545 28.3835 30.7776 28.2918 30.8379C28.1847 30.903 28.0479 30.9087 27.9298 30.8628C27.8155 30.8114 27.731 30.7033 27.6987 30.5759C27.6782 30.4775 27.1639 28.0152 28.1108 25.8075C29.0705 23.5719 31.072 22.6634 31.1553 22.6253ZM24.8774 25.491C25.8525 27.6841 25.3762 30.15 25.3537 30.2544C25.3311 30.3809 25.2444 30.4864 25.1296 30.5377C25.0106 30.5922 24.8774 30.5785 24.7626 30.517C24.6745 30.4624 22.5204 29.1702 21.5412 26.9723C20.5562 24.7499 21.2459 22.6705 21.2755 22.5807C21.3136 22.4776 21.3885 22.3913 21.492 22.3483C21.5921 22.3032 21.7067 22.3032 21.8054 22.3483C21.8949 22.3833 23.8897 23.2674 24.8774 25.491ZM49.2411 34.9076H35.1129L35.0165 35.2366C35.0165 35.2366 34.2041 37.7232 32.6498 37.3252C31.2159 36.9493 31.8148 34.9453 31.8148 34.9453L31.822 34.9076H26.9173V37.6492H26.1254V34.9076H21.6447L21.797 35.5818C21.797 35.5818 22.0781 36.8299 20.9732 37.2876C19.8128 37.7613 19.1528 36.1692 19.1528 36.1692C19.1528 36.1692 18.9004 35.6252 18.5933 34.9076H3.49063V34.1152H18.267C18.1572 33.831 18.0456 33.5398 17.9464 33.2555C17.478 31.9062 16.8627 29.5638 16.7353 29.4885C16.6077 29.4075 15.6905 29.4009 14.6293 29.2747C13.566 29.1471 12.8475 28.8059 12.7227 28.8387C12.4203 28.9082 10.1797 31.8229 8.70387 32.1156C7.23584 32.4107 5.70017 30.5223 5.70017 30.5223L3.88778 28.1564C3.88778 28.1564 3.18952 27.2255 3.70396 26.7106C4.34364 26.0683 4.96663 26.5455 4.96663 26.5455C4.96663 26.5455 7.42136 28.1366 7.69044 28.2973C7.88925 28.4158 7.94986 28.3171 7.94986 28.3171C7.94986 28.3171 8.35279 27.9369 8.54316 27.6996C8.68028 27.5257 8.55643 27.4265 8.55643 27.4265C8.55643 27.4265 7.34655 26.2223 6.87319 25.7385C6.47666 25.324 6.84009 24.7208 6.84009 24.7208L10.4299 17.5619L5.72266 18.5522C5.72266 18.5522 4.82139 18.7762 4.61727 18.1688C4.41768 17.5619 5.31319 17.0699 5.31319 17.0699L11.534 13.4208C11.534 13.4208 11.8019 13.2354 11.932 13.2194C12.059 13.2021 12.3007 13.3293 12.3007 13.3293C12.3007 13.3293 13.1587 14.0083 14.3544 13.9697C15.543 13.934 16.2252 13.2194 16.2252 13.2194C16.2252 13.2194 16.3859 13.0561 16.6077 13.0132C16.8269 12.9782 17.3581 13.5511 17.3581 13.5511L22.8777 19.6704C22.8777 19.6704 23.4731 20.3292 23.0223 20.8998C22.6249 21.4058 21.7589 20.8634 21.7589 20.8634C21.7589 20.8634 18.2728 18.7761 18.15 18.7376C18.0156 18.7023 18.0535 18.8811 18.0535 18.8811L21.465 34.1152H26.1254V18.0913C25.7862 17.862 23.9636 16.4905 23.9636 13.1818C23.9636 9.62072 26.1182 8.2372 26.2084 8.18145C26.3445 8.09555 26.5197 8.09555 26.6565 8.18145C26.7482 8.2372 28.9054 9.62072 28.9054 13.1818C28.9054 16.0982 27.4866 17.511 26.9173 17.9603V34.1152H31.9831L34.0567 24.2218C34.0567 24.2218 35.2334 18.6388 35.1664 18.5982C35.0974 18.5553 30.9441 21.2536 30.9441 21.2536C30.9441 21.2536 30.3689 21.7998 29.7673 21.226C29.1626 20.6474 30.0405 19.8639 30.0405 19.8639L35.2918 13.7441C35.2918 13.7441 35.4844 13.5195 35.7035 13.5404C36.0121 13.5682 36.0501 13.7728 36.0501 13.7728C36.0501 13.7728 36.6207 15.2589 36.7102 15.2589C36.7886 15.2589 37.5774 14.4355 37.5774 14.4355C37.5774 14.4355 37.9715 14.0349 38.1906 14.0083C38.4123 13.9786 38.5217 14.1717 38.5217 14.1717L39.3722 15.3957C39.3722 15.3957 39.5829 15.6866 39.6364 15.6689C39.6927 15.6578 39.7595 15.536 39.7595 15.536L40.7512 13.6746C40.7512 13.6746 40.9573 13.2354 41.1619 13.0875C41.3661 12.9334 41.7924 13.2111 41.7924 13.2111L47.7617 16.7938C47.7617 16.7938 48.5869 17.1727 48.3522 17.9668C48.0879 18.8784 46.7005 18.4056 46.7005 18.4056C46.7005 18.4056 42.5902 17.5552 42.5388 17.6066C42.4807 17.665 42.5902 17.8129 42.5902 17.8129C42.5902 17.8129 45.8226 25.1408 45.7944 25.5827C45.7762 25.9372 45.3689 26.2019 45.3689 26.2019C45.3689 26.2019 44.2696 26.8736 44.259 26.9967C44.2387 27.12 44.3365 27.2185 44.3365 27.2185C44.3365 27.2185 44.9143 27.8258 45.0666 27.8639C45.2167 27.9071 45.5048 27.7112 45.5048 27.7112L47.3761 26.7106C47.3761 26.7106 48.2694 25.9934 48.9588 26.6726C49.6436 27.3419 48.7086 28.167 48.7086 28.167L46.866 30.2544C46.866 30.2544 45.7944 31.8632 44.7199 31.973C43.5756 32.0917 42.5489 31.0952 42.5489 31.0952C42.5489 31.0952 39.303 27.9228 39.2376 27.8514C39.1685 27.7828 39.1017 27.8922 39.1017 27.8922C39.1017 27.8922 38.7564 28.8098 38.609 28.9462C38.454 29.0834 38.1764 29.1438 38.1764 29.1438C38.1764 29.1438 36.8315 29.3359 36.765 29.3788C36.6947 29.4191 36.653 29.6922 36.653 29.6922L35.3476 34.1152H49.2411V34.9076ZM12.2095 6.184C13.9599 5.37221 16.0447 6.13046 16.841 7.88586C17.3643 9.03686 17.1452 9.46661 16.4117 9.8244C16.5232 10.0971 16.59 10.4021 16.59 10.7151C16.59 11.9848 15.5585 13.0132 14.289 13.0132C13.3385 13.0132 12.519 12.4363 12.1714 11.6106C11.4627 11.848 10.9204 11.7563 10.5038 10.8142C9.72243 9.05226 10.4596 6.99017 12.2095 6.184ZM34.8008 6.89462C35.3298 6.10656 36.3099 5.95208 36.3099 5.95208C36.3099 5.95208 37.901 5.05614 39.4412 6.25587C41.1823 7.60427 40.0472 10.1037 40.0472 10.1037C40.0472 10.1037 39.7055 12.2881 39.5935 12.5775C39.4863 12.8684 38.81 13.1397 38.81 13.1397C38.81 13.1397 38.4251 13.2354 38.0024 13.2509C37.5774 13.2673 37.1042 13.1145 36.9546 13.0318C36.765 12.9295 36.7327 12.5634 36.7327 12.5634C36.7327 12.5634 36.6743 12.2345 36.585 12.1207C36.4884 12.0153 35.538 11.9705 34.9094 10.8744C34.4838 10.1169 34.7473 9.09528 34.8389 8.47246C34.9292 7.84824 34.8008 6.89462 34.8008 6.89462ZM48.972 3.88152C45.4561 0.989025 38.8635 0.563663 26.359 0.560539C13.9246 0.563663 7.34968 1.00809 3.83374 3.90278C0.326229 6.81542 0 12.11 0 21.6961C0 31.3572 0.313419 36.6739 3.81374 39.5987C7.32125 42.4955 13.8966 42.9209 26.359 42.9258C38.8635 42.9209 45.4561 42.4955 48.972 39.5987C52.4839 36.6739 52.7973 31.3572 52.8 21.6961C52.7973 12.0804 52.4839 6.78917 48.972 3.88152ZM30.7383 26.9347C31.323 25.569 31.1862 24.2599 31.0561 23.5927C30.4775 23.953 29.4269 24.7517 28.8386 26.1201C28.2561 27.4761 28.306 28.9758 28.3835 29.7958C29.0352 29.2955 30.1547 28.2925 30.7383 26.9347ZM26.1254 16.9939V9.35609C25.5799 9.94127 24.7915 11.1342 24.7915 13.1818C24.7915 15.2695 25.5883 16.4401 26.1254 16.9939ZM24.6542 29.4811C24.7307 28.6624 24.7534 27.1595 24.1552 25.8129C23.5493 24.4534 22.5001 23.6639 21.9148 23.3076C21.7878 23.9818 21.6628 25.2936 22.2663 26.65C22.8666 28.002 23.9969 28.9915 24.6542 29.4811ZM26.9173 9.55969V16.7938C27.4357 16.1807 28.0705 15.0504 28.0705 13.1818C28.0705 11.3432 27.4436 10.1963 26.9173 9.55969Z" fill="#00AEEF"/>
</svg>
