<svg width="43" height="34" viewBox="0 0 43 34" fill="none" xmlns="http://www.w3.org/2000/svg">
<path d="M24.9242 17.7059C25.0032 17.6702 25.0945 17.6702 25.1785 17.7059C25.2578 17.742 25.3251 17.8102 25.3503 17.8916C25.374 17.9603 25.9406 19.6163 25.1728 21.402C24.4152 23.1693 22.7068 24.2278 22.6334 24.276C22.5477 24.3281 22.4383 24.3326 22.3438 24.2959C22.2524 24.2548 22.1848 24.1683 22.1589 24.0664C22.1426 23.9876 21.7311 22.0178 22.4886 20.2517C23.2564 18.4632 24.8576 17.7364 24.9242 17.7059ZM19.9019 19.9984C20.682 21.753 20.301 23.7256 20.283 23.8092C20.2649 23.9104 20.1955 23.9947 20.1037 24.0358C20.0085 24.0795 19.9019 24.0685 19.8101 24.0192C19.7396 23.9756 18.0163 22.9419 17.233 21.1835C16.445 19.4056 16.9967 17.7421 17.0204 17.6702C17.0509 17.5878 17.1108 17.5187 17.1936 17.4843C17.2737 17.4482 17.3654 17.4482 17.4444 17.4843C17.5159 17.5123 19.1118 18.2196 19.9019 19.9984ZM39.3929 27.5318H28.0903L28.0132 27.7949C28.0132 27.7949 27.3633 29.7842 26.1199 29.4659C24.9727 29.1651 25.4518 27.5619 25.4518 27.5619L25.4576 27.5318H21.5339V29.7251H20.9003V27.5318H17.3158L17.4376 28.0711C17.4376 28.0711 17.6625 29.0695 16.7786 29.4357C15.8503 29.8147 15.3223 28.541 15.3223 28.541C15.3223 28.541 15.1204 28.1059 14.8746 27.5318H2.7925V26.8978H14.6136C14.5258 26.6705 14.4364 26.4375 14.3571 26.2101C13.9824 25.1306 13.4902 23.2567 13.3882 23.1965C13.2861 23.1316 12.5524 23.1264 11.7034 23.0254C10.8528 22.9234 10.278 22.6504 10.1782 22.6766C9.93628 22.7322 8.14377 25.064 6.9631 25.2981C5.78867 25.5343 4.56013 24.0235 4.56013 24.0235L3.11023 22.1308C3.11023 22.1308 2.55162 21.3861 2.96317 20.9741C3.47492 20.4603 3.9733 20.8421 3.9733 20.8421C3.9733 20.8421 5.93709 22.1149 6.15236 22.2435C6.3114 22.3383 6.35989 22.2594 6.35989 22.2594C6.35989 22.2594 6.68223 21.9552 6.83453 21.7654C6.94423 21.6262 6.84515 21.5468 6.84515 21.5468C6.84515 21.5468 5.87724 20.5835 5.49855 20.1965C5.18133 19.8649 5.47207 19.3823 5.47207 19.3823L8.34392 13.6552L4.57813 14.4474C4.57813 14.4474 3.85711 14.6266 3.69382 14.1407C3.53415 13.6552 4.25055 13.2616 4.25055 13.2616L9.22724 10.3423C9.22724 10.3423 9.44152 10.194 9.54559 10.1812C9.64717 10.1674 9.84057 10.2691 9.84057 10.2691C9.84057 10.2691 10.527 10.8123 11.4835 10.7814C12.4344 10.7528 12.9802 10.1812 12.9802 10.1812C12.9802 10.1812 13.1087 10.0506 13.2861 10.0162C13.4616 9.98821 13.8865 10.4465 13.8865 10.4465L18.3022 15.342C18.3022 15.342 18.7784 15.869 18.4179 16.3255C18.0999 16.7303 17.4071 16.2964 17.4071 16.2964C17.4071 16.2964 14.6182 14.6266 14.52 14.5957C14.4125 14.5675 14.4428 14.7106 14.4428 14.7106L17.172 26.8978H20.9003V14.0787C20.6289 13.8953 19.1709 12.7981 19.1709 10.1511C19.1709 7.30224 20.8945 6.19543 20.9668 6.15082C21.0756 6.08211 21.2158 6.08211 21.3252 6.15082C21.3986 6.19543 23.1243 7.30224 23.1243 10.1511C23.1243 12.4842 21.9893 13.6145 21.5339 13.9739V26.8978H25.5865L27.2453 18.9831C27.2453 18.9831 28.1867 14.5167 28.1331 14.4842C28.0779 14.4499 24.7553 16.6085 24.7553 16.6085C24.7553 16.6085 24.2951 17.0455 23.8139 16.5865C23.3301 16.1236 24.0324 15.4968 24.0324 15.4968L28.2335 10.6009C28.2335 10.6009 28.3875 10.4212 28.5628 10.438C28.8097 10.4602 28.8401 10.6239 28.8401 10.6239C28.8401 10.6239 29.2966 11.8128 29.3682 11.8128C29.4309 11.8128 30.062 11.154 30.062 11.154C30.062 11.154 30.3772 10.8336 30.5525 10.8123C30.7299 10.7886 30.8173 10.943 30.8173 10.943L31.4978 11.9222C31.4978 11.9222 31.6663 12.1549 31.7092 12.1408C31.7541 12.1319 31.8076 12.0345 31.8076 12.0345L32.601 10.5453C32.601 10.5453 32.7659 10.194 32.9296 10.0757C33.0928 9.95237 33.4339 10.1745 33.4339 10.1745L38.2094 13.0407C38.2094 13.0407 38.8695 13.3438 38.6817 13.9791C38.4704 14.7084 37.3604 14.3301 37.3604 14.3301C37.3604 14.3301 34.0721 13.6498 34.031 13.6909C33.9845 13.7377 34.0721 13.856 34.0721 13.856C34.0721 13.856 36.6581 19.7183 36.6355 20.0718C36.621 20.3554 36.2952 20.5672 36.2952 20.5672C36.2952 20.5672 35.4157 21.1045 35.4072 21.203C35.391 21.3017 35.4692 21.3804 35.4692 21.3804C35.4692 21.3804 35.9315 21.8663 36.0533 21.8968C36.1733 21.9314 36.4039 21.7746 36.4039 21.7746L37.9009 20.9741C37.9009 20.9741 38.6155 20.4004 39.167 20.9437C39.7149 21.4792 38.9669 22.1393 38.9669 22.1393L37.4928 23.8092C37.4928 23.8092 36.6355 25.0962 35.7759 25.184C34.8605 25.279 34.0391 24.4818 34.0391 24.4818C34.0391 24.4818 31.4424 21.9439 31.3901 21.8868C31.3348 21.8319 31.2814 21.9194 31.2814 21.9194C31.2814 21.9194 31.0051 22.6535 30.8872 22.7626C30.7632 22.8724 30.5411 22.9207 30.5411 22.9207C30.5411 22.9207 29.4652 23.0744 29.412 23.1087C29.3558 23.141 29.3224 23.3595 29.3224 23.3595L28.2781 26.8978H39.3929V27.5318ZM9.76759 4.55286C11.1679 3.90343 12.8357 4.51004 13.4728 5.91435C13.8915 6.83515 13.7162 7.17895 13.1293 7.46519C13.2185 7.68333 13.272 7.92735 13.272 8.17773C13.272 9.19348 12.4468 10.0162 11.4312 10.0162C10.6708 10.0162 10.0152 9.55471 9.73711 8.89416C9.17014 9.08407 8.73635 9.01067 8.40302 8.25703C7.77795 6.84747 8.36765 5.1978 9.76759 4.55286ZM27.8407 5.12136C28.2638 4.49092 29.0479 4.36733 29.0479 4.36733C29.0479 4.36733 30.3208 3.65058 31.553 4.61036C32.9458 5.68909 32.0377 7.68862 32.0377 7.68862C32.0377 7.68862 31.7644 9.43612 31.6748 9.66763C31.5891 9.90039 31.048 10.1174 31.048 10.1174C31.048 10.1174 30.7401 10.194 30.4019 10.2064C30.0619 10.2195 29.6834 10.0973 29.5637 10.0311C29.412 9.94924 29.3861 9.65635 29.3861 9.65635C29.3861 9.65635 29.3394 9.39329 29.268 9.30221C29.1908 9.21787 28.4304 9.1821 27.9275 8.30515C27.587 7.6992 27.7978 6.88189 27.8712 6.38363C27.9434 5.88425 27.8407 5.12136 27.8407 5.12136ZM39.1776 2.71088C36.3649 0.396885 31.0908 0.0565948 21.0872 0.0540962C11.1397 0.0565948 5.87974 0.412144 3.06699 2.72789C0.260983 5.058 0 9.2937 0 16.9626C0 24.6914 0.250735 28.9448 3.05099 31.2847C5.857 33.602 11.1173 33.9424 21.0872 33.9463C31.0908 33.9424 36.3649 33.602 39.1776 31.2847C41.9871 28.9448 42.2379 24.6914 42.24 16.9626C42.2379 9.26996 41.9871 5.037 39.1776 2.71088ZM24.5906 21.1534C25.0584 20.0608 24.9489 19.0136 24.8449 18.4799C24.382 18.7681 23.5415 19.407 23.0709 20.5017C22.6048 21.5866 22.6448 22.7863 22.7068 23.4423C23.2282 23.0421 24.1237 22.2396 24.5906 21.1534ZM20.9003 13.2008V7.09053C20.4639 7.55868 19.8332 8.51302 19.8332 10.1511C19.8332 11.8213 20.4706 12.7577 20.9003 13.2008ZM19.7234 23.1905C19.7846 22.5356 19.8027 21.3333 19.3242 20.256C18.8394 19.1684 18.0001 18.5368 17.5318 18.2518C17.4302 18.7911 17.3303 19.8405 17.813 20.9256C18.2933 22.0072 19.1975 22.7989 19.7234 23.1905ZM21.5339 7.25342V13.0407C21.9485 12.5502 22.4564 11.646 22.4564 10.1511C22.4564 8.68019 21.9549 7.76267 21.5339 7.25342Z" fill="white"/>
</svg>
