<svg width="37" height="36" viewBox="0 0 37 36" fill="none" xmlns="http://www.w3.org/2000/svg">
<path d="M10.368 11.8288C11.5615 11.8288 12.5291 10.8108 12.5291 9.55504C12.5291 8.29926 11.5615 7.28125 10.368 7.28125C9.17455 7.28125 8.20703 8.29926 8.20703 9.55504C8.20703 10.8108 9.17455 11.8288 10.368 11.8288Z" fill="#F04E69"/>
<path d="M25.493 11.8288C26.6865 11.8288 27.6541 10.8108 27.6541 9.55504C27.6541 8.29926 26.6865 7.28125 25.493 7.28125C24.2995 7.28125 23.332 8.29926 23.332 9.55504C23.332 10.8108 24.2995 11.8288 25.493 11.8288Z" fill="#F04E69"/>
<path d="M2.82466 18.9324C2.83957 18.636 2.94109 18.3506 3.11665 18.1114C3.29221 17.8722 3.53408 17.6897 3.81231 17.5866C4.09054 17.4836 4.3929 17.4644 4.68193 17.5314C4.97096 17.5985 5.23396 17.7489 5.43835 17.964C5.64274 18.1791 5.77953 18.4494 5.83178 18.7415C5.88404 19.0336 5.84946 19.3346 5.73232 19.6072C5.61518 19.8798 5.42064 20.1121 5.1728 20.2752C4.92495 20.4383 4.6347 20.5251 4.33798 20.5249C3.92634 20.5138 3.53591 20.3399 3.25225 20.0413C2.96859 19.7428 2.81483 19.344 2.82466 18.9324Z" fill="#F04E69"/>
<path d="M7.31763 26.8279C7.2992 26.8352 7.27953 26.8388 7.25971 26.8386C6.72175 26.8386 6.27369 24.2265 5.80583 23.5193C5.79971 23.5091 5.791 23.5005 5.78058 23.4947C5.77015 23.4888 5.75836 23.4857 5.74639 23.4858H5.72049C5.53913 23.5346 5.83631 25.147 5.88203 26.6466C5.97499 28.2849 6.06186 30.3529 5.88965 31.7794C5.82564 32.3097 5.71591 32.3143 5.45988 32.3143C5.0987 32.3143 5.00269 32.2518 4.95087 31.7946C4.69027 29.5833 4.47386 28.3092 4.38395 28.1264C4.38395 28.1111 4.35499 28.1111 4.33518 28.1111C4.32659 28.111 4.31808 28.1127 4.3102 28.1161C4.30232 28.1196 4.29526 28.1246 4.28946 28.1309C4.17211 28.3473 3.98466 29.5802 3.72406 31.7885C3.67072 32.2457 3.57166 32.3082 3.21505 32.3082C2.96054 32.3082 2.84929 32.3082 2.78681 31.7733C2.6146 30.3468 2.70146 28.2788 2.78681 26.6405C2.82948 25.1927 3.15256 23.3212 3.00169 23.2709H2.97273C2.96026 23.2711 2.9481 23.2748 2.9376 23.2815C2.9271 23.2883 2.91868 23.2978 2.9133 23.309C2.48201 24.0375 2.06444 26.4347 1.52952 26.4347C1.50829 26.4342 1.48725 26.4306 1.46703 26.4241C0.889441 26.2199 1.7063 21.0078 4.08525 21.0078H4.57445C6.96558 21.02 7.89522 26.6313 7.31763 26.8279Z" fill="#F04E69"/>
<path d="M21.3516 21.2342C22.1369 21.2342 22.7735 20.5649 22.7735 19.7392C22.7735 18.9135 22.1369 18.2441 21.3516 18.2441C20.5663 18.2441 19.9297 18.9135 19.9297 19.7392C19.9297 20.5649 20.5663 21.2342 21.3516 21.2342Z" fill="#F04E69"/>
<path d="M12.8032 16.7215C12.831 16.7128 12.8608 16.7134 12.8882 16.723C12.9156 16.7326 12.9393 16.7507 12.9556 16.7748C13.7603 17.6298 14.3348 18.82 14.8164 19.8411C14.9642 19.5867 15.1696 19.3704 15.4159 19.2095C15.6623 19.0486 15.9428 18.9476 16.2352 18.9145C15.4366 16.1134 13.4798 12.3613 10.7991 12.3613H9.93809C7.85937 12.3613 6.08545 14.6473 4.95312 16.9836C5.32156 17.115 5.64436 17.3498 5.88299 17.6597C6.12161 17.9697 6.26597 18.3418 6.29881 18.7316C6.88402 17.802 7.45399 16.9028 7.87309 16.4151C7.88818 16.3896 7.9114 16.3699 7.93903 16.3591C7.96666 16.3483 7.9971 16.3471 8.02549 16.3557C8.29066 16.4426 7.72069 19.739 7.64601 22.2886C7.61553 22.8128 7.58658 23.3554 7.56067 23.9269C7.67472 24.3113 7.76581 24.7021 7.83346 25.0973C8.12759 26.8225 7.76641 27.1623 7.46923 27.2659H7.46161C7.43539 28.6209 7.49188 29.9762 7.63077 31.3243C7.74355 32.26 7.93557 32.2661 8.39277 32.2661C9.02827 32.2661 9.19439 32.1579 9.28887 31.3517C9.74607 27.4519 10.0753 25.2802 10.2825 24.9007C10.2928 24.8892 10.3055 24.8801 10.3197 24.874C10.334 24.8679 10.3494 24.8651 10.3648 24.8657C10.3999 24.8657 10.438 24.8657 10.4502 24.8916C10.6026 25.2131 10.9896 27.4564 11.4484 31.3517C11.5429 32.1579 11.709 32.2661 12.3445 32.2661C12.8017 32.2661 12.9891 32.2661 13.1065 31.3243C13.4113 28.8143 13.2589 25.1705 13.0927 22.2855C13.0089 19.6475 12.4832 16.8098 12.8032 16.7215Z" fill="#F04E69"/>
<path d="M14.9887 20.8698C15.0031 20.589 15.0994 20.3186 15.2659 20.092C15.4324 19.8654 15.6617 19.6927 15.9254 19.5951C16.1891 19.4976 16.4757 19.4795 16.7495 19.5432C17.0234 19.6069 17.2725 19.7495 17.4662 19.9534C17.6598 20.1573 17.7893 20.4135 17.8387 20.6903C17.8882 20.9671 17.8553 21.2523 17.7443 21.5106C17.6332 21.7689 17.4488 21.989 17.2139 22.1435C16.9791 22.2981 16.704 22.3803 16.4228 22.3801C16.0325 22.3697 15.6622 22.2048 15.3933 21.9217C15.1244 21.6385 14.9789 21.2602 14.9887 20.8698Z" fill="#F04E69"/>
<path d="M21.56 21.7109H21.1028C19.7785 21.7109 18.989 23.5397 18.6781 25.0637C18.3429 23.9847 17.6708 22.8768 16.6314 22.8768H16.223C14.2418 22.8768 13.5667 27.0068 14.0467 27.176C14.0652 27.183 14.0849 27.1867 14.1046 27.1866C14.5466 27.1866 14.888 25.4005 15.2446 24.797C15.2494 24.7877 15.2566 24.7799 15.2654 24.7743C15.2743 24.7686 15.2844 24.7654 15.2949 24.765H15.3193C15.4442 24.8062 14.9992 26.3789 14.9642 27.5859C14.9066 29.0105 14.9632 30.4375 15.1333 31.8531C15.1867 32.295 15.2781 32.2981 15.4915 32.2981C15.7963 32.2981 15.8709 32.2463 15.9151 31.8653C16.1331 30.0182 16.2885 28.991 16.3861 28.8173C16.3909 28.8117 16.3971 28.8072 16.4039 28.8043C16.4108 28.8014 16.4182 28.8001 16.4257 28.8005C16.4409 28.8005 16.4607 28.8005 16.4653 28.8127C16.54 28.9651 16.7213 30.0319 16.9393 31.8714C16.9835 32.2524 17.0627 32.3042 17.3629 32.3042C17.5763 32.3042 17.6677 32.3042 17.7211 31.8592C17.881 30.4428 17.9279 29.0159 17.8613 27.592C17.8247 26.3423 17.4285 24.986 17.5793 24.9433H17.6007C17.611 24.9435 17.6212 24.9462 17.6302 24.9512C17.6393 24.9563 17.6469 24.9635 17.6525 24.9723C18.0304 25.5453 18.2789 27.0495 18.6964 27.0982C18.7136 27.1042 18.7316 27.1073 18.7498 27.1074C19.2512 27.1074 19.5956 24.5654 20.001 23.8796C20.0063 23.8691 20.0143 23.8603 20.0243 23.8542C20.0342 23.848 20.0456 23.8447 20.0573 23.8445H20.0848C20.1046 23.8445 20.1153 23.8963 20.1198 23.968C20.0345 24.3673 19.053 29.055 19.367 29.3812C19.4849 29.491 19.6285 29.5696 19.7846 29.6098C19.7692 30.3495 19.7992 31.0896 19.8745 31.8257C19.9339 32.324 20.0375 32.3286 20.2783 32.3286C20.6166 32.3286 20.705 32.2707 20.7553 31.8409C20.8605 30.9539 20.9534 30.2437 21.0357 29.6936C21.1516 29.6936 21.2613 29.6844 21.3405 29.6844C21.4198 29.6844 21.5204 29.6844 21.6133 29.6753C21.6987 30.23 21.7977 30.9494 21.9029 31.8409C21.9532 32.2707 22.0416 32.3286 22.3814 32.3286C22.6207 32.3286 22.7243 32.3286 22.7838 31.8257C22.8639 31.0292 22.8934 30.2286 22.8722 29.4284C23.047 29.3715 23.202 29.2658 23.3187 29.1236C23.5305 28.799 22.7563 24.9067 22.5902 24.0945C22.5994 24.0685 22.61 24.0503 22.6253 24.0457C22.6333 24.0442 22.6416 24.0442 22.6496 24.0457C22.6609 24.0455 22.6719 24.0482 22.6818 24.0536C22.6917 24.0589 22.7 24.0667 22.706 24.0762C23.1449 24.7406 23.5595 27.2765 24.0654 27.2765C24.0831 27.2765 24.1006 27.2734 24.1173 27.2674C24.6628 27.0586 23.7942 21.7109 21.56 21.7109Z" fill="#F04E69"/>
<path d="M27.9022 16.7215C27.9906 16.6971 28.0271 16.7565 28.0546 16.7748C28.9888 17.4179 30.086 18.7727 31.0766 19.9295C31.1103 19.5519 31.2475 19.1909 31.4731 18.8863C31.6987 18.5816 32.0039 18.3451 32.3553 18.2028C30.8877 15.519 28.3578 12.3613 25.8997 12.3613H25.0386C20.8461 12.3613 18.4214 21.5403 19.4379 21.8984C19.5051 21.922 19.5777 21.9252 19.6467 21.9076C19.7979 21.7559 19.9679 21.6242 20.1527 21.5159C20.1984 21.4611 20.2426 21.4016 20.2883 21.3361C20.0372 21.1529 19.8331 20.9127 19.6927 20.6354C19.5523 20.358 19.4796 20.0513 19.4806 19.7405C19.4712 19.2324 19.6638 18.7413 20.0161 18.375C20.3684 18.0087 20.8516 17.7971 21.3597 17.7867C21.5983 17.7877 21.8343 17.8353 22.0546 17.9269C22.3145 17.3972 22.6205 16.8913 22.969 16.4151C22.9835 16.389 23.0067 16.3688 23.0345 16.3579C23.0623 16.347 23.0931 16.3463 23.1214 16.3557C23.1595 16.3679 23.1809 16.4487 23.1869 16.5828C23.1473 16.7748 22.9934 17.5063 22.7968 18.4939C22.9706 18.7122 23.0967 18.9646 23.1669 19.2347C23.2371 19.5048 23.2499 19.7866 23.2044 20.0619C23.1588 20.3373 23.056 20.6 22.9026 20.8331C22.7492 21.0663 22.5486 21.2646 22.3137 21.4153C23.5786 21.9731 24.3391 23.8857 24.6256 25.5621C24.9472 27.4412 24.4549 27.6149 24.269 27.6805C24.1723 27.7142 24.0689 27.7237 23.9677 27.7083C23.8665 27.6929 23.7706 27.653 23.6883 27.5921C23.8956 29.0673 23.7798 29.2425 23.7005 29.3645C23.6044 29.5041 23.4784 29.6207 23.3317 29.7058C23.3447 30.431 23.3132 31.1562 23.2372 31.8775C23.2239 32.0027 23.1984 32.1262 23.161 32.2463C23.2676 32.2659 23.3759 32.2736 23.4841 32.2692C24.1196 32.2692 24.2857 32.161 24.3802 31.3548C24.5753 29.7018 24.7495 28.3591 24.903 27.3269C25.127 27.3269 25.3266 27.3101 25.4866 27.3101C25.6467 27.3101 25.8234 27.3101 26.0002 27.2934C26.1526 28.3327 26.3447 29.6937 26.5412 31.3548C26.6357 32.161 26.8019 32.2692 27.4374 32.2692C27.8946 32.2692 28.0805 32.2692 28.1993 31.3274C28.351 29.8354 28.4065 28.3352 28.3655 26.8362C28.6958 26.7252 28.9866 26.5202 29.2021 26.2464C29.5999 25.6368 28.1445 18.3216 27.8305 16.8068C27.8504 16.7596 27.8747 16.7291 27.9022 16.7215Z" fill="#F04E69"/>
<path d="M31.5161 20.1351C31.5321 19.8377 31.635 19.5515 31.8119 19.312C31.9889 19.0724 32.2321 18.8899 32.5116 18.7871C32.7911 18.6843 33.0946 18.6656 33.3846 18.7333C33.6746 18.8011 33.9384 18.9524 34.1434 19.1684C34.3484 19.3845 34.4856 19.6558 34.538 19.949C34.5905 20.2422 34.5558 20.5443 34.4385 20.818C34.3211 21.0917 34.1261 21.325 33.8776 21.4891C33.629 21.6532 33.3379 21.7409 33.0401 21.7413C32.6253 21.7294 32.2322 21.5537 31.9466 21.2527C31.661 20.9517 31.5062 20.5499 31.5161 20.1351Z" fill="#F04E69"/>
<path d="M35.584 27.0671C35.565 27.0743 35.5449 27.0779 35.5245 27.0778C35.0582 27.0778 34.7626 25.1072 34.345 24.487C34.3391 24.4782 34.3312 24.471 34.3219 24.466C34.3126 24.4609 34.3022 24.4582 34.2916 24.458C34.2841 24.4565 34.2763 24.4565 34.2688 24.458C34.2551 24.458 34.2459 24.4763 34.2383 24.4961C34.4105 25.2231 35.267 28.9309 35.0658 29.2403C34.9177 29.4093 34.7206 29.5281 34.502 29.5801C34.5222 30.3295 34.4942 31.0793 34.4181 31.825C34.3617 32.2959 34.2657 32.2989 34.0371 32.2989C33.7171 32.2989 33.6333 32.2441 33.5799 31.8417C33.4809 30.9975 33.3879 30.3178 33.3071 29.792C33.2172 29.792 33.1304 29.8011 33.0481 29.8011C32.9658 29.8011 32.8682 29.8011 32.7555 29.8011C32.6777 30.3208 32.5909 30.9944 32.4918 31.8357C32.443 32.241 32.3592 32.2928 32.0346 32.2928C31.8075 32.2928 31.71 32.2928 31.6536 31.8189C31.5846 31.1227 31.5592 30.4228 31.5774 29.7234C31.3807 29.6928 31.1965 29.6079 31.0455 29.478C30.7408 29.1732 31.8075 24.7384 31.8929 24.3803C31.8929 24.3148 31.8792 24.2736 31.8609 24.2675H31.835C31.8239 24.2677 31.813 24.271 31.8036 24.2769C31.7942 24.2828 31.7866 24.2911 31.7816 24.3011C31.4006 24.9457 30.9983 26.9284 30.5228 26.9284C30.5026 26.9278 30.4826 26.9242 30.4634 26.9177C29.9498 26.7364 30.7087 22.2559 32.8225 22.2559H33.2569C35.3721 22.2559 36.096 26.8873 35.584 27.0671Z" fill="#F04E69"/>
</svg>
