<svg width="32" height="32" viewBox="0 0 32 32" fill="none" xmlns="http://www.w3.org/2000/svg">
<path d="M0 16C0 7.16344 7.16344 0 16 0C24.8366 0 32 7.16344 32 16C32 24.8366 24.8366 32 16 32C7.16344 32 0 24.8366 0 16Z" fill="url(#paint0_linear_3272_19548)"/>
<g clipPath="url(#clip0_3272_19548)">
<path fill-rule="evenodd" clip-rule="evenodd" d="M24.0616 10.6257C24.3408 10.9067 24.5414 11.2562 24.6432 11.6392C25.0195 13.0526 25.0195 16.0001 25.0195 16.0001C25.0195 16.0001 25.0195 18.9476 24.6432 20.361C24.5414 20.7439 24.3408 21.0934 24.0616 21.3745C23.7823 21.6556 23.4341 21.8584 23.0518 21.9626C21.6445 22.341 16.0195 22.341 16.0195 22.341C16.0195 22.341 10.3945 22.341 8.98726 21.9626C8.60498 21.8584 8.25678 21.6556 7.9775 21.3745C7.69822 21.0934 7.49766 20.7439 7.39589 20.361C7.01953 18.9476 7.01953 16.0001 7.01953 16.0001C7.01953 16.0001 7.01953 13.0526 7.39589 11.6392C7.49766 11.2562 7.69822 10.9067 7.9775 10.6257C8.25678 10.3446 8.60498 10.1418 8.98726 10.0376C10.3945 9.65918 16.0195 9.65918 16.0195 9.65918C16.0195 9.65918 21.6445 9.65918 23.0518 10.0376C23.4341 10.1418 23.7823 10.3446 24.0616 10.6257ZM18.8832 16.0001L14.1786 13.3236V18.6766L18.8832 16.0001Z" fill="white"/>
</g>
<defs>
<linearGradient id="paint0_linear_3272_19548" x1="0" y1="16" x2="32" y2="16" gradientUnits="userSpaceOnUse">
<stop stop-color="#86D0F4"/>
<stop offset="0.658654" stop-color="#4CC1ED"/>
</linearGradient>
<clipPath id="clip0_3272_19548">
<rect width="18" height="18" fill="white" transform="translate(7 7)"/>
</clipPath>
</defs>
</svg>
