<svg width="40" height="40" viewBox="0 0 40 40" fill="none" xmlns="http://www.w3.org/2000/svg">
<path d="M0 20C0 8.95431 8.95431 0 20 0C31.0457 0 40 8.95431 40 20C40 31.0457 31.0457 40 20 40C8.95431 40 0 31.0457 0 20Z" fill="url(#paint0_linear_2635_1889)"/>
<g clipPath="url(#clip0_2635_1889)">
<path fill-rule="evenodd" clip-rule="evenodd" d="M30.7462 12.8336C31.1185 13.2083 31.3859 13.6743 31.5216 14.1849C32.0234 16.0695 32.0234 19.9995 32.0234 19.9995C32.0234 19.9995 32.0234 23.9295 31.5216 25.814C31.3859 26.3246 31.1185 26.7906 30.7462 27.1654C30.3738 27.5401 29.9095 27.8105 29.3998 27.9495C27.5234 28.454 20.0234 28.454 20.0234 28.454C20.0234 28.454 12.5234 28.454 10.6471 27.9495C10.1374 27.8105 9.6731 27.5401 9.30073 27.1654C8.92835 26.7906 8.66094 26.3246 8.52526 25.814C8.02344 23.9295 8.02344 19.9995 8.02344 19.9995C8.02344 19.9995 8.02344 16.0695 8.52526 14.1849C8.66094 13.6743 8.92835 13.2083 9.30073 12.8336C9.6731 12.4588 10.1374 12.1884 10.6471 12.0495C12.5234 11.5449 20.0234 11.5449 20.0234 11.5449C20.0234 11.5449 27.5234 11.5449 29.3998 12.0495C29.9095 12.1884 30.3738 12.4588 30.7462 12.8336ZM23.8416 19.9995L17.5689 16.4309V23.5681L23.8416 19.9995Z" fill="white"/>
</g>
<defs>
<linearGradient id="paint0_linear_2635_1889" x1="0" y1="20" x2="40" y2="20" gradientUnits="userSpaceOnUse">
<stop stop-color="#86D0F4"/>
<stop offset="0.658654" stop-color="#4CC1ED"/>
</linearGradient>
<clipPath id="clip0_2635_1889">
<rect width="24" height="24" fill="white" transform="translate(8 8)"/>
</clipPath>
</defs>
</svg>
