<?xml version="1.0" encoding="utf-8"?>
<!-- Generator: Adobe Illustrator 28.1.0, SVG Export Plug-In . SVG Version: 6.00 Build 0)  -->
<svg version="1.1" id="Layer_1" xmlns="http://www.w3.org/2000/svg" xmlns:xlink="http://www.w3.org/1999/xlink" x="0px" y="0px"
	 viewBox="0 0 1000 483.4" style="enable-background:new 0 0 1000 483.4;" xml:space="preserve">
<style type="text/css">
	.st0{fill:#009EDA;}
	.st1{fill:#FFFFFF;}
	.st2{fill:#019FDB;}
	.st3{fill:#84CCF1;}
	.st4{fill:#00ABEC;}
</style>
<g>
	<g>
		<path class="st3" d="M330,302.3h3.5c2.3,0,4.3-0.6,6-1.9c1.7-1.3,3.2-3.3,4.4-6l3.3-6.9c1.4-2.9,2.9-4.8,4.6-5.9
			c1.7-1.1,3.8-1.6,6.2-1.6c1,0,1.9,0.1,2.6,0.2c0.8,0.1,1.3,0.2,1.7,0.3l-0.7,5.6c-0.3,0-0.6-0.1-0.8-0.1c-0.2,0-0.5-0.1-0.8-0.1
			c-0.3,0-0.6,0-0.9,0c-0.7,0-1.4,0.1-2,0.2c-0.6,0.1-1.2,0.4-1.7,0.7c-0.5,0.4-1.1,0.9-1.6,1.6c-0.5,0.7-1,1.6-1.5,2.7l-3,6.4
			c-1.8,3.6-4,6-6.7,7.3c1.3,0.4,2.4,1,3.3,1.9c0.9,0.9,1.9,2.1,3.1,3.8l14.9,21.9h-8L343.6,314c-0.8-1.2-1.5-2.1-2.1-2.9
			c-0.6-0.8-1.3-1.4-2-1.8c-0.7-0.4-1.4-0.7-2.2-0.9c-0.8-0.2-1.8-0.3-2.9-0.3H330v24h-6.7V280h6.7V302.3z"/>
		<path class="st3" d="M387.3,299.5c3.8,0,7,0.5,9.5,1.4c2.5,0.9,4.5,2.1,6,3.6c1.5,1.5,2.5,3.3,3.1,5.2c0.6,2,0.9,4,0.9,6.2
			c0,2.3-0.3,4.4-0.9,6.4c-0.6,2-1.7,3.7-3.2,5.2c-1.5,1.5-3.6,2.6-6.1,3.5c-2.6,0.9-5.8,1.3-9.7,1.3H370V280h6.7v19.5H387.3z
			 M376.7,326.5h10.7c2.4,0,4.4-0.2,6-0.6c1.6-0.4,2.9-1.1,3.9-1.9c1-0.9,1.7-2,2.2-3.3c0.4-1.3,0.7-2.8,0.7-4.6s-0.2-3.3-0.6-4.6
			c-0.4-1.3-1.1-2.5-2.2-3.4c-1-0.9-2.4-1.6-4.1-2.1c-1.7-0.5-3.8-0.7-6.4-0.7h-10.2V326.5z M414.7,280h6.7v52.2h-6.7V280z"/>
		<path class="st3" d="M432.9,280h17.5c3.8,0,7,0.4,9.5,1.2c2.5,0.8,4.5,1.9,5.9,3.4c1.4,1.4,2.4,3.1,3,4.9c0.6,1.9,0.8,3.9,0.8,6
			c0,2.2-0.3,4.3-0.9,6.3c-0.6,2-1.6,3.8-3.1,5.3c-1.5,1.5-3.4,2.7-5.9,3.6s-5.6,1.3-9.4,1.3h-10.8v20.2h-6.6V280z M450.3,306.2
			c2.5,0,4.6-0.2,6.3-0.7c1.7-0.5,2.9-1.2,3.9-2.1c0.9-0.9,1.6-2,1.9-3.3c0.4-1.3,0.5-2.7,0.5-4.3c0-1.7-0.2-3.1-0.6-4.4
			c-0.4-1.3-1.1-2.3-2-3.1c-1-0.8-2.3-1.4-3.9-1.9c-1.6-0.4-3.7-0.6-6.2-0.6h-10.7v20.5H450.3z"/>
		<path class="st3" d="M478.6,280h31.8v5.9h-25.1v46.2h-6.7V280z"/>
		<path class="st3" d="M534.4,299.5c3.8,0,7,0.5,9.5,1.4c2.5,0.9,4.5,2.1,6,3.6c1.5,1.5,2.5,3.3,3.1,5.2c0.6,2,0.9,4,0.9,6.2
			c0,2.3-0.3,4.4-0.9,6.4c-0.6,2-1.7,3.7-3.2,5.2c-1.5,1.5-3.6,2.6-6.1,3.5c-2.6,0.9-5.8,1.3-9.7,1.3h-16.9V280h6.7v19.5H534.4z
			 M523.8,326.5h10.7c2.4,0,4.4-0.2,6-0.6c1.6-0.4,2.9-1.1,3.9-1.9c1-0.9,1.7-2,2.2-3.3c0.4-1.3,0.7-2.8,0.7-4.6s-0.2-3.3-0.6-4.6
			c-0.4-1.3-1.1-2.5-2.2-3.4c-1-0.9-2.4-1.6-4.1-2.1c-1.7-0.5-3.8-0.7-6.4-0.7h-10.2V326.5z M561.8,280h6.7v52.2h-6.7V280z"/>
		<path class="st3" d="M583.5,318.2c0.3,1.9,0.8,3.5,1.5,4.8c0.7,1.2,1.6,2.2,2.7,3c1.1,0.7,2.4,1.2,3.9,1.5
			c1.5,0.3,3.2,0.4,5.1,0.4c4.1,0,7.2-0.9,9.3-2.6c2.1-1.7,3.1-4.3,3.1-7.6c0-3.4-1-5.9-3.1-7.4c-2.1-1.5-5-2.3-8.8-2.3H590v-5.7
			h7.5c3.2,0,5.8-0.8,7.7-2.3c1.9-1.6,2.9-3.9,2.9-7c0-2.8-0.9-4.9-2.8-6.4c-1.9-1.5-4.7-2.2-8.3-2.2c-1.9,0-3.4,0.1-4.8,0.4
			c-1.3,0.3-2.5,0.8-3.5,1.4s-1.9,1.5-2.6,2.7c-0.7,1.1-1.3,2.5-1.9,4.1l-6.2-0.9c0.3-1.9,1-3.6,1.9-5.2c0.9-1.6,2.2-3,3.8-4.2
			c1.6-1.2,3.5-2.2,5.7-2.8c2.2-0.7,4.9-1,7.9-1c3,0,5.5,0.4,7.7,1.1c2.2,0.7,4,1.7,5.4,2.9c1.4,1.2,2.5,2.7,3.2,4.3
			c0.7,1.6,1.1,3.3,1.1,5.2c0,2.7-0.6,5.1-1.7,7.2c-1.1,2.1-3,3.8-5.6,5.1c2.9,1.1,5.1,2.8,6.4,5.1c1.4,2.3,2,4.9,2,8
			c0,2.3-0.4,4.5-1.2,6.4c-0.8,1.9-2,3.6-3.5,5c-1.6,1.4-3.6,2.5-6,3.3c-2.4,0.8-5.2,1.2-8.4,1.2c-3.5,0-6.5-0.4-8.9-1.3
			c-2.5-0.9-4.5-2-6-3.4c-1.5-1.4-2.7-3-3.4-4.9c-0.7-1.8-1.1-3.7-1.1-5.7H583.5z"/>
		<path class="st3" d="M667.8,315c-0.3,2.6-0.9,5.1-2,7.3c-1,2.3-2.4,4.2-4.2,5.9c-1.8,1.7-3.9,2.9-6.4,3.9
			c-2.5,0.9-5.4,1.4-8.7,1.4c-3.6,0-6.8-0.6-9.7-1.8c-2.9-1.2-5.3-3-7.3-5.3c-2-2.3-3.5-5.2-4.6-8.6c-1.1-3.4-1.6-7.2-1.6-11.6
			c0-4.4,0.6-8.3,1.8-11.7c1.2-3.4,2.8-6.3,4.9-8.6c2.1-2.3,4.6-4.1,7.4-5.3c2.8-1.2,5.9-1.8,9.2-1.8c3.2,0,6,0.4,8.3,1.2
			c2.3,0.8,4.3,2,6,3.5c1.6,1.5,2.9,3.3,3.9,5.4c1,2.1,1.8,4.4,2.3,6.9l-6.6,1.1c-0.4-1.9-1-3.6-1.7-5.2c-0.7-1.5-1.6-2.8-2.7-3.9
			c-1.1-1.1-2.4-1.9-3.9-2.4c-1.5-0.6-3.4-0.8-5.6-0.8c-2.6,0-4.9,0.5-6.9,1.6c-2,1-3.7,2.5-5.1,4.4c-1.4,1.9-2.4,4.1-3.2,6.8
			c-0.7,2.7-1.1,5.6-1.1,8.8c0,3.2,0.4,6.1,1.1,8.8c0.7,2.7,1.8,4.9,3.2,6.8s3.1,3.4,5.1,4.4c2,1,4.3,1.5,7,1.5
			c2.4,0,4.4-0.3,6.1-0.9c1.7-0.6,3.1-1.5,4.2-2.6c1.1-1.1,2-2.5,2.6-4c0.6-1.6,1.1-3.3,1.4-5.1H667.8z"/>
		<path class="st3" d="M689.7,286h-17.2v-6h41.3v6h-17.2v46.2h-6.8V286z"/>
		<path class="st3" d="M728.8,280h7.1l20.2,52.2h-7.3l-5.5-14.5H721l-5.5,14.5h-7L728.8,280z M741.3,311.8l-9.2-24.2l-9.1,24.2
			H741.3z"/>
		<path class="st3" d="M762.7,280h6.7V302h26.4V280h6.7v52.2h-6.7v-23.8h-26.4v23.8h-6.7V280z"/>
	</g>
	<g>
		<path class="st4" d="M327,162.9c0.6,3.7,2,6.3,4.3,7.9c2.3,1.6,5.8,2.4,10.3,2.4c2.3,0,4.2-0.3,5.7-0.8c1.5-0.5,2.8-1.2,3.7-2
			c0.9-0.9,1.6-1.9,2-3c0.4-1.1,0.6-2.3,0.6-3.6c0-1-0.1-2-0.4-3c-0.2-0.9-0.7-1.8-1.4-2.6c-0.7-0.8-1.7-1.5-2.9-2
			c-1.2-0.6-2.8-1-4.8-1.4l-6.6-1.2c-2.6-0.4-4.9-1-6.9-1.8c-2-0.7-3.7-1.7-5.1-2.8c-1.4-1.1-2.4-2.6-3.1-4.3
			c-0.7-1.7-1.1-3.8-1.1-6.2c0-2.4,0.5-4.5,1.5-6.3c1-1.8,2.3-3.3,4.1-4.5c1.7-1.2,3.7-2.1,6.1-2.7s4.9-0.9,7.6-0.9
			c3.5,0,6.3,0.4,8.7,1.1c2.3,0.8,4.2,1.8,5.7,3c1.5,1.3,2.6,2.7,3.3,4.3c0.8,1.6,1.3,3.3,1.7,5l-6.3,1.2c-0.4-1.5-0.9-2.8-1.5-3.9
			c-0.6-1.1-1.4-2.1-2.4-2.8c-1-0.8-2.2-1.3-3.7-1.7c-1.5-0.4-3.2-0.6-5.3-0.6c-2.4,0-4.4,0.2-6,0.7c-1.6,0.4-2.9,1-3.9,1.8
			c-1,0.8-1.7,1.7-2.1,2.7c-0.4,1-0.6,2.2-0.6,3.3c0,1.3,0.2,2.4,0.5,3.3c0.3,0.9,0.9,1.8,1.6,2.5c0.8,0.7,1.7,1.3,3,1.8
			c1.2,0.5,2.7,0.9,4.5,1.2l7.3,1.3c5.4,1,9.4,2.7,11.9,5.1c2.5,2.4,3.8,5.8,3.8,10.4c0,2.1-0.4,4.1-1.2,5.9c-0.8,1.8-2,3.4-3.6,4.8
			c-1.6,1.4-3.6,2.4-6,3.2c-2.4,0.8-5.2,1.2-8.4,1.2c-3.1,0-5.9-0.3-8.4-0.9c-2.5-0.6-4.7-1.6-6.5-2.9c-1.9-1.3-3.3-3-4.5-5
			c-1.1-2-1.8-4.5-2-7.3H327z"/>
		<path class="st4" d="M391.3,179.1c-3.6,0-6.8-0.6-9.8-1.8c-2.9-1.2-5.5-2.9-7.6-5.3c-2.1-2.3-3.8-5.2-4.9-8.6
			c-1.2-3.4-1.8-7.3-1.8-11.7s0.6-8.3,1.8-11.7c1.2-3.4,2.8-6.3,5-8.6c2.1-2.3,4.7-4.1,7.6-5.3c2.9-1.2,6.2-1.8,9.7-1.8
			c3.6,0,6.8,0.6,9.8,1.8c2.9,1.2,5.5,2.9,7.6,5.3c2.1,2.3,3.7,5.2,4.9,8.5c1.2,3.4,1.8,7.3,1.8,11.7s-0.6,8.3-1.7,11.7
			c-1.1,3.4-2.8,6.3-4.9,8.7c-2.1,2.3-4.6,4.1-7.6,5.3C398.2,178.4,394.9,179.1,391.3,179.1z M391.3,173.2c2.8,0,5.2-0.5,7.3-1.5
			c2.1-1,3.9-2.5,5.3-4.3c1.4-1.9,2.5-4.1,3.2-6.8c0.7-2.7,1.1-5.6,1.1-8.9c0-3.2-0.4-6.1-1.1-8.8c-0.7-2.7-1.8-4.9-3.3-6.8
			c-1.4-1.9-3.2-3.4-5.3-4.4c-2.1-1-4.5-1.5-7.3-1.5c-2.8,0-5.3,0.5-7.4,1.5c-2.1,1-3.9,2.5-5.3,4.4c-1.4,1.9-2.5,4.2-3.2,6.8
			c-0.7,2.7-1.1,5.6-1.1,8.8c0,3.3,0.4,6.2,1.1,8.9c0.7,2.7,1.8,4.9,3.2,6.8c1.4,1.9,3.2,3.3,5.3,4.3
			C386,172.7,388.4,173.2,391.3,173.2z"/>
		<path class="st4" d="M428.8,162.9c0.6,3.7,2,6.3,4.3,7.9c2.3,1.6,5.8,2.4,10.3,2.4c2.3,0,4.2-0.3,5.7-0.8c1.5-0.5,2.8-1.2,3.7-2
			c0.9-0.9,1.6-1.9,2-3c0.4-1.1,0.6-2.3,0.6-3.6c0-1-0.1-2-0.4-3c-0.2-0.9-0.7-1.8-1.4-2.6c-0.7-0.8-1.7-1.5-2.9-2
			c-1.2-0.6-2.8-1-4.8-1.4l-6.6-1.2c-2.6-0.4-4.9-1-6.9-1.8c-2-0.7-3.7-1.7-5.1-2.8c-1.4-1.1-2.4-2.6-3.1-4.3
			c-0.7-1.7-1.1-3.8-1.1-6.2c0-2.4,0.5-4.5,1.5-6.3c1-1.8,2.3-3.3,4.1-4.5c1.7-1.2,3.7-2.1,6.1-2.7s4.9-0.9,7.6-0.9
			c3.5,0,6.3,0.4,8.7,1.1c2.3,0.8,4.2,1.8,5.7,3c1.5,1.3,2.6,2.7,3.3,4.3c0.8,1.6,1.3,3.3,1.7,5l-6.3,1.2c-0.4-1.5-0.9-2.8-1.5-3.9
			c-0.6-1.1-1.4-2.1-2.4-2.8c-1-0.8-2.2-1.3-3.7-1.7c-1.5-0.4-3.2-0.6-5.3-0.6c-2.4,0-4.4,0.2-6,0.7c-1.6,0.4-2.9,1-3.9,1.8
			c-1,0.8-1.7,1.7-2.1,2.7c-0.4,1-0.6,2.2-0.6,3.3c0,1.3,0.2,2.4,0.5,3.3c0.3,0.9,0.9,1.8,1.6,2.5c0.8,0.7,1.7,1.3,3,1.8
			c1.2,0.5,2.7,0.9,4.5,1.2l7.3,1.3c5.4,1,9.4,2.7,11.9,5.1c2.5,2.4,3.8,5.8,3.8,10.4c0,2.1-0.4,4.1-1.2,5.9c-0.8,1.8-2,3.4-3.6,4.8
			c-1.6,1.4-3.6,2.4-6,3.2c-2.4,0.8-5.2,1.2-8.4,1.2c-3.1,0-5.9-0.3-8.4-0.9c-2.5-0.6-4.7-1.6-6.5-2.9c-1.9-1.3-3.3-3-4.5-5
			c-1.1-2-1.8-4.5-2-7.3H428.8z"/>
		<path class="st4" d="M487.3,171.8c2.8-3,5-7.5,6.8-13.7c1.7-6.1,3-13.3,3.8-21.6l1.1-11h29.1v46.2h5.1v18.6h-6.3v-12.6h-37.8v12.6
			h-6.3v-18.6H487.3z M504.1,139.3c-0.7,7.4-1.8,13.8-3.3,19.3s-3.4,9.9-5.8,13.2h26.4v-40.5h-16.4L504.1,139.3z"/>
		<path class="st4" d="M540.6,125.6h33.8v5.9h-27v16.4h25.6v6h-25.6v18h28.4l-1.1,5.9h-34V125.6z"/>
		<path class="st4" d="M597.5,131.6h-17.2v-6h41.3v6h-17.2v46.2h-6.8V131.6z"/>
		<path class="st4" d="M668.4,160.6c-0.3,2.6-0.9,5.1-2,7.3c-1,2.3-2.4,4.2-4.2,5.9c-1.8,1.7-3.9,2.9-6.4,3.9
			c-2.5,0.9-5.4,1.4-8.7,1.4c-3.6,0-6.8-0.6-9.7-1.8c-2.9-1.2-5.3-3-7.3-5.3c-2-2.3-3.5-5.2-4.6-8.6c-1.1-3.4-1.6-7.2-1.6-11.6
			c0-4.4,0.6-8.3,1.8-11.7c1.2-3.4,2.8-6.3,4.9-8.6c2.1-2.3,4.6-4.1,7.4-5.3c2.8-1.2,5.9-1.8,9.2-1.8c3.2,0,6,0.4,8.3,1.2
			c2.3,0.8,4.3,2,6,3.5c1.6,1.5,2.9,3.3,3.9,5.4c1,2.1,1.8,4.4,2.3,6.9l-6.6,1.1c-0.4-1.9-1-3.6-1.7-5.2c-0.7-1.5-1.6-2.8-2.7-3.9
			c-1.1-1.1-2.4-1.9-3.9-2.4c-1.5-0.6-3.4-0.8-5.6-0.8c-2.6,0-4.9,0.5-6.9,1.6c-2,1-3.7,2.5-5.1,4.4c-1.4,1.9-2.4,4.1-3.2,6.8
			c-0.7,2.7-1.1,5.6-1.1,8.8c0,3.2,0.4,6.1,1.1,8.8c0.7,2.7,1.8,4.9,3.2,6.8s3.1,3.4,5.1,4.4c2,1,4.3,1.5,7,1.5
			c2.4,0,4.4-0.3,6.1-0.9c1.7-0.6,3.1-1.5,4.2-2.6c1.1-1.1,2-2.5,2.6-4c0.6-1.6,1.1-3.3,1.4-5.1H668.4z"/>
		<path class="st4" d="M684.3,147.9h3.5c2.3,0,4.3-0.6,6-1.9c1.7-1.3,3.2-3.3,4.4-6l3.3-6.9c1.4-2.9,2.9-4.8,4.6-5.9
			c1.7-1.1,3.8-1.6,6.2-1.6c1,0,1.9,0.1,2.6,0.2c0.8,0.1,1.3,0.2,1.7,0.3l-0.7,5.6c-0.3,0-0.6-0.1-0.8-0.1c-0.2,0-0.5-0.1-0.8-0.1
			c-0.3,0-0.6,0-0.9,0c-0.7,0-1.4,0.1-2,0.2c-0.6,0.1-1.2,0.4-1.7,0.7c-0.5,0.4-1.1,0.9-1.6,1.6c-0.5,0.7-1,1.6-1.5,2.7l-3,6.4
			c-1.8,3.6-4,6-6.7,7.3c1.3,0.4,2.4,1,3.3,1.9c0.9,0.9,1.9,2.1,3.1,3.8l14.9,21.9h-8l-12.2-18.1c-0.8-1.2-1.5-2.1-2.1-2.9
			c-0.6-0.8-1.3-1.4-2-1.8c-0.7-0.4-1.4-0.7-2.2-0.9c-0.8-0.2-1.8-0.3-2.9-0.3h-4.5v24h-6.7v-52.2h6.7V147.9z"/>
		<path class="st4" d="M756.6,177.7v-41.2l-25.7,41.2h-6.6v-52.2h6.6v41.3l25.6-41.3h6.6v52.2H756.6z"/>
		<path class="st4" d="M774.6,125.6h33.8v5.9h-27v16.4h25.6v6h-25.6v18h28.4l-1.1,5.9h-34V125.6z"/>
	</g>
	<g>
		<path class="st4" d="M322.3,247.8c2.8-3,5-7.5,6.8-13.7c1.7-6.1,3-13.3,3.8-21.6l1.1-11h29.1v46.2h5.1v18.6h-6.3v-12.6H324v12.6
			h-6.3v-18.6H322.3z M339.1,215.3c-0.7,7.4-1.8,13.8-3.3,19.3s-3.4,9.9-5.8,13.2h26.4v-40.5h-16.4L339.1,215.3z"/>
		<path class="st4" d="M375.5,201.6h33.8v5.9h-27v16.4h25.6v6h-25.6v18h28.4l-1.1,5.9h-34V201.6z"/>
		<path class="st4" d="M418.9,201.6h17.5c3.8,0,7,0.4,9.5,1.2c2.5,0.8,4.5,1.9,5.9,3.4c1.4,1.4,2.4,3.1,3,4.9c0.6,1.9,0.8,3.9,0.8,6
			c0,2.2-0.3,4.3-0.9,6.3c-0.6,2-1.6,3.8-3.1,5.3c-1.5,1.5-3.4,2.7-5.9,3.6s-5.6,1.3-9.4,1.3h-10.8v20.2h-6.6V201.6z M436.3,227.8
			c2.5,0,4.6-0.2,6.3-0.7c1.7-0.5,2.9-1.2,3.9-2.1c0.9-0.9,1.6-2,1.9-3.3c0.4-1.3,0.5-2.7,0.5-4.3c0-1.7-0.2-3.1-0.6-4.4
			c-0.4-1.3-1.1-2.3-2-3.1c-1-0.8-2.3-1.4-3.9-1.9c-1.6-0.4-3.7-0.6-6.2-0.6h-10.7v20.5H436.3z"/>
		<path class="st4" d="M464.7,201.6h33.8v5.9h-27v16.4H497v6h-25.6v18h28.4l-1.1,5.9h-34V201.6z"/>
		<path class="st4" d="M508.1,201.6h17.3c3.7,0,6.7,0.4,9.1,1.1c2.4,0.7,4.3,1.7,5.7,2.8c1.4,1.2,2.3,2.6,2.9,4.2
			c0.5,1.6,0.8,3.4,0.8,5.2c0,2.4-0.5,4.5-1.6,6.4s-3,3.5-5.7,4.7c1.8,0.7,3.2,1.5,4.3,2.4c1.1,0.9,2.1,1.9,2.8,3
			c0.7,1.1,1.2,2.2,1.5,3.4c0.3,1.2,0.4,2.4,0.4,3.7c0,2.1-0.3,4.1-1,6c-0.7,1.8-1.7,3.4-3.2,4.8c-1.5,1.4-3.4,2.4-5.8,3.2
			c-2.4,0.8-5.3,1.2-8.8,1.2h-18.6V201.6z M526.3,223.6c3.9,0,6.8-0.7,8.5-2.2c1.7-1.4,2.6-3.5,2.6-6.3c0-2.8-0.9-4.9-2.7-6.1
			c-1.8-1.3-5-1.9-9.4-1.9h-10.5v16.5H526.3z M526.5,248.2c2.4,0,4.4-0.2,6-0.7c1.6-0.4,2.8-1.1,3.8-1.9c0.9-0.8,1.6-1.8,2-2.9
			c0.4-1.1,0.5-2.4,0.5-3.9c0-3.1-0.9-5.4-2.7-7c-1.8-1.6-4.8-2.4-9.1-2.4h-12.3v18.8H526.5z"/>
		<path class="st4" d="M554.2,201.6h6.7v22.1h26.4v-22.1h6.7v52.2h-6.7v-23.8H561v23.8h-6.7V201.6z"/>
		<path class="st4" d="M637.9,253.7v-41.2l-25.7,41.2h-6.6v-52.2h6.6v41.3l25.6-41.3h6.6v52.2H637.9z"/>
	</g>
	<path class="st4" d="M199.6,149.5v22.6c1.6-1.9,3.6-5.4,3.6-11.3C203.2,155.1,201.2,151.5,199.6,149.5 M192.5,211.7
		c0.2-2.6,0.3-7.2-1.6-11.5c-1.9-4.2-5.2-6.7-7-7.8c-0.4,2.1-0.8,6.2,1.1,10.4C186.9,207.1,190.4,210.2,192.5,211.7z M197.1,172.7
		v-23.9c-1.7,1.8-4.2,5.6-4.2,11.9C192.9,167.4,195.4,171,197.1,172.7z M211.5,203.8c1.8-4.3,1.4-8.4,1-10.4
		c-1.8,1.1-5.1,3.6-6.9,7.9c-1.8,4.2-1.7,8.9-1.4,11.5C206.2,211.2,209.7,208,211.5,203.8z M268.4,131.8c-11-9-31.6-10.4-70.6-10.4
		c-38.8,0-59.4,1.4-70.3,10.4c-11,9.1-12,25.6-12,55.6c0,30.2,1,46.8,11.9,55.9c11,9,31.5,10.4,70.4,10.4c39.1,0,59.6-1.3,70.6-10.4
		c11-9.1,11.9-25.7,12-55.9C280.4,157.4,279.4,140.9,268.4,131.8z M224.2,141.2c1.7-2.5,4.7-2.9,4.7-2.9s5-2.8,9.8,1
		c5.4,4.2,1.9,12,1.9,12s-1.1,6.8-1.4,7.7c-0.3,0.9-2.4,1.8-2.4,1.8s-1.2,0.3-2.5,0.3c-1.3,0.1-2.8-0.4-3.3-0.7
		c-0.6-0.3-0.7-1.5-0.7-1.5s-0.2-1-0.5-1.4c-0.3-0.3-3.3-0.5-5.2-3.9c-1.3-2.4-0.5-5.6-0.2-7.5C224.6,144.2,224.2,141.2,224.2,141.2
		z M153.6,139c5.5-2.5,12-0.2,14.5,5.3c1.6,3.6,0.9,4.9-1.3,6.1c0.4,0.9,0.6,1.8,0.6,2.8c0,4-3.2,7.2-7.2,7.2c-3,0-5.5-1.8-6.6-4.4
		c-2.2,0.7-3.9,0.5-5.2-2.5C145.9,147.9,148.2,141.5,153.6,139z M269.3,228.7h-44.1l-0.3,1c0,0-2.5,7.8-7.4,6.5
		c-4.5-1.2-2.6-7.4-2.6-7.4l0-0.1h-15.3v8.6h-2.5v-8.6h-14l0.5,2.1c0,0,0.9,3.9-2.6,5.3c-3.6,1.5-5.7-3.5-5.7-3.5s-0.8-1.7-1.7-3.9
		h-47.2v-2.5h46.1c-0.3-0.9-0.7-1.8-1-2.7c-1.5-4.2-3.4-11.5-3.8-11.8c-0.4-0.3-3.3-0.3-6.6-0.7c-3.3-0.4-5.6-1.5-6-1.4
		c-0.9,0.2-7.9,9.3-12.5,10.2c-4.6,0.9-9.4-5-9.4-5l-5.7-7.4c0,0-2.2-2.9-0.6-4.5c2-2,3.9-0.5,3.9-0.5s7.7,5,8.5,5.5
		c0.6,0.4,0.8,0.1,0.8,0.1s1.3-1.2,1.9-1.9c0.4-0.5,0-0.9,0-0.9s-3.8-3.8-5.3-5.3c-1.2-1.3-0.1-3.2-0.1-3.2l11.2-22.4l-14.7,3.1
		c0,0-2.8,0.7-3.5-1.2c-0.6-1.9,2.2-3.4,2.2-3.4l19.4-11.4c0,0,0.8-0.6,1.2-0.6c0.4-0.1,1.2,0.3,1.2,0.3s2.7,2.1,6.4,2
		c3.7-0.1,5.8-2.3,5.8-2.3s0.5-0.5,1.2-0.6c0.7-0.1,2.3,1.7,2.3,1.7l17.2,19.1c0,0,1.9,2.1,0.5,3.8c-1.2,1.6-3.9-0.1-3.9-0.1
		s-10.9-6.5-11.3-6.6c-0.4-0.1-0.3,0.4-0.3,0.4l10.7,47.6h14.6v-50c-1.1-0.7-6.8-5-6.8-15.3c0-11.1,6.7-15.4,7-15.6
		c0.4-0.3,1-0.3,1.4,0c0.3,0.2,7,4.5,7,15.6c0,9.1-4.4,13.5-6.2,14.9v50.5h15.8l6.5-30.9c0,0,3.7-17.4,3.5-17.6
		c-0.2-0.1-13.2,8.3-13.2,8.3s-1.8,1.7-3.7-0.1c-1.9-1.8,0.9-4.3,0.9-4.3l16.4-19.1c0,0,0.6-0.7,1.3-0.6c1,0.1,1.1,0.7,1.1,0.7
		s1.8,4.6,2.1,4.6c0.2,0,2.7-2.6,2.7-2.6s1.2-1.3,1.9-1.3c0.7-0.1,1,0.5,1,0.5l2.7,3.8c0,0,0.7,0.9,0.8,0.9c0.2,0,0.4-0.4,0.4-0.4
		l3.1-5.8c0,0,0.6-1.4,1.3-1.8c0.6-0.5,2,0.4,2,0.4l18.6,11.2c0,0,2.6,1.2,1.8,3.7c-0.8,2.8-5.2,1.4-5.2,1.4s-12.8-2.7-13-2.5
		c-0.2,0.2,0.2,0.6,0.2,0.6s10.1,22.9,10,24.3c-0.1,1.1-1.3,1.9-1.3,1.9s-3.4,2.1-3.5,2.5c-0.1,0.4,0.2,0.7,0.2,0.7s1.8,1.9,2.3,2
		c0.5,0.1,1.4-0.5,1.4-0.5l5.8-3.1c0,0,2.8-2.2,4.9-0.1c2.1,2.1-0.8,4.7-0.8,4.7l-5.8,6.5c0,0-3.3,5-6.7,5.4
		c-3.6,0.4-6.8-2.7-6.8-2.7s-10.1-9.9-10.3-10.1c-0.2-0.2-0.4,0.1-0.4,0.1s-1.1,2.9-1.5,3.3c-0.5,0.4-1.4,0.6-1.4,0.6
		s-4.2,0.6-4.4,0.7c-0.2,0.1-0.4,1-0.4,1l-4.1,13.8h43.4V228.7z M193.2,199.3c3,6.8,1.6,14.6,1.5,14.9c-0.1,0.4-0.3,0.7-0.7,0.9
		c-0.4,0.2-0.8,0.1-1.1-0.1c-0.3-0.2-7-4.2-10.1-11.1c-3.1-6.9-0.9-13.4-0.8-13.7c0.1-0.3,0.4-0.6,0.7-0.7c0.3-0.1,0.7-0.1,1,0
		C183.9,189.6,190.1,192.3,193.2,199.3z M212.8,190.3c0.3-0.1,0.7-0.1,1,0c0.3,0.1,0.6,0.4,0.7,0.7c0.1,0.3,2.3,6.7-0.7,13.7
		c-3,6.9-9.6,11-9.9,11.2c-0.3,0.2-0.8,0.2-1.1,0.1c-0.4-0.2-0.6-0.5-0.7-0.9c-0.1-0.3-1.7-8,1.3-14.9
		C206.3,193.3,212.5,190.4,212.8,190.3z"/>
</g>
</svg>
