<?xml version="1.0" encoding="utf-8"?>
<!-- Generator: Adobe Illustrator 28.1.0, SVG Export Plug-In . SVG Version: 6.00 Build 0)  -->
<svg version="1.1" id="Layer_1" xmlns="http://www.w3.org/2000/svg" xmlns:xlink="http://www.w3.org/1999/xlink" x="0px" y="0px"
	 viewBox="0 0 1000 483.4" style="enable-background:new 0 0 1000 483.4;" xml:space="preserve">
<style type="text/css">
	.st0{fill:#009EDA;}
	.st1{fill:#FFFFFF;}
	.st2{fill:#019FDB;}
	.st3{fill:#84CCF1;}
	.st4{fill:#00ABEC;}
</style>
<g>
	<g>
		<path class="st3" d="M331.9,322.5h3.6c2.4,0,4.5-0.7,6.2-2c1.7-1.3,3.3-3.4,4.6-6.2l3.4-7.2c1.4-3,3-5,4.8-6.1
			c1.8-1.1,3.9-1.7,6.5-1.7c1,0,1.9,0.1,2.7,0.2c0.8,0.1,1.4,0.2,1.7,0.3l-0.8,5.7c-0.3,0-0.6-0.1-0.8-0.2c-0.3,0-0.5-0.1-0.8-0.1
			c-0.3,0-0.6,0-1,0c-0.8,0-1.4,0.1-2.1,0.2c-0.6,0.1-1.2,0.4-1.8,0.8c-0.6,0.4-1.1,0.9-1.7,1.6c-0.6,0.7-1.1,1.6-1.6,2.8l-3.1,6.6
			c-1.8,3.7-4.1,6.2-6.9,7.5c1.3,0.4,2.4,1,3.4,1.9c1,0.9,2,2.2,3.2,3.9l15.4,22.6h-8.2L346,334.5c-0.8-1.2-1.5-2.2-2.2-3
			c-0.7-0.8-1.3-1.4-2-1.8c-0.7-0.5-1.5-0.8-2.3-0.9c-0.8-0.2-1.8-0.3-3-0.3h-4.6v24.7H325v-53.9h6.9V322.5z"/>
		<path class="st3" d="M391.1,319.5c4,0,7.3,0.5,9.8,1.4c2.6,0.9,4.7,2.2,6.2,3.7c1.5,1.6,2.6,3.4,3.2,5.4c0.6,2,0.9,4.2,0.9,6.4
			c0,2.4-0.3,4.6-0.9,6.6c-0.6,2-1.7,3.8-3.3,5.3c-1.6,1.5-3.7,2.7-6.3,3.6c-2.6,0.9-6,1.3-10,1.3h-17.4v-53.9h6.9v20.1H391.1z
			 M380.2,347.4h11c2.5,0,4.5-0.2,6.2-0.6c1.7-0.4,3-1.1,4-2c1-0.9,1.8-2,2.2-3.4s0.7-2.9,0.7-4.7c0-1.8-0.2-3.4-0.6-4.8
			c-0.4-1.4-1.2-2.6-2.2-3.5c-1.1-1-2.5-1.7-4.2-2.2c-1.8-0.5-3.9-0.8-6.6-0.8h-10.5V347.4z M419.4,299.4h6.9v53.9h-6.9V299.4z"/>
		<path class="st3" d="M438.2,299.4h18c4,0,7.3,0.4,9.8,1.3c2.6,0.9,4.6,2,6.1,3.5c1.5,1.5,2.5,3.2,3.1,5.1c0.6,1.9,0.9,4,0.9,6.1
			c0,2.3-0.3,4.4-0.9,6.5c-0.6,2.1-1.7,3.9-3.2,5.4c-1.5,1.6-3.5,2.8-6.1,3.7c-2.6,0.9-5.8,1.4-9.7,1.4h-11.2v20.9h-6.9V299.4z
			 M456.2,326.5c2.6,0,4.8-0.3,6.5-0.8c1.7-0.5,3-1.2,4-2.2c1-1,1.6-2.1,2-3.4c0.4-1.3,0.6-2.8,0.6-4.5c0-1.7-0.2-3.2-0.6-4.5
			c-0.4-1.3-1.1-2.4-2.1-3.2c-1-0.9-2.4-1.5-4-1.9c-1.7-0.4-3.8-0.6-6.4-0.6h-11v21.2H456.2z"/>
		<path class="st3" d="M485.5,299.4h32.8v6.1h-25.9v47.8h-6.9V299.4z"/>
		<path class="st3" d="M543,319.5c4,0,7.3,0.5,9.8,1.4c2.6,0.9,4.7,2.2,6.2,3.7c1.5,1.6,2.6,3.4,3.2,5.4c0.6,2,0.9,4.2,0.9,6.4
			c0,2.4-0.3,4.6-0.9,6.6c-0.6,2-1.7,3.8-3.3,5.3c-1.6,1.5-3.7,2.7-6.3,3.6c-2.6,0.9-6,1.3-10,1.3h-17.4v-53.9h6.9v20.1H543z
			 M532.1,347.4h11c2.5,0,4.5-0.2,6.2-0.6c1.7-0.4,3-1.1,4-2c1-0.9,1.8-2,2.2-3.4s0.7-2.9,0.7-4.7c0-1.8-0.2-3.4-0.6-4.8
			c-0.4-1.4-1.2-2.6-2.2-3.5c-1.1-1-2.5-1.7-4.2-2.2c-1.8-0.5-3.9-0.8-6.6-0.8h-10.5V347.4z M571.3,299.4h6.9v53.9h-6.9V299.4z"/>
		<path class="st3" d="M593.8,338.8c0.3,2,0.8,3.7,1.5,4.9c0.7,1.3,1.7,2.3,2.8,3.1c1.1,0.8,2.5,1.3,4,1.5c1.5,0.3,3.3,0.4,5.2,0.4
			c4.3,0,7.5-0.9,9.6-2.7c2.1-1.8,3.2-4.4,3.2-7.9c0-3.5-1.1-6.1-3.2-7.7c-2.2-1.6-5.2-2.4-9.1-2.4h-7.5v-5.9h7.7c3.3,0,6-0.8,8-2.4
			c2-1.6,3-4,3-7.2c0-2.9-1-5.1-2.9-6.6c-2-1.5-4.8-2.3-8.6-2.3c-1.9,0-3.6,0.2-4.9,0.5c-1.4,0.3-2.6,0.8-3.7,1.5
			c-1.1,0.7-1.9,1.6-2.7,2.8c-0.7,1.2-1.4,2.6-1.9,4.2l-6.4-1c0.4-1.9,1-3.7,2-5.4c1-1.7,2.3-3.1,3.9-4.4c1.6-1.3,3.6-2.2,5.9-2.9
			c2.3-0.7,5-1.1,8.1-1.1c3.1,0,5.7,0.4,8,1.1c2.2,0.7,4.1,1.7,5.6,3c1.5,1.3,2.6,2.8,3.3,4.5c0.7,1.7,1.1,3.5,1.1,5.3
			c0,2.8-0.6,5.3-1.8,7.5c-1.2,2.2-3.1,4-5.8,5.3c3,1.2,5.2,2.9,6.6,5.2c1.4,2.3,2.1,5.1,2.1,8.3c0,2.4-0.4,4.6-1.2,6.6
			c-0.8,2-2,3.7-3.7,5.2c-1.6,1.5-3.7,2.6-6.2,3.4c-2.5,0.8-5.4,1.2-8.7,1.2c-3.6,0-6.7-0.4-9.2-1.3c-2.5-0.9-4.6-2-6.2-3.5
			s-2.7-3.1-3.5-5c-0.7-1.9-1.1-3.9-1.2-5.9H593.8z"/>
		<path class="st3" d="M680.8,335.5c-0.3,2.7-1,5.2-2,7.6c-1.1,2.3-2.5,4.4-4.3,6.1s-4,3-6.6,4c-2.6,1-5.6,1.4-9,1.4
			c-3.7,0-7.1-0.6-10-1.9c-3-1.3-5.5-3.1-7.5-5.5c-2.1-2.4-3.7-5.4-4.8-8.9c-1.1-3.5-1.7-7.5-1.7-12c0-4.5,0.6-8.6,1.8-12.1
			c1.2-3.5,2.9-6.5,5.1-8.9c2.2-2.4,4.7-4.2,7.7-5.5c2.9-1.3,6.1-1.9,9.5-1.9c3.3,0,6.2,0.4,8.6,1.3s4.5,2.1,6.1,3.6
			c1.7,1.6,3,3.4,4.1,5.6c1,2.2,1.8,4.6,2.4,7.2l-6.8,1.1c-0.5-2-1-3.7-1.8-5.3c-0.7-1.6-1.7-2.9-2.8-4c-1.1-1.1-2.5-1.9-4.1-2.5
			c-1.6-0.6-3.5-0.9-5.8-0.9c-2.7,0-5,0.5-7.1,1.6c-2.1,1.1-3.8,2.6-5.3,4.5s-2.5,4.3-3.3,7c-0.8,2.7-1.1,5.8-1.1,9.1
			s0.4,6.4,1.1,9.1c0.8,2.7,1.8,5.1,3.3,7.1s3.2,3.5,5.3,4.5c2.1,1.1,4.5,1.6,7.2,1.6c2.5,0,4.6-0.3,6.3-0.9
			c1.7-0.6,3.2-1.5,4.3-2.7s2-2.5,2.7-4.2c0.7-1.6,1.1-3.4,1.4-5.3H680.8z"/>
		<path class="st3" d="M703.4,305.6h-17.8v-6.2h42.6v6.2h-17.8v47.7h-7V305.6z"/>
		<path class="st3" d="M743.9,299.4h7.3l20.9,53.9h-7.5l-5.7-15h-23.1l-5.7,15h-7.2L743.9,299.4z M756.8,332.2l-9.5-25l-9.4,25
			H756.8z"/>
		<path class="st3" d="M778.9,299.4h6.9v22.8h27.2v-22.8h6.9v53.9h-6.9v-24.6h-27.2v24.6h-6.9V299.4z"/>
	</g>
	<g>
		<path class="st4" d="M328.9,178.5c0.6,3.8,2.1,6.5,4.5,8.2c2.4,1.7,5.9,2.5,10.7,2.5c2.4,0,4.3-0.3,5.9-0.8
			c1.6-0.5,2.9-1.2,3.8-2.1c1-0.9,1.6-1.9,2-3.1c0.4-1.2,0.6-2.4,0.6-3.7c0-1.1-0.1-2.1-0.4-3.1c-0.3-1-0.7-1.9-1.5-2.7
			c-0.7-0.8-1.7-1.5-3-2.1s-2.9-1.1-4.9-1.4l-6.8-1.2c-2.7-0.5-5-1.1-7.1-1.8c-2.1-0.8-3.8-1.7-5.2-2.9c-1.4-1.2-2.5-2.7-3.2-4.4
			c-0.7-1.8-1.1-3.9-1.1-6.4c0-2.5,0.5-4.6,1.5-6.5c1-1.9,2.4-3.4,4.2-4.7c1.8-1.3,3.8-2.2,6.3-2.8s5-0.9,7.8-0.9
			c3.6,0,6.6,0.4,8.9,1.2c2.4,0.8,4.3,1.8,5.8,3.1c1.5,1.3,2.7,2.8,3.4,4.5c0.8,1.7,1.4,3.4,1.8,5.2l-6.5,1.3
			c-0.4-1.5-0.9-2.9-1.5-4c-0.6-1.2-1.5-2.2-2.5-2.9c-1-0.8-2.3-1.4-3.8-1.8c-1.5-0.4-3.3-0.6-5.5-0.6c-2.5,0-4.5,0.2-6.2,0.7
			c-1.7,0.5-3,1.1-4,1.8c-1,0.8-1.7,1.7-2.2,2.8c-0.4,1.1-0.6,2.2-0.6,3.4c0,1.3,0.2,2.5,0.5,3.4c0.3,1,0.9,1.8,1.7,2.6
			c0.8,0.7,1.8,1.3,3.1,1.8c1.3,0.5,2.8,0.9,4.7,1.2l7.5,1.4c5.6,1.1,9.7,2.8,12.3,5.2c2.6,2.4,3.9,6,3.9,10.8
			c0,2.2-0.4,4.2-1.2,6.1c-0.8,1.9-2.1,3.5-3.7,4.9c-1.6,1.4-3.7,2.5-6.1,3.3c-2.5,0.8-5.4,1.2-8.7,1.2c-3.2,0-6-0.3-8.6-0.9
			c-2.6-0.6-4.8-1.6-6.8-3c-1.9-1.4-3.4-3.1-4.6-5.2c-1.2-2.1-1.9-4.6-2.1-7.5H328.9z"/>
		<path class="st4" d="M395.3,195.1c-3.7,0-7-0.6-10.1-1.8c-3-1.2-5.7-3-7.8-5.4c-2.2-2.4-3.9-5.3-5.1-8.9
			c-1.2-3.5-1.8-7.5-1.8-12.1s0.6-8.6,1.8-12.1c1.2-3.5,2.9-6.5,5.1-8.9c2.2-2.4,4.8-4.2,7.8-5.5c3-1.3,6.4-1.9,10-1.9
			c3.7,0,7,0.6,10.1,1.8c3,1.2,5.6,3,7.8,5.4c2.2,2.4,3.8,5.3,5.1,8.8c1.2,3.5,1.8,7.5,1.8,12s-0.6,8.6-1.8,12.1
			c-1.2,3.5-2.9,6.5-5,8.9c-2.2,2.4-4.8,4.3-7.8,5.5C402.4,194.5,399,195.1,395.3,195.1z M395.3,189.1c2.9,0,5.4-0.5,7.6-1.6
			c2.2-1.1,4-2.6,5.5-4.5c1.5-1.9,2.6-4.3,3.3-7c0.8-2.7,1.1-5.8,1.1-9.2c0-3.3-0.4-6.4-1.1-9.1c-0.8-2.7-1.9-5.1-3.4-7.1
			c-1.5-2-3.3-3.5-5.5-4.5c-2.2-1.1-4.7-1.6-7.5-1.6c-2.9,0-5.5,0.5-7.7,1.6s-4,2.6-5.5,4.5c-1.5,2-2.6,4.3-3.3,7.1
			c-0.7,2.7-1.1,5.8-1.1,9.1c0,3.4,0.4,6.4,1.1,9.2c0.7,2.7,1.8,5.1,3.3,7c1.5,1.9,3.3,3.4,5.5,4.5
			C389.7,188.6,392.3,189.1,395.3,189.1z"/>
		<path class="st4" d="M434,178.5c0.6,3.8,2.1,6.5,4.5,8.2c2.4,1.7,5.9,2.5,10.7,2.5c2.4,0,4.3-0.3,5.9-0.8c1.6-0.5,2.9-1.2,3.8-2.1
			c1-0.9,1.6-1.9,2-3.1c0.4-1.2,0.6-2.4,0.6-3.7c0-1.1-0.1-2.1-0.4-3.1c-0.3-1-0.7-1.9-1.5-2.7c-0.7-0.8-1.7-1.5-3-2.1
			s-2.9-1.1-4.9-1.4l-6.8-1.2c-2.7-0.5-5-1.1-7.1-1.8c-2.1-0.8-3.8-1.7-5.2-2.9c-1.4-1.2-2.5-2.7-3.2-4.4c-0.7-1.8-1.1-3.9-1.1-6.4
			c0-2.5,0.5-4.6,1.5-6.5c1-1.9,2.4-3.4,4.2-4.7c1.8-1.3,3.8-2.2,6.3-2.8s5-0.9,7.8-0.9c3.6,0,6.6,0.4,8.9,1.2
			c2.4,0.8,4.3,1.8,5.8,3.1c1.5,1.3,2.7,2.8,3.4,4.5c0.8,1.7,1.4,3.4,1.8,5.2l-6.5,1.3c-0.4-1.5-0.9-2.9-1.5-4
			c-0.6-1.2-1.5-2.2-2.5-2.9c-1-0.8-2.3-1.4-3.8-1.8c-1.5-0.4-3.3-0.6-5.5-0.6c-2.5,0-4.5,0.2-6.2,0.7c-1.7,0.5-3,1.1-4,1.8
			c-1,0.8-1.7,1.7-2.2,2.8c-0.4,1.1-0.6,2.2-0.6,3.4c0,1.3,0.2,2.5,0.5,3.4c0.3,1,0.9,1.8,1.7,2.6c0.8,0.7,1.8,1.3,3.1,1.8
			c1.3,0.5,2.8,0.9,4.7,1.2l7.5,1.4c5.6,1.1,9.7,2.8,12.3,5.2c2.6,2.4,3.9,6,3.9,10.8c0,2.2-0.4,4.2-1.2,6.1
			c-0.8,1.9-2.1,3.5-3.7,4.9c-1.6,1.4-3.7,2.5-6.1,3.3c-2.5,0.8-5.4,1.2-8.7,1.2c-3.2,0-6-0.3-8.6-0.9c-2.6-0.6-4.8-1.6-6.8-3
			c-1.9-1.4-3.4-3.1-4.6-5.2c-1.2-2.1-1.9-4.6-2.1-7.5H434z"/>
		<path class="st4" d="M495.4,139.9h32.2v6.1h-25.3v14.8h11.9c3.8,0,7,0.5,9.5,1.4c2.5,0.9,4.5,2.1,6,3.7c1.5,1.5,2.5,3.3,3.1,5.3
			c0.6,2,0.9,4.1,0.9,6.3c0,2.2-0.3,4.3-0.9,6.3c-0.6,2-1.7,3.7-3.2,5.2c-1.5,1.5-3.6,2.7-6.1,3.5c-2.6,0.9-5.9,1.3-9.8,1.3h-18.2
			V139.9z M502.3,166.7v21.2h11.8c2.4,0,4.4-0.2,6.1-0.6c1.6-0.4,2.9-1.1,3.9-2c1-0.9,1.6-2,2-3.2c0.4-1.3,0.6-2.8,0.6-4.4
			s-0.2-3.2-0.6-4.5c-0.4-1.4-1.1-2.5-2.2-3.4c-1-0.9-2.4-1.7-4.2-2.2c-1.7-0.5-4-0.8-6.7-0.8H502.3z"/>
		<path class="st4" d="M558.6,139.9h7.3l20.9,53.9h-7.5l-5.7-15h-23.1l-5.7,15h-7.2L558.6,139.9z M571.5,172.7l-9.5-25l-9.4,25
			H571.5z"/>
		<path class="st4" d="M631.1,145.9H614l-2.4,19.6c-0.6,5.1-1.4,9.5-2.5,13.1c-1.1,3.6-2.4,6.6-4.1,8.9c-1.6,2.3-3.6,4-5.8,5.1
			c-2.2,1.1-4.8,1.6-7.8,1.6h-1.6v-6.1h1c1.9,0,3.5-0.4,5-1.2c1.5-0.8,2.8-2.2,4-4.2c1.2-2,2.2-4.6,3.1-7.9
			c0.9-3.3,1.6-7.5,2.2-12.6l2.7-22.3h30.3v53.9h-7V145.9z"/>
		<path class="st4" d="M649,187.7c2.9-3.1,5.2-7.8,7-14.1c1.8-6.3,3.1-13.8,4-22.3l1.1-11.3h30v47.8h5.3v19.2h-6.5v-13.1h-39.1v13.1
			h-6.5v-19.2H649z M666.3,154.1c-0.8,7.6-1.9,14.3-3.4,20c-1.5,5.7-3.5,10.2-6,13.6h27.2v-41.8h-17L666.3,154.1z"/>
		<path class="st4" d="M721.7,139.9h7.3l20.9,53.9h-7.5l-5.7-15h-23.1l-5.7,15h-7.2L721.7,139.9z M734.6,172.7l-9.5-25l-9.4,25
			H734.6z"/>
		<path class="st4" d="M756.7,139.9h18c4,0,7.3,0.4,9.8,1.3c2.6,0.9,4.6,2,6.1,3.5c1.5,1.5,2.5,3.2,3.1,5.1c0.6,1.9,0.9,4,0.9,6.1
			c0,2.3-0.3,4.4-0.9,6.5c-0.6,2.1-1.7,3.9-3.2,5.4c-1.5,1.6-3.5,2.8-6.1,3.7c-2.6,0.9-5.8,1.4-9.7,1.4h-11.2v20.9h-6.9V139.9z
			 M774.7,167c2.6,0,4.8-0.3,6.5-0.8c1.7-0.5,3-1.2,4-2.2c1-1,1.6-2.1,2-3.4c0.4-1.3,0.6-2.8,0.6-4.5c0-1.7-0.2-3.2-0.6-4.5
			c-0.4-1.3-1.1-2.4-2.1-3.2c-1-0.9-2.4-1.5-4-1.9c-1.7-0.4-3.8-0.6-6.4-0.6h-11V167H774.7z"/>
	</g>
	<g>
		<path class="st4" d="M340.8,218.4h7.3l20.9,53.9h-7.5l-5.7-15h-23.1l-5.7,15h-7.2L340.8,218.4z M353.7,251.2l-9.5-25l-9.4,25
			H353.7z"/>
		<path class="st4" d="M409.2,272.2v-42.6l-26.6,42.6h-6.8v-53.9h6.8V261l26.5-42.6h6.8v53.9H409.2z M389.1,203.7
			c0.1,1.9,0.7,3.4,1.9,4.5c1.2,1.1,2.8,1.6,4.8,1.6c2.1,0,3.7-0.5,4.8-1.6c1.2-1.1,1.8-2.6,2-4.5h5c0,3.1-1,5.6-3.1,7.6
			c-2,1.9-4.9,2.9-8.7,2.9c-3.9,0-6.8-1-8.8-2.9c-2-1.9-2.9-4.5-2.9-7.6H389.1z"/>
		<path class="st4" d="M445.7,238.5c4,0,7.3,0.5,9.8,1.4c2.6,0.9,4.7,2.2,6.2,3.7c1.5,1.6,2.6,3.4,3.2,5.4c0.6,2,0.9,4.2,0.9,6.4
			c0,2.4-0.3,4.6-0.9,6.6c-0.6,2-1.7,3.8-3.3,5.3c-1.6,1.5-3.7,2.7-6.3,3.6c-2.6,0.9-6,1.3-10,1.3h-17.4v-53.9h6.9v20.1H445.7z
			 M434.7,266.4h11c2.5,0,4.5-0.2,6.2-0.6c1.7-0.4,3-1.1,4-2c1-0.9,1.8-2,2.2-3.4s0.7-2.9,0.7-4.7c0-1.8-0.2-3.4-0.6-4.8
			c-0.4-1.4-1.2-2.6-2.2-3.5c-1.1-1-2.5-1.7-4.2-2.2c-1.8-0.5-3.9-0.8-6.6-0.8h-10.5V266.4z M474,218.4h6.9v53.9H474V218.4z"/>
		<path class="st4" d="M528.8,224.3h-17.1l-2.4,19.6c-0.6,5.1-1.4,9.5-2.5,13.1c-1.1,3.6-2.4,6.6-4.1,8.9c-1.6,2.3-3.6,4-5.8,5.1
			c-2.2,1.1-4.8,1.6-7.8,1.6h-1.6v-6.1h1c1.9,0,3.5-0.4,5-1.2c1.5-0.8,2.8-2.2,4-4.2c1.2-2,2.2-4.6,3.1-7.9
			c0.9-3.3,1.6-7.5,2.2-12.6l2.7-22.3h30.3v53.9h-7V224.3z"/>
		<path class="st4" d="M546.6,266.1c2.9-3.1,5.2-7.8,7-14.1c1.8-6.3,3.1-13.8,4-22.3l1.1-11.3h30v47.8h5.3v19.2h-6.5v-13.1h-39.1
			v13.1H542v-19.2H546.6z M564,232.6c-0.8,7.6-1.9,14.3-3.4,20c-1.5,5.7-3.5,10.2-6,13.6h27.2v-41.8h-17L564,232.6z"/>
		<path class="st4" d="M619.4,218.4h7.3l20.9,53.9h-7.5l-5.7-15h-23.1l-5.7,15h-7.2L619.4,218.4z M632.3,251.2l-9.5-25l-9.4,25
			H632.3z"/>
		<path class="st4" d="M654.4,218.4h18c4,0,7.3,0.4,9.8,1.3c2.6,0.9,4.6,2,6.1,3.5c1.5,1.5,2.5,3.2,3.1,5.1c0.6,1.9,0.9,4,0.9,6.1
			c0,2.3-0.3,4.4-0.9,6.5c-0.6,2.1-1.7,3.9-3.2,5.4c-1.5,1.6-3.5,2.8-6.1,3.7c-2.6,0.9-5.8,1.4-9.7,1.4h-11.2v20.9h-6.9V218.4z
			 M672.4,245.5c2.6,0,4.8-0.3,6.5-0.8c1.7-0.5,3-1.2,4-2.2c1-1,1.6-2.1,2-3.4c0.4-1.3,0.6-2.8,0.6-4.5c0-1.7-0.2-3.2-0.6-4.5
			c-0.4-1.3-1.1-2.4-2.1-3.2c-1-0.9-2.4-1.5-4-1.9c-1.7-0.4-3.8-0.6-6.4-0.6h-11v21.2H672.4z"/>
		<path class="st4" d="M719.5,238.5c4,0,7.3,0.5,9.8,1.4c2.6,0.9,4.7,2.2,6.2,3.7c1.5,1.6,2.6,3.4,3.2,5.4c0.6,2,0.9,4.2,0.9,6.4
			c0,2.4-0.3,4.6-0.9,6.6c-0.6,2-1.7,3.8-3.3,5.3c-1.6,1.5-3.7,2.7-6.3,3.6c-2.6,0.9-6,1.3-10,1.3h-17.4v-53.9h6.9v20.1H719.5z
			 M708.6,266.4h11c2.5,0,4.5-0.2,6.2-0.6c1.7-0.4,3-1.1,4-2c1-0.9,1.8-2,2.2-3.4s0.7-2.9,0.7-4.7c0-1.8-0.2-3.4-0.6-4.8
			c-0.4-1.4-1.2-2.6-2.2-3.5c-1.1-1-2.5-1.7-4.2-2.2c-1.8-0.5-3.9-0.8-6.6-0.8h-10.5V266.4z M747.8,218.4h6.9v53.9h-6.9V218.4z"/>
	</g>
	<path class="st4" d="M197.2,164.6V188c1.7-2,3.7-5.6,3.7-11.7C200.9,170.4,198.9,166.7,197.2,164.6 M189.9,228.9
		c0.2-2.6,0.3-7.5-1.6-11.8c-2-4.4-5.3-6.9-7.2-8.1c-0.4,2.2-0.8,6.4,1.1,10.8C184.1,224.1,187.8,227.3,189.9,228.9z M194.7,188.6
		V164c-1.8,1.9-4.3,5.7-4.3,12.3C190.4,183,192.9,186.8,194.7,188.6z M209.5,220.7c1.9-4.4,1.4-8.6,1-10.8c-1.9,1.2-5.3,3.7-7.2,8.2
		c-1.9,4.4-1.7,9.2-1.5,11.9C204,228.3,207.7,225,209.5,220.7z M268.3,146.3c-11.3-9.3-32.6-10.7-72.9-10.7
		c-40.1,0-61.3,1.4-72.7,10.8c-11.3,9.4-12.4,26.5-12.4,57.4c0,31.2,1,48.3,12.3,57.7c11.3,9.3,32.5,10.7,72.7,10.7
		c40.3,0,61.6-1.4,72.9-10.7c11.3-9.4,12.3-26.6,12.3-57.7C280.7,172.8,279.7,155.7,268.3,146.3z M222.6,156c1.7-2.5,4.9-3,4.9-3
		s5.1-2.9,10.1,1c5.6,4.3,2,12.4,2,12.4s-1.1,7-1.5,8c-0.3,0.9-2.5,1.8-2.5,1.8s-1.2,0.3-2.6,0.4c-1.4,0.1-2.9-0.4-3.4-0.7
		c-0.6-0.3-0.7-1.5-0.7-1.5s-0.2-1.1-0.5-1.4c-0.3-0.3-3.4-0.5-5.4-4c-1.4-2.4-0.5-5.7-0.2-7.7C223.1,159.1,222.6,156,222.6,156z
		 M149.8,153.7c5.6-2.6,12.4-0.2,14.9,5.5c1.7,3.7,1,5.1-1.4,6.3c0.4,0.9,0.6,1.9,0.6,2.9c0,4.1-3.3,7.4-7.4,7.4
		c-3.1,0-5.7-1.9-6.8-4.5c-2.3,0.8-4,0.5-5.4-2.6C141.7,163,144.1,156.3,149.8,153.7z M269.2,246.4h-45.6l-0.3,1.1
		c0,0-2.6,8-7.6,6.7c-4.6-1.2-2.7-7.7-2.7-7.7l0-0.1h-15.8v8.8h-2.6v-8.8h-14.5l0.5,2.2c0,0,0.9,4-2.7,5.5c-3.7,1.5-5.9-3.6-5.9-3.6
		s-0.8-1.8-1.8-4.1h-48.7v-2.6h47.7c-0.4-0.9-0.7-1.9-1-2.8c-1.5-4.4-3.5-11.9-3.9-12.1c-0.4-0.3-3.4-0.3-6.8-0.7
		c-3.4-0.4-5.7-1.5-6.2-1.4c-1,0.2-8.2,9.6-13,10.6c-4.7,1-9.7-5.1-9.7-5.1l-5.8-7.6c0,0-2.3-3-0.6-4.7c2.1-2.1,4.1-0.5,4.1-0.5
		s7.9,5.1,8.8,5.6c0.6,0.4,0.8,0.1,0.8,0.1s1.3-1.2,1.9-2c0.4-0.6,0-0.9,0-0.9s-3.9-3.9-5.4-5.4c-1.3-1.3-0.1-3.3-0.1-3.3l11.6-23.1
		l-15.2,3.2c0,0-2.9,0.7-3.6-1.2c-0.6-2,2.2-3.5,2.2-3.5l20.1-11.8c0,0,0.9-0.6,1.3-0.7c0.4-0.1,1.2,0.4,1.2,0.4s2.8,2.2,6.6,2.1
		c3.8-0.1,6-2.4,6-2.4s0.5-0.5,1.2-0.7c0.7-0.1,2.4,1.7,2.4,1.7l17.8,19.7c0,0,1.9,2.1,0.5,4c-1.3,1.6-4.1-0.1-4.1-0.1
		s-11.2-6.7-11.6-6.9c-0.4-0.1-0.3,0.5-0.3,0.5l11,49.1h15v-51.7c-1.1-0.7-7-5.2-7-15.8c0-11.5,7-15.9,7.2-16.1c0.4-0.3,1-0.3,1.4,0
		c0.3,0.2,7.3,4.6,7.3,16.1c0,9.4-4.6,14-6.4,15.4v52.1h16.3l6.7-31.9c0,0,3.8-18,3.6-18.1c-0.2-0.1-13.6,8.6-13.6,8.6
		s-1.9,1.8-3.8-0.1c-2-1.9,0.9-4.4,0.9-4.4l16.9-19.7c0,0,0.6-0.7,1.3-0.7c1,0.1,1.1,0.8,1.1,0.8s1.8,4.8,2.1,4.8
		c0.3,0,2.8-2.7,2.8-2.7s1.3-1.3,2-1.4c0.7-0.1,1.1,0.5,1.1,0.5l2.7,3.9c0,0,0.7,0.9,0.9,0.9c0.2,0,0.4-0.4,0.4-0.4l3.2-6
		c0,0,0.7-1.4,1.3-1.9c0.7-0.5,2,0.4,2,0.4l19.3,11.6c0,0,2.7,1.2,1.9,3.8c-0.9,2.9-5.3,1.4-5.3,1.4s-13.3-2.7-13.4-2.6
		c-0.2,0.2,0.2,0.7,0.2,0.7s10.4,23.6,10.3,25.1c-0.1,1.1-1.4,2-1.4,2s-3.5,2.2-3.6,2.6c-0.1,0.4,0.2,0.7,0.2,0.7s1.9,2,2.4,2.1
		c0.5,0.1,1.4-0.5,1.4-0.5l6-3.2c0,0,2.9-2.3,5.1-0.1c2.2,2.2-0.8,4.8-0.8,4.8l-5.9,6.7c0,0-3.5,5.2-6.9,5.5c-3.7,0.4-7-2.8-7-2.8
		s-10.5-10.2-10.7-10.5c-0.2-0.2-0.4,0.1-0.4,0.1s-1.1,3-1.6,3.4c-0.5,0.4-1.4,0.6-1.4,0.6s-4.3,0.6-4.6,0.8c-0.2,0.1-0.4,1-0.4,1
		l-4.2,14.3h44.8V246.4z M190.6,216c3.1,7.1,1.6,15,1.5,15.4c-0.1,0.4-0.4,0.7-0.7,0.9c-0.4,0.2-0.8,0.1-1.2-0.1
		c-0.3-0.2-7.2-4.3-10.4-11.4c-3.2-7.2-1-13.9-0.9-14.2c0.1-0.3,0.4-0.6,0.7-0.7c0.3-0.1,0.7-0.1,1,0C181,206,187.4,208.8,190.6,216
		z M210.9,206.8c0.3-0.1,0.7-0.1,1,0c0.3,0.1,0.6,0.4,0.7,0.7c0.1,0.3,2.4,7-0.7,14.2c-3.1,7.1-9.9,11.4-10.2,11.6
		c-0.3,0.2-0.8,0.2-1.2,0.1c-0.4-0.2-0.6-0.5-0.7-0.9c-0.1-0.3-1.7-8.3,1.3-15.4C204.2,209.8,210.6,206.9,210.9,206.8z"/>
</g>
</svg>
