<svg width="138" height="28" viewBox="0 0 138 28" fill="none" xmlns="http://www.w3.org/2000/svg">
<path fill-rule="evenodd" clip-rule="evenodd" d="M20.2475 20.8743L23.565 24.0203C21.8605 25.7531 19.699 26.9786 17.3258 27.5577C12.6891 28.6257 8.43834 27.7848 4.73484 24.7597C2.39781 22.833 0.83746 20.1408 0.337546 17.1726C-0.308689 14.1549 -0.0226894 11.0148 1.15839 8.15992C3.05411 3.70915 6.45467 1.05126 11.2673 0.244224C13.297 -0.144534 15.3898 -0.0683545 17.3852 0.466922C19.3805 1.0022 21.2254 1.98235 22.7784 3.33221C22.9462 3.47263 23.1055 3.62148 23.2618 3.76763C23.3422 3.84279 23.4219 3.91723 23.5015 3.98944L20.2866 7.17891C20.118 7.03388 19.9273 6.87253 19.7415 6.71526L19.7407 6.71458L19.5586 6.56035C17.7757 5.15006 15.5241 4.45022 13.2461 4.59834C11.3425 4.6452 9.50522 5.29953 8.00839 6.4637C6.39571 7.76099 5.31406 9.59327 4.96448 11.62C4.48946 13.7048 4.64753 15.8819 5.41886 17.8781C6.71851 21.0676 9.13702 22.8895 12.5718 23.3437C13.9432 23.5521 15.3447 23.4422 16.6658 23.0229C17.9869 22.6035 19.1913 21.8862 20.184 20.9275L20.2475 20.8743ZM53.3232 27.5674V0.447269H53.6554H53.6557C55.5464 0.447269 57.4372 0.447269 59.3279 0.476263C61.7979 0.487166 64.2468 0.925486 66.5639 1.77139C68.3001 2.38672 69.8489 3.42994 71.0638 4.80238C72.2787 6.17482 73.1195 7.83111 73.5068 9.61458C74.2982 12.6308 74.256 15.8018 73.3846 18.7964C72.3195 22.4111 69.8766 24.8467 66.3685 26.2675C64.8203 26.8452 63.2024 27.2204 61.5559 27.3838C59.6207 27.6274 57.6856 27.6129 55.7431 27.5983H55.743H55.7427H55.7425H55.7423H55.7421C54.9875 27.5926 54.2319 27.587 53.4746 27.5964C53.4375 27.5931 53.4028 27.5852 53.3687 27.5774C53.3534 27.5739 53.3383 27.5704 53.3232 27.5674ZM57.9501 23.136C57.9973 23.136 58.041 23.1501 58.0821 23.1634C58.1091 23.1721 58.1351 23.1805 58.1602 23.1843C58.1844 23.188 58.2228 23.1889 58.2669 23.1899C58.3387 23.1915 58.4259 23.1935 58.4925 23.2085C60.3093 23.2829 62.1259 23.0558 63.8669 22.5368C64.8801 22.2667 65.8169 21.7698 66.6049 21.0843C67.3928 20.3988 68.0107 19.5433 68.4108 18.5838C69.55 15.969 69.6769 13.0312 68.7675 10.3298C68.4673 9.35139 67.9612 8.44686 67.2825 7.67562C66.6038 6.90438 65.7678 6.28388 64.8294 5.85487C63.2466 5.12023 61.516 4.75013 59.7677 4.77239C59.3253 4.77239 58.883 4.79267 58.4388 4.81303C58.2697 4.82078 58.1003 4.82855 57.9306 4.83521L57.9501 23.136ZM97.6796 27.5723V16.2642L109.069 16.2497V11.7264H97.709V4.96086H111.389V0.447269H93.0869V27.5723H97.6796ZM47.8208 10.1255C47.8247 12.1255 47.2284 14.0817 46.1075 15.7462C44.9866 17.4108 43.3916 18.709 41.5242 19.4763C39.6569 20.2437 37.6014 20.4457 35.6179 20.0568C33.6345 19.6679 31.8123 18.7056 30.3821 17.2918C28.952 15.8779 27.9782 14.0761 27.584 12.1145C27.1899 10.1528 27.3932 8.11964 28.1681 6.27235C28.943 4.42506 30.2547 2.84677 31.9372 1.73732C33.6196 0.627879 35.597 0.0371866 37.6191 0.0400523C40.3172 0.0615082 42.8987 1.13082 44.8071 3.01745C46.7155 4.90408 47.7978 7.4569 47.8208 10.1255ZM43.2476 10.1255C43.2634 9.39151 43.1298 8.66183 42.8546 7.97991C42.5795 7.298 42.1685 6.67777 41.6462 6.15614C41.1238 5.6345 40.5007 5.22211 39.8139 4.94349C39.1271 4.66487 38.3907 4.52572 37.6484 4.53431C36.9038 4.52471 36.1646 4.6615 35.4738 4.93672C34.783 5.21195 34.1544 5.62014 33.6244 6.1376C33.0944 6.65506 32.6736 7.27149 32.3864 7.9511C32.0993 8.63071 31.9514 9.35997 31.9515 10.0966C31.9601 11.5652 32.5481 12.9726 33.5903 14.0187C34.6325 15.0649 36.0465 15.6672 37.5311 15.6975C38.2775 15.7116 39.0193 15.5782 39.7129 15.3052C40.4065 15.0321 41.0381 14.6249 41.5705 14.1073C42.1029 13.5897 42.5255 12.9721 42.8135 12.2909C43.1015 11.6097 43.2491 10.8784 43.2476 10.14V10.1255ZM123.079 27.5759H127.686L127.715 27.0975V15.0887C127.719 14.8518 127.794 14.6214 127.93 14.4266C131.214 9.85825 134.502 5.29312 137.795 0.731211L138 0.421929H137.809H132.64C132.553 0.420634 132.467 0.444044 132.392 0.489414C132.318 0.534785 132.258 0.60023 132.22 0.678053C130.021 3.72899 127.821 6.77992 125.619 9.83086C125.581 9.88697 125.539 9.93906 125.494 9.99621C125.468 10.0277 125.442 10.0606 125.414 10.0967C125.374 10.0439 125.337 9.99719 125.303 9.95372L125.302 9.95308L125.302 9.95261C125.261 9.90091 125.224 9.85381 125.189 9.80671L118.569 0.702209C118.529 0.618476 118.465 0.547983 118.385 0.499141C118.305 0.450298 118.213 0.425173 118.119 0.426759H113.053C112.962 0.432171 112.872 0.445105 112.784 0.46542C112.83 0.529045 112.865 0.58249 112.897 0.63134L112.897 0.631687C112.924 0.671751 112.948 0.708729 112.975 0.745708C116.264 5.31406 119.554 9.87597 122.844 14.4314C123.003 14.6416 123.086 14.8987 123.079 15.1612V27.17V27.5759ZM77.7012 0.441409H88.3915V4.56356H85.3623V23.4346H88.5479V27.5713H77.5205V23.4491H80.6963V4.60222H77.7012V0.441409ZM46.5539 27.5803V23.1006H28.4224V27.5803H46.5539Z" fill="#009DFF"/>
</svg>
