<?xml version="1.0" encoding="UTF-8"?>
<svg id="Layer_2" data-name="Layer 2" xmlns="http://www.w3.org/2000/svg" viewBox="0 0 241.85 50.07">
  <defs>
    <style>
      .cls-1 {
        fill: #003566;
      }

      .cls-2 {
        fill: #ffc300;
      }
    </style>
  </defs>
  <g id="Layer_1-2" data-name="Layer 1">
    <g>
      <path class="cls-1" d="m5.35,35.75c0,.77-.26,1.42-.79,1.94-.52.52-1.15.79-1.89.79s-1.36-.26-1.88-.79-.77-1.15-.77-1.89c0-7.06,0-10.64-.02-10.75.02-.23.02-7.69.02-22.37C.02,1.94.28,1.31.8.79c.52-.52,1.14-.79,1.88-.79s1.37.26,1.89.79c.52.52.79,1.15.79,1.89v11.66c2.37-1.82,5.07-2.73,8.1-2.73,3.7,0,6.86,1.31,9.49,3.94,2.63,2.63,3.94,5.79,3.94,9.49s-1.31,6.86-3.94,9.49c-2.63,2.63-5.79,3.94-9.49,3.94-3.03,0-5.73-.91-8.1-2.73Zm13.81-5c1.58-1.58,2.37-3.48,2.37-5.71s-.79-4.13-2.37-5.72c-1.58-1.59-3.48-2.38-5.71-2.38s-4.13.79-5.72,2.38c-1.59,1.59-2.38,3.54-2.38,5.87.1,2.21.89,4.07,2.38,5.57,1.59,1.57,3.49,2.36,5.72,2.36s4.13-.79,5.71-2.37Z"/>
      <path class="cls-1" d="m32.09,5.77c-.52-.52-.79-1.15-.79-1.89v-1.2c0-.74.26-1.37.79-1.89s1.15-.79,1.89-.79,1.37.26,1.89.79c.52.52.79,1.15.79,1.89v1.2c0,.74-.26,1.37-.79,1.89s-1.15.79-1.89.79-1.37-.26-1.89-.79Zm0,31.92c-.52-.52-.79-1.15-.79-1.89V14.27c0-.74.26-1.36.79-1.88.52-.52,1.15-.77,1.89-.77s1.37.26,1.89.77c.52.52.79,1.14.79,1.88v21.54c0,.74-.26,1.37-.79,1.89-.52.52-1.15.79-1.89.79s-1.37-.26-1.89-.79Z"/>
      <path class="cls-1" d="m45.03,34.54c-2.64-2.63-3.95-5.79-3.95-9.49s1.32-6.87,3.95-9.5c2.64-2.62,5.79-3.93,9.48-3.93s6.86,1.31,9.49,3.94c2.63,2.63,3.94,5.79,3.94,9.49,0,.74-.26,1.37-.77,1.89s-1.14.79-1.88.79c-.15,0-.29-.02-.44-.05-.13.03-3.67.05-10.63.05-.75,0-1.39-.26-1.9-.79s-.77-1.15-.77-1.89.26-1.37.77-1.89c.52-.52,1.15-.79,1.9-.79h7.93c-.41-1.16-1.05-2.18-1.92-3.04-1.59-1.59-3.5-2.38-5.72-2.38s-4.13.79-5.72,2.38c-1.59,1.59-2.38,3.5-2.38,5.72s.79,4.13,2.38,5.71c1.59,1.58,3.5,2.37,5.72,2.37,1.39,0,2.69-.33,3.9-.98.43-.23.85-.34,1.28-.34,1.01,0,1.79.47,2.33,1.4.21.43.32.85.32,1.28,0,1.03-.46,1.81-1.38,2.33-2,1.11-4.15,1.67-6.46,1.67-3.68,0-6.84-1.31-9.48-3.94Z"/>
      <path class="cls-1" d="m81.45,38.48c-2.49,0-4.62-.89-6.41-2.66-1.79-1.78-2.68-3.92-2.68-6.42V2.68c0-.74.26-1.37.79-1.89s1.15-.79,1.89-.79,1.37.26,1.89.79c.52.52.79,1.15.79,1.89v26.72c0,1.03.36,1.91,1.09,2.64.73.73,1.61,1.09,2.64,1.09h4.71c.75,0,1.39.26,1.9.79.52.52.77,1.15.77,1.89s-.26,1.37-.77,1.89-1.15.79-1.9.79h-4.71Z"/>
      <path class="cls-2" d="m94.05,49.3c-.52-.52-.79-1.14-.79-1.88V14.27c0-.74.26-1.36.79-1.88.52-.52,1.15-.77,1.89-.77s1.37.26,1.89.77c.52.52.79,1.17.79,1.95,2.36-1.82,5.05-2.73,8.08-2.73,3.7,0,6.87,1.31,9.5,3.94s3.95,5.79,3.95,9.49-1.32,6.86-3.95,9.49-5.8,3.94-9.5,3.94c-3.03,0-5.72-.91-8.08-2.73v11.66c0,.74-.26,1.36-.79,1.88-.52.52-1.15.77-1.89.77s-1.37-.26-1.89-.77Zm18.37-18.54c1.59-1.58,2.38-3.48,2.38-5.71s-.79-4.13-2.38-5.72c-1.59-1.59-3.5-2.38-5.72-2.38s-4.13.79-5.71,2.38c-1.58,1.59-2.37,3.54-2.37,5.87.08,2.21.88,4.07,2.38,5.57,1.57,1.57,3.47,2.36,5.7,2.36s4.13-.79,5.72-2.37Z"/>
      <path class="cls-2" d="m128.51,34.54c-2.63-2.63-3.94-5.79-3.94-9.49s1.31-6.84,3.93-9.48l.02-.02c2.64-2.62,5.79-3.93,9.48-3.93s6.86,1.31,9.49,3.94c2.63,2.63,3.94,5.79,3.94,9.49s-1.31,6.86-3.94,9.49c-2.63,2.63-5.79,3.94-9.49,3.94s-6.86-1.31-9.49-3.94Zm15.2-3.78c1.58-1.58,2.37-3.48,2.37-5.71s-.79-4.13-2.37-5.72c-1.58-1.59-3.48-2.38-5.71-2.38s-4.13.79-5.72,2.38c-1.59,1.59-2.38,3.5-2.38,5.72s.79,4.13,2.38,5.71c1.59,1.58,3.5,2.37,5.72,2.37s4.13-.79,5.71-2.37Z"/>
      <path class="cls-2" d="m180.53,38.33c-.67-.23-1.19-.67-1.55-1.33l-5.13-10.26-5.13,10.26c-.25.51-.64.9-1.18,1.18-.41.2-.81.29-1.2.29-.28,0-.56-.05-.83-.15-.67-.23-1.19-.67-1.55-1.33l-10.75-21.54c-.2-.41-.29-.81-.29-1.2,0-.28.05-.56.15-.83.23-.67.67-1.19,1.33-1.55.39-.18.79-.27,1.18-.27,1.08,0,1.88.49,2.41,1.47l8.37,16.77,5.13-10.26c.54-.98,1.33-1.47,2.38-1.47.39,0,.79.1,1.2.29.54.28.93.67,1.18,1.18l5.13,10.26,8.37-16.77c.52-.98,1.33-1.47,2.41-1.47.39,0,.79.09,1.18.27.98.52,1.47,1.32,1.47,2.38,0,.39-.1.79-.29,1.2l-10.75,21.54c-.26.51-.66.9-1.2,1.18-.39.2-.79.29-1.18.29-.28,0-.56-.05-.83-.15Z"/>
      <path class="cls-2" d="m200.72,34.54c-2.64-2.63-3.95-5.79-3.95-9.49s1.32-6.87,3.95-9.5c2.64-2.62,5.79-3.93,9.48-3.93s6.86,1.31,9.49,3.94c2.63,2.63,3.94,5.79,3.94,9.49,0,.74-.26,1.37-.77,1.89s-1.14.79-1.88.79c-.15,0-.29-.02-.44-.05-.13.03-3.67.05-10.63.05-.75,0-1.39-.26-1.9-.79s-.77-1.15-.77-1.89.26-1.37.77-1.89c.52-.52,1.15-.79,1.9-.79h7.93c-.41-1.16-1.05-2.18-1.92-3.04-1.59-1.59-3.5-2.38-5.72-2.38s-4.13.79-5.72,2.38c-1.59,1.59-2.38,3.5-2.38,5.72s.79,4.13,2.38,5.71c1.59,1.58,3.5,2.37,5.72,2.37,1.39,0,2.69-.33,3.9-.98.43-.23.85-.34,1.28-.34,1.01,0,1.79.47,2.33,1.4.21.43.32.85.32,1.28,0,1.03-.46,1.81-1.38,2.33-2,1.11-4.15,1.67-6.46,1.67-3.68,0-6.84-1.31-9.48-3.94Z"/>
      <path class="cls-2" d="m228.83,37.69c-.52-.52-.79-1.15-.79-1.89V14.27c0-.74.26-1.36.79-1.88.52-.52,1.15-.77,1.89-.77,1.08,0,1.89.52,2.43,1.57,1.8-1.05,3.81-1.57,6.02-1.57.74,0,1.37.26,1.89.77.52.52.79,1.14.79,1.88s-.26,1.37-.79,1.89c-.52.52-1.15.79-1.89.79-1.67,0-3.08.5-4.22,1.5-1.03.87-1.55,1.89-1.55,3.07v14.29c0,.74-.26,1.37-.79,1.89-.52.52-1.15.79-1.89.79s-1.37-.26-1.89-.79Z"/>
    </g>
  </g>
</svg>