<?xml version="1.0" encoding="utf-8"?>
<!-- Generator: Adobe Illustrator 24.1.1, SVG Export Plug-In . SVG Version: 6.00 Build 0)  -->
<svg version="1.1" id="Слой_1" xmlns="http://www.w3.org/2000/svg" xmlns:xlink="http://www.w3.org/1999/xlink" x="0px" y="0px"
	 viewBox="0 0 841.9 283" style="enable-background:new 0 0 841.9 283;" xml:space="preserve">
<style type="text/css">
	.st0{fill:#E41F2A;}
	.st1{fill:#090400;}
</style>
<g>
	<path class="st0" d="M69.2,84.8c19.4,0,35.1-15.6,35.4-34.9h0v-0.5H86.9v0.2c-0.1,9.7-8,17.5-17.7,17.5s-17.6-7.8-17.7-17.5v-0.2
		H33.9v0.5h0C34.1,69.3,49.9,84.8,69.2,84.8z"/>
	<path class="st0" d="M86.9,85.1c-0.1,9.7-8,17.5-17.7,17.5c-4.8,0-9.1-1.9-12.3-5L44.4,110c6.4,6.3,15.2,10.2,24.8,10.2
		c19.4,0,35.1-15.6,35.4-34.9h0v-0.5H86.9V85.1z"/>
	<path class="st1" d="M249.8,100.4c3,0,5.8-0.8,8.3-2.2v1.6v0.2v0.4h8.3V100v-0.2V83.2h0c-0.4-8.8-7.6-15.9-16.5-15.9
		c-9.1,0-16.6,7.4-16.6,16.6C233.2,93,240.7,100.4,249.8,100.4z M249.8,75.6c4.6,0,8.3,3.7,8.3,8.3c0,4.6-3.7,8.3-8.3,8.3
		c-4.6,0-8.3-3.7-8.3-8.3C241.5,79.3,245.2,75.6,249.8,75.6z"/>
	<path class="st1" d="M150.4,100.4c9.1,0,16.4-7.3,16.6-16.3h0V67.3h-8.3V84c-0.1,4.5-3.7,8.2-8.3,8.2c-4.5,0-8.2-3.7-8.3-8.2V67.3
		h-8.3v16.8h0C134,93.1,141.4,100.4,150.4,100.4z"/>
	<path class="st1" d="M229.1,100.4V83.6h0c-0.1-9-7.5-16.3-16.6-16.3c-4.9,0-9.4,2.2-12.4,5.6c-3-3.4-7.5-5.6-12.4-5.6
		c-9.1,0-16.4,7.3-16.6,16.3h0v16.8h8.3V83.8c0.1-4.5,3.7-8.2,8.3-8.2c4.5,0,8.2,3.7,8.3,8.2v16.7h8.3V83.8c0.1-4.5,3.7-8.2,8.3-8.2
		c4.5,0,8.2,3.7,8.3,8.2v16.7H229.1z"/>
	<rect x="270.5" y="67.2" class="st1" width="8.3" height="33.4"/>
	<path class="st1" d="M374.5,67.7c-9.1,0-16.6,7.4-16.6,16.6c0,9.1,7.4,16.6,16.6,16.6c9.1,0,16.6-7.4,16.6-16.6
		C391.1,75.2,383.7,67.7,374.5,67.7z M374.5,92.6c-4.6,0-8.3-3.7-8.3-8.3c0-4.6,3.7-8.3,8.3-8.3c4.6,0,8.3,3.7,8.3,8.3
		C382.8,88.9,379.1,92.6,374.5,92.6z"/>
	<path class="st1" d="M411.8,100.8c9.1,0,16.4-7.3,16.6-16.3h0V67.6h-8.3v16.7c-0.1,4.5-3.7,8.2-8.3,8.2c-4.5,0-8.2-3.7-8.3-8.2
		V67.6h-8.3v16.8h0C395.4,93.5,402.7,100.8,411.8,100.8z"/>
	<path class="st1" d="M443.4,101.1v-4.2c2.8,2.2,6.4,3.6,10.3,3.6c9.1,0,16.6-7.4,16.6-16.6c0-9.1-7.4-16.6-16.6-16.6
		c-3.9,0-7.5,1.3-10.3,3.6v-3.2h-8.3v11.8v21.6v11.8h8.3V101.1z M453.7,75.7c4.6,0,8.3,3.7,8.3,8.3c0,4.6-3.7,8.3-8.3,8.3
		c-4.6,0-8.3-3.7-8.3-8.3C445.4,79.4,449.1,75.7,453.7,75.7z"/>
	<path class="st1" d="M316.6,100.8c3,0,5.8-0.8,8.3-2.2v1.8h0l0,0.5c0,1.9-1.2,3.6-3.1,4.9c-2,1.3-3.9,1.9-5.7,1.9
		c-4,0-7.1-0.7-9.4-2.3l-3.9,5.8c0.7,0.5,1.5,0.9,2.3,1.4c1,0.5,2.5,1.1,4.7,1.7c2.1,0.6,4.2,0.9,6.3,0.9c4.8,0,8.9-1.4,12.3-4.3
		c3.2-2.7,4.8-6.3,4.9-10.5h0v-0.5v-1.6V83.5h0c-0.4-8.8-7.6-15.9-16.5-15.9c-9.1,0-16.6,7.4-16.6,16.6S307.4,100.8,316.6,100.8z
		 M316.6,75.9c4.6,0,8.3,3.7,8.3,8.3c0,4.6-3.7,8.3-8.3,8.3c-4.6,0-8.3-3.7-8.3-8.3C308.3,79.6,312,75.9,316.6,75.9z"/>
	<path class="st1" d="M345.6,84.1c0.1-4.5,3.7-8.1,8.2-8.2v-8.3c-9,0-16.4,7.3-16.5,16.3h0v16.8h8.3V84.1z"/>
	<circle class="st1" cx="274.7" cy="59.6" r="5.1"/>
	<rect x="33.9" y="153.5" class="st1" width="100" height="4.1"/>
	<g>
		<path class="st1" d="M329,207.6c0.2-0.3,0.1-0.7-0.1-1l-2.1-2.1c-0.3-0.3-0.9-0.3-1.2,0c-0.7,0.8-1.1,1.8-1.4,2.7c0,0,0,0,0,0
			c0,0.1,0,0.2-0.1,0.4c0,0.1-0.1,0.3-0.1,0.4c0,0.2,0,0.3-0.1,0.5c0,0.1,0,0.3,0,0.4c0,0.1,0,0.3,0,0.4c0,0.2,0,0.5,0,0.7
			c0,0,0,0,0,0c0.2,1.7,0.9,3.3,2.2,4.6c2.1,2.1,5.1,3,8.1,2.4c1.7-0.3,3.2-1.2,4.5-2.4c2-2,3.1-4.7,3.1-7.5c0-2.8-1.1-5.5-3.1-7.5
			c-2.3-2.3-5.4-3.6-8.7-3.7l-0.3,0c-3.3,0-6.4,1.3-8.8,3.5c-0.7,0.6-1.4,1.3-2,2l-0.4,0.5l-0.4-0.5c-1.1-1.7-2.7-3.1-4.4-4
			l-0.3-0.2c-3.3-1.7-7.2-1.8-10.6-0.3l-0.2,0.1l-0.2-0.1c-3.9-1.7-8.5-1.2-12,1.2l-0.7,0.5v-1.9c0-0.4-0.4-0.8-0.8-0.8
			c0,0-1.6,0-1.6,0c0,0-1.5,0-1.5,0c-0.1,0-0.3,0-0.6,0.2c-0.1,0.1-0.2,0.3-0.2,0.6v1.9l-0.5-0.3c-1.9-1.3-4.1-2.2-6.4-2.3
			c-2.1-0.2-4,0.2-5.9,1l-0.2,0.1l-0.2-0.1c-0.9-0.4-1.9-0.7-2.8-0.8l-0.1,0l-0.8-0.1c-0.1,0-0.2,0-0.4,0l-0.2,0
			c-4-0.2-7.9,1.6-10.4,4.7l-0.4,0.5l-0.4-0.5c-2.4-3-6-4.8-9.8-4.8c-3,0-6,1.1-8.3,3.1l-0.5,0.5l-0.2-0.7
			c-3.1-9.3-11.8-15.5-21.5-15.5l-0.1,0c-0.5,0-0.9,0.5-0.9,1v2.8c0,0.5,0.4,0.9,0.9,1l0.3,0l0.1,0c9.7,0.2,17.6,8.2,17.7,17.9
			l0,0.1c0,2.9-1.4,6-3.7,7.9c-1.5,1.5-3.5,2.3-5.6,2.3c-1.8,0-3.5-0.6-4.9-1.7c-1.4-1.1-2.3-2.6-2.5-4.4c-0.1-1.9,0.6-3.6,1.9-4.9
			c0.8-0.7,1.8-1.1,2.8-1.1h0c1.1,0,2.2,0.4,3,1.3c1,1,1.1,2.5,0.4,3.7c0,0,0,0,0,0c-0.2,0.3-0.1,0.7,0.1,1l2.1,2.1
			c0.3,0.3,0.9,0.3,1.2,0c2.4-3,2.1-7.4-0.6-10.1c-2.1-2.1-5.1-3-8.1-2.4c-1.7,0.3-3.3,1.2-4.5,2.4c-2,2-3.1,4.7-3.1,7.5
			c0,2.8,1.1,5.5,3.1,7.5c2.3,2.3,5.4,3.6,8.7,3.7l0.3,0c3.3,0,6.4-1.3,8.7-3.5c0.7-0.6,1.4-1.3,2-2l0.4-0.5l0.4,0.5
			c2.3,3.5,6.2,5.5,10.4,5.5c3.8,0,7.4-1.7,9.8-4.8l0.4-0.5l0.4,0.5c2.5,3.2,6.3,4.9,10.3,4.8c0,0,0,0,0.1,0l1.4-0.1l0.1,0
			c2-0.3,3.9-1.1,5.5-2.4l0.1-0.1c0.1-0.1,0.2-0.1,0.3-0.2l0.4-0.3c0.1-0.1,0.3-0.2,0.4-0.4c1.4-1.4,2.4-3,3.1-4.8
			c0.1-0.1,0.1-0.3,0.1-0.4c0-0.4-0.4-0.7-0.8-0.7c-0.9,0-2.6,0-3.4,0c-0.3,0-0.6,0.2-0.7,0.4c-0.6,1.1-1.4,2.1-2.4,2.8
			c-0.1,0.1-0.2,0.1-0.2,0.2c-0.1,0.1-0.2,0.1-0.3,0.2c-0.1,0.1-0.3,0.2-0.4,0.2l-0.2,0.1c-0.1,0.1-0.2,0.1-0.3,0.2l-0.3,0.1
			c-0.1,0-0.2,0.1-0.3,0.1l-0.2,0.1c-0.1,0-0.2,0.1-0.3,0.1c-0.1,0-0.2,0-0.3,0.1c-0.1,0-0.2,0-0.3,0.1l-0.2,0c-0.1,0-0.3,0-0.4,0
			l-0.2,0c-0.6,0-1.1,0-1.7-0.1c-3.5-0.6-6.4-3.5-6.7-7.1c-0.4-4.6,3.3-8.5,7.8-8.5c0.2,0,0.4,0,0.6,0l0.1,0c0.2,0,0.3,0,0.5,0.1
			l0.2,0c0.2,0,0.3,0.1,0.4,0.1l0.1,0c0.2,0.1,0.4,0.1,0.7,0.2l0.1,0.1c0.2,0.1,0.4,0.1,0.5,0.2c0.1,0,0.2,0.1,0.3,0.1
			c0.1,0.1,0.2,0.1,0.3,0.2c0.1,0.1,0.2,0.1,0.3,0.2c0,0,0.1,0.1,0.1,0.1l0.1,0.1c0.1,0.1,0.2,0.1,0.2,0.2c1,0.7,1.8,1.7,2.4,2.7
			c0.1,0.3,0.4,0.4,0.7,0.4h3.4c0.3,0,0.5-0.1,0.6-0.3c0.1-0.2,0.2-0.5,0.1-0.7c-0.4-1-0.9-2-1.5-2.9l-0.6-0.8l1,0.1
			c4.1,0.3,7.3,3.7,7.3,7.8l0,11.8c0,0.4,0.4,0.8,0.8,0.8h3.1c0.4,0,0.8-0.4,0.8-0.8l0-11.5l0-0.5c0.1-4,3.2-7.3,7.2-7.5l1-0.1
			l-0.4,0.6c-1,1.5-1.8,3.1-2.1,4.9c-1.5,8,4.6,14.9,12.3,14.9c2.8,0,5.4-0.9,7.6-2.6l0.1-0.1c0.2-0.1,0.4-0.3,0.5-0.4l0.5-0.4
			l0.3,0.6c3.1,9.2,11.7,15.4,21.4,15.5h0.2c0.5,0,0.9-0.4,0.9-1v-2.8c0-0.5-0.4-1-0.9-1l-0.1,0l-0.2,0c-9.7-0.2-17.6-8.2-17.7-17.9
			l0-0.1c0-2.9,1.4-6,3.7-7.9c3.2-3.2,8.6-3.1,11.7,0.5c0.4,0.5,0.8,1.1,1,1.7c0.7,2.2,0.2,4.5-1.3,6.1c-0.6,0.6-1.4,1.1-2.2,1.3
			c-1.5,0.3-2.9-0.1-4-1.2c-0.7-0.7-1-1.7-0.8-2.6c0,0,0,0,0,0C328.6,208.3,328.8,208,329,207.6C329,207.6,329,207.6,329,207.6z
			 M254.4,209.5c-0.4,3.5-3.3,6.3-6.8,6.8c-5.1,0.7-9.4-3.7-8.8-8.8c0.4-3.5,3.3-6.3,6.8-6.8C250.7,200,255.1,204.3,254.4,209.5z
			 M315.5,210L315.5,210c-0.1,0.3-0.1,0.5-0.2,0.7l0,0.2c-0.1,0.2-0.1,0.3-0.2,0.5l-0.1,0.2c-0.1,0.2-0.2,0.4-0.3,0.6
			c-0.1,0.2-0.2,0.3-0.3,0.4l-0.1,0.1c-0.1,0.2-0.2,0.3-0.3,0.4c-1.5,2-3.8,3.2-6.3,3.2c-4.8,0-8.5-4.3-7.7-9.2
			c0.4-2.7,2.3-4.9,4.8-5.9c3.5-1.4,7.3-0.1,9.4,2.8l0.1,0.1c0.1,0.2,0.2,0.4,0.3,0.6c0.6,1.2,1,2.5,1,3.8
			C315.7,209,315.6,209.5,315.5,210z"/>
		<g>
			<path class="st1" d="M423.2,217.3c-0.6,0-0.9-0.5-0.9-1v-8.4c0-2.3-0.8-4-2.4-5.1c-1.6-1.1-3.6-1.7-6-1.7c-2.5,0-4.4,0.5-6.4,1.4
				c-0.8,0.4-1.2,1.3-0.9,2.1l0.1,0.3c0.3,0.9,1.3,1.3,2.2,1c1.7-0.6,3.4-0.9,4.8-0.9c2.4,0,4.2,1.1,4.2,3v1h-5.4
				c-5.1,0-7.6,3-7.6,6.7c0,3.5,2.5,5.7,6.4,5.7c3.2,0,5.6-0.9,7.2-2.5c0.7,1.5,2,2.2,3.9,2.2h0.3c0.9,0,1.7-0.8,1.7-1.7v-1
				C424.4,217.8,423.9,217.3,423.2,217.3z M412.5,217.4c-1.6,0-3-0.7-3-2c0-1.6,0.6-2.7,3.4-2.7h5
				C417.9,215.4,416.4,217.4,412.5,217.4z"/>
			<path class="st1" d="M437.5,201.2c-2.5,0-4.6,1-6.2,2.9v-0.8c0-0.9-0.8-1.7-1.7-1.7h-0.7c-0.9,0-1.7,0.8-1.7,1.7v23.4
				c0,0.9,0.8,1.7,1.7,1.7h1.2c0.9,0,1.7-0.8,1.7-1.7v-7.1c1.4,1.3,3.3,2,5.5,2c5.8,0,9.2-3.8,9.2-10.2c0-3.1-0.8-5.5-2.4-7.3
				C442.4,202.1,440.2,201.2,437.5,201.2z M436.7,217.4c-3.1,0-5-2.1-5-6V211c0-3.7,2-5.8,5.1-5.8c3.1,0,4.9,2.4,4.9,6.1
				C441.8,215,439.9,217.4,436.7,217.4z"/>
			<path class="st1" d="M490.9,216.9h-1.2v-13.6c0-0.9-0.8-1.7-1.7-1.7h-10.3c-1.3,0-2.4,1-2.5,2.3c-0.4,4.9-0.9,8.2-1.4,10
				c-0.6,2-1.4,3-1.4,3H471c-0.9,0-1.7,0.8-1.7,1.7v5.7c0,0.9,0.8,1.7,1.7,1.7h1c0.9,0,1.7-0.8,1.7-1.7v-3.1h14.3v3.1
				c0,0.9,0.8,1.7,1.7,1.7h1.1c0.9,0,1.7-0.8,1.7-1.7l0-5.7C492.6,217.6,491.8,216.9,490.9,216.9z M485.1,216.9h-7.9
				c1.1-2,1.8-5.8,2.2-11.1h5.7V216.9z"/>
			<path class="st1" d="M511.4,201.5h-1.1c-0.9,0-1.7,0.8-1.7,1.7v5.6h-8.6v-5.6c0-0.9-0.8-1.7-1.7-1.7H497c-0.9,0-1.7,0.8-1.7,1.7
				v16.1c0,0.9,0.8,1.7,1.7,1.7h1.2c0.9,0,1.7-0.8,1.7-1.7V213h8.6v6.4c0,0.9,0.8,1.7,1.7,1.7h1.1c0.9,0,1.7-0.8,1.7-1.7v-16.1
				C513.1,202.3,512.3,201.5,511.4,201.5z"/>
			<path class="st1" d="M526,207.7h-3.6v-4.5c0-0.9-0.8-1.7-1.7-1.7h-1.2c-0.9,0-1.7,0.8-1.7,1.7v16.1c0,0.9,0.8,1.7,1.7,1.7h6.5
				c4.2,0,6.9-2.6,6.9-6.6C532.9,210.3,530.1,207.7,526,207.7z M526,216.8h-3.6V212h3.6c1.5,0,2.4,1,2.4,2.5
				C528.4,215.9,527.4,216.8,526,216.8z"/>
			<path class="st1" d="M537.8,201.5h-1.2c-0.9,0-1.7,0.8-1.7,1.7v16.1c0,0.9,0.8,1.7,1.7,1.7h1.2c0.9,0,1.7-0.8,1.7-1.7v-16.1
				C539.5,202.3,538.7,201.5,537.8,201.5z"/>
			<path class="st1" d="M560.5,201.5H559c-0.8,0-1.6,0.4-2.1,1.1l-8.2,11.8v-11.2c0-0.9-0.8-1.7-1.7-1.7h-1.2
				c-0.9,0-1.7,0.8-1.7,1.7v16.1c0,0.9,0.8,1.7,1.7,1.7h1.4c0.8,0,1.6-0.4,2.1-1.1l8.2-11.8v11.2c0,0.9,0.8,1.7,1.7,1.7h1.2
				c0.9,0,1.7-0.8,1.7-1.7v-16.1C562.2,202.3,561.5,201.5,560.5,201.5z"/>
			<path class="st1" d="M553.2,199.8c2.5,0,4.4-1.4,5.2-3.3c0.3-0.8-0.3-1.8-1.2-1.8h-0.5c-0.5,0-1,0.3-1.2,0.8
				c-0.3,0.8-1.2,1.4-2.3,1.4c-1,0-1.9-0.5-2.2-1.4c-0.2-0.5-0.7-0.8-1.2-0.8h-0.5c-0.9,0-1.5,0.9-1.2,1.8
				C548.8,198.3,550.7,199.8,553.2,199.8z"/>
			<path class="st1" d="M399.9,201.5h-1.1c-0.9,0-1.7,0.8-1.7,1.7v5.6h-8.6v-5.6c0-0.9-0.8-1.7-1.7-1.7h-1.2c-0.9,0-1.7,0.8-1.7,1.7
				v16.1c0,0.9,0.8,1.7,1.7,1.7h1.2c0.9,0,1.7-0.8,1.7-1.7V213h8.6v6.4c0,0.9,0.8,1.7,1.7,1.7h1.1c0.9,0,1.7-0.8,1.7-1.7v-16.1
				C401.6,202.3,400.9,201.5,399.9,201.5z"/>
			<path class="st1" d="M461.4,201.4c0.1,0,0.2-0.1,0.3-0.1l5.1-2.6c1.5-0.7,2.4-2.3,2.4-3.9v-6.2h-0.4c0,1.7-0.9,3.2-2.4,3.9
				l-5.1,2.6c-1.5,0.7-2.4,2.3-2.4,3.9v2.2c-5.5,0.1-10,4.6-10,10.2c0,5.6,4.6,10.2,10.2,10.2c5.6,0,10.2-4.6,10.2-10.2
				C469.2,206.5,465.8,202.5,461.4,201.4z M459,217.5c-3,0-5.4-2.7-5.4-6.1c0-3.3,2.3-6,5.2-6.1v0c0.1,0,0.1,0,0.2,0
				c0.1,0,0.1,0,0.2,0v0c0-0.6,0.1-1.2,0.3-1.7c-0.2,0.5-0.3,1.1-0.3,1.7v0c2.9,0.1,5.2,2.8,5.2,6.1
				C464.4,214.7,462,217.5,459,217.5z"/>
		</g>
		<g>
			<path class="st1" d="M59.9,213.8c0.3-0.8,0.6-1.6,0.8-2.4l-3.3-3.3c-0.1,0-0.2,0.1-0.3,0.1l0,0c-0.2,0.1-0.5,0.2-0.7,0.3
				c-0.5,0.2-1,0.4-1.5,0.6c-1.1,0.3-2.2,0.5-3.3,0.5c-1.2,0-2.3-0.1-3.4-0.4c-0.3-0.1-0.6-0.2-0.9-0.3c-0.1,0-0.1,0-0.2-0.1
				l-3.7,3.7c0.6,0.3,1.3,0.7,1.9,1c0.6,0.3,2.4,1,4.5,1.1c1.1,0.1,2.1,0,2.3,0c0.6-0.1,1.1-0.2,1.5-0.3c-0.5,0.6-1.4,1.4-2.9,2
				c-2.9,1.2-5.5,0.3-6.2,0c-3.5-1.4-4.8-4.6-5-5c0,0,0,0,0-0.1c-0.6-1.5-0.7-3-0.4-4.5c0.1-0.7,0.3-1.3,0.6-2
				c0.1-0.2,0.2-0.4,0.3-0.6c0.3-0.7,0.8-1.3,1.3-1.8c0.3-0.4,0.7-0.7,1.1-1c1.3-1,2.9-1.6,4.7-1.8c0.4,0,0.8,0,1.2,0
				c2.3,0.2,4.2,1.1,5.6,2.6l3.4-3.6c-0.3-0.3-0.7-0.7-1-1c-1.9-1.6-4.2-2.6-6.7-2.9c-2.3-0.3-4.7,0-6.8,0.8c-0.7,0.3-1.4,0.6-2.1,1
				c-0.9,0.5-1.7,1.1-2.4,1.8c-0.7,0.7-1.3,1.4-1.9,2.3c-0.5,0.7-0.8,1.4-1.1,2.1c-1.4,3.3-1.5,7-0.2,10.4l0.1,0.2
				c1.4,3.4,4,5.9,7.1,7.2c3.2,1.4,6.9,1.6,10.4,0.2C55.8,219.7,58.4,217.1,59.9,213.8z"/>
			<path class="st1" d="M124.7,219.5c1.6-1.4,2.3-3.2,2.3-5.4c0.1-2.7-1.1-4.7-3.3-6l-0.4-0.2l0.3-0.3c1.6-1.3,2.4-3,2.4-5.2
				c0-2.1-0.8-3.9-2.3-5.3c-1.6-1.4-3.4-2.1-5.7-2.1h-11.8v26.6h12.6C121.2,221.6,123.1,220.9,124.7,219.5z M111.1,199.5h7
				c1.8,0,3.2,1.4,3.2,3.3c0,1.9-1.4,3.3-3.2,3.3h-4.3h-2.7V199.5z M111.1,210.3h7.8c2,0,3.4,1.5,3.4,3.5s-1.4,3.5-3.4,3.5h-7.8
				V210.3z"/>
			<path class="st1" d="M170.2,210.5c-0.5-0.8-1.5-1.7-2.4-2.3c-0.3-0.2-0.9-0.5-1.6-0.8c-0.7-0.3-1.3-0.5-1.7-0.6l-1.8-0.6
				c-1.9-0.6-3.3-1.1-4-1.7c-0.7-0.6-1.1-1.3-1.1-2.2c0-1.7,1.5-2.8,3.6-2.8c1.2,0,2.1,0.4,2.7,0.7c1.1,0.5,2.1,1.4,2.9,2.4l0.1,0.1
				l3.4-3.4l-0.1-0.1c-1-1.2-2.2-2.2-3.6-2.9c-0.7-0.4-2.7-1.5-5.4-1.5c-2.4,0-4.4,0.7-6.1,2.1c-1.6,1.4-2.5,3.2-2.5,5.6
				c0,2.3,0.8,4.1,2.4,5.3c1.7,1.2,3.1,1.7,5.4,2.4c2.1,0.6,3.7,1.2,4.5,1.7c0.9,0.5,1.3,1.3,1.3,2.3c0,0.5-0.1,0.9-0.3,1.3
				c-0.8,1.5-3.3,1.7-4.1,1.7c-2,0.1-3.4-0.7-3.9-1c-0.8-0.5-1.6-1.2-2.1-2l-0.1-0.1l-3.4,3.4l0.1,0.1c0.3,0.5,0.7,0.9,1.1,1.4
				c2,2,4.8,3.1,8.1,3.1c2.8,0,5.1-0.7,6.8-2.1c1.8-1.4,2.6-3.3,2.6-5.7C171.1,212.8,170.8,211.5,170.2,210.5z"/>
			<polygon class="st1" points="76.7,217.2 67.8,217.2 67.8,195.1 63,195.1 63,221.7 76.7,221.7 			"/>
			<path class="st1" d="M132.5,219.4c1.8,1.6,4.1,2.4,6.9,2.6h0.6c3-0.1,5.4-0.9,7.3-2.6c2-1.7,3-4.1,3-7v-17v-0.3h-4.7v0.3h0v16.6
				c0,3.4-2,5.4-5.6,5.5c-3.6-0.1-5.6-2.1-5.6-5.5v-16.6v-0.3h-4.7v0.3v17C129.5,215.3,130.5,217.6,132.5,219.4z"/>
			<path class="st1" d="M103.9,207.3c-0.5-6.6-5.9-11.9-12.5-12.5c-8.4-0.7-15.3,6.3-14.7,14.7c0.5,6.6,5.9,11.9,12.5,12.5
				C97.6,222.6,104.5,215.7,103.9,207.3z M98.9,209.5c-0.5,3.9-3.6,7-7.5,7.5c-5.7,0.7-10.5-4.1-9.8-9.8c0.5-3.9,3.6-7,7.5-7.5
				C94.8,199,99.6,203.9,98.9,209.5z"/>
		</g>
		<g>
			<path class="st1" d="M781.9,223.5c-5.6-2.7-8.7-8.3-8.7-14.6c0-9.6,7.6-17.4,17.4-17.4h0c9.8,0,17.4,7.8,17.4,17.4
				c0,6.3-3.2,11.9-8.7,14.6C794.1,226.1,787.1,226.1,781.9,223.5 M790.6,196c1.8,5.9,7,14.6,10.8,18.9h-9l0,2.6c0,1.5,1.2,3,2.9,3
				c2.4,0,5.3-1.1,7.1-4.1c1.3-2.2,2.2-3.9,2.2-7.4c0-7.6-6.1-13.9-13.9-13.9c-7.8,0-13.9,6.3-13.9,13.9c0,3.5,0.9,5.2,2.2,7.4
				c1.8,3,4.7,4.1,7.1,4.1c1.7,0,2.9-1.5,2.9-3l0-2.6h-9C783.6,210.6,788.9,201.9,790.6,196"/>
			<g>
				<path class="st1" d="M715.7,203.3c-0.3,0-0.5,0.2-0.7,0.5c-0.4,0.5-4.5,6.5-4.5,6.5h10.4c0,0-4.1-6-4.5-6.5
					C716.2,203.4,716,203.3,715.7,203.3z"/>
				<path class="st1" d="M601.8,192.1v32.7h163.4v-32.7H601.8z M660,218.5h-15.2c-4.3,0-4.1-4.2-4.1-4.2h18.7c0.7,0,1.8-0.7,1.8-1.8
					c0-1-0.9-1.9-1.6-1.9h-12.8c-3.5,0-6.2-2.6-6.2-6.2c0-4,3.4-6.1,5.3-6.1h15c3.6,0,3.9,4.2,3.9,4.2l-18.3,0
					c-0.9,0-1.7,0.7-1.7,1.9c0,1.3,1,2,1.6,2h13.1c2.5,0,6,2.1,6,5.8C665.6,216.8,661.5,218.5,660,218.5z M698.8,205
					c0,4-3.4,6-5.7,6h-9.6c-1.7,0-3.8-1.4-3.8-4.3h12.8c0.7,0,1.8-0.6,1.8-1.9c0-1.2-1-2-1.8-2l-14.4,0l0,13.4
					c0,1.5-1.1,2.5-2.3,2.5c-1.1,0-2.2-1-2.2-2.4v-13.7c0-2.3,2.4-4.1,4-4.1h15.4c2.2,0,5.7,1.9,5.7,6.4V205z M729.1,218.1
					c-1,0.6-2,0.6-2.9-0.4l-2.4-3.4h-16.2l-2.4,3.4c-0.9,1-1.9,1-2.9,0.4c-1-0.7-1.2-1.9-0.6-2.8l10.3-14.7c1.3-1.8,2.3-2.3,3.7-2.3
					c1.4,0,2.4,0.5,3.7,2.3l10.3,14.7C730.3,216.2,730.1,217.5,729.1,218.1z M760.8,217.9c-0.9,0.8-2.3,0.9-3,0
					c-1-1.2-2.2-2.8-5.4-6.9h-6.3c-1.7,0-3.9-1.3-3.9-4.3h13.1c0.7,0,1.8-0.7,1.8-2c0-1.2-1-2-1.8-2h-14.4l0,13.4
					c0,1.5-1.1,2.5-2.3,2.5c-1.1,0-2.2-1-2.2-2.4v-13.7c0-2.3,2.4-4.1,4-4.1h15.4c2.2,0,5.7,1.9,5.7,6.4v0.3c0,2.4-1.5,4.5-3.5,5.5
					c0,0,0.1,0.2,3.3,4.6C761.7,215.7,761.7,217.1,760.8,217.9z"/>
			</g>
		</g>
	</g>
</g>
</svg>
