<svg width="36" height="36" viewBox="0 0 36 36" fill="none" xmlns="http://www.w3.org/2000/svg">
    <path d="M18.5625 7.875C18.5625 7.12908 18.2662 6.41371 17.7387 5.88626C17.2113 5.35882 16.4959 5.0625 15.75 5.0625H14.625V1.6875C14.625 1.53832 14.5657 1.39524 14.4602 1.28975C14.3548 1.18426 14.2117 1.125 14.0625 1.125H1.6875C1.53832 1.125 1.39524 1.18426 1.28975 1.28975C1.18426 1.39524 1.125 1.53832 1.125 1.6875V14.0625C1.125 14.2117 1.18426 14.3548 1.28975 14.4602C1.39524 14.5657 1.53832 14.625 1.6875 14.625H4.5C4.64918 14.625 4.79226 14.5657 4.89775 14.4602C5.00324 14.3548 5.0625 14.2117 5.0625 14.0625V13.5C5.0625 12.7541 5.35882 12.0387 5.88626 11.5113C6.41371 10.9838 7.12908 10.6875 7.875 10.6875C8.62092 10.6875 9.33629 10.9838 9.86374 11.5113C10.3912 12.0387 10.6875 12.7541 10.6875 13.5V14.0625C10.6875 14.2117 10.7468 14.3548 10.8523 14.4602C10.9577 14.5657 11.1008 14.625 11.25 14.625H14.0625C14.2117 14.625 14.3548 14.5657 14.4602 14.4602C14.5657 14.3548 14.625 14.2117 14.625 14.0625V10.6875H15.75C16.4959 10.6875 17.2113 10.3912 17.7387 9.86374C18.2662 9.33629 18.5625 8.62092 18.5625 7.875ZM34.3125 1.125H21.9375C21.7883 1.125 21.6452 1.18426 21.5398 1.28975C21.4343 1.39524 21.375 1.53832 21.375 1.6875V4.5C21.375 4.64918 21.4343 4.79226 21.5398 4.89775C21.6452 5.00324 21.7883 5.0625 21.9375 5.0625H22.5C23.2459 5.0625 23.9613 5.35882 24.4887 5.88626C25.0162 6.41371 25.3125 7.12908 25.3125 7.875C25.3125 8.62092 25.0162 9.33629 24.4887 9.86374C23.9613 10.3912 23.2459 10.6875 22.5 10.6875H21.9375C21.7883 10.6875 21.6452 10.7468 21.5398 10.8523C21.4343 10.9577 21.375 11.1008 21.375 11.25V14.0625C21.375 14.2117 21.4343 14.3548 21.5398 14.4602C21.6452 14.5657 21.7883 14.625 21.9375 14.625H25.3125V15.75C25.3125 16.4959 25.6088 17.2113 26.1363 17.7387C26.6637 18.2662 27.3791 18.5625 28.125 18.5625C28.8709 18.5625 29.5863 18.2662 30.1137 17.7387C30.6412 17.2113 30.9375 16.4959 30.9375 15.75V14.625H34.875V1.6875C34.875 1.53832 34.8157 1.39524 34.7102 1.28975C34.6048 1.18426 34.4617 1.125 34.3125 1.125ZM34.3125 21.375H31.5C31.3508 21.375 31.2077 21.4343 31.1023 21.5398C30.9968 21.6452 30.9375 21.7883 30.9375 21.9375V22.5C30.9375 23.2459 30.6412 23.9613 30.1137 24.4887C29.5863 25.0162 28.8709 25.3125 28.125 25.3125C27.3791 25.3125 26.6637 25.0162 26.1363 24.4887C25.6088 23.9613 25.3125 23.2459 25.3125 22.5V21.9375C25.3125 21.7883 25.2532 21.6452 25.1477 21.5398C25.0423 21.4343 24.8992 21.375 24.75 21.375H21.9375C21.7883 21.375 21.6452 21.4343 21.5398 21.5398C21.4343 21.6452 21.375 21.7883 21.375 21.9375V25.3125H20.25C19.5041 25.3125 18.7887 25.6088 18.2613 26.1363C17.7338 26.6637 17.4375 27.3791 17.4375 28.125C17.4375 28.8709 17.7338 29.5863 18.2613 30.1137C18.7887 30.6412 19.5041 30.9375 20.25 30.9375H21.375V34.3125C21.375 34.4617 21.4343 34.6048 21.5398 34.7102C21.6452 34.8157 21.7883 34.875 21.9375 34.875H34.3125C34.4617 34.875 34.6048 34.8157 34.7102 34.7102C34.8157 34.6048 34.875 34.4617 34.875 34.3125V21.9375C34.875 21.7883 34.8157 21.6452 34.7102 21.5398C34.6048 21.4343 34.4617 21.375 34.3125 21.375ZM14.0625 21.375H10.6875V20.25C10.6875 19.5041 10.3912 18.7887 9.86374 18.2613C9.33629 17.7338 8.62092 17.4375 7.875 17.4375C7.12908 17.4375 6.41371 17.7338 5.88626 18.2613C5.35882 18.7887 5.0625 19.5041 5.0625 20.25V21.375H1.6875C1.53832 21.375 1.39524 21.4343 1.28975 21.5398C1.18426 21.6452 1.125 21.7883 1.125 21.9375V34.3125C1.125 34.4617 1.18426 34.6048 1.28975 34.7102C1.39524 34.8157 1.53832 34.875 1.6875 34.875H14.0625C14.2117 34.875 14.3548 34.8157 14.4602 34.7102C14.5657 34.6048 14.625 34.4617 14.625 34.3125V31.5C14.625 31.3508 14.5657 31.2077 14.4602 31.1023C14.3548 30.9968 14.2117 30.9375 14.0625 30.9375H13.5C12.7541 30.9375 12.0387 30.6412 11.5113 30.1137C10.9838 29.5863 10.6875 28.8709 10.6875 28.125C10.6875 27.3791 10.9838 26.6637 11.5113 26.1363C12.0387 25.6088 12.7541 25.3125 13.5 25.3125H14.0625C14.2117 25.3125 14.3548 25.2532 14.4602 25.1477C14.5657 25.0423 14.625 24.8992 14.625 24.75V21.9375C14.625 21.7883 14.5657 21.6452 14.4602 21.5398C14.3548 21.4343 14.2117 21.375 14.0625 21.375Z" fill="#43A047"/>
    </svg>
    