<svg width="28" height="32" viewBox="0 0 28 32" fill="none" xmlns="http://www.w3.org/2000/svg">
    <path d="M10.9238 8.72363H19.4288V12.5936H10.9238V8.72363Z" fill="#00AEEF"/>
    <path d="M1.125 24.7552C0.826631 24.7552 0.540483 24.8737 0.329505 25.0847C0.118526 25.2957 0 25.5818 0 25.8802C0 26.1786 0.118526 26.4647 0.329505 26.6757C0.540483 26.8867 0.826631 27.0052 1.125 27.0052H2.7225V30.3802C2.7225 30.6786 2.84103 30.9647 3.052 31.1757C3.26298 31.3867 3.54913 31.5052 3.8475 31.5052H22.3088C23.6771 31.5664 25.0142 31.0838 26.028 30.1627C27.0418 29.2416 27.6501 27.9569 27.72 26.5889V4.92144C27.6501 3.55348 27.0418 2.26873 26.028 1.34766C25.0142 0.426581 23.6771 -0.0560254 22.3088 0.00518641H3.8475C3.54913 0.00518641 3.26298 0.123713 3.052 0.334691C2.84103 0.54567 2.7225 0.831818 2.7225 1.13019V5.30394H1.125C0.826631 5.30394 0.540483 5.42246 0.329505 5.63344C0.118526 5.84442 0 6.13057 0 6.42894C0 6.7273 0.118526 7.01345 0.329505 7.22443C0.540483 7.43541 0.826631 7.55394 1.125 7.55394H2.7225V9.43269H1.125C0.826631 9.43269 0.540483 9.55121 0.329505 9.76219C0.118526 9.97317 0 10.2593 0 10.5577C0 10.8561 0.118526 11.1422 0.329505 11.3532C0.540483 11.5642 0.826631 11.6827 1.125 11.6827H2.7225V14.9114H1.125C0.826631 14.9114 0.540483 15.03 0.329505 15.2409C0.118526 15.4519 0 15.7381 0 16.0364C0 16.3348 0.118526 16.621 0.329505 16.8319C0.540483 17.0429 0.826631 17.1614 1.125 17.1614H2.7225V20.1202H1.125C0.826631 20.1202 0.540483 20.2387 0.329505 20.4497C0.118526 20.6607 0 20.9468 0 21.2452C0 21.5436 0.118526 21.8297 0.329505 22.0407C0.540483 22.2517 0.826631 22.3702 1.125 22.3702H2.7225V24.7552H1.125ZM8.67375 7.59894C8.67375 7.30057 8.79228 7.01442 9.00325 6.80344C9.21423 6.59246 9.50038 6.47394 9.79875 6.47394H20.5538C20.8521 6.47394 21.1383 6.59246 21.3492 6.80344C21.5602 7.01442 21.6788 7.30057 21.6788 7.59894V13.7189C21.6788 14.0173 21.5602 14.3035 21.3492 14.5144C21.1383 14.7254 20.8521 14.8439 20.5538 14.8439H9.79875C9.50038 14.8439 9.21423 14.7254 9.00325 14.5144C8.79228 14.3035 8.67375 14.0173 8.67375 13.7189V7.59894Z" fill="#00AEEF"/>
    </svg>
    