<svg xmlns="http://www.w3.org/2000/svg" width="37" height="36" viewBox="0 0 37 36" fill="none">
  <path d="M25.25 18.5625C26.182 18.5625 26.9375 18.0588 26.9375 17.4375C26.9375 16.8162 26.182 16.3125 25.25 16.3125C24.318 16.3125 23.5625 16.8162 23.5625 17.4375C23.5625 18.0588 24.318 18.5625 25.25 18.5625Z" fill="#43A047"/>
  <path d="M11.75 18.5625C12.682 18.5625 13.4375 18.0588 13.4375 17.4375C13.4375 16.8162 12.682 16.3125 11.75 16.3125C10.818 16.3125 10.0625 16.8162 10.0625 17.4375C10.0625 18.0588 10.818 18.5625 11.75 18.5625Z" fill="#43A047"/>
  <path d="M18.5 17.4375C19.432 17.4375 20.1875 16.9338 20.1875 16.3125C20.1875 15.6912 19.432 15.1875 18.5 15.1875C17.568 15.1875 16.8125 15.6912 16.8125 16.3125C16.8125 16.9338 17.568 17.4375 18.5 17.4375Z" fill="#43A047"/>
  <path d="M34.25 15.1875C34.25 16.5037 32.9844 17.7131 30.8694 18.6694C30.8741 18.634 30.8759 18.5982 30.875 18.5625C30.875 15.7669 25.3344 13.5 18.5 13.5C11.6656 13.5 6.125 15.7669 6.125 18.5625C6.12407 18.5982 6.12595 18.634 6.13063 18.6694C4.01563 17.7131 2.75 16.5037 2.75 15.1875C2.75 12.0825 9.80375 9.5625 18.5 9.5625C27.1963 9.5625 34.25 12.0825 34.25 15.1875Z" fill="#43A047"/>
  <path d="M34.0138 17.9824C32.737 25.6605 26.2738 31.4993 18.5001 31.4993C10.7263 31.4993 4.2632 25.6605 2.98633 17.9824C3.7771 18.7007 4.68445 19.2789 5.66945 19.6924C8.81945 21.1212 13.4995 21.9368 18.5001 21.9368C23.5007 21.9368 28.1807 21.1212 31.3307 19.6924C32.3157 19.2789 33.2231 18.7007 34.0138 17.9824Z" fill="#43A047"/>
  <path d="M30.875 31.4322C30.875 33.6429 25.3344 35.4372 18.5 35.4372C11.6656 35.4372 6.125 33.6429 6.125 31.4322C6.125 30.5772 6.95187 29.7841 8.36375 29.1372C11.2592 31.3972 14.8269 32.6247 18.5 32.6247C22.1731 32.6247 25.7408 31.3972 28.6362 29.1372C30.0481 29.7841 30.875 30.5772 30.875 31.4322ZM17.9375 8.43723C17.8121 8.43732 17.6902 8.39548 17.5912 8.31835C17.4923 8.24122 17.422 8.13324 17.3915 8.01156C17.361 7.88988 17.372 7.7615 17.4228 7.64681C17.4736 7.53212 17.5614 7.43772 17.672 7.3786C17.8756 7.2742 18.0547 7.12775 18.1974 6.94893C18.3402 6.77012 18.4433 6.56302 18.5 6.34135C18.5456 5.82104 18.0297 5.29173 17.5887 4.93904C16.6325 4.17291 16.1825 3.36966 16.2613 2.5501C16.3384 2.14451 16.5055 1.76138 16.7502 1.42885C16.9949 1.09633 17.3111 0.822881 17.6754 0.628601C17.8066 0.559889 17.9597 0.545742 18.1014 0.589233C18.243 0.632723 18.3617 0.730339 18.4318 0.860877C18.5019 0.991415 18.5177 1.14433 18.4757 1.28642C18.4337 1.4285 18.3373 1.54828 18.2075 1.61973C18.0041 1.72452 17.8252 1.87125 17.6827 2.05023C17.5402 2.22922 17.4372 2.4364 17.3806 2.6581C17.3351 3.17841 17.8509 3.70773 18.2919 4.06041C19.2481 4.82654 19.6981 5.62979 19.6194 6.44935C19.5422 6.85494 19.3751 7.23808 19.1304 7.5706C18.8857 7.90312 18.5695 8.17657 18.2052 8.37085C18.1229 8.41486 18.0309 8.43767 17.9375 8.43723ZM22.4375 8.99973C22.3121 8.99982 22.1902 8.95798 22.0912 8.88085C21.9923 8.80372 21.922 8.69574 21.8915 8.57406C21.861 8.45238 21.872 8.324 21.9228 8.20931C21.9736 8.09462 22.0614 8.00022 22.172 7.9411C22.375 7.83633 22.5534 7.68971 22.6956 7.51091C22.8377 7.33212 22.9403 7.12521 22.9966 6.90385C23.0422 6.38354 22.5264 5.85423 22.0854 5.50154C21.1291 4.73541 20.6791 3.93216 20.7579 3.1126C20.835 2.70701 21.0021 2.32388 21.2469 1.99135C21.4916 1.65883 21.8077 1.38538 22.172 1.1911C22.3033 1.12239 22.4563 1.10824 22.598 1.15173C22.7396 1.19522 22.8584 1.29284 22.9285 1.42338C22.9985 1.55391 23.0143 1.70683 22.9723 1.84892C22.9303 1.991 22.8339 2.11078 22.7041 2.18223C22.5007 2.28702 22.3219 2.43375 22.1793 2.61273C22.0368 2.79172 21.9338 2.9989 21.8773 3.2206C21.8317 3.74091 22.3475 4.27023 22.7885 4.62291C23.7448 5.38904 24.1947 6.19229 24.116 7.01185C24.0388 7.41744 23.8717 7.80058 23.627 8.1331C23.3823 8.46562 23.0662 8.73907 22.7019 8.93335C22.6205 8.97682 22.5297 8.99961 22.4375 8.99973ZM13.4375 8.99973C13.3121 8.99982 13.1902 8.95798 13.0912 8.88085C12.9923 8.80372 12.922 8.69574 12.8915 8.57406C12.861 8.45238 12.872 8.324 12.9228 8.20931C12.9736 8.09462 13.0614 8.00022 13.172 7.9411C13.3756 7.8367 13.5547 7.69025 13.6974 7.51143C13.8402 7.33262 13.9433 7.12552 14 6.90385C14.0456 6.38354 13.5297 5.85423 13.0887 5.50154C12.1325 4.73541 11.6825 3.93216 11.7613 3.1126C11.8384 2.70701 12.0055 2.32388 12.2502 1.99135C12.4949 1.65883 12.8111 1.38538 13.1754 1.1911C13.3066 1.12239 13.4597 1.10824 13.6014 1.15173C13.743 1.19522 13.8617 1.29284 13.9318 1.42338C14.0019 1.55391 14.0177 1.70683 13.9757 1.84892C13.9337 1.991 13.8373 2.11078 13.7075 2.18223C13.5041 2.28702 13.3252 2.43375 13.1827 2.61273C13.0402 2.79172 12.9372 2.9989 12.8806 3.2206C12.8351 3.74091 13.3509 4.27023 13.7919 4.62291C14.7481 5.38904 15.1981 6.19229 15.1194 7.01185C15.0422 7.41744 14.8751 7.80058 14.6304 8.1331C14.3857 8.46562 14.0695 8.73907 13.7052 8.93335C13.6229 8.97736 13.5309 9.00017 13.4375 8.99973Z" fill="#43A047"/>
</svg>