<svg xmlns="http://www.w3.org/2000/svg" width="37" height="36" viewBox="0 0 37 36" fill="none">
  <path d="M7.95897 11.5201H29.0262L28.479 15.8401H8.50617L7.95897 11.5201ZM6.97977 10.0801H30.0198C30.423 10.0801 30.7398 9.76334 30.7398 9.36014V6.48014C30.7398 6.07694 30.423 5.76014 30.0198 5.76014H29.2998V3.60014C29.3008 3.49648 29.2794 3.39381 29.2371 3.29917C29.1948 3.20453 29.1325 3.12014 29.0546 3.05178C28.9767 2.98342 28.8849 2.93269 28.7855 2.90307C28.6862 2.87344 28.5816 2.86562 28.479 2.88014L18.4998 4.32014H8.41977C8.01657 4.32014 7.69977 4.63694 7.69977 5.04014V5.76014H6.97977C6.57657 5.76014 6.25977 6.07694 6.25977 6.48014V9.36014C6.25977 9.76334 6.57657 10.0801 6.97977 10.0801ZM9.94617 27.3601L10.5942 32.4865C10.6374 32.8465 10.9398 33.1201 11.3142 33.1201H25.7142C26.0742 33.1201 26.3766 32.8465 26.4342 32.4865L27.0822 27.3601H9.94617ZM9.77337 25.9201H27.2406L28.3206 17.2801H8.67897L9.75897 25.9201H9.77337Z" fill="#00AEEF"/>
</svg>