<svg width="36" height="36" viewBox="0 0 36 36" fill="none" xmlns="http://www.w3.org/2000/svg">
    <g clip-path="url(#clip0_4054_4470)">
    <path d="M5.50739 4.24817H5.50436C5.33668 4.24781 5.17059 4.28067 5.01568 4.34485C4.86077 4.40903 4.72011 4.50327 4.60181 4.62211C4.48121 4.7418 4.38559 4.88427 4.3205 5.04122C4.25541 5.19818 4.22216 5.3665 4.22266 5.53642V24.8535C4.22266 25.5618 4.80121 26.1395 5.51248 26.1413C8.51104 26.1485 13.5348 26.7735 17.0005 30.4003V10.1844C17.0005 9.94431 16.9392 9.71873 16.8234 9.53207C13.9789 4.9512 8.51274 4.2552 5.50739 4.24817ZM31.7784 24.8535V5.5363C31.7784 5.1906 31.6437 4.86587 31.3992 4.62199C31.2809 4.50318 31.1403 4.40896 30.9854 4.34478C30.8305 4.2806 30.6645 4.24772 30.4968 4.24805H30.4937C27.4884 4.2552 22.0222 4.9512 19.1776 9.53207C19.0619 9.71873 19.0007 9.94431 19.0007 10.1844V30.4001C22.4664 26.7733 27.4901 26.1484 30.4887 26.1412C31.1998 26.1394 31.7784 25.5617 31.7784 24.8535Z" fill="#43A047"/>
    <path d="M34.712 8.70312H33.7779V24.8536C33.7779 26.6622 32.3044 28.137 30.493 28.1415C27.9495 28.1476 23.7558 28.6449 20.7858 31.4559C25.9225 30.1982 31.3376 31.0158 34.4236 31.7191C34.6127 31.7627 34.8091 31.7629 34.9983 31.7198C35.1875 31.6767 35.3644 31.5913 35.5159 31.4701C35.6673 31.3498 35.7895 31.1968 35.8734 31.0226C35.9572 30.8483 36.0005 30.6573 36 30.4639V9.99113C36.0001 9.28095 35.4222 8.70312 34.712 8.70312ZM2.22207 24.8536V8.70312H1.288C0.577941 8.70312 0 9.28095 0 9.99113V30.4636C0 30.8575 0.176485 31.2243 0.484123 31.4697C0.635561 31.591 0.812507 31.6764 1.00168 31.7196C1.19085 31.7627 1.38733 31.7624 1.57637 31.7187C4.66244 31.0153 10.0776 30.1979 15.2141 31.4556C12.2442 28.6446 8.05045 28.1474 5.50705 28.1414C3.69577 28.137 2.22207 26.6622 2.22207 24.8536Z" fill="#43A047"/>
    </g>
    <defs>
    <clipPath id="clip0_4054_4470">
    <rect width="36" height="36" fill="white"/>
    </clipPath>
    </defs>
    </svg>
    