<svg xmlns="http://www.w3.org/2000/svg" width="67" height="60" viewBox="0 0 67 60" fill="none">
  <path d="M25.6895 20.7933C26.2461 19.9901 26.861 19.2193 27.4476 18.4374L30.7682 14.0104C31.3128 13.2838 31.9036 12.563 32.4075 11.8086C33.6875 13.5599 35.0035 15.286 36.3057 17.021C37.2519 18.2819 38.1794 19.5638 39.1517 20.8045L41.7343 17.3685C42.1441 16.8217 42.5415 16.2 43.0043 15.7013L50.0592 25.1077L52.2041 27.9674C52.671 28.5903 53.1215 29.2407 53.6466 29.8159C52.9018 29.7746 52.149 29.7974 51.4028 29.7976C49.6881 29.7981 47.9682 29.8296 46.2543 29.794C43.7324 29.841 41.2036 29.8049 38.681 29.8047C36.6896 29.8047 34.686 29.8531 32.6961 29.799C32.5852 29.7759 32.4741 29.76 32.3619 29.7443C31.8173 28.9773 31.2332 28.2321 30.6686 27.4794L27.4353 23.1716L26.2889 21.6438C26.0905 21.379 25.8312 21.0903 25.6895 20.7933Z" fill="#07A1DB"/>
  <path d="M43.0029 15.7012L50.0579 25.1076L52.2027 27.9673C52.6696 28.5903 53.1202 29.2406 53.6453 29.8158C52.9005 29.7745 52.1477 29.7973 51.4014 29.7975C49.6867 29.7981 47.9668 29.8295 46.253 29.7939C46.1747 29.7783 46.095 29.7798 46.0161 29.7678C45.9874 29.7635 45.891 29.7501 45.868 29.7332C45.6316 29.5596 44.6023 28.0744 44.3429 27.7292L39.1504 20.8044L41.733 17.3684C42.1428 16.8216 42.5402 16.1999 43.0029 15.7012Z" fill="#3FC8F3"/>
  <path d="M21.8089 15.6992C22.1854 16.1398 22.524 16.6267 22.8715 17.0908L24.6565 19.476C24.964 19.8866 25.3126 20.4659 25.6881 20.7941C25.8299 21.0911 26.0891 21.3798 26.2876 21.6447L27.4339 23.1724L30.6672 27.4802C31.2318 28.2329 31.8159 28.9781 32.3606 29.7452C32.4728 29.7608 32.5838 29.7767 32.6947 29.7998C31.007 29.8486 29.3055 29.8074 27.6165 29.8076L17.1636 29.7971L13.3945 29.796C12.6814 29.7944 11.9451 29.748 11.2363 29.8158C11.5807 29.284 11.9999 28.7797 12.3805 28.2725L14.5423 25.3903L21.8089 15.6992Z" fill="#0780C5"/>
  <path d="M43.5471 38.3539C43.6884 38.3445 43.83 38.3392 43.9716 38.3382C44.7781 38.3275 45.5403 38.6228 46.1158 39.1926C46.8165 39.8864 47.1376 40.8784 47.1333 41.8501C47.1287 42.8461 46.8111 43.839 46.0859 44.545C45.4793 45.1356 44.7115 45.42 43.8679 45.3974C43.0476 45.3755 42.4315 45.041 41.8783 44.4519C41.9266 44.9669 41.9004 45.4983 41.8991 46.0155L41.9027 47.6172C41.1739 47.5708 40.4185 47.5995 39.6875 47.6087C39.7254 46.3059 39.6965 44.9938 39.6968 43.69C39.6973 41.9643 39.7163 40.2361 39.6901 38.5106C40.3864 38.5192 41.0828 38.5172 41.7791 38.5047C41.7853 38.7851 41.7827 39.066 41.784 39.3464C42.3134 38.8124 42.7952 38.475 43.5471 38.3539ZM43.6765 43.5506C44.1254 43.4463 44.4672 43.2543 44.7186 42.859C44.9893 42.433 45.0643 41.8831 44.9513 41.3945C44.8517 40.9645 44.6092 40.5777 44.2273 40.3467C43.917 40.159 43.5729 40.111 43.2168 40.1453C42.7578 40.2424 42.3898 40.4446 42.1252 40.8426C41.8622 41.2381 41.7648 41.7524 41.8595 42.2175C41.9494 42.6589 42.2012 43.0658 42.5812 43.314C42.9248 43.5384 43.2757 43.5711 43.6765 43.5506Z" fill="#0780C5"/>
  <path d="M35.3484 38.3223C35.5068 38.3068 35.6654 38.3048 35.8244 38.3047C36.6182 38.3045 37.4487 38.4495 38.0279 39.0371C38.3605 39.3746 38.556 39.804 38.6714 40.2589C38.9698 41.4351 38.8456 43.9331 38.843 45.2318C38.175 45.2149 37.5061 45.2298 36.8378 45.2139C36.831 44.9616 36.8431 44.7078 36.8491 44.4555C36.7752 44.5481 36.6992 44.6375 36.6141 44.7203C36.1264 45.1947 35.5005 45.3826 34.8292 45.3731C34.0672 45.3624 33.4188 45.1179 32.8868 44.5691C32.6059 44.194 32.4622 43.8135 32.4554 43.3415C32.4479 42.8307 32.5932 42.3615 32.957 41.9935C33.8576 41.082 35.6041 41.0054 36.8164 41.0027C36.7695 40.7943 36.7254 40.5785 36.5991 40.4015C36.4189 40.1492 36.1633 40.0098 35.8614 39.9632C35.1104 39.8469 34.4833 40.1897 33.8972 40.6135C33.4989 40.2685 33.1158 39.8165 32.7763 39.4131C33.5672 38.7645 34.3246 38.4295 35.3484 38.3223ZM35.1859 43.8685C35.6388 43.8827 36.0849 43.881 36.4341 43.5461C36.7697 43.2244 36.8362 42.7376 36.8505 42.2955C36.6344 42.2965 36.41 42.2859 36.1951 42.3051C35.6845 42.3413 35.0192 42.3522 34.6526 42.767C34.5398 42.8946 34.4711 43.0548 34.48 43.227C34.4896 43.416 34.5943 43.5833 34.7402 43.6989C34.8692 43.8009 35.0278 43.8372 35.1859 43.8685Z" fill="#0780C5"/>
  <path d="M25.4133 38.5223C26.1455 38.4982 26.8828 38.5113 27.6156 38.5081C27.5781 39.308 27.6077 40.122 27.6054 40.9233C27.8012 40.9484 27.9946 40.9856 28.1886 41.022L29.1118 39.4986C29.3072 39.1759 29.5 38.7925 29.7591 38.5179C30.5583 38.5084 31.3647 38.553 32.1623 38.502C31.4817 39.5904 30.7767 40.6899 30.0405 41.7411C30.8388 42.3744 31.2763 42.9085 31.7081 43.8343C31.9051 44.2827 32.0466 44.7537 32.1897 45.2213C31.3906 45.2532 30.5791 45.2236 29.7787 45.2235C29.573 44.7153 29.4957 44.1808 29.2187 43.696C28.836 43.0263 28.3119 42.8171 27.6027 42.6214C27.6466 43.4871 27.5948 44.3658 27.6161 45.2338C26.8815 45.2219 26.1469 45.2189 25.4122 45.2248C25.3779 44.0401 25.3993 42.8488 25.3991 41.6636C25.3991 40.6183 25.3726 39.5663 25.4133 38.5223Z" fill="#0780C5"/>
  <path d="M13.7806 38.2876C13.8187 38.2839 13.8564 38.2819 13.8947 38.2815C14.9098 38.2723 15.9196 38.5395 16.657 39.27C17.3459 39.9529 17.6451 40.9287 17.6388 41.8832C17.6325 42.8297 17.2929 43.7489 16.6115 44.4169C15.8727 45.141 14.9157 45.4366 13.8966 45.42C12.6272 45.3992 11.8057 44.8819 10.9434 43.9923C11.4738 43.6473 11.9439 43.2098 12.4521 42.8329C12.572 42.9757 12.6932 43.1067 12.8302 43.2331C12.9612 43.3348 13.0964 43.4223 13.2488 43.4892C13.6821 43.6793 14.2375 43.7022 14.6777 43.5214C15.1471 43.3286 15.3279 42.9368 15.5149 42.4977C14.6523 42.4807 13.7894 42.5015 12.9267 42.4807C12.9082 42.0459 12.9171 41.6073 12.9149 41.172C13.7754 41.1139 14.6615 41.132 15.5236 41.1549C15.3791 40.8421 15.1976 40.5461 14.916 40.34C14.5558 40.0764 14.0734 40.0245 13.6419 40.0907C13.1098 40.1725 12.787 40.4806 12.479 40.8994C11.9988 40.4974 11.521 40.0923 11.0455 39.6847C11.8885 38.7462 12.5237 38.3967 13.7806 38.2876Z" fill="#0780C5"/>
  <path d="M19.8654 38.5214C20.7096 38.4775 21.5875 38.5059 22.4331 38.5224C22.7445 39.0936 22.9341 39.7753 23.1578 40.3884L24.2722 43.432C24.4902 44.0295 24.6887 44.6478 24.9453 45.2293C24.1514 45.2109 23.3479 45.2607 22.5561 45.2091C22.3838 44.8162 22.2591 44.3971 22.1199 43.9915L21.4638 42.1012C21.3497 41.7867 21.2431 41.4696 21.1438 41.1502C20.9748 41.5053 20.8503 41.8914 20.7135 42.2605C20.35 43.2423 20.0224 44.2604 19.5998 45.2174C18.8292 45.2794 18.0113 45.2247 17.2363 45.2247C17.696 43.8439 18.2899 42.4829 18.8144 41.1243C19.0374 40.5469 19.5786 38.9453 19.8654 38.5214Z" fill="#0780C5"/>
  <path d="M47.4333 38.5193C49.0681 38.4704 50.7194 38.5133 52.3558 38.5173C52.7465 38.5183 53.1386 38.5449 53.5286 38.5358C53.5799 39.0958 53.5733 39.6713 53.5413 40.2323C52.8539 40.2138 52.1652 40.2642 51.4777 40.2306C51.5532 41.1697 51.4958 42.1538 51.4952 43.0977C51.4935 43.8095 51.4817 44.523 51.5029 45.2345C50.767 45.208 50.0279 45.2298 49.2912 45.2188C49.2681 44.6199 49.2868 44.0133 49.2865 43.4134L49.2925 40.2369C48.6764 40.2523 48.0559 40.236 47.4395 40.2335C47.429 39.6623 47.4269 39.0908 47.4333 38.5193Z" fill="#0780C5"/>
</svg>