<svg width="36" height="36" viewBox="0 0 36 36" fill="none" xmlns="http://www.w3.org/2000/svg">
    <path d="M34.3125 28.125H1.6875C0.755519 28.125 0 28.8805 0 29.8125C0 30.7445 0.755519 31.5 1.6875 31.5H34.3125C35.2445 31.5 36 30.7445 36 29.8125C36 28.8805 35.2445 28.125 34.3125 28.125Z" fill="#00AEEF"/>
    <path d="M21.7834 8.35313C21.8745 8.01562 21.9375 7.66913 21.9375 7.3125C21.9375 5.14125 20.1712 3.375 18 3.375C15.8287 3.375 14.0625 5.14125 14.0625 7.3125C14.0625 7.67025 14.1244 8.01675 14.2166 8.35313C7.35638 10.0541 2.25 16.2461 2.25 23.625C2.25 24.3787 2.30625 25.1325 2.41875 25.875H33.5813C33.6938 25.1325 33.75 24.3787 33.75 23.625C33.75 16.2461 28.6436 10.0541 21.7834 8.35313ZM13.7205 14.4484C11.5624 15.4536 9.82796 17.1877 8.82225 19.3455C8.76122 19.4816 8.67371 19.6043 8.56484 19.7063C8.45596 19.8083 8.32789 19.8876 8.18807 19.9396C8.04825 19.9916 7.89947 20.0153 7.7504 20.0093C7.60134 20.0033 7.45495 19.9677 7.31977 19.9046C7.18459 19.8415 7.06332 19.7521 6.963 19.6417C6.86268 19.5313 6.78533 19.402 6.73545 19.2614C6.68557 19.1208 6.66415 18.9717 6.67244 18.8227C6.68073 18.6738 6.71857 18.5279 6.78375 18.3938C8.01312 15.7572 10.1322 13.6381 12.7688 12.4087C13.0373 12.2952 13.3394 12.2902 13.6115 12.3948C13.8837 12.4994 14.1046 12.7055 14.2279 12.9697C14.3512 13.2339 14.3672 13.5357 14.2726 13.8114C14.178 14.0872 13.98 14.3155 13.7205 14.4484ZM19.5548 7.95375C19.0429 7.90313 18.5243 7.875 18 7.875C17.4757 7.875 16.9571 7.90313 16.4452 7.95375C16.3595 7.75074 16.3144 7.53288 16.3125 7.3125C16.3125 6.38212 17.0696 5.625 18 5.625C18.9304 5.625 19.6875 6.38212 19.6875 7.3125C19.6875 7.53863 19.6369 7.7535 19.5548 7.95375Z" fill="#00AEEF"/>
    </svg>
    