<svg xmlns="http://www.w3.org/2000/svg" width="133" height="41" viewBox="0 0 133 41" fill="none">
  <g clipPath="url(#clip0_3250_18571)">
    <path d="M44.416 19.9172V6.32617H52.7314V7.32551C52.7314 8.32485 51.8846 9.1743 50.889 9.1743H47.752V12.0224H51.8846V12.9718C51.8846 14.0211 51.0381 14.8706 49.9927 14.8706H47.752V19.9172H44.416Z" fill="black"/>
    <path d="M57.8604 12.4722H59.3044C59.8522 12.4722 60.2505 12.3222 60.5492 12.0224C60.8478 11.7226 60.9973 11.3229 60.9973 10.7732C60.9973 10.0238 60.7485 9.52409 60.2007 9.32422C59.9021 9.1743 59.5038 9.12435 58.956 9.12435H57.8604V12.4722ZM54.5742 19.9172V6.32617H59.3044C60.4994 6.32617 61.3956 6.42611 61.9434 6.62597C62.7401 6.92578 63.3377 7.42544 63.7858 8.07503C64.234 8.77457 64.433 9.57404 64.433 10.5734C64.433 11.3229 64.234 12.0724 63.8855 12.772C63.5367 13.4715 63.0387 13.9712 62.3916 14.3209V14.3709C62.5411 14.5208 62.6902 14.8206 62.8896 15.1704L65.5286 19.9172H61.8438L59.4539 15.3203H57.9102V19.9172H54.5742Z" fill="black"/>
    <path d="M67.0234 19.9172V6.32617H75.4883V9.1743H70.3594V11.6227H74.4425V14.4708H70.3594V17.0691H75.7869V19.9172H67.0234Z" fill="black"/>
    <path d="M77.877 19.9172V6.32617H86.3916V9.1743H81.2129V11.6227H85.3458V14.4708H81.2129V17.0691H86.6404V19.9172H77.877Z" fill="black"/>
    <path d="M92.0677 17.0691H93.4121C94.5572 17.0691 95.5034 16.7194 96.1508 16.0198C96.7979 15.3203 97.1464 14.3709 97.1464 13.0718C97.1464 11.8226 96.7979 10.8232 96.1508 10.1736C95.5034 9.52409 94.6071 9.1743 93.462 9.1743H92.1176V17.0691H92.0677ZM88.7812 19.9172V6.32617H93.6111C95.7525 6.32617 97.4454 6.92578 98.6902 8.12498C99.9349 9.32422 100.582 10.9731 100.582 13.0718C100.582 15.2203 99.9349 16.8692 98.6902 18.0685C97.4454 19.2677 95.7525 19.8673 93.6111 19.8673H88.7812V19.9172Z" fill="black"/>
    <path d="M105.412 13.0216C105.412 14.1708 105.761 15.1702 106.458 15.9197C107.155 16.6692 108.001 17.0689 109.097 17.0689C110.142 17.0689 111.039 16.6692 111.736 15.9197C112.433 15.1702 112.781 14.1708 112.781 13.0216C112.781 11.9223 112.433 10.9729 111.736 10.2234C111.039 9.47392 110.192 9.12417 109.097 9.12417C108.051 9.12417 107.155 9.47392 106.458 10.2234C105.761 10.9729 105.412 11.9223 105.412 13.0216ZM101.977 13.0216C101.977 11.0229 102.624 9.37399 103.968 8.07485C105.313 6.77571 107.005 6.07617 109.047 6.07617C111.138 6.07617 112.831 6.72573 114.126 8.07485C115.47 9.42397 116.118 11.0729 116.118 13.0216C116.118 15.0703 115.47 16.7192 114.126 18.1183C112.781 19.4674 111.089 20.1669 109.047 20.1669C106.956 20.1669 105.263 19.4674 103.968 18.1183C102.624 16.7691 101.977 15.0703 101.977 13.0216Z" fill="black"/>
    <path d="M117.713 19.9172L118.808 6.32617H122.393L124.385 12.0724L125.082 14.3209H125.132C125.381 13.4215 125.63 12.672 125.829 12.0724L127.82 6.32617H131.406L132.501 19.9172H129.165L128.767 13.8212C128.717 13.5214 128.717 13.1717 128.717 12.772C128.717 12.3722 128.717 12.0724 128.717 11.8725V11.5228H128.667C128.368 12.4722 128.119 13.2216 127.92 13.8212L126.476 17.7687H123.638L122.194 13.8212L121.447 11.5228H121.397C121.447 12.3722 121.447 13.1217 121.397 13.8212L120.999 19.9172H117.713Z" fill="black"/>
    <path d="M17.6784 40.4527C17.6784 40.4527 0.5 35.3562 0.5 10.2726V0.628906H34.8566V10.2226C34.8566 34.4567 17.6784 40.4527 17.6784 40.4527Z" fill="#4FB84E"/>
    <path d="M27.5864 10.3217H13.7441V18.3165H27.5864V20.7149C27.5864 24.7623 26.4412 28.0101 20.3167 28.0101H13.7441V38.5533C16.0346 39.9523 17.6777 40.4521 17.6777 40.4521C17.6777 40.4521 34.8561 34.4557 34.8561 10.2218V2.97656C34.8561 7.02391 33.0636 10.2218 27.5864 10.3217Z" fill="#055532"/>
    <path d="M44.4668 33.6082V24.0645H48.4004C49.2967 24.0645 50.0435 24.3643 50.6411 24.9639C51.1889 25.5635 51.4875 26.3629 51.4875 27.3123C51.4875 28.2617 51.1889 29.0611 50.6411 29.7107C50.0933 30.3103 49.3465 30.6601 48.4004 30.6601H46.8072V33.6082H44.4668ZM46.8072 28.6614H47.9523C48.3506 28.6614 48.6492 28.5615 48.8485 28.3117C49.0475 28.0618 49.1472 27.762 49.1472 27.3623C49.1472 26.9625 49.0475 26.6627 48.8485 26.4129C48.6492 26.1631 48.3506 26.0631 48.0021 26.0631H46.8072V28.6614Z" fill="black"/>
    <path d="M51.7852 33.6082L55.0218 24.0645H57.4615L60.6981 33.6082H58.3079L57.7106 31.6095H54.7726L54.2252 33.6082H51.7852ZM55.3204 29.7107H57.2127L56.6649 27.8619L56.2666 26.213H56.2167C56.0672 26.9126 55.9679 27.4622 55.8184 27.8619L55.3204 29.7107Z" fill="black"/>
    <path d="M63.6858 33.6082V29.7107L60.5488 24.0645H63.1878L64.2834 26.3629L64.8309 27.7121H64.8807C65.0801 27.2124 65.2295 26.7627 65.4285 26.3629L66.4743 24.0645H69.1133L65.9763 29.7107V33.6082H63.6858Z" fill="black"/>
  </g>
  <defs>
    <clipPath id="clip0_3250_18571">
      <rect width="132" height="40" fill="white" transform="translate(0.5 0.628906)"/>
    </clipPath>
  </defs>
</svg>