<svg width="36" height="36" viewBox="0 0 36 36" fill="none" xmlns="http://www.w3.org/2000/svg">
    <path d="M14.0625 33.75H4.5C3.25912 33.75 2.25 32.7409 2.25 31.5V16.875C2.25 14.2087 2.99137 12.8813 3.7755 11.4761C4.41 10.3376 5.12888 9.05175 5.625 6.6375V6.1875H7.875V6.75C7.87537 6.82409 7.86783 6.89801 7.8525 6.9705C7.28662 9.801 6.42825 11.3378 5.73975 12.5719C5.38763 13.2019 5.085 13.7486 4.86562 14.3831C8.43637 15.3754 10.4771 12.8722 13.9635 13.6721C13.7825 13.2987 13.5893 12.9314 13.3841 12.5707C12.6956 11.3366 11.8372 9.79988 11.2714 6.96938C11.2569 6.89715 11.2498 6.82366 11.25 6.75V6.1875H13.5V6.6375C13.9961 9.05175 14.715 10.3387 15.3495 11.4761C16.1336 12.8813 16.875 14.2087 16.875 16.875V22.1062L14.3359 23.6295C14.2524 23.6794 14.1833 23.7501 14.1354 23.8347C14.0875 23.9193 14.0624 24.0149 14.0625 24.1121V33.75ZM5.625 1.125H13.5C13.7984 1.125 14.0845 1.24353 14.2955 1.4545C14.5065 1.66548 14.625 1.95163 14.625 2.25V3.375C14.625 3.67337 14.5065 3.95952 14.2955 4.1705C14.0845 4.38147 13.7984 4.5 13.5 4.5H5.625C5.32663 4.5 5.04048 4.38147 4.8295 4.1705C4.61853 3.95952 4.5 3.67337 4.5 3.375V2.25C4.5 1.95163 4.61853 1.66548 4.8295 1.4545C5.04048 1.24353 5.32663 1.125 5.625 1.125Z" fill="#43A047"/>
    <path d="M27 18L15.8389 24.6971C15.8141 24.7117 15.8243 24.75 15.8535 24.75H33.75C32.9996 21.0004 30.7496 18.7504 27 18ZM27.5625 22.5C27.2641 22.5 26.978 22.3815 26.767 22.1705C26.556 21.9595 26.4375 21.6734 26.4375 21.375C26.4375 21.0766 26.556 20.7905 26.767 20.5795C26.978 20.3685 27.2641 20.25 27.5625 20.25C27.8609 20.25 28.147 20.3685 28.358 20.5795C28.569 20.7905 28.6875 21.0766 28.6875 21.375C28.6875 21.6734 28.569 21.9595 28.358 22.1705C28.147 22.3815 27.8609 22.5 27.5625 22.5ZM15.75 26.4375V33.1875C15.75 33.3367 15.8093 33.4798 15.9148 33.5852C16.0202 33.6907 16.1633 33.75 16.3125 33.75H32.625C32.9234 33.75 33.2095 33.6315 33.4205 33.4205C33.6315 33.2095 33.75 32.9234 33.75 32.625V26.4375H15.75ZM20.25 31.5C19.9516 31.5 19.6655 31.3815 19.4545 31.1705C19.2435 30.9595 19.125 30.6734 19.125 30.375C19.125 30.0766 19.2435 29.7905 19.4545 29.5795C19.6655 29.3685 19.9516 29.25 20.25 29.25C20.5484 29.25 20.8345 29.3685 21.0455 29.5795C21.2565 29.7905 21.375 30.0766 21.375 30.375C21.375 30.6734 21.2565 30.9595 21.0455 31.1705C20.8345 31.3815 20.5484 31.5 20.25 31.5ZM28.6875 31.5C28.2398 31.4999 27.8105 31.3219 27.494 31.0052C27.1776 30.6885 26.9999 30.2591 27 29.8114C27.0001 29.3637 27.1781 28.9344 27.4948 28.6179C27.8115 28.3014 28.2409 28.1237 28.6886 28.1239C29.1363 28.124 29.5656 28.302 29.8821 28.6187C30.1986 28.9354 30.3763 29.3648 30.3761 29.8125C30.376 30.2602 30.198 30.6895 29.8813 31.006C29.5646 31.3224 29.1352 31.5001 28.6875 31.5Z" fill="#43A047"/>
    </svg>
    