<svg xmlns="http://www.w3.org/2000/svg" width="67" height="41" viewBox="0 0 67 41" fill="none">
  <path d="M20.1268 0.714844C9.28268 0.784135 0.5 9.61878 0.5 20.5148C0.5 31.4455 9.35197 40.2975 20.248 40.2975C25.3583 40.2975 30.0181 38.34 33.5346 35.1353C34.2622 34.477 34.9205 33.7668 35.5441 33.0219H31.4905C30.9535 32.3637 30.4512 31.6881 30.0181 30.9778H36.9992C37.4323 30.3022 37.8134 29.592 38.1425 28.8644H28.8575C28.5457 28.1889 28.2685 27.4959 28.026 26.7857H38.9567C39.615 24.8109 39.9787 22.6975 39.9787 20.5148C39.9787 19.0597 39.8228 17.6392 39.5283 16.2707H27.4543C27.6102 15.5605 27.8008 14.8676 28.0087 14.192H38.9394C38.6968 13.4644 38.4024 12.7542 38.0905 12.0786H28.8402C29.1693 11.3684 29.5504 10.6755 29.9661 9.99988H36.9472C36.4795 9.255 35.9772 8.54476 35.4228 7.8865H31.5425C32.1488 7.17626 32.8071 6.50067 33.5173 5.89437C30.0008 2.68965 25.3409 0.732165 20.2307 0.732165C20.2134 0.714842 20.1787 0.714844 20.1268 0.714844Z" fill="#931B1D"/>
  <path d="M66.5 20.5151C66.5 31.4458 57.6653 40.3151 46.7519 40.3151C35.8386 40.3151 27.0039 31.4632 27.0039 20.5324C27.0039 9.60174 35.8386 0.732447 46.7519 0.732447C57.648 0.715124 66.5 9.56709 66.5 20.5151Z" fill="#F16622"/>
  <path d="M66.5 20.7395C66.5 31.6702 57.6653 40.5395 46.7519 40.5395C35.8386 40.5395 27.0039 31.6875 27.0039 20.7568V20.7395C27.0039 9.80874 35.8386 0.939453 46.7519 0.939453C57.648 0.939453 66.5 9.79142 66.5 20.7395C66.5 20.7221 66.5 20.7221 66.5 20.7395Z" fill="#F7981D"/>
  <path d="M20.1268 0.939453C9.28268 1.00874 0.5 9.84339 0.5 20.7395C0.5 31.6702 9.35197 40.5395 20.248 40.5395C25.3583 40.5395 30.0181 38.582 33.5346 35.3773C34.2622 34.719 34.9205 34.0087 35.5441 33.2639H31.4905C30.9535 32.6056 30.4512 31.93 30.0181 31.2198H36.9992C37.4323 30.5442 37.8134 29.8339 38.1425 29.1064H28.8575C28.5457 28.4308 28.2685 27.7379 28.026 27.0276H38.9567C39.615 25.0528 39.9787 22.9395 39.9787 20.7568C39.9787 19.3017 39.8228 17.8812 39.5283 16.5127H27.4543C27.6102 15.8024 27.8008 15.1095 28.0087 14.4339H38.9394C38.6968 13.7064 38.4024 12.9961 38.0905 12.3206H28.8402C29.1693 11.6103 29.5504 10.9174 29.9661 10.2418H36.9472C36.4795 9.49693 35.9772 8.7867 35.4228 8.12843H31.5425C32.1488 7.41819 32.8071 6.7426 33.5173 6.1363C30.0008 2.93158 25.3409 0.974101 20.2307 0.974101C20.2134 0.939455 20.1787 0.939453 20.1268 0.939453Z" fill="#CB2026"/>
  <path d="M27.3509 25.7818L27.6107 23.9975C27.4721 23.9975 27.2469 24.0668 27.0737 24.0668C26.3462 24.0668 26.2595 23.6857 26.3115 23.3912L26.9005 19.7361H28.0091L28.269 17.7613H27.2123L27.4202 16.5314H25.3414C25.2895 16.5834 24.0942 23.4605 24.0942 24.292C24.0942 25.5393 24.7871 26.0936 25.7745 26.0763C26.554 26.0416 27.143 25.8337 27.3509 25.7818ZM28.0265 22.3519C28.0265 25.3314 29.9839 26.0416 31.6643 26.0416C33.206 26.0416 33.8816 25.6952 33.8816 25.6952L34.2454 23.6684C34.2454 23.6684 33.0674 24.1881 32.0107 24.1881C29.7587 24.1881 30.1572 22.5078 30.1572 22.5078H34.4359C34.4359 22.5078 34.7131 21.1393 34.7131 20.5849C34.7131 19.1991 34.0202 17.5015 31.7162 17.5015C29.5855 17.5015 28.0265 19.7708 28.0265 22.3519ZM31.7162 19.3897C32.8942 19.3897 32.6863 20.7235 32.6863 20.8275H30.3477C30.3477 20.6889 30.5729 19.3897 31.7162 19.3897ZM45.0202 25.7818L45.4013 23.4778C45.4013 23.4778 44.3619 23.9975 43.669 23.9975C42.1792 23.9975 41.5729 22.8542 41.5729 21.6243C41.5729 19.1298 42.8548 17.7613 44.2926 17.7613C45.3666 17.7613 46.2154 18.3676 46.2154 18.3676L46.5619 16.133C46.5619 16.133 45.28 15.6133 44.1887 15.6133C41.7635 15.6133 39.3902 17.7267 39.3902 21.6936C39.3902 24.3267 40.6721 26.0589 43.1839 26.0589C43.8942 26.0589 45.0202 25.7818 45.0202 25.7818ZM15.7965 17.5361C14.3587 17.5361 13.2501 18.0038 13.2501 18.0038L12.9383 19.8227C12.9383 19.8227 13.8564 19.4589 15.2249 19.4589C16.0044 19.4589 16.5761 19.5456 16.5761 20.1865C16.5761 20.5676 16.5068 20.7235 16.5068 20.7235C16.5068 20.7235 15.8832 20.6715 15.606 20.6715C13.7871 20.6715 11.8816 21.4511 11.8816 23.7897C11.8816 25.6432 13.1288 26.0589 13.9084 26.0589C15.3981 26.0589 16.0217 25.0889 16.0737 25.0889L16.0044 25.903H17.858L18.6895 20.0999C18.6895 17.6054 16.5414 17.5361 15.7965 17.5361ZM16.2469 22.2479C16.2816 22.6117 16.0217 24.2574 14.7572 24.2574C14.0989 24.2574 13.9257 23.755 13.9257 23.4605C13.9257 22.8889 14.2375 22.196 15.7792 22.196C16.143 22.196 16.1776 22.2479 16.2469 22.2479ZM20.6469 25.9897C21.1147 25.9897 23.8343 26.1109 23.8343 23.3046C23.8343 20.6889 21.3225 21.2086 21.3225 20.1519C21.3225 19.6322 21.7383 19.4589 22.4832 19.4589C22.7776 19.4589 23.921 19.5629 23.921 19.5629L24.1808 17.7093C24.1808 17.7093 23.4359 17.5534 22.2406 17.5534C20.6816 17.5534 19.1052 18.1771 19.1052 20.3078C19.1052 22.7156 21.7383 22.4731 21.7383 23.4952C21.7383 24.1708 21.0107 24.2227 20.4391 24.2227C19.4517 24.2227 18.5682 23.8936 18.5682 23.8936L18.291 25.7298C18.343 25.7471 18.88 25.9897 20.6469 25.9897ZM62.4469 15.8558L61.9965 18.6794C61.9965 18.6794 61.1997 17.5881 59.9698 17.5881C58.0469 17.5881 56.4359 19.9093 56.4359 22.5944C56.4359 24.3267 57.2847 26.007 59.0517 26.007C60.3162 26.007 61.0091 25.1235 61.0091 25.1235L60.9225 25.8684H62.9666L64.5776 15.8558H62.4469ZM61.4769 21.3645C61.4769 22.4731 60.9225 23.9629 59.7792 23.9629C59.017 23.9629 58.6706 23.3219 58.6706 22.3345C58.6706 20.7062 59.3981 19.6149 60.3335 19.6149C61.0784 19.6149 61.4769 20.1345 61.4769 21.3645ZM4.41544 25.8857L5.69733 18.3156L5.88788 25.8857H7.343L10.0454 18.3156L8.85009 25.8857H10.9981L12.6611 15.8558H9.33513L7.25639 22.0054L7.13513 15.8558H4.06899L2.38867 25.8857H4.41544ZM36.8091 25.903C37.4154 22.4212 37.5367 19.5802 38.9918 20.0999C39.2517 18.7487 39.4942 18.229 39.7713 17.6574C39.7713 17.6574 39.6328 17.6227 39.3729 17.6227C38.4375 17.6227 37.7273 18.9046 37.7273 18.9046L37.9178 17.7267H35.9603L34.6438 25.8857H36.8091V25.903ZM49.8879 17.5361C48.4501 17.5361 47.3414 18.0038 47.3414 18.0038L47.0296 19.8227C47.0296 19.8227 47.9477 19.4589 49.3162 19.4589C50.0958 19.4589 50.6674 19.5456 50.6674 20.1865C50.6674 20.5676 50.5981 20.7235 50.5981 20.7235C50.5981 20.7235 49.9745 20.6715 49.6973 20.6715C47.8784 20.6715 45.9729 21.4511 45.9729 23.7897C45.9729 25.6432 47.2202 26.0589 47.9997 26.0589C49.4895 26.0589 50.1304 25.0889 50.1477 25.0889L50.0784 25.903H51.932L52.7635 20.0999C52.7635 17.6054 50.6328 17.5361 49.8879 17.5361ZM50.3383 22.2479C50.3729 22.6117 50.1131 24.2574 48.8485 24.2574C48.1902 24.2574 48.0343 23.755 48.0343 23.4605C48.0343 22.8889 48.3462 22.196 49.8879 22.196C50.2343 22.196 50.269 22.2479 50.3383 22.2479ZM54.4611 25.903C55.0674 22.4212 55.1887 19.5802 56.6438 20.0999C56.9036 18.7487 57.1462 18.229 57.4233 17.6574C57.4233 17.6574 57.2847 17.6227 57.0249 17.6227C56.0895 17.6227 55.3792 18.9046 55.3792 18.9046L55.5698 17.7267H53.6123L52.2958 25.8857H54.4611V25.903Z" fill="white"/>
</svg>