<svg width="32" height="30" viewBox="0 0 32 30" fill="none" xmlns="http://www.w3.org/2000/svg">
    <path d="M30.6226 19.531C30.8764 19.4738 31.1025 19.3305 31.2625 19.1254C31.4225 18.9203 31.5064 18.666 31.5001 18.406V17.461C31.5001 16.5659 31.1445 15.7074 30.5116 15.0745C29.8786 14.4416 29.0202 14.086 28.1251 14.086H23.7826V16.1841C23.7926 16.258 23.7879 16.3331 23.7688 16.4052C23.7498 16.4772 23.7167 16.5448 23.6715 16.6041C23.6263 16.6634 23.5699 16.7132 23.5055 16.7507C23.4411 16.7882 23.3699 16.8126 23.296 16.8225C23.1468 16.8427 22.9958 16.8027 22.876 16.7115C22.7563 16.6202 22.6777 16.4852 22.6576 16.336C22.6182 16.2291 22.6576 14.086 22.6576 14.086H3.57758C3.11763 14.0583 2.65689 14.1252 2.22375 14.2824C1.79062 14.4395 1.39425 14.6838 1.05908 15C0.723915 15.3161 0.457044 15.6976 0.274914 16.1209C0.0927836 16.5441 -0.000748115 17.0002 8.208e-05 17.461V18.3947C-0.00318394 18.6652 0.0911145 18.9278 0.265702 19.1344C0.440289 19.341 0.683475 19.4778 0.950707 19.5197C1.51236 19.6109 2.02325 19.8989 2.39196 20.3323C2.76067 20.7656 2.96315 21.3161 2.96315 21.885C2.96315 22.454 2.76067 23.0045 2.39196 23.4378C2.02325 23.8712 1.51236 24.1592 0.950707 24.2504C0.683475 24.2923 0.440289 24.4291 0.265702 24.6357C0.0911145 24.8423 -0.00318394 25.1049 8.208e-05 25.3754V26.3035C8.208e-05 27.1986 0.355662 28.057 0.988597 28.69C1.62153 29.3229 2.47998 29.6785 3.37508 29.6785H22.6576C22.6576 29.6785 22.6238 27.5241 22.6576 27.4285C22.6946 27.316 22.7661 27.218 22.8621 27.1485C22.9581 27.079 23.0735 27.0416 23.192 27.0416C23.3104 27.0416 23.4259 27.079 23.5218 27.1485C23.6178 27.218 23.6893 27.316 23.7263 27.4285C23.7995 27.5972 23.7545 29.6785 23.7545 29.6785H28.1251C29.0202 29.6785 29.8786 29.3229 30.5116 28.69C31.1445 28.057 31.5001 27.1986 31.5001 26.3035V25.2966C31.4987 25.0423 31.4112 24.796 31.2518 24.5978C31.0925 24.3996 30.8707 24.2613 30.6226 24.2054C30.0964 24.0807 29.6277 23.7822 29.2923 23.358C28.9569 22.9338 28.7744 22.4089 28.7744 21.8682C28.7744 21.3274 28.9569 20.8025 29.2923 20.3784C29.6277 19.9542 30.0964 19.6556 30.6226 19.531ZM23.7826 24.7847C23.7826 24.9339 23.7233 25.077 23.6178 25.1825C23.5123 25.288 23.3693 25.3472 23.2201 25.3472C23.0709 25.3472 22.9278 25.288 22.8223 25.1825C22.7168 25.077 22.6576 24.9339 22.6576 24.7847V23.266C22.6576 23.1168 22.7168 22.9737 22.8223 22.8682C22.9278 22.7628 23.0709 22.7035 23.2201 22.7035C23.3693 22.7035 23.5123 22.7628 23.6178 22.8682C23.7233 22.9737 23.7826 23.1168 23.7826 23.266V24.7847ZM23.7826 20.4816C23.7826 20.6308 23.7233 20.7739 23.6178 20.8794C23.5123 20.9848 23.3693 21.0441 23.2201 21.0441C23.0709 21.0441 22.9278 20.9848 22.8223 20.8794C22.7168 20.7739 22.6576 20.6308 22.6576 20.4816V18.9516C22.6576 18.8024 22.7168 18.6594 22.8223 18.5539C22.9278 18.4484 23.0709 18.3891 23.2201 18.3891C23.3693 18.3891 23.5123 18.4484 23.6178 18.5539C23.7233 18.6594 23.7826 18.8024 23.7826 18.9516V20.4816ZM20.9026 12.961C20.6326 12.6854 20.087 12.1454 19.817 11.8754C19.711 11.7702 19.6512 11.6272 19.6507 11.478C19.6502 11.3287 19.709 11.1853 19.8141 11.0794C19.9193 10.9735 20.0623 10.9137 20.2115 10.9132C20.3608 10.9126 20.5042 10.9714 20.6101 11.0766L21.887 12.3535L24.3057 9.93474C24.8371 9.40037 25.1354 8.6774 25.1354 7.9238C25.1354 7.1702 24.8371 6.44723 24.3057 5.91286L23.8051 5.40661C23.6252 5.23676 23.3944 5.13094 23.1483 5.10552C22.9022 5.0801 22.6546 5.1365 22.4438 5.26599C22.0924 5.47679 21.6806 5.56419 21.2738 5.51432C20.8671 5.46444 20.4886 5.28016 20.1985 4.9907C19.9084 4.70124 19.7233 4.32318 19.6725 3.91652C19.6217 3.50987 19.7082 3.0979 19.9182 2.74599C20.0584 2.52667 20.1182 2.26552 20.0875 2.00704C20.0567 1.74857 19.9372 1.50876 19.7495 1.32849L19.2488 0.827862C18.7128 0.297489 17.9892 0 17.2351 0C16.481 0 15.7574 0.297489 15.2213 0.827862L12.797 3.24661L14.0626 4.54599C14.1678 4.65191 14.2265 4.79527 14.226 4.94454C14.2255 5.09381 14.1657 5.23675 14.0598 5.34192C13.9538 5.4471 13.8105 5.50589 13.6612 5.50536C13.512 5.50483 13.369 5.44503 13.2638 5.33911L11.987 4.06224L3.08821 12.9722L20.9026 12.961ZM17.342 8.60724C17.3943 8.55451 17.4565 8.51267 17.525 8.48411C17.5936 8.45555 17.6671 8.44085 17.7413 8.44085C17.8156 8.44085 17.8891 8.45555 17.9577 8.48411C18.0262 8.51267 18.0884 8.55451 18.1407 8.60724L19.0182 9.49036C19.123 9.59575 19.1818 9.73832 19.1818 9.88692C19.1818 10.0355 19.123 10.1781 19.0182 10.2835C18.9128 10.3883 18.7702 10.4471 18.6216 10.4471C18.473 10.4471 18.3305 10.3883 18.2251 10.2835L17.342 9.40036C17.2372 9.29497 17.1784 9.1524 17.1784 9.0038C17.1784 8.8552 17.2372 8.71263 17.342 8.60724ZM14.8726 6.13786C14.9249 6.08514 14.9871 6.04329 15.0556 6.01474C15.1242 5.98618 15.1977 5.97148 15.272 5.97148C15.3462 5.97148 15.4197 5.98618 15.4883 6.01474C15.5568 6.04329 15.619 6.08514 15.6713 6.13786L16.5488 7.01536C16.6548 7.12128 16.7143 7.26494 16.7143 7.41474C16.7143 7.56453 16.6548 7.70819 16.5488 7.81411C16.4429 7.92003 16.2993 7.97954 16.1495 7.97954C15.9997 7.97954 15.856 7.92003 15.7501 7.81411L14.8726 6.95349C14.8173 6.90094 14.7732 6.83769 14.7431 6.76758C14.713 6.69747 14.6975 6.62197 14.6975 6.54567C14.6975 6.46938 14.713 6.39388 14.7431 6.32377C14.7732 6.25366 14.8173 6.19041 14.8726 6.13786Z" fill="#00AEEF"/>
    </svg>
    