<svg xmlns="http://www.w3.org/2000/svg" width="64" height="41" viewBox="0 0 64 41" fill="none">
  <path d="M63.4999 38.1542C63.4999 39.4456 62.4542 40.4913 61.1628 40.4913H2.83657C1.54605 40.4913 0.5 39.4456 0.5 38.1542V3.10257C0.5 1.81204 1.54605 0.765625 2.83657 0.765625H61.1629C62.4543 0.765625 63.5 1.81204 63.5 3.10257L63.4999 38.1542Z" fill="white"/>
  <path d="M24.4439 12.269L17.4342 28.9957H12.859L9.4119 15.6483C9.19964 14.8251 9.01825 14.5256 8.38197 14.1761C7.33973 13.6125 5.62518 13.0838 4.11133 12.7546L4.21721 12.2691H11.5781C12.517 12.2691 13.361 12.8953 13.5732 13.9748L15.3959 23.6559L19.8978 12.2691L24.4439 12.269ZM42.3652 23.532C42.3855 19.1198 36.26 18.8796 36.304 16.9057C36.3159 16.3032 36.887 15.6656 38.1377 15.5046C38.7588 15.422 40.4679 15.3615 42.405 16.2507L43.1643 12.7054C42.1221 12.3271 40.7823 11.9648 39.1172 11.9648C34.8407 11.9648 31.83 14.2396 31.8046 17.4943C31.7766 19.9012 33.9525 21.2442 35.5939 22.0458C37.2793 22.8661 37.8428 23.3897 37.8369 24.1252C37.8258 25.2479 36.4922 25.7386 35.2482 25.7606C33.0723 25.7945 31.8102 25.1725 30.8022 24.7031L30.0189 28.3704C31.0284 28.8339 32.8976 29.2364 34.8322 29.2601C39.3773 29.26 42.3508 27.0095 42.3652 23.532ZM53.6587 28.9956H57.6616L54.1688 12.2688H50.4735C49.6431 12.2688 48.9431 12.7531 48.6313 13.4949L42.1422 28.9955H46.684L47.5856 26.4975H53.1374L53.6587 28.9956ZM48.8304 23.0693L51.1089 16.7888L52.4197 23.0693H48.8304ZM30.6276 12.269L27.0475 28.9956H22.7197L26.3006 12.2688H30.6276V12.269Z" fill="#393185"/>
</svg>