<svg width="1134" height="864" viewBox="0 0 1134 864" fill="none" xmlns="http://www.w3.org/2000/svg">
<path opacity="0.4" d="M931.832 237.827C908.487 223.533 888.786 204.01 874.286 180.8C810.594 78.3936 697.024 10.2188 567.49 10.2188C445.381 10.2188 337.443 70.8135 272.11 163.582C257.137 184.744 238.172 202.778 216.28 216.671C116.931 279.99 51.5938 391.913 53.8003 518.922C57.1425 711.094 215.798 865.282 408.079 863.489C442.443 863.198 476.578 857.859 509.388 847.643C570.804 828.489 635.937 825.241 699.124 837.32C719.488 841.204 740.175 843.153 760.906 843.139C941.784 843.139 1088.81 695.253 1087.76 514.464C1087.08 397.454 1024.87 295.016 931.832 237.827Z" fill="url(#paint0_linear_2500_30075)"/>
<path d="M529.645 676.895C529.645 676.895 592.961 459.388 675.348 335.882C757.735 212.376 846.398 174.971 846.398 174.971C846.398 174.971 804.823 230.08 778.799 304.602C752.775 379.125 746.638 458.772 705.558 530.876C643.446 639.954 529.645 676.895 529.645 676.895Z" fill="url(#paint1_linear_2500_30075)"/>
<path d="M822.777 339.76C822.777 339.76 762.516 377.753 726.896 430.86C691.277 483.968 680.94 556.762 651.203 593.49C651.203 593.49 701.763 564.685 721.932 533.767C742.101 502.848 744.154 461.718 756.151 432C766.558 406.188 792.466 370.743 822.777 339.76Z" fill="url(#paint2_linear_2500_30075)"/>
<path d="M1.60947 465.384C-17.1365 550.484 157.205 592.226 156.922 608.887C156.64 625.549 67.3225 613.984 85.1322 659.196C101.635 701.095 240.913 718.192 342.973 671.057C345.926 669.667 418.732 544.507 366.128 470.763C313.524 397.019 297.059 523.346 272.514 519.969C247.968 516.591 302.478 361.643 252.479 328.218C200.686 293.584 184.114 404.868 159.843 387.669C136.855 371.378 125.489 213.122 61.7877 233.323C59.3383 234.108 56.9532 235.081 54.6537 236.233H54.6258C53.3279 236.872 52.0114 237.586 50.6764 238.373C-22.9124 281.672 116.241 448.963 84.3395 455.213C52.4379 461.464 11.1123 422.256 1.60947 465.384Z" fill="url(#paint3_linear_2500_30075)"/>
<path d="M321.864 676.714C321.864 676.714 389.134 555.715 412.256 471.509C435.378 387.302 421.708 340.557 421.708 340.557C421.708 340.557 412.952 379.731 391.309 422.632C369.665 465.532 339.497 504.178 323.713 550.975C299.841 621.786 321.864 676.714 321.864 676.714Z" fill="url(#paint4_linear_2500_30075)"/>
<path d="M406.114 609.466C406.114 609.466 363.764 504.433 322.095 446.395C280.427 388.358 243.672 372.994 243.672 372.994C243.672 372.994 264.068 398.718 280.241 434.557C296.415 470.396 305.435 509.441 327.093 543.566C359.833 595.19 406.114 609.466 406.114 609.466Z" fill="url(#paint5_linear_2500_30075)"/>
<path d="M944.097 656.249C953.308 658.825 970.946 660.993 980.147 655.044C988.644 649.549 985.826 636.511 992.816 630.631C999.807 624.751 1024.48 629.325 1034.28 623.218C1045.89 615.976 1032.96 599.847 1043.7 596.043C1054.45 592.239 1083.96 595.747 1089.93 588.004C1095.9 580.262 1085.41 575.754 1101.52 563.67C1115.15 553.44 1133.24 540.114 1127.13 528.262C1120.62 515.627 1102.13 524.143 1090.82 532.256C1076.26 542.704 1074.63 523.861 1062.33 526.196C1051.2 528.304 1037.41 561.474 1028.08 565.028C1018.75 568.582 1008.56 558.018 994.619 565.222C980.676 572.427 985.548 595.826 977.157 602.187C968.767 608.549 957.174 599.314 945.205 608.322C933.236 617.329 944.097 656.249 944.097 656.249Z" fill="url(#paint6_linear_2500_30075)"/>
<path d="M917.269 675.333C938.624 669.059 976.089 651.601 986.908 628.536C996.897 607.223 975.282 585.024 981.809 564.758C988.336 544.492 1042.68 523.156 1054.47 499.039C1068.46 470.438 1023.04 454.559 1039.55 433.806C1056.07 413.054 1118.62 383.609 1120.83 360.98C1123.04 338.35 1096.79 342.386 1113.64 298.717C1127.9 261.738 1147.17 213.149 1120.49 197.293C1092.06 180.395 1066.08 219.997 1053.78 249.923C1037.94 288.482 1011.48 253.31 990.083 273.09C970.735 290.961 984.451 373.388 970.419 391.902C956.388 410.417 923.262 402.128 904.646 433.524C886.03 464.919 924.495 505.086 915.794 527.974C907.094 550.863 872.814 546.938 860.307 579.455C847.801 611.972 917.269 675.333 917.269 675.333Z" fill="url(#paint7_linear_2500_30075)"/>
<path d="M619.07 28.3671C589.018 -5.14114 412.262 -6.7767 377.532 13.6841C324.743 44.783 362.453 173.562 386.729 187.786C393.511 191.762 402.87 195.997 413.708 200.625C417.509 217.745 417.022 233.605 407.923 248.974C407.923 248.974 439.824 244.044 449.814 214.534C492.363 229.324 543.641 241.783 578.616 237.502C635.258 230.561 649.127 61.8754 619.07 28.3671Z" fill="url(#paint8_linear_2500_30075)"/>
<path d="M411.038 609.729H362.829V684.989H268.705V609.729H128.68V535.388L257.691 338.059H362.829V535.388H411.038V609.729ZM268.705 535.388V433.63L203.807 535.388H268.705Z" fill="url(#paint9_linear_2500_30075)"/>
<path d="M566.437 690.04C525.162 690.04 492.491 673.823 468.423 641.39C444.356 608.956 432.327 566.302 432.336 513.426C432.336 459.226 444.66 416.445 469.309 385.083C493.957 353.722 526.919 338.045 568.194 338.055C611.458 338.055 644.63 354.773 667.709 388.211C690.787 421.648 702.318 464.384 702.299 516.419C702.299 569.456 689.891 611.65 665.076 643.002C640.26 674.354 607.381 690.034 566.437 690.04ZM567.498 617.533C581.865 617.533 591.472 608.411 596.317 590.168C601.163 571.925 603.586 546.975 603.586 515.317C603.586 471.838 600.369 443.431 593.935 430.096C587.5 416.761 578.773 410.098 567.753 410.108C554.384 410.108 545.154 418.896 540.061 436.471C534.968 454.047 532.421 478.247 532.421 509.071C532.421 550.892 534.968 579.424 540.061 594.667C545.154 609.911 554.299 617.533 567.498 617.533Z" fill="url(#paint10_linear_2500_30075)"/>
<path d="M1012.84 609.729H964.63V684.989H870.529V609.729H730.48V535.388L859.491 338.059H964.63V535.388H1012.84V609.729ZM870.529 535.388V433.63L805.631 535.388H870.529Z" fill="url(#paint11_linear_2500_30075)"/>
<path d="M305.86 244.035L293.836 240.732L300.163 217.736L307.511 219.756L305.86 244.035Z" fill="#EFBC90"/>
<path d="M324.274 211.843C323.709 221.842 319.588 230.946 313.321 231.442C307.438 231.905 299.567 224.237 297.889 213.738C296.123 202.683 300.327 195.941 309.014 195.385C318.206 194.792 324.891 200.88 324.274 211.843Z" fill="#F4CAAB"/>
<path d="M308.072 211.477C310.005 207.831 313.839 206.876 316.741 206.552C319.643 206.227 324.348 207.52 324.922 205.426C325.497 203.332 324.306 195.585 312.439 193.564C301.694 191.711 294.972 197.734 292.293 205.454C289.975 212.186 293.902 219.924 299.27 218.89C304.637 217.857 305.731 215.893 308.072 211.477Z" fill="#03053E"/>
<path d="M307.513 214.692C307.772 216.471 306.78 218.083 305.297 218.301C303.814 218.519 302.404 217.249 302.149 215.47C301.895 213.691 302.882 212.078 304.365 211.865C305.849 211.652 307.258 212.917 307.513 214.692Z" fill="#F4CAAB"/>
<path d="M311.963 183.339C313.743 187.917 311.258 195.163 305.57 197.373C299.883 199.583 293.152 195.918 291.372 191.35C289.592 186.781 293.773 183.886 299.461 181.675C305.149 179.465 310.183 178.757 311.963 183.339Z" fill="#03053E"/>
<path d="M363.503 299.343C363.396 301.526 359.994 304.037 355.339 304.38C351.052 304.69 348.215 302.253 348.192 300.043C348.145 295.109 363.67 295.961 363.503 299.343Z" fill="#EFBC90"/>
<path d="M368.51 323.502L367.644 323.34L305.662 311.881L294.759 309.861L292.043 333.329L303.122 333.853L356.894 336.396L335.107 388.656L334.073 391.144L338.607 393.368L339.942 391.028L372.942 333.074C373.298 332.444 373.549 331.76 373.684 331.05C373.994 329.364 373.624 327.623 372.655 326.209C371.686 324.795 370.196 323.821 368.51 323.502Z" fill="#EFBC90"/>
<path d="M374.517 326.74L373.729 326.592L304.962 313.938L294.059 311.932L291.227 335.237L302.292 335.9L366.456 339.759L369.975 405.961L370.118 408.652H375.217L375.38 405.965L379.723 333.361C379.816 331.812 379.337 330.282 378.378 329.062C377.419 327.842 376.045 327.016 374.517 326.74Z" fill="#EFBC90"/>
<path d="M313.812 306.4C321.692 319.063 368.39 314.68 375.121 323.979C384.1 336.378 347.202 384.31 347.202 384.31L334.922 377.457C334.922 377.457 353.733 343.56 352.973 341.15C352.013 338.065 300.744 345.385 286.87 333.681C276.121 324.572 281.419 306.4 281.419 306.4H313.812Z" fill="url(#paint12_linear_2500_30075)"/>
<path d="M310.155 306.4C317.011 321.954 372.734 316.209 380.638 329.771C387.016 340.719 380.466 396.287 380.466 396.287L365.725 395.884C365.725 395.884 365.804 348.596 362.916 345.381C360.798 343.022 301.635 348.471 286.894 337.916C274.253 328.877 281.442 306.41 281.442 306.41L310.155 306.4Z" fill="url(#paint13_linear_2500_30075)"/>
<path d="M307.523 249.077L315.899 296.8L311.917 293.385L346.883 295.98L350.058 296.216L349.789 302.379L346.605 302.337L311.546 301.874C310.626 301.863 309.736 301.541 309.021 300.961C308.306 300.38 307.809 299.575 307.611 298.677L307.56 298.459L297.042 251.152L295.883 245.935L306.6 243.809L307.523 249.077Z" fill="#EFBC90"/>
<path d="M291.02 250.189C290.191 261.61 297.58 291.291 309.238 301.494C316.163 307.559 339.211 303.486 339.211 303.486L340.333 294.493C340.333 294.493 323.089 297.087 319.153 287.079C315.218 277.071 312.742 249.707 306.897 245.537C301.761 241.863 291.391 245.055 291.02 250.189Z" fill="url(#paint14_linear_2500_30075)"/>
<path d="M296.586 239.619C296.586 239.619 302.937 245.564 309.603 241.936C309.603 241.936 311.063 265.886 313.668 275.727C316.273 285.568 324.047 311.44 324.047 311.44L276.505 309.893C275.944 288.07 284.993 263.573 296.586 239.619Z" fill="#DBC6AF"/>
<path d="M294.387 237.586C294.387 237.586 270.556 270.812 273.991 307.197C273.991 307.197 271.808 314.249 297.632 314.119C323.457 313.99 325.037 310.478 325.037 310.478C317.509 290.767 311.886 268.555 309.601 241.955C309.601 241.955 299.95 241.997 294.387 237.586Z" fill="url(#paint15_linear_2500_30075)"/>
<path d="M302.049 256.512C298.573 261.956 295.18 267.632 292.041 273.335C290.475 276.189 288.968 279.067 287.577 281.958C286.194 284.768 284.986 287.662 283.962 290.622C283.725 291.336 283.526 292.012 283.345 292.712L282.807 295.029C282.474 296.599 282.154 298.179 281.88 299.782C281.296 302.984 280.786 306.227 280.318 309.48C279.391 315.994 278.594 322.583 277.926 329.125L277.602 332.294L271.418 331.882L271.562 328.704C271.863 321.99 272.285 315.341 272.846 308.641C273.138 305.296 273.472 301.946 273.889 298.578C274.093 296.891 274.352 295.195 274.593 293.481L275.057 290.905C275.242 289.978 275.46 289.052 275.701 288.176C276.673 284.792 277.856 281.473 279.243 278.237C280.568 275.068 281.992 271.978 283.466 268.92C286.437 262.808 289.561 256.901 292.941 250.952L295.583 246.318L304.937 252.031L302.049 256.512Z" fill="#F4CAAB"/>
<path d="M291.323 245.161C282.78 252.797 277.264 270.737 273.115 285.665C268.966 300.594 270.797 323.608 270.797 323.608L280.17 324.437C280.17 324.437 281.732 301.159 285.876 291.225C290.02 281.292 307.26 259.909 305.976 252.861C304.831 246.63 295.161 241.732 291.323 245.161Z" fill="url(#paint16_linear_2500_30075)"/>
<path d="M271.256 350.644C269.133 350.12 267.575 345.024 268.475 338.597C269.323 332.667 272.494 329.205 274.677 329.562C279.572 330.345 274.547 351.459 271.256 350.644Z" fill="#F4CAAB"/>
<path d="M277.539 342.451C278.489 342.307 279.342 339.814 279.152 336.501C278.976 333.448 277.701 331.516 276.727 331.571C274.558 331.697 276.065 342.678 277.539 342.451Z" fill="#F4CAAB"/>
<path d="M394.751 411.419L390.894 410.733L376.783 405.275V405.387C376.783 405.387 376.612 407.805 373.682 408.259C372.267 408.539 370.799 408.341 369.51 407.694C369.426 407.596 369.315 407.525 369.19 407.49C368.263 407.49 367.484 409.033 367.484 410.933C367.482 411.51 367.558 412.086 367.712 412.642V415.283H395.817V412.61C395.816 412.315 395.707 412.031 395.511 411.811C395.314 411.592 395.044 411.452 394.751 411.419Z" fill="white"/>
<path d="M351.388 407.666L348.769 404.751L341.009 391.778L340.939 391.87C340.939 391.87 339.317 393.668 336.726 392.223C335.446 391.576 334.418 390.521 333.805 389.225C333.801 389.097 333.757 388.974 333.68 388.873C332.938 388.294 331.385 389.035 330.217 390.531C329.859 390.987 329.564 391.488 329.341 392.023L327.719 394.104L349.867 411.391L351.513 409.287C351.698 409.05 351.789 408.752 351.765 408.452C351.742 408.152 351.607 407.871 351.388 407.666Z" fill="white"/>
<path d="M359.606 295.428C359.333 294.502 356.746 294.001 353.492 294.641C350.488 295.234 348.75 296.763 348.935 297.717C349.362 299.849 360.023 296.856 359.606 295.428Z" fill="#EFBC90"/>
<path d="M385.54 268.096C384.997 267.925 384.408 267.975 383.901 268.235C383.394 268.495 383.01 268.945 382.833 269.486L374.392 296.169H349.119C348.828 296.156 348.537 296.201 348.264 296.304C347.991 296.406 347.741 296.562 347.53 296.763C347.32 296.964 347.152 297.206 347.037 297.474C346.922 297.742 346.863 298.03 346.863 298.321C346.863 298.613 346.922 298.901 347.037 299.169C347.152 299.437 347.32 299.679 347.53 299.88C347.741 300.081 347.991 300.237 348.264 300.339C348.537 300.442 348.828 300.487 349.119 300.474H376.005C376.524 300.474 377.026 300.287 377.418 299.946C377.81 299.605 378.065 299.135 378.137 298.62L386.945 270.82C387.032 270.549 387.066 270.264 387.043 269.98C387.019 269.696 386.94 269.419 386.81 269.166C386.679 268.913 386.5 268.688 386.282 268.504C386.064 268.32 385.812 268.182 385.54 268.096Z" fill="url(#paint17_linear_2500_30075)"/>
<path d="M374.402 296.169H375.742L383.937 269.949H382.695L374.402 296.169Z" fill="white"/>
<path d="M956.741 627.685C955.763 627.903 953.997 625.831 952.926 622.546C951.939 619.53 952.463 617.176 953.39 616.866C955.545 616.162 958.248 627.347 956.741 627.685Z" fill="#F4CAAB"/>
<path d="M893.816 486.41C904.367 478.853 917.068 484.005 918.755 494.916C920.943 509.08 918.176 520.488 921.699 529.879C927.155 544.447 925.644 558.754 925.644 558.754C911.246 539.142 896.37 547.259 888.156 527.554C885.514 521.224 883.706 493.651 893.816 486.41Z" fill="#03053E"/>
<path d="M898.012 534.123H910.606V510.039H902.911L898.012 534.123Z" fill="#EFBC90"/>
<path d="M888.712 497.849C886.58 507.732 888.156 517.703 894.127 519.867C899.726 521.892 909.424 516.531 913.893 506.755C918.574 496.464 916.289 488.777 907.996 485.905C899.189 482.87 891.044 487.012 888.712 497.849Z" fill="#F4CAAB"/>
<path d="M872.004 738.607L880.469 677.317L889.397 616.102L891.015 605.023L914.345 610.055L911.249 620.814L894.139 680.222L877.326 739.719L876.584 742.342L871.629 741.304L872.004 738.607Z" fill="#EFBC90"/>
<path d="M923.194 605.023L923.584 616.208L925.846 681.26L954.275 723.623L955.796 725.889L951.86 728.998L950.006 726.991L913.682 687.687C913.003 686.957 912.555 686.043 912.394 685.06L912.236 684.133L901.342 618.442L899.488 607.4L923.194 605.023Z" fill="#EFBC90"/>
<path d="M918.913 602.957H885.871L871.621 717.873L890.845 720.671L918.913 602.957Z" fill="url(#paint18_linear_2500_30075)"/>
<path d="M927.978 602.957H896.234C896.234 602.957 902.052 676.409 906.789 685.041C912.463 695.392 934.946 719.416 934.946 719.416L950.215 707.647C950.215 707.647 934.134 684.888 930.245 674.204C926.356 663.519 927.978 602.957 927.978 602.957Z" fill="url(#paint19_linear_2500_30075)"/>
<path d="M897.277 543.038C894.857 549.312 892.178 555.678 889.313 561.817C887.876 564.889 886.383 567.929 884.798 570.871C883.278 573.756 881.574 576.542 879.699 579.211C878.021 581.569 875.592 583.997 873.209 586.342C870.827 588.686 868.282 590.975 865.718 593.259C860.582 597.772 855.256 602.192 849.888 606.436L847.297 608.484L851.103 613.65L853.81 611.751C859.562 607.715 865.167 603.587 870.706 599.241C873.488 597.072 876.204 594.844 878.897 592.504C880.246 591.336 881.576 590.122 882.902 588.867C883.56 588.204 884.205 587.611 884.882 586.888C885.558 586.166 886.203 585.406 886.81 584.66C889.077 581.768 891.152 578.732 893.022 575.569C894.876 572.497 896.605 569.393 898.269 566.265C901.583 559.992 904.62 553.723 907.54 547.199L909.797 542.13L899.266 537.84L897.277 543.038Z" fill="#EFBC90"/>
<path d="M862.637 593.769L874.745 610.657C874.745 610.657 890.292 592.749 898.094 581.402C907.903 567.136 921.536 544.827 910.248 537.636C895.493 528.239 887.205 569.226 881.573 576.82C877.025 582.954 862.637 593.769 862.637 593.769Z" fill="url(#paint20_linear_2500_30075)"/>
<path d="M910.91 532.076C910.91 532.076 904.119 538.03 897.328 534.059C897.328 534.059 895.011 558.857 891.965 568.976C888.919 579.095 881.039 604.824 881.039 604.824L929.364 605.677C930.681 583.038 922.124 557.323 910.91 532.076Z" fill="#76D3F4"/>
<path d="M905.844 550.145C910.92 554.523 915.991 559.166 920.803 563.896C923.213 566.269 925.568 568.678 927.812 571.143C930.022 573.526 932.083 576.042 933.986 578.677C934.45 579.321 934.83 579.937 935.219 580.576L936.443 582.712C937.24 584.172 938.028 585.645 938.793 587.156C940.323 590.163 941.797 593.239 943.238 596.334C946.094 602.534 948.847 608.844 951.462 615.159L952.727 618.208L958.754 615.952L957.664 612.834C955.37 606.25 952.968 599.758 950.414 593.272C949.126 590.028 947.8 586.785 946.381 583.569C945.677 581.957 944.93 580.326 944.166 578.728L942.951 576.3C942.488 575.438 941.996 574.581 941.496 573.779C939.519 570.712 937.351 567.772 935.006 564.976C932.744 562.196 930.407 559.564 928.053 556.969C923.278 551.771 918.415 546.827 913.284 541.92L909.274 538.084L901.672 546.549L905.844 550.145Z" fill="#F4CAAB"/>
<path d="M912.613 529.189C912.613 529.189 936.212 564.463 931.405 602.086C931.405 602.086 933.435 609.476 906.661 608.47C879.886 607.465 878.352 603.768 878.352 603.768C886.83 583.576 893.412 560.724 896.685 533.207C896.685 533.207 906.693 533.573 912.613 529.189Z" fill="url(#paint21_linear_2500_30075)"/>
<path d="M936.561 604.383L956.725 599.342C956.725 599.342 947.524 577.76 939.838 566.339C930.173 551.975 914.431 531.097 903.589 538.946C889.422 549.204 924.504 571.982 929.501 580.007C933.534 586.494 936.561 604.383 936.561 604.383Z" fill="url(#paint22_linear_2500_30075)"/>
<path d="M963.15 629.093C965.004 627.791 965.189 623.176 962.686 618.566C960.396 614.312 956.549 612.955 954.588 614.145C950.221 616.805 960.267 631.103 963.15 629.093Z" fill="#F4CAAB"/>
<path d="M832.172 621.652C833.465 623.505 838.986 623.162 844.897 619.909C850.343 616.912 852.545 612.57 851.386 610.582C848.846 606.134 830.179 618.76 832.172 621.652Z" fill="#EFBC90"/>
<path d="M837.827 612.556C837.618 611.579 839.727 609.832 843.014 608.803C846.045 607.854 848.391 608.386 848.692 609.35C849.369 611.5 838.147 614.053 837.827 612.556Z" fill="#EFBC90"/>
<path d="M852.657 744.528L856.551 743.838L870.8 738.324V738.44C870.8 738.44 870.972 740.882 873.929 741.341C875.345 741.617 876.812 741.416 878.101 740.771C878.186 740.674 878.297 740.603 878.421 740.567C879.376 740.567 880.146 742.119 880.146 744.037C880.149 744.621 880.072 745.202 879.918 745.765V748.42H851.535V745.719C851.539 745.416 851.656 745.126 851.864 744.905C852.072 744.685 852.355 744.55 852.657 744.528Z" fill="#03053E"/>
<path d="M939.732 744.176L942.147 741.039L948.966 727.376L949.045 727.464C949.045 727.464 950.816 729.15 953.314 727.501C954.553 726.751 955.508 725.609 956.026 724.257C956.022 724.128 956.058 724 956.128 723.891C956.828 723.252 958.446 723.891 959.739 725.281C960.135 725.711 960.47 726.193 960.736 726.713L962.53 728.687L941.545 747.781L939.728 745.788C939.53 745.566 939.421 745.279 939.422 744.981C939.423 744.684 939.533 744.397 939.732 744.176Z" fill="#03053E"/>
<path d="M905.131 483.217C907.996 483.217 909.957 483.476 912.395 484.737C916.316 486.771 921.49 491.622 922.519 502.617C923.478 512.865 919.371 517.907 928.132 527.553C937.987 535.036 955.556 533.757 953.526 550.544C951.495 567.33 929.226 565.143 923.933 556.748C918.639 548.352 919.237 540.874 916.289 535.583C913.34 530.291 908.237 533.396 905.678 527.553C902.683 522.063 907.884 509.743 908.821 507.63C908.195 505.563 907.384 503.298 904.037 502.385C896.852 500.425 890.891 493.628 890.891 491.436C890.891 489.245 897.464 483.217 905.131 483.217Z" fill="#03053E"/>
<path d="M905.37 503.993C904.629 505.647 905.143 507.491 906.525 508.112C907.906 508.733 909.626 507.89 910.368 506.231C911.109 504.572 910.59 502.733 909.213 502.116C907.837 501.5 906.112 502.339 905.37 503.993Z" fill="#F4CAAB"/>
<path d="M450.956 584.116H437.258V557.924H445.63L450.956 584.116Z" fill="#EFBC90"/>
<path d="M461.079 544.665C463.396 555.419 461.686 566.261 455.192 568.61C449.101 570.815 438.532 564.982 433.692 554.353C428.593 543.163 431.087 534.8 440.108 531.687C449.685 528.379 458.538 532.882 461.079 544.665Z" fill="#F4CAAB"/>
<path d="M441.965 527.872C432.003 528.651 426.496 537.677 427.132 546.605C427.725 554.945 436.644 559.388 436.644 559.388C436.644 559.388 439.583 550.928 444.403 549.58C451.125 547.699 448.218 541.703 451.357 541.045C454.629 540.369 461.749 537.769 461.629 533.006C457.031 533.178 453.155 527.006 441.965 527.872Z" fill="#03053E"/>
<path d="M441.734 555.767C443.233 555.095 443.795 553.091 442.987 551.291C442.179 549.49 440.309 548.576 438.809 549.248C437.31 549.92 436.748 551.924 437.556 553.725C438.364 555.525 440.234 556.439 441.734 555.767Z" fill="#F4CAAB"/>
<path d="M441.965 549.428C441.965 549.428 442.716 561.048 444.936 565.464C446.874 569.305 455.31 573.276 459.909 564.152C459.909 564.152 455.273 565.125 455.783 563.156C456.404 560.84 461.193 560.812 461.193 560.812C461.45 560.8 461.695 560.705 461.894 560.542C462.093 560.38 462.234 560.157 462.296 559.908C462.547 558.63 461.921 556.558 461.921 556.558C461.921 556.558 455.584 558.815 452.854 558.815C449.757 558.815 446.948 556.633 444.329 549.428H441.965Z" fill="#03053E"/>
<path d="M481.98 805.627L469.39 735.233L460.837 700.544L452.225 665.794L449.3 653.979L424.602 661.855L429.07 673.184L442.073 706.164C446.402 717.182 450.797 728.191 455.052 739.25L476.204 807.031L477.089 809.858L482.471 808.546L481.98 805.627Z" fill="#EFBC90"/>
<path d="M436.477 654.256L435.494 666.391L429.931 735.126L377.93 759.488L375.246 760.748L377.207 765.868L380.044 765.011L439.675 746.997C440.795 746.657 441.803 746.024 442.595 745.162C443.386 744.301 443.932 743.243 444.176 742.099L444.389 741.108L459.557 669.907L462.092 658.004L436.477 654.256Z" fill="#EFBC90"/>
<path d="M420.98 646.756L467.146 655.717L481.576 793.628L466.089 795.75L420.98 646.756Z" fill="url(#paint23_linear_2500_30075)"/>
<path d="M418.716 655.957L465.289 649.471C465.289 649.471 458.151 735.813 444.216 746.822C436.466 752.928 393.397 763.247 393.397 763.247L388.762 750.028C388.762 750.028 421.21 736.906 423.904 732.848C426.842 728.432 418.716 655.957 418.716 655.957Z" fill="url(#paint24_linear_2500_30075)"/>
<path d="M451.91 588.926L482.439 632.53L476.877 630.983L512.881 617.319L516.126 616.077L518.726 622.337L515.537 623.773L480.432 639.601C479.511 640.015 478.478 640.108 477.498 639.863C476.518 639.619 475.649 639.051 475.032 638.252L474.879 638.053L442.43 595.89L438.852 591.257L448.526 584.158L451.91 588.926Z" fill="#EFBC90"/>
<path d="M436.003 597.696C440.49 609.447 461.642 635.551 477.992 640.291C487.698 643.108 508.739 628.351 508.739 628.351L505.675 618.88C505.675 618.88 489.724 629.472 481.149 621.336C472.573 613.2 457.378 587.137 449.627 585.696C442.822 584.422 433.987 592.414 436.003 597.696Z" fill="url(#paint25_linear_2500_30075)"/>
<path d="M438.194 578.584C438.194 578.584 445.379 584.881 452.564 580.683C452.564 580.683 455.021 606.921 458.234 617.629C461.446 628.337 470.907 656.461 470.907 656.461H418.665C417.274 632.507 426.309 605.295 438.194 578.584Z" fill="#DBC6AF"/>
<path d="M435.71 576.43C435.71 576.43 410.739 613.756 415.824 653.57C415.824 653.57 413.678 661.391 442.01 660.325C470.342 659.26 471.965 655.345 471.965 655.345C462.995 633.98 456.028 609.799 452.57 580.683C452.57 580.692 441.973 581.072 435.71 576.43Z" fill="url(#paint26_linear_2500_30075)"/>
<path d="M443.841 594.927C440.285 601.066 436.836 607.469 433.67 613.868C432.09 617.079 430.574 620.304 429.188 623.547C427.81 626.698 426.625 629.931 425.642 633.226C425.419 634.018 425.234 634.774 425.071 635.543L424.608 638.105C424.316 639.842 424.042 641.589 423.801 643.364C423.338 646.904 422.916 650.485 422.559 654.081C421.854 661.272 421.303 668.537 420.886 675.751L420.682 679.244L413.891 679.073V675.579C413.891 668.198 414.039 660.882 414.354 653.506C414.516 649.799 414.716 646.13 415.008 642.414C415.151 640.561 415.337 638.707 415.541 636.803L415.912 633.953C416.069 632.934 416.264 631.901 416.487 630.928C417.389 627.17 418.526 623.471 419.889 619.854C421.192 616.31 422.605 612.849 424.061 609.425C427.028 602.572 430.166 595.942 433.587 589.256L436.262 584.029L446.803 589.844L443.841 594.927Z" fill="#F4CAAB"/>
<path d="M431.522 583.009C422.516 591.813 417.333 611.736 413.504 628.328C409.675 644.92 412.786 670.074 412.786 670.074L423.109 670.538C423.109 670.538 423.702 644.92 427.744 633.823C431.787 622.726 449.694 598.429 447.941 590.756C446.416 583.968 435.583 579.043 431.522 583.009Z" fill="url(#paint27_linear_2500_30075)"/>
<path d="M531.831 613.548C532.623 615.818 529.888 619.9 524.85 622.351C520.214 624.603 516.042 623.408 515.087 621.17C512.964 616.175 530.612 610.041 531.831 613.548Z" fill="#EFBC90"/>
<path d="M422.502 689.614C423.508 689.285 423.981 686.431 423.179 682.877C422.437 679.601 420.708 677.739 419.665 677.975C417.333 678.499 420.949 690.124 422.502 689.614Z" fill="#F4CAAB"/>
<path d="M502.604 813.352C502.604 813.352 499.044 812.425 498.056 812.059C494.121 810.641 483.927 806.467 483.927 806.467C483.927 806.467 482.671 808.492 479.524 808.885C478.134 809.052 476.726 808.862 475.43 808.334C474.42 808.306 473.576 809.928 473.493 811.957C473.47 812.581 473.534 813.205 473.683 813.811L473.599 816.632L503.647 817.559L503.735 814.7C503.754 814.374 503.647 814.052 503.437 813.802C503.227 813.551 502.929 813.39 502.604 813.352Z" fill="#03053E"/>
<path d="M379.092 786.843C379.092 786.843 378.953 783.164 379.004 782.117C379.212 777.947 380.232 766.98 380.232 766.98C380.232 766.98 377.915 766.368 376.64 763.473C376.076 762.192 375.845 760.789 375.968 759.395C375.703 758.427 373.9 758.07 371.939 758.603C371.34 758.763 370.766 759.004 370.233 759.321L367.508 760.062L375.388 789.053L378.146 788.303C378.459 788.223 378.73 788.029 378.906 787.758C379.081 787.488 379.147 787.161 379.092 786.843Z" fill="#03053E"/>
<path d="M525.293 610.861C524.593 610.069 521.784 610.769 518.84 612.918C516.129 614.897 515.104 617.227 515.735 618.089C517.167 620.017 526.382 612.084 525.293 610.861Z" fill="#EFBC90"/>
<path d="M417.433 694.521C415.036 694.349 412.371 690.221 412.13 684.633C411.907 679.486 414.665 676.136 417.094 676.154C422.518 676.196 421.141 694.79 417.433 694.521Z" fill="#F4CAAB"/>
<path d="M552.812 120.802C552.812 116.877 555.464 114.125 559.177 114.125C562.89 114.125 565.435 116.877 565.435 120.802C565.435 124.62 562.997 127.478 559.07 127.478C555.362 127.478 552.812 124.62 552.812 120.802Z" fill="white"/>
<path d="M574.766 120.803C574.766 116.897 577.426 114.117 581.135 114.117C584.843 114.117 587.393 116.869 587.393 120.794C587.393 124.612 584.954 127.47 581.028 127.47C577.311 127.48 574.766 124.621 574.766 120.803Z" fill="white"/>
<path d="M596.723 120.802C596.723 116.877 599.374 114.125 603.087 114.125C606.8 114.125 609.345 116.877 609.345 120.802C609.345 124.62 606.902 127.478 602.981 127.478C599.268 127.478 596.723 124.62 596.723 120.802Z" fill="white"/>
<path d="M398.73 128.211C392.036 128.211 386.582 125.993 382.367 121.557C378.151 117.122 376.042 111.188 376.039 103.756C376.039 96.6514 378.048 90.7826 382.065 86.1492C386.083 81.5159 391.678 79.1992 398.85 79.1992C405.47 79.1992 410.867 81.3815 415.042 85.7461C419.217 90.1107 421.302 95.941 421.296 103.237C421.296 110.786 419.193 116.837 414.987 121.39C410.781 125.943 405.362 128.217 398.73 128.211ZM398.66 117.41C401.133 117.41 402.903 116.337 403.973 114.19C405.042 112.043 405.583 108.113 405.595 102.398C405.595 94.1294 403.376 89.9949 398.939 89.9949C394.148 89.9949 391.755 94.7101 391.758 104.14C391.758 112.987 394.059 117.41 398.66 117.41Z" fill="white"/>
<path d="M444.319 120.801C438.447 120.801 433.776 118.973 430.306 115.316C428.637 113.616 427.319 111.603 426.428 109.394C425.537 107.185 425.091 104.821 425.114 102.44C425.114 97.1421 426.92 92.7297 430.533 89.2022C434.146 85.6746 438.846 83.9093 444.634 83.9062C450.466 83.9062 455.154 85.6484 458.698 89.1326C462.243 92.6169 464.014 96.9831 464.011 102.231C464.011 107.525 462.217 111.944 458.629 115.487C455.041 119.03 450.271 120.801 444.319 120.801ZM444.528 112.369C446.691 112.369 448.009 111.249 448.482 109.01C448.967 106.701 449.208 104.349 449.2 101.99C449.2 98.6696 448.863 96.2773 448.19 94.8131C447.516 93.349 446.308 92.6169 444.565 92.6169C443.817 92.5956 443.081 92.8006 442.453 93.2049C441.824 93.6092 441.332 94.194 441.042 94.8826C440.3 96.3931 439.928 98.8781 439.925 102.338C439.925 106.403 440.309 109.092 441.079 110.404C441.411 111.022 441.911 111.534 442.521 111.881C443.131 112.229 443.826 112.398 444.528 112.369Z" fill="white"/>
<path d="M483.328 147.373H469.422V100.757H482.211V105.775C484.001 101.945 487.335 100.028 492.215 100.025C496.445 100.025 499.757 101.669 502.149 104.955C504.541 108.242 505.738 112.721 505.741 118.392C505.741 124.057 504.514 128.562 502.061 131.907C499.607 135.253 496.371 136.925 492.354 136.925C488.404 136.925 485.396 135.416 483.328 132.398V147.373ZM483.328 123.229C483.328 124.809 483.685 126.032 484.408 126.903C484.724 127.314 485.131 127.646 485.596 127.873C486.062 128.1 486.574 128.215 487.092 128.21C487.842 128.254 488.585 128.051 489.208 127.633C489.831 127.215 490.299 126.603 490.541 125.893C491.159 124.349 491.468 121.975 491.468 118.772C491.468 115.065 491.108 112.469 490.388 110.983C489.668 109.497 488.587 108.748 487.143 108.736C486.198 108.768 485.293 109.125 484.58 109.746C483.733 110.423 483.31 111.525 483.31 113.054L483.328 123.229Z" fill="white"/>
<path d="M508.141 116.433L519.117 114.936C519.736 117.488 522.222 118.765 526.576 118.768C530.176 118.768 531.978 118.071 531.981 116.678C531.969 116.365 531.862 116.062 531.675 115.81C531.488 115.558 531.23 115.368 530.933 115.265C530.238 114.932 528.588 114.589 525.983 114.237C518.779 113.239 514.283 111.677 512.493 109.552C510.767 107.593 509.813 105.074 509.809 102.463C509.809 98.84 511.321 95.9056 514.343 93.66C517.365 91.4144 521.327 90.2946 526.228 90.3008C534.829 90.3008 540.313 93.4005 542.68 99.5999L532.153 101.588C531.179 99.4995 529.123 98.4539 525.983 98.4508C524.493 98.4508 523.384 98.6547 522.654 99.0624C521.922 99.4655 521.556 99.8686 521.556 100.262C521.556 101.425 522.673 102.116 524.903 102.385C530.716 103.024 534.656 103.682 536.723 104.358C538.813 105.049 540.654 106.337 542.017 108.065C543.498 109.897 544.277 112.197 544.214 114.552C544.214 118.434 542.593 121.514 539.352 123.791C536.11 126.067 531.65 127.198 525.973 127.182C516.359 127.182 510.415 123.599 508.141 116.433Z" fill="white"/>
<path d="M1039.59 660.891C1036.81 660.891 1034 660.829 1031.15 660.706C995.76 659.158 962.635 648.256 946.039 641.899C905.409 626.326 832.428 621.434 831.695 621.387L832.367 611.041C835.422 611.236 907.644 616.077 949.753 632.22C965.759 638.354 997.679 648.863 1031.61 650.346C1067.4 651.907 1095.4 643.099 1114.85 624.158L1122.09 631.571C1102.09 651.05 1074.36 660.891 1039.59 660.891Z" fill="url(#paint28_linear_2500_30075)"/>
<path d="M745.467 614.145L744.23 623.59C744.137 624.295 744.635 624.942 745.34 625.034L790.393 630.931C791.099 631.023 791.746 630.526 791.838 629.821L793.075 620.376C793.168 619.67 792.671 619.023 791.965 618.931L746.912 613.035C746.207 612.942 745.56 613.439 745.467 614.145Z" fill="url(#paint29_linear_2500_30075)"/>
<path d="M748.916 587.783L747.679 597.229C747.587 597.934 748.084 598.581 748.789 598.673L793.842 604.57C794.548 604.662 795.195 604.165 795.287 603.46L796.525 594.014C796.617 593.309 796.12 592.662 795.414 592.57L750.362 586.673C749.656 586.581 749.009 587.078 748.916 587.783Z" fill="url(#paint30_linear_2500_30075)"/>
<path d="M778.68 577.276L770.28 641.396C770.069 643.005 771.203 644.479 772.812 644.69L786.684 646.506C788.293 646.716 789.769 645.583 789.98 643.974L798.38 579.854C798.59 578.246 797.457 576.771 795.847 576.56L781.976 574.745C780.366 574.534 778.891 575.667 778.68 577.276Z" fill="url(#paint31_linear_2500_30075)"/>
<path d="M816.482 582.573L798.371 580.201L790.027 643.678L808.143 646.05C813.924 646.806 819.769 645.236 824.392 641.684C829.015 638.133 832.037 632.892 832.795 627.114L835.404 607.19C836.156 601.419 834.585 595.585 831.037 590.97C827.49 586.355 822.255 583.335 816.482 582.573Z" fill="url(#paint32_linear_2500_30075)"/>
<path d="M147.302 712.654C124.736 712.654 101.35 710.254 76.9258 705.459L78.9237 695.265C205.524 720.109 277.069 674.485 340.19 634.231C360.091 621.54 378.883 609.553 398.074 600.759C419.898 590.761 439.251 586.257 458.994 586.572C500.306 587.249 536.212 626.59 537.724 628.272L530.015 635.222C529.676 634.847 495.587 597.558 458.823 596.96H457.07C417.97 596.96 384.474 618.32 345.772 643.001C314.867 662.702 279.827 685.04 236.828 698.842C208.162 708.063 178.513 712.654 147.302 712.654Z" fill="url(#paint33_linear_2500_30075)"/>
<path d="M541.188 620.317C540.601 619.852 539.928 619.506 539.207 619.301C538.486 619.095 537.731 619.034 536.986 619.12C536.242 619.206 535.521 619.438 534.866 619.802C534.211 620.167 533.634 620.657 533.169 621.244L524.978 631.59C524.04 632.776 523.61 634.286 523.784 635.787C523.958 637.289 524.721 638.661 525.905 639.601L531.769 644.235L547.038 624.941L541.188 620.317Z" fill="url(#paint34_linear_2500_30075)"/>
<path d="M588.775 632.359L548.632 683.073C547.625 684.346 547.841 686.193 549.113 687.2L560.085 695.876C561.358 696.882 563.206 696.667 564.213 695.395L604.356 644.68C605.363 643.408 605.147 641.56 603.874 640.554L592.903 631.878C591.63 630.871 589.782 631.086 588.775 632.359Z" fill="url(#paint35_linear_2500_30075)"/>
<path d="M574.258 621.332C571.994 619.541 569.399 618.214 566.621 617.425C563.844 616.637 560.939 616.403 558.071 616.738C555.203 617.072 552.429 617.968 549.908 619.374C547.386 620.78 545.167 622.668 543.376 624.932L530.906 640.685C527.289 645.256 525.637 651.076 526.312 656.864C526.988 662.653 529.936 667.936 534.508 671.553L548.832 682.881L588.586 632.67L574.258 621.332Z" fill="url(#paint36_linear_2500_30075)"/>
<defs>
<linearGradient id="paint0_linear_2500_30075" x1="53.7447" y1="436.861" x2="1087.77" y2="436.861" gradientUnits="userSpaceOnUse">
<stop stop-color="#FFE2E4"/>
<stop offset="1" stop-color="#A4B8EA"/>
</linearGradient>
<linearGradient id="paint1_linear_2500_30075" x1="572.609" y1="560.359" x2="787.865" y2="328.652" gradientUnits="userSpaceOnUse">
<stop stop-color="#FFE2E4"/>
<stop offset="1" stop-color="#A4B8EA"/>
</linearGradient>
<linearGradient id="paint2_linear_2500_30075" x1="719.272" y1="417.427" x2="801.011" y2="644.078" gradientUnits="userSpaceOnUse">
<stop stop-color="#FFE2E4"/>
<stop offset="1" stop-color="#A4B8EA"/>
</linearGradient>
<linearGradient id="paint3_linear_2500_30075" x1="-33.594" y1="469.074" x2="371.76" y2="460.666" gradientUnits="userSpaceOnUse">
<stop stop-color="#FFE2E4"/>
<stop offset="1" stop-color="#A4B8EA"/>
</linearGradient>
<linearGradient id="paint4_linear_2500_30075" x1="409.439" y1="466.834" x2="264.93" y2="627.216" gradientUnits="userSpaceOnUse">
<stop stop-color="#FFE2E4"/>
<stop offset="1" stop-color="#A4B8EA"/>
</linearGradient>
<linearGradient id="paint5_linear_2500_30075" x1="402.383" y1="588.731" x2="282.45" y2="444.746" gradientUnits="userSpaceOnUse">
<stop stop-color="#FFE2E4"/>
<stop offset="1" stop-color="#A4B8EA"/>
</linearGradient>
<linearGradient id="paint6_linear_2500_30075" x1="1075.93" y1="522.642" x2="966.857" y2="663.397" gradientUnits="userSpaceOnUse">
<stop stop-color="#FFE2E4"/>
<stop offset="1" stop-color="#A4B8EA"/>
</linearGradient>
<linearGradient id="paint7_linear_2500_30075" x1="1137.3" y1="433.491" x2="885.807" y2="435.077" gradientUnits="userSpaceOnUse">
<stop stop-color="#FFE2E4"/>
<stop offset="1" stop-color="#A4B8EA"/>
</linearGradient>
<linearGradient id="paint8_linear_2500_30075" x1="601.562" y1="26.3238" x2="377.956" y2="211.408" gradientUnits="userSpaceOnUse">
<stop stop-color="#A3B7E9"/>
<stop offset="1" stop-color="#B8C7EE"/>
</linearGradient>
<linearGradient id="paint9_linear_2500_30075" x1="128.68" y1="511.526" x2="411.038" y2="511.526" gradientUnits="userSpaceOnUse">
<stop stop-color="#FE958F"/>
<stop offset="1" stop-color="#F77C77"/>
</linearGradient>
<linearGradient id="paint10_linear_2500_30075" x1="432.331" y1="514.047" x2="702.294" y2="514.047" gradientUnits="userSpaceOnUse">
<stop stop-color="#FE958F"/>
<stop offset="1" stop-color="#F77C77"/>
</linearGradient>
<linearGradient id="paint11_linear_2500_30075" x1="730.48" y1="511.526" x2="1012.84" y2="511.526" gradientUnits="userSpaceOnUse">
<stop stop-color="#FE958F"/>
<stop offset="1" stop-color="#F77C77"/>
</linearGradient>
<linearGradient id="paint12_linear_2500_30075" x1="364.033" y1="354.68" x2="344.872" y2="347.08" gradientUnits="userSpaceOnUse">
<stop stop-color="#435AC2"/>
<stop offset="1" stop-color="#0F24A4"/>
</linearGradient>
<linearGradient id="paint13_linear_2500_30075" x1="357.224" y1="319.003" x2="340.054" y2="340.144" gradientUnits="userSpaceOnUse">
<stop stop-color="#435AC2"/>
<stop offset="1" stop-color="#0F24A4"/>
</linearGradient>
<linearGradient id="paint14_linear_2500_30075" x1="284.889" y1="263.751" x2="345.101" y2="289.533" gradientUnits="userSpaceOnUse">
<stop stop-color="#7A8FD8"/>
<stop offset="1" stop-color="#435AC2"/>
</linearGradient>
<linearGradient id="paint15_linear_2500_30075" x1="273.657" y1="275.853" x2="325.037" y2="275.853" gradientUnits="userSpaceOnUse">
<stop stop-color="#7A8FD8"/>
<stop offset="1" stop-color="#435AC2"/>
</linearGradient>
<linearGradient id="paint16_linear_2500_30075" x1="270.389" y1="284.234" x2="306.032" y2="284.234" gradientUnits="userSpaceOnUse">
<stop stop-color="#7A8FD8"/>
<stop offset="1" stop-color="#435AC2"/>
</linearGradient>
<linearGradient id="paint17_linear_2500_30075" x1="346.963" y1="284.234" x2="387.042" y2="284.234" gradientUnits="userSpaceOnUse">
<stop stop-color="#7A8FD8"/>
<stop offset="1" stop-color="#435AC2"/>
</linearGradient>
<linearGradient id="paint18_linear_2500_30075" x1="918.913" y1="661.814" x2="871.621" y2="661.814" gradientUnits="userSpaceOnUse">
<stop stop-color="#435AC2"/>
<stop offset="1" stop-color="#0F24A4"/>
</linearGradient>
<linearGradient id="paint19_linear_2500_30075" x1="950.215" y1="661.189" x2="896.239" y2="661.189" gradientUnits="userSpaceOnUse">
<stop stop-color="#435AC2"/>
<stop offset="1" stop-color="#0F24A4"/>
</linearGradient>
<linearGradient id="paint20_linear_2500_30075" x1="914.508" y1="573.451" x2="862.641" y2="573.451" gradientUnits="userSpaceOnUse">
<stop stop-color="#7A8FD8"/>
<stop offset="1" stop-color="#435AC2"/>
</linearGradient>
<linearGradient id="paint21_linear_2500_30075" x1="932.054" y1="568.879" x2="878.352" y2="568.879" gradientUnits="userSpaceOnUse">
<stop stop-color="#7A8FD8"/>
<stop offset="1" stop-color="#435AC2"/>
</linearGradient>
<linearGradient id="paint22_linear_2500_30075" x1="956.725" y1="570.81" x2="900.242" y2="570.81" gradientUnits="userSpaceOnUse">
<stop stop-color="#7A8FD8"/>
<stop offset="1" stop-color="#435AC2"/>
</linearGradient>
<linearGradient id="paint23_linear_2500_30075" x1="477.283" y1="724.772" x2="444.673" y2="721.368" gradientUnits="userSpaceOnUse">
<stop stop-color="#7A8FD8"/>
<stop offset="1" stop-color="#435AC2"/>
</linearGradient>
<linearGradient id="paint24_linear_2500_30075" x1="452.444" y1="709.273" x2="409.831" y2="703.87" gradientUnits="userSpaceOnUse">
<stop stop-color="#7A8FD8"/>
<stop offset="1" stop-color="#435AC2"/>
</linearGradient>
<linearGradient id="paint25_linear_2500_30075" x1="435.711" y1="613.102" x2="508.739" y2="613.102" gradientUnits="userSpaceOnUse">
<stop stop-color="#435AC2"/>
<stop offset="1" stop-color="#0F24A4"/>
</linearGradient>
<linearGradient id="paint26_linear_2500_30075" x1="415.142" y1="618.426" x2="471.964" y2="618.426" gradientUnits="userSpaceOnUse">
<stop stop-color="#435AC2"/>
<stop offset="1" stop-color="#0F24A4"/>
</linearGradient>
<linearGradient id="paint27_linear_2500_30075" x1="400.841" y1="635.801" x2="456.885" y2="616.298" gradientUnits="userSpaceOnUse">
<stop stop-color="#435AC2"/>
<stop offset="1" stop-color="#0F24A4"/>
</linearGradient>
<linearGradient id="paint28_linear_2500_30075" x1="831.691" y1="635.964" x2="1122.08" y2="635.964" gradientUnits="userSpaceOnUse">
<stop stop-color="#FFC1C2"/>
<stop offset="1" stop-color="#FE958F"/>
</linearGradient>
<linearGradient id="paint29_linear_2500_30075" x1="769.411" y1="616.512" x2="767.909" y2="627.993" gradientUnits="userSpaceOnUse">
<stop stop-color="#FFC1C2"/>
<stop offset="1" stop-color="#FE958F"/>
</linearGradient>
<linearGradient id="paint30_linear_2500_30075" x1="772.979" y1="589.25" x2="771.285" y2="602.187" gradientUnits="userSpaceOnUse">
<stop stop-color="#FFC1C2"/>
<stop offset="1" stop-color="#FE958F"/>
</linearGradient>
<linearGradient id="paint31_linear_2500_30075" x1="788.813" y1="576.728" x2="779.634" y2="646.854" gradientUnits="userSpaceOnUse">
<stop stop-color="#435AC2"/>
<stop offset="1" stop-color="#0F24A4"/>
</linearGradient>
<linearGradient id="paint32_linear_2500_30075" x1="818.35" y1="583.146" x2="810.175" y2="645.609" gradientUnits="userSpaceOnUse">
<stop stop-color="#7A8FD8"/>
<stop offset="1" stop-color="#435AC2"/>
</linearGradient>
<linearGradient id="paint33_linear_2500_30075" x1="543.708" y1="649.618" x2="78.2794" y2="649.618" gradientUnits="userSpaceOnUse">
<stop stop-color="#FFC1C2"/>
<stop offset="1" stop-color="#FE958F"/>
</linearGradient>
<linearGradient id="paint34_linear_2500_30075" x1="542.035" y1="620.73" x2="527.162" y2="639.537" gradientUnits="userSpaceOnUse">
<stop stop-color="#7A8FD8"/>
<stop offset="1" stop-color="#435AC2"/>
</linearGradient>
<linearGradient id="paint35_linear_2500_30075" x1="599.06" y1="635.376" x2="554.396" y2="691.855" gradientUnits="userSpaceOnUse">
<stop stop-color="#435AC2"/>
<stop offset="1" stop-color="#0F24A4"/>
</linearGradient>
<linearGradient id="paint36_linear_2500_30075" x1="573.067" y1="619.9" x2="533.537" y2="669.888" gradientUnits="userSpaceOnUse">
<stop stop-color="#7A8FD8"/>
<stop offset="1" stop-color="#435AC2"/>
</linearGradient>
</defs>
</svg>
