<svg width="36" height="36" viewBox="0 0 36 36" fill="none" xmlns="http://www.w3.org/2000/svg">
<path d="M17.9987 32C17.5572 32 17.1893 31.6508 16.8576 31.3386C15.8516 30.0516 7.29814 21.4577 6.07679 19.7103C3.97655 17.0278 3 14.4841 3 11.705C3 9.00529 3.71034 6.51587 5.29823 4.69444C6.90351 2.84921 8.75493 2 11.1521 2C12.9434 2 14.5848 2.43122 16.0282 3.61376C16.7872 4.24326 17.4511 4.97688 18 5.79233C18.5489 4.97688 19.2129 4.24326 19.9718 3.61376C21.4166 2.43122 23.0566 2 24.8479 2C27.2451 2 29.0952 2.84921 30.7018 4.69444C32.2897 6.5172 33 9.00662 33 11.705C33 14.4828 32.0221 17.0278 29.9232 19.7103C28.7032 21.4577 20.1484 30.0516 19.1438 31.3386C18.8093 31.6481 18.4374 32 17.9987 32Z" fill="#F04E69"/>
</svg>
