<svg width="36" height="36" viewBox="0 0 36 36" fill="none" xmlns="http://www.w3.org/2000/svg">
<path d="M9.9372 19.0043C11.5162 19.0043 12.7963 17.6571 12.7963 15.9953C12.7963 14.3335 11.5162 12.9863 9.9372 12.9863C8.35818 12.9863 7.07812 14.3335 7.07812 15.9953C7.07812 17.6571 8.35818 19.0043 9.9372 19.0043Z" fill="#F04E69"/>
<path d="M25.8005 19.0043C27.3799 19.0043 28.658 17.6611 28.658 15.9953C28.658 14.3295 27.3784 12.9863 25.799 12.9863C24.2195 12.9863 22.9414 14.3295 22.9414 15.9953C22.9414 17.6611 24.221 19.0043 25.8005 19.0043Z" fill="#F04E69"/>
<path d="M17.8669 21.268C19.4459 21.268 20.726 19.9208 20.726 18.259C20.726 16.5972 19.4459 15.25 17.8669 15.25C16.2879 15.25 15.0078 16.5972 15.0078 18.259C15.0078 19.9208 16.2879 21.268 17.8669 21.268Z" fill="#F04E69"/>
<path d="M18.3981 21.9707H17.2578C12.3119 21.9707 10.5523 32.2955 11.897 32.7695C11.9723 32.7967 12.0516 32.811 12.1317 32.8119C13.2402 32.8119 13.4674 29.6954 14.5244 27.3345C14.5347 27.3073 14.5532 27.2839 14.5773 27.2677C14.6015 27.2514 14.63 27.243 14.6591 27.2436C14.684 27.2439 14.7086 27.2485 14.7318 27.2573C14.7879 27.2754 14.8227 27.3557 14.8409 27.489C14.8409 27.489 13.8732 31.8593 14.4259 32.9073C14.8515 33.7144 16.225 34.0006 17.8968 34.0006C19.6898 34.0006 21.1269 33.8325 21.451 32.7059C21.7008 31.8381 21.1072 29.0018 20.9755 27.7782C20.9994 27.7616 21.026 27.7493 21.0542 27.7419C21.0744 27.7362 21.0953 27.7331 21.1163 27.7328C21.1446 27.7316 21.1726 27.7383 21.1972 27.7522C21.2218 27.7662 21.2421 27.7867 21.2556 27.8115C22.4853 30.0164 22.4671 32.8164 23.5135 32.8164C23.5993 32.8151 23.6844 32.7993 23.7649 32.7695C25.1036 32.2955 23.4045 21.9707 18.3981 21.9707Z" fill="#F04E69"/>
<path d="M26.3298 19.709H25.191C23.3905 19.709 21.9761 20.7963 20.9297 22.2834C23.0589 23.8371 24.1931 27.1747 24.5641 29.375C24.6822 30.0686 24.7973 31.0257 24.7155 31.8267C25.1214 31.7843 25.5 31.7389 25.815 31.7389C27.6322 31.7253 28.8088 31.321 29.4494 30.3321C29.9446 29.5749 29.1465 26.4826 28.886 25.518C28.9101 25.5012 28.9367 25.4884 28.9648 25.4801C29.0013 25.4675 29.041 25.4675 29.0775 25.4802C29.114 25.4928 29.1453 25.5173 29.1662 25.5498C30.5836 27.4912 30.7986 30.9711 32.1131 30.5077C33.4745 30.0338 31.1379 19.709 26.3298 19.709Z" fill="#F04E69"/>
<path d="M17.3422 12.3603C17.4679 12.4784 17.6072 12.6117 17.7753 12.6117C17.9434 12.6117 18.0782 12.4784 18.2084 12.3603C18.59 11.8651 21.8353 8.57447 22.2971 7.89756C23.0937 6.86781 23.4662 5.89106 23.4662 4.82496C23.4662 3.78915 23.1951 2.8336 22.5939 2.13398C22.3295 1.80076 21.9914 1.53339 21.6062 1.35288C21.221 1.17236 20.7992 1.08362 20.3739 1.09362C19.7027 1.06929 19.0454 1.28876 18.5234 1.71147C18.2356 1.95376 17.9837 2.23572 17.7753 2.5489C17.5664 2.23607 17.3146 1.95416 17.0272 1.71147C16.5061 1.28946 15.8499 1.07003 15.1797 1.09362C14.7548 1.08237 14.3331 1.16977 13.9476 1.34897C13.5622 1.52816 13.2235 1.79427 12.9582 2.1264C12.3525 2.82603 12.0859 3.78158 12.0859 4.81739C12.0859 5.87743 12.4569 6.86023 13.255 7.88999C13.7139 8.56084 16.9606 11.8576 17.3422 12.3603Z" fill="#F04E69"/>
<path d="M25.7344 5.0133C25.7344 5.12736 25.7797 5.23675 25.8603 5.31741C25.941 5.39806 26.0504 5.44337 26.1644 5.44337H26.8504C26.909 5.44685 26.9676 5.43833 27.0227 5.41832C27.0778 5.39832 27.1282 5.36726 27.1709 5.32705C27.2136 5.28685 27.2476 5.23834 27.2708 5.18452C27.294 5.13069 27.306 5.07268 27.306 5.01406C27.306 4.95543 27.294 4.89742 27.2708 4.8436C27.2476 4.78977 27.2136 4.74127 27.1709 4.70106C27.1282 4.66085 27.0778 4.62979 27.0227 4.60979C26.9676 4.58979 26.909 4.58126 26.8504 4.58474H26.1644C26.0506 4.58474 25.9415 4.62984 25.8609 4.71017C25.7803 4.7905 25.7348 4.8995 25.7344 5.0133Z" fill="#F04E69"/>
<path d="M24.9015 7.71791C24.8219 7.79865 24.7773 7.90744 24.7773 8.02078C24.7773 8.13411 24.8219 8.2429 24.9015 8.32365L25.3876 8.80823C25.4688 8.88419 25.5763 8.92562 25.6875 8.92376C25.7986 8.92191 25.9047 8.87692 25.9834 8.7983C26.062 8.71968 26.107 8.61358 26.1088 8.50241C26.1107 8.39124 26.0693 8.2837 25.9933 8.2025L25.5072 7.7164C25.4266 7.63633 25.3176 7.59151 25.204 7.5918C25.0904 7.59208 24.9816 7.63744 24.9015 7.71791Z" fill="#F04E69"/>
<path d="M25.5063 2.3112L25.9924 1.82661C26.0612 1.74417 26.0966 1.63899 26.0917 1.53175C26.0869 1.42451 26.0421 1.32297 25.9662 1.24706C25.8903 1.17115 25.7888 1.12638 25.6815 1.12153C25.5743 1.11669 25.4691 1.15212 25.3867 1.22087L24.9006 1.70546C24.8318 1.7879 24.7964 1.89308 24.8012 2.00032C24.8061 2.10755 24.8508 2.20911 24.9267 2.28501C25.0027 2.36092 25.1042 2.40569 25.2114 2.41054C25.3187 2.41538 25.4239 2.37995 25.5063 2.3112Z" fill="#F04E69"/>
<path d="M8.59804 5.44413H9.28555C9.39961 5.44413 9.50901 5.39882 9.58966 5.31816C9.67031 5.23751 9.71562 5.12812 9.71562 5.01406C9.71562 4.89999 9.67031 4.7906 9.58966 4.70995C9.50901 4.6293 9.39961 4.58398 9.28555 4.58398H8.59804C8.48398 4.58398 8.37459 4.6293 8.29393 4.70995C8.21328 4.7906 8.16797 4.89999 8.16797 5.01406C8.16797 5.12812 8.21328 5.23751 8.29393 5.31816C8.37459 5.39882 8.48398 5.44413 8.59804 5.44413Z" fill="#F04E69"/>
<path d="M9.94135 2.3112C9.97962 2.35708 10.027 2.39449 10.0806 2.42104C10.1341 2.44759 10.1925 2.46269 10.2522 2.46539C10.3119 2.46809 10.3715 2.45832 10.4272 2.4367C10.4829 2.41509 10.5335 2.38211 10.5758 2.33986C10.618 2.29762 10.651 2.24703 10.6726 2.19133C10.6942 2.13562 10.704 2.07603 10.7013 2.01634C10.6986 1.95666 10.6835 1.89819 10.6569 1.84466C10.6304 1.79113 10.593 1.74373 10.5471 1.70546L10.061 1.22087C9.97854 1.15212 9.87337 1.11669 9.76613 1.12153C9.65889 1.12638 9.55734 1.17115 9.48143 1.24706C9.40553 1.32297 9.36075 1.42451 9.35591 1.53175C9.35106 1.63899 9.3865 1.74417 9.45525 1.82661L9.94135 2.3112Z" fill="#F04E69"/>
<path d="M9.94154 7.71757L9.45543 8.20367C9.37948 8.28487 9.33805 8.39241 9.3399 8.50358C9.34176 8.61476 9.38674 8.72085 9.46537 8.79948C9.54399 8.8781 9.65009 8.92308 9.76126 8.92494C9.87243 8.92679 9.97997 8.88537 10.0612 8.80941L10.5473 8.32482C10.5932 8.28656 10.6306 8.23915 10.6571 8.18562C10.6837 8.1321 10.6988 8.07363 10.7015 8.01394C10.7042 7.95425 10.6944 7.89466 10.6728 7.83896C10.6512 7.78325 10.6182 7.73267 10.5759 7.69042C10.5337 7.64817 10.4831 7.61519 10.4274 7.59358C10.3717 7.57196 10.3121 7.56219 10.2524 7.56489C10.1927 7.56759 10.1343 7.58269 10.0807 7.60924C10.0272 7.63579 9.9798 7.6732 9.94154 7.71908V7.71757Z" fill="#F04E69"/>
<path d="M12.9855 24.2617C13.4431 23.5012 14.0395 22.8334 14.7436 22.2931C13.6957 20.7999 12.2768 19.7051 10.4701 19.7051H9.33136C4.27498 19.7051 2.1867 30.0299 3.53143 30.5023C4.84588 30.9657 4.99277 27.666 6.59797 25.0689C6.61605 25.0318 6.64756 25.003 6.68611 24.9884C6.72466 24.9738 6.76733 24.9744 6.80544 24.9901C6.86147 25.0083 6.89478 25.0886 6.91447 25.2233C6.91447 25.2233 5.31684 30.1343 6.1467 30.9778C7.20674 32.0606 8.81345 31.735 9.97192 31.735C10.3036 31.735 10.6291 31.7259 10.9411 31.7108C10.9047 30.9468 10.955 30.1813 11.091 29.4287C11.4196 27.5388 12.1071 25.6564 12.9855 24.2617Z" fill="#F04E69"/>
</svg>
