<svg width="37" height="36" viewBox="0 0 37 36" fill="none" xmlns="http://www.w3.org/2000/svg">
<path d="M8.82243 18.3079C9.31979 18.4017 9.83382 18.346 10.2995 18.1477C10.7652 17.9494 11.1616 17.6175 11.4386 17.1939C11.7157 16.7703 11.8609 16.2741 11.8558 15.7679C11.8508 15.2618 11.6958 14.7685 11.4104 14.3505C11.1251 13.9325 10.7221 13.6085 10.2526 13.4195C9.78306 13.2305 9.26802 13.185 8.77262 13.2887C8.27722 13.3924 7.8237 13.6407 7.46942 14.0022C7.11515 14.3637 6.87603 14.8221 6.78231 15.3195C6.65705 15.9863 6.80154 16.6755 7.18405 17.2358C7.56657 17.7961 8.15583 18.1817 8.82243 18.3079Z" fill="#F04E69"/>
<path d="M33.3488 28.3314C32.7757 23.4547 32.6457 22.4698 31.7557 19.7009C31.3805 18.6619 30.5162 17.9182 29.4379 18.1187C28.5032 18.2948 28.2783 19.3379 27.8231 20.0152C27.8231 20.0152 26.5227 21.7654 26.1975 21.8806C25.8724 21.9957 23.5885 21.0122 23.5885 21.0122L23.9515 20.2076C23.9656 20.1776 23.9735 20.1452 23.9749 20.1122C23.9763 20.0791 23.9712 20.0461 23.9597 20.0151C23.9482 19.9841 23.9307 19.9557 23.9081 19.9315C23.8855 19.9073 23.8584 19.8879 23.8282 19.8743L22.3381 19.197C22.3082 19.1831 22.2757 19.1753 22.2428 19.174C22.2098 19.1727 22.1768 19.1779 22.1459 19.1894C22.1149 19.2008 22.0865 19.2183 22.0623 19.2407C22.0381 19.2632 22.0186 19.2902 22.0049 19.3203L21.3275 20.8104C21.3137 20.8404 21.306 20.8729 21.3048 20.9059C21.3037 20.9389 21.3091 20.9718 21.3208 21.0028C21.3328 21.0334 21.3511 21.0613 21.3744 21.0846C21.3977 21.1079 21.4256 21.1262 21.4562 21.1382L22.6524 21.6869C22.5833 22.0485 23.0588 22.2287 23.5654 22.4793L26.0919 23.6294C26.7448 23.9153 27.4181 23.4709 27.4181 23.4709C27.4181 23.4709 27.2176 26.1803 26.9209 26.5731C26.6243 26.966 25.3333 27.7056 25.3333 27.7056C24.7914 27.9887 24.5435 28.3504 24.6559 28.9058C24.7275 29.1927 24.8929 29.4474 25.1258 29.6295C25.3587 29.8116 25.6458 29.9107 25.9415 29.911H32.4818C33.2119 29.911 33.7606 29.976 33.8039 29.4016C33.8267 29.1991 33.7967 28.9942 33.717 28.8067C33.6372 28.6192 33.5104 28.4555 33.3488 28.3314Z" fill="#F04E69"/>
<path d="M28.6411 17.7515C29.1356 17.6572 29.591 17.4185 29.9499 17.0655C30.3087 16.7125 30.5549 16.2611 30.6574 15.7682C30.7598 15.2754 30.714 14.7633 30.5255 14.2965C30.3371 13.8297 30.0145 13.4292 29.5986 13.1457C29.1827 12.8621 28.6921 12.7082 28.1888 12.7032C27.6854 12.6983 27.1919 12.8427 26.7705 13.1181C26.3492 13.3935 26.0189 13.7876 25.8214 14.2506C25.6239 14.7136 25.568 15.2248 25.6609 15.7195C25.7225 16.049 25.8486 16.363 26.0319 16.6436C26.2152 16.9241 26.452 17.1657 26.7289 17.3545C27.0058 17.5433 27.3173 17.6756 27.6454 17.7437C27.9736 17.8118 28.3119 17.8145 28.6411 17.7515Z" fill="#F04E69"/>
<path d="M18.2569 27.584H16.6192C16.5523 27.584 16.4882 27.6105 16.441 27.6578C16.3937 27.705 16.3672 27.7691 16.3672 27.8359V29.4683C16.3672 29.5351 16.3937 29.5992 16.441 29.6465C16.4882 29.6937 16.5523 29.7203 16.6192 29.7203H18.2569C18.3238 29.7203 18.3878 29.6937 18.4351 29.6465C18.4824 29.5992 18.5089 29.5351 18.5089 29.4683V27.8292C18.5071 27.7635 18.4798 27.7012 18.4327 27.6554C18.3857 27.6096 18.3226 27.584 18.2569 27.584Z" fill="#F04E69"/>
<path d="M21.3218 27.5762H19.6895C19.5503 27.5762 19.4375 27.689 19.4375 27.8281V29.4605C19.4375 29.5997 19.5503 29.7125 19.6895 29.7125H21.3218C21.461 29.7125 21.5738 29.5997 21.5738 29.4605V27.8281C21.5738 27.689 21.461 27.5762 21.3218 27.5762Z" fill="#F04E69"/>
<path d="M15.4879 22.1651L13.9978 21.4878C13.937 21.4603 13.8678 21.4579 13.8054 21.4813C13.7429 21.5046 13.6923 21.5518 13.6645 21.6124L13.1484 22.7883C13.1484 22.7883 10.8915 22.3534 10.4188 22.2193C9.94598 22.0852 9.55177 21.8712 9.37973 21.1058C9.14673 19.7633 8.67938 18.6674 7.8422 18.5469C6.76796 18.3464 5.79396 19.0725 5.24397 20.2375C4.43117 22.0392 3.74301 25.3093 3.76468 26.2901C3.80532 26.9674 4.42982 27.8655 5.39027 28.1053C4.5856 28.1432 3.14018 28.2936 3.28784 29.2066C3.4057 29.9287 4.07083 29.9057 4.80099 29.9057H10.7913C11.3995 29.9057 12.0376 29.9056 12.2882 29.2676C12.4534 28.8802 12.2882 28.0416 11.3399 27.577C11.3399 27.577 8.70918 26.1898 8.45721 25.992C8.20525 25.7943 8.90425 23.6214 8.90425 23.6214L8.97469 23.6905C9.12389 23.8356 9.31222 23.934 9.51655 23.9736C9.68182 24.0048 13.296 24.2811 13.464 24.2811C13.9097 24.2811 14.0858 24.3705 14.2389 23.9506L14.587 24.1104C14.6478 24.138 14.7169 24.1403 14.7794 24.117C14.8419 24.0936 14.8925 24.0464 14.9203 23.9858L15.5976 22.5024C15.6115 22.4724 15.6193 22.4399 15.6207 22.4068C15.622 22.3737 15.6168 22.3407 15.6053 22.3096C15.5939 22.2785 15.5764 22.25 15.5539 22.2257C15.5315 22.2014 15.5044 22.1817 15.4743 22.1678L15.4879 22.1651Z" fill="#F04E69"/>
<path d="M22.5929 25.6543H18.403C18.3699 25.6543 18.3372 25.6608 18.3067 25.6735C18.2762 25.6862 18.2486 25.7048 18.2253 25.7282C18.202 25.7516 18.1835 25.7794 18.171 25.8099C18.1585 25.8405 18.1522 25.8732 18.1523 25.9063V26.6811C18.1522 26.7141 18.1585 26.7469 18.171 26.7774C18.1835 26.808 18.202 26.8358 18.2253 26.8592C18.2486 26.8826 18.2762 26.9012 18.3067 26.9139C18.3372 26.9266 18.3699 26.9331 18.403 26.9331H22.5929C22.6597 26.9331 22.7238 26.9065 22.7711 26.8593C22.8183 26.812 22.8449 26.748 22.8449 26.6811V25.9063C22.8449 25.8394 22.8183 25.7753 22.7711 25.7281C22.7238 25.6808 22.6597 25.6543 22.5929 25.6543Z" fill="#F04E69"/>
<path d="M16.8778 24.9962H21.1111C21.1266 24.9963 21.1417 24.9913 21.1542 24.982C21.1667 24.9727 21.1758 24.9596 21.1802 24.9447C21.1851 24.9299 21.1851 24.9138 21.1802 24.899C21.1754 24.8841 21.1658 24.8712 21.1531 24.8621L19.1414 23.4316C19.0987 23.4011 19.0476 23.3848 18.9951 23.3848C18.9427 23.3848 18.8915 23.4011 18.8488 23.4316L16.8358 24.8621C16.8219 24.8706 16.8112 24.8835 16.8055 24.8987C16.7997 24.9139 16.7992 24.9306 16.8041 24.9462C16.8089 24.9617 16.8187 24.9752 16.8321 24.9845C16.8455 24.9938 16.8615 24.9984 16.8778 24.9976V24.9962Z" fill="#F04E69"/>
</svg>
